<?xml version="1.0" encoding="UTF-8" standalone="no"?><svg xmlns="http://www.w3.org/2000/svg" xmlns:xlink="http://www.w3.org/1999/xlink" clip-rule="evenodd" stroke-miterlimit="4.00" viewBox="0 0 1024 768"><desc>SVG generated by Keynote</desc><defs></defs><g transform="matrix(1.00, 0.00, -0.00, -1.00, 0.0, 768.0)"><path d="M 0.0 768.0 L 1024.0 768.0 L 1024.0 0.0 L 0.0 0.0 Z M 0.0 768.0 " fill="#FEFFFF"></path><text xml:space="preserve" font-family="Montserrat-Regular" font-size="29.8" fill="#000000" transform="matrix(1.00, 0.00, -0.00, -1.00, 414.0, 189.0)">F</text><text xml:space="preserve" font-family="Montserrat-Regular" font-size="29.8" fill="#000000" transform="matrix(1.00, 0.00, -0.00, -1.00, 431.1, 189.0)">o</text><text xml:space="preserve" font-family="Montserrat-Regular" font-size="29.8" fill="#000000" transform="matrix(1.00, 0.00, -0.00, -1.00, 449.7, 189.0)">l</text><text xml:space="preserve" font-family="Montserrat-Regular" font-size="29.8" fill="#000000" transform="matrix(1.00, 0.00, -0.00, -1.00, 458.5, 189.0)">l</text><text xml:space="preserve" font-family="Montserrat-Regular" font-size="29.8" fill="#000000" transform="matrix(1.00, 0.00, -0.00, -1.00, 467.3, 189.0)">o</text><text xml:space="preserve" font-family="Montserrat-Regular" font-size="29.8" fill="#000000" transform="matrix(1.00, 0.00, -0.00, -1.00, 485.3, 189.0)">w</text><text xml:space="preserve" font-family="Montserrat-Regular" font-size="29.8" fill="#000000" transform="matrix(1.00, 0.00, -0.00, -1.00, 511.9, 189.0)"> </text><text xml:space="preserve" font-family="Montserrat-Regular" font-size="29.8" fill="#000000" transform="matrix(1.00, 0.00, -0.00, -1.00, 519.5, 189.0)">a</text><text xml:space="preserve" font-family="Montserrat-Regular" font-size="29.8" fill="#000000" transform="matrix(1.00, 0.00, -0.00, -1.00, 537.0, 189.0)">l</text><text xml:space="preserve" font-family="Montserrat-Regular" font-size="29.8" fill="#000000" transform="matrix(1.00, 0.00, -0.00, -1.00, 545.7, 189.0)">o</text><text xml:space="preserve" font-family="Montserrat-Regular" font-size="29.8" fill="#000000" transform="matrix(1.00, 0.00, -0.00, -1.00, 564.3, 189.0)">n</text><text xml:space="preserve" font-family="Montserrat-Regular" font-size="29.8" fill="#000000" transform="matrix(1.00, 0.00, -0.00, -1.00, 584.1, 189.0)">g</text><text xml:space="preserve" font-family="Montserrat-Regular" font-size="29.8" fill="#000000" transform="matrix(1.00, 0.00, -0.00, -1.00, 603.1, 189.0)">:</text><text xml:space="preserve" font-family="Montserrat-Regular" font-size="29.8" fill="#000000" transform="matrix(1.00, 0.00, -0.00, -1.00, 609.6, 189.0)"> </text><text xml:space="preserve" font-family="Montserrat-Regular" font-size="29.8" fill="#000000" transform="matrix(1.00, 0.00, -0.00, -1.00, 617.3, 189.0)"> </text><text xml:space="preserve" font-family="Montserrat-Regular" font-size="52.1" fill="#000000" transform="matrix(1.00, 0.00, -0.00, -1.00, 163.0, 127.0)">h</text><text xml:space="preserve" font-family="Montserrat-Regular" font-size="52.1" fill="#000000" transform="matrix(1.00, 0.00, -0.00, -1.00, 197.8, 127.0)">t</text><text xml:space="preserve" font-family="Montserrat-Regular" font-size="52.1" fill="#000000" transform="matrix(1.00, 0.00, -0.00, -1.00, 219.0, 127.0)">t</text><text xml:space="preserve" font-family="Montserrat-Regular" font-size="52.1" fill="#000000" transform="matrix(1.00, 0.00, -0.00, -1.00, 240.2, 127.0)">p</text><text xml:space="preserve" font-family="Montserrat-Regular" font-size="52.1" fill="#000000" transform="matrix(1.00, 0.00, -0.00, -1.00, 275.6, 127.0)">:</text><text xml:space="preserve" font-family="Montserrat-Regular" font-size="52.1" fill="#000000" transform="matrix(1.00, 0.00, -0.00, -1.00, 287.0, 127.0)">/</text><text xml:space="preserve" font-family="Montserrat-Regular" font-size="52.1" fill="#000000" transform="matrix(1.00, 0.00, -0.00, -1.00, 304.2, 127.0)">/</text><text xml:space="preserve" font-family="Montserrat-Regular" font-size="52.1" fill="#000000" transform="matrix(1.00, 0.00, -0.00, -1.00, 321.5, 127.0)">b</text><text xml:space="preserve" font-family="Montserrat-Regular" font-size="52.1" fill="#000000" transform="matrix(1.00, 0.00, -0.00, -1.00, 356.9, 127.0)">i</text><text xml:space="preserve" font-family="Montserrat-Regular" font-size="52.1" fill="#000000" transform="matrix(1.00, 0.00, -0.00, -1.00, 371.7, 127.0)">t</text><text xml:space="preserve" font-family="Montserrat-Regular" font-size="52.1" fill="#000000" transform="matrix(1.00, 0.00, -0.00, -1.00, 392.9, 127.0)">.</text><text xml:space="preserve" font-family="Montserrat-Regular" font-size="52.1" fill="#000000" transform="matrix(1.00, 0.00, -0.00, -1.00, 404.2, 127.0)">l</text><text xml:space="preserve" font-family="Montserrat-Regular" font-size="52.1" fill="#000000" transform="matrix(1.00, 0.00, -0.00, -1.00, 419.6, 127.0)">y</text><text xml:space="preserve" font-family="Montserrat-Regular" font-size="52.1" fill="#000000" transform="matrix(1.00, 0.00, -0.00, -1.00, 447.3, 127.0)">/</text><text xml:space="preserve" font-family="Montserrat-Regular" font-size="52.1" fill="#000000" transform="matrix(1.00, 0.00, -0.00, -1.00, 464.5, 127.0)">j</text><text xml:space="preserve" font-family="Montserrat-Regular" font-size="52.1" fill="#000000" transform="matrix(1.00, 0.00, -0.00, -1.00, 479.4, 127.0)">s</text><text xml:space="preserve" font-family="Montserrat-Regular" font-size="52.1" fill="#000000" transform="matrix(1.00, 0.00, -0.00, -1.00, 503.9, 127.0)">c</text><text xml:space="preserve" font-family="Montserrat-Regular" font-size="52.1" fill="#000000" transform="matrix(1.00, 0.00, -0.00, -1.00, 532.2, 127.0)">o</text><text xml:space="preserve" font-family="Montserrat-Regular" font-size="52.1" fill="#000000" transform="matrix(1.00, 0.00, -0.00, -1.00, 564.7, 127.0)">n</text><text xml:space="preserve" font-family="Montserrat-Regular" font-size="52.1" fill="#000000" transform="matrix(1.00, 0.00, -0.00, -1.00, 599.3, 127.0)">f</text><text xml:space="preserve" font-family="Montserrat-Regular" font-size="52.1" fill="#000000" transform="matrix(1.00, 0.00, -0.00, -1.00, 617.1, 127.0)">-</text><text xml:space="preserve" font-family="Montserrat-Regular" font-size="52.1" fill="#000000" transform="matrix(1.00, 0.00, -0.00, -1.00, 636.3, 127.0)">c</text><text xml:space="preserve" font-family="Montserrat-Regular" font-size="52.1" fill="#000000" transform="matrix(1.00, 0.00, -0.00, -1.00, 664.6, 127.0)">o</text><text xml:space="preserve" font-family="Montserrat-Regular" font-size="52.1" fill="#000000" transform="matrix(1.00, 0.00, -0.00, -1.00, 697.1, 127.0)">-</text><text xml:space="preserve" font-family="Montserrat-Regular" font-size="52.1" fill="#000000" transform="matrix(1.00, 0.00, -0.00, -1.00, 716.3, 127.0)">s</text><text xml:space="preserve" font-family="Montserrat-Regular" font-size="52.1" fill="#000000" transform="matrix(1.00, 0.00, -0.00, -1.00, 740.8, 127.0)">l</text><text xml:space="preserve" font-family="Montserrat-Regular" font-size="52.1" fill="#000000" transform="matrix(1.00, 0.00, -0.00, -1.00, 756.1, 127.0)">i</text><text xml:space="preserve" font-family="Montserrat-Regular" font-size="52.1" fill="#000000" transform="matrix(1.00, 0.00, -0.00, -1.00, 770.9, 127.0)">d</text><text xml:space="preserve" font-family="Montserrat-Regular" font-size="52.1" fill="#000000" transform="matrix(1.00, 0.00, -0.00, -1.00, 806.4, 127.0)">e</text><text xml:space="preserve" font-family="Montserrat-Regular" font-size="52.1" fill="#000000" transform="matrix(1.00, 0.00, -0.00, -1.00, 837.1, 127.0)">s</text><g><clipPath id="clip-159"><path d="M 161.7 121.1 L 861.3 121.1 L 861.3 125.7 L 161.7 125.7 Z M 161.7 121.1 "></path></clipPath><g clip-path="url(#clip-159)"><path d="M 62.7 98.2 L 761.3 98.2 " fill="none" stroke="#000000" stroke-width="2.60" stroke-miterlimit="0.00" transform="matrix(1.00, 0.00, 0.00, -1.00, 100.0, 221.6)"></path></g></g><text xml:space="preserve" font-family="Montserrat-Regular" font-size="36.0" fill="#000000" transform="matrix(1.00, 0.00, -0.00, -1.00, 372.0, 635.0)">E</text><text xml:space="preserve" font-family="Montserrat-Regular" font-size="36.0" fill="#000000" transform="matrix(1.00, 0.00, -0.00, -1.00, 395.6, 635.0)">m</text><text xml:space="preserve" font-family="Montserrat-Regular" font-size="36.0" fill="#000000" transform="matrix(1.00, 0.00, -0.00, -1.00, 433.2, 635.0)">i</text><text xml:space="preserve" font-family="Montserrat-Regular" font-size="36.0" fill="#000000" transform="matrix(1.00, 0.00, -0.00, -1.00, 443.4, 635.0)">l</text><text xml:space="preserve" font-family="Montserrat-Regular" font-size="36.0" fill="#000000" transform="matrix(1.00, 0.00, -0.00, -1.00, 454.0, 635.0)">y</text><text xml:space="preserve" font-family="Montserrat-Regular" font-size="36.0" fill="#000000" transform="matrix(1.00, 0.00, -0.00, -1.00, 473.1, 635.0)"> </text><text xml:space="preserve" font-family="Montserrat-Regular" font-size="36.0" fill="#000000" transform="matrix(1.00, 0.00, -0.00, -1.00, 482.4, 635.0)">P</text><text xml:space="preserve" font-family="Montserrat-Regular" font-size="36.0" fill="#000000" transform="matrix(1.00, 0.00, -0.00, -1.00, 506.6, 635.0)">l</text><text xml:space="preserve" font-family="Montserrat-Regular" font-size="36.0" fill="#000000" transform="matrix(1.00, 0.00, -0.00, -1.00, 517.3, 635.0)">u</text><text xml:space="preserve" font-family="Montserrat-Regular" font-size="36.0" fill="#000000" transform="matrix(1.00, 0.00, -0.00, -1.00, 540.8, 635.0)">m</text><text xml:space="preserve" font-family="Montserrat-Regular" font-size="36.0" fill="#000000" transform="matrix(1.00, 0.00, -0.00, -1.00, 578.3, 635.0)">m</text><text xml:space="preserve" font-family="Montserrat-Regular" font-size="36.0" fill="#000000" transform="matrix(1.00, 0.00, -0.00, -1.00, 615.9, 635.0)">e</text><text xml:space="preserve" font-family="Montserrat-Regular" font-size="36.0" fill="#000000" transform="matrix(1.00, 0.00, -0.00, -1.00, 637.0, 635.0)">r</text><text xml:space="preserve" font-family="Montserrat-Regular" font-size="36.0" fill="#000000" transform="matrix(1.00, 0.00, -0.00, -1.00, 651.2, 635.0)"> </text><text xml:space="preserve" font-family="Montserrat-Regular" font-size="36.0" fill="#000000" transform="matrix(1.00, 0.00, -0.00, -1.00, 409.0, 588.0)">@</text><text xml:space="preserve" font-family="Montserrat-Regular" font-size="36.0" fill="#000000" transform="matrix(1.00, 0.00, -0.00, -1.00, 444.1, 588.0)">e</text><text xml:space="preserve" font-family="Montserrat-Regular" font-size="36.0" fill="#000000" transform="matrix(1.00, 0.00, -0.00, -1.00, 465.2, 588.0)">m</text><text xml:space="preserve" font-family="Montserrat-Regular" font-size="36.0" fill="#000000" transform="matrix(1.00, 0.00, -0.00, -1.00, 502.8, 588.0)">p</text><text xml:space="preserve" font-family="Montserrat-Regular" font-size="36.0" fill="#000000" transform="matrix(1.00, 0.00, -0.00, -1.00, 527.3, 588.0)">l</text><text xml:space="preserve" font-family="Montserrat-Regular" font-size="36.0" fill="#000000" transform="matrix(1.00, 0.00, -0.00, -1.00, 537.9, 588.0)">u</text><text xml:space="preserve" font-family="Montserrat-Regular" font-size="36.0" fill="#000000" transform="matrix(1.00, 0.00, -0.00, -1.00, 561.4, 588.0)">m</text><text xml:space="preserve" font-family="Montserrat-Regular" font-size="36.0" fill="#000000" transform="matrix(1.00, 0.00, -0.00, -1.00, 598.9, 588.0)">s</text><g><clipPath id="clip-160"><path d="M 407.6 583.0 L 615.4 583.0 L 615.4 586.8 L 407.6 586.8 Z M 407.6 583.0 "></path></clipPath><g clip-path="url(#clip-160)"><path d="M 122.0 88.5 L 328.8 88.5 " fill="none" stroke="#000000" stroke-width="1.80" stroke-miterlimit="0.00" transform="matrix(1.00, 0.00, 0.00, -1.00, 286.6, 673.3)"></path></g></g><image xlink:href="76A20E128958BCC7F24F7696BF47FF1B.png" width="276.00" height="56.00" transform="matrix(1.00, 0.00, -0.00, -1.00, 514.0, 424.0)"></image><image xlink:href="248C57B91A5D1B6B23B51CF5D04E42DB.png" width="228.00" height="225.00" transform="matrix(1.00, 0.00, -0.00, -1.00, 210.0, 509.0)"></image></g></svg>