<?xml version="1.0" encoding="UTF-8" standalone="no"?><svg xmlns="http://www.w3.org/2000/svg" xmlns:xlink="http://www.w3.org/1999/xlink" clip-rule="evenodd" stroke-miterlimit="4.00" viewBox="0 0 1024 768"><desc>SVG generated by Keynote</desc><defs></defs><g transform="matrix(1.00, 0.00, -0.00, -1.00, 0.0, 768.0)"><path d="M 0.0 768.0 L 1024.0 768.0 L 1024.0 0.0 L 0.0 0.0 Z M 0.0 768.0 " fill="#FEFFFF"></path><text xml:space="preserve" font-family="Montserrat-Regular" font-size="38.1" fill="#000000" transform="matrix(1.00, 0.00, -0.00, -1.00, 90.0, 672.0)">V</text><text xml:space="preserve" font-family="Montserrat-Regular" font-size="38.1" fill="#000000" transform="matrix(1.00, 0.00, -0.00, -1.00, 116.3, 672.0)">i</text><text xml:space="preserve" font-family="Montserrat-Regular" font-size="38.1" fill="#000000" transform="matrix(1.00, 0.00, -0.00, -1.00, 127.1, 672.0)">s</text><text xml:space="preserve" font-family="Montserrat-Regular" font-size="38.1" fill="#000000" transform="matrix(1.00, 0.00, -0.00, -1.00, 145.0, 672.0)">u</text><text xml:space="preserve" font-family="Montserrat-Regular" font-size="38.1" fill="#000000" transform="matrix(1.00, 0.00, -0.00, -1.00, 169.8, 672.0)">a</text><text xml:space="preserve" font-family="Montserrat-Regular" font-size="38.1" fill="#000000" transform="matrix(1.00, 0.00, -0.00, -1.00, 192.1, 672.0)">l</text><text xml:space="preserve" font-family="Montserrat-Regular" font-size="38.1" fill="#000000" transform="matrix(1.00, 0.00, -0.00, -1.00, 203.4, 672.0)"> </text><g><clipPath id="clip-120"><path d="M 89.1 666.7 L 203.4 666.7 L 203.4 670.6 L 89.1 670.6 Z M 89.1 666.7 "></path></clipPath><g clip-path="url(#clip-120)"><path d="M 4.0 46.9 L 117.4 46.9 " fill="none" stroke="#000000" stroke-width="1.90" stroke-miterlimit="0.00" transform="matrix(1.00, 0.00, 0.00, -1.00, 86.1, 715.6)"></path></g></g><text xml:space="preserve" font-family="Montserrat-Regular" font-size="28.6" fill="#000000" transform="matrix(1.00, 0.00, -0.00, -1.00, 125.1, 624.3)">•</text><text xml:space="preserve" font-family="Montserrat-Regular" font-size="38.1" fill="#000000" transform="matrix(1.00, 0.00, -0.00, -1.00, 162.0, 622.0)">M</text><text xml:space="preserve" font-family="Montserrat-Regular" font-size="38.1" fill="#000000" transform="matrix(1.00, 0.00, -0.00, -1.00, 197.2, 622.0)">y</text><text xml:space="preserve" font-family="Montserrat-Regular" font-size="38.1" fill="#000000" transform="matrix(1.00, 0.00, -0.00, -1.00, 216.7, 622.0)">o</text><text xml:space="preserve" font-family="Montserrat-Regular" font-size="38.1" fill="#000000" transform="matrix(1.00, 0.00, -0.00, -1.00, 240.5, 622.0)">p</text><text xml:space="preserve" font-family="Montserrat-Regular" font-size="38.1" fill="#000000" transform="matrix(1.00, 0.00, -0.00, -1.00, 266.3, 622.0)">i</text><text xml:space="preserve" font-family="Montserrat-Regular" font-size="38.1" fill="#000000" transform="matrix(1.00, 0.00, -0.00, -1.00, 277.2, 622.0)">a</text><text xml:space="preserve" font-family="Montserrat-Regular" font-size="38.1" fill="#000000" transform="matrix(1.00, 0.00, -0.00, -1.00, 299.5, 622.0)"> </text><text xml:space="preserve" font-family="Montserrat-Regular" font-size="28.6" fill="#000000" transform="matrix(1.00, 0.00, -0.00, -1.00, 125.1, 574.3)">•</text><text xml:space="preserve" font-family="Montserrat-Regular" font-size="38.1" fill="#000000" transform="matrix(1.00, 0.00, -0.00, -1.00, 162.0, 572.0)">C</text><text xml:space="preserve" font-family="Montserrat-Regular" font-size="38.1" fill="#000000" transform="matrix(1.00, 0.00, -0.00, -1.00, 188.0, 572.0)">o</text><text xml:space="preserve" font-family="Montserrat-Regular" font-size="38.1" fill="#000000" transform="matrix(1.00, 0.00, -0.00, -1.00, 211.8, 572.0)">l</text><text xml:space="preserve" font-family="Montserrat-Regular" font-size="38.1" fill="#000000" transform="matrix(1.00, 0.00, -0.00, -1.00, 223.0, 572.0)">o</text><text xml:space="preserve" font-family="Montserrat-Regular" font-size="38.1" fill="#000000" transform="matrix(1.00, 0.00, -0.00, -1.00, 246.8, 572.0)">r</text><text xml:space="preserve" font-family="Montserrat-Regular" font-size="38.1" fill="#000000" transform="matrix(1.00, 0.00, -0.00, -1.00, 261.8, 572.0)"> </text><text xml:space="preserve" font-family="Montserrat-Regular" font-size="38.1" fill="#000000" transform="matrix(1.00, 0.00, -0.00, -1.00, 271.6, 572.0)">B</text><text xml:space="preserve" font-family="Montserrat-Regular" font-size="38.1" fill="#000000" transform="matrix(1.00, 0.00, -0.00, -1.00, 298.5, 572.0)">l</text><text xml:space="preserve" font-family="Montserrat-Regular" font-size="38.1" fill="#000000" transform="matrix(1.00, 0.00, -0.00, -1.00, 309.7, 572.0)">i</text><text xml:space="preserve" font-family="Montserrat-Regular" font-size="38.1" fill="#000000" transform="matrix(1.00, 0.00, -0.00, -1.00, 320.5, 572.0)">n</text><text xml:space="preserve" font-family="Montserrat-Regular" font-size="38.1" fill="#000000" transform="matrix(1.00, 0.00, -0.00, -1.00, 345.8, 572.0)">d</text><text xml:space="preserve" font-family="Montserrat-Regular" font-size="38.1" fill="#000000" transform="matrix(1.00, 0.00, -0.00, -1.00, 371.7, 572.0)">n</text><text xml:space="preserve" font-family="Montserrat-Regular" font-size="38.1" fill="#000000" transform="matrix(1.00, 0.00, -0.00, -1.00, 397.0, 572.0)">e</text><text xml:space="preserve" font-family="Montserrat-Regular" font-size="38.1" fill="#000000" transform="matrix(1.00, 0.00, -0.00, -1.00, 419.4, 572.0)">s</text><text xml:space="preserve" font-family="Montserrat-Regular" font-size="38.1" fill="#000000" transform="matrix(1.00, 0.00, -0.00, -1.00, 437.2, 572.0)">s</text><text xml:space="preserve" font-family="Montserrat-Regular" font-size="38.1" fill="#000000" transform="matrix(1.00, 0.00, -0.00, -1.00, 455.1, 572.0)"> </text><text xml:space="preserve" font-family="Montserrat-Regular" font-size="28.6" fill="#000000" transform="matrix(1.00, 0.00, -0.00, -1.00, 125.1, 524.3)">•</text><text xml:space="preserve" font-family="Montserrat-Regular" font-size="38.1" fill="#000000" transform="matrix(1.00, 0.00, -0.00, -1.00, 162.0, 522.0)">G</text><text xml:space="preserve" font-family="Montserrat-Regular" font-size="38.1" fill="#000000" transform="matrix(1.00, 0.00, -0.00, -1.00, 190.5, 522.0)">l</text><text xml:space="preserve" font-family="Montserrat-Regular" font-size="38.1" fill="#000000" transform="matrix(1.00, 0.00, -0.00, -1.00, 201.7, 522.0)">a</text><text xml:space="preserve" font-family="Montserrat-Regular" font-size="38.1" fill="#000000" transform="matrix(1.00, 0.00, -0.00, -1.00, 224.1, 522.0)">u</text><text xml:space="preserve" font-family="Montserrat-Regular" font-size="38.1" fill="#000000" transform="matrix(1.00, 0.00, -0.00, -1.00, 248.9, 522.0)">c</text><text xml:space="preserve" font-family="Montserrat-Regular" font-size="38.1" fill="#000000" transform="matrix(1.00, 0.00, -0.00, -1.00, 269.6, 522.0)">o</text><text xml:space="preserve" font-family="Montserrat-Regular" font-size="38.1" fill="#000000" transform="matrix(1.00, 0.00, -0.00, -1.00, 293.4, 522.0)">m</text><text xml:space="preserve" font-family="Montserrat-Regular" font-size="38.1" fill="#000000" transform="matrix(1.00, 0.00, -0.00, -1.00, 333.1, 522.0)">a</text><text xml:space="preserve" font-family="Montserrat-Regular" font-size="38.1" fill="#000000" transform="matrix(1.00, 0.00, -0.00, -1.00, 355.4, 522.0)"> </text><text xml:space="preserve" font-family="Montserrat-Regular" font-size="28.6" fill="#000000" transform="matrix(1.00, 0.00, -0.00, -1.00, 125.1, 474.3)">•</text><text xml:space="preserve" font-family="Montserrat-Regular" font-size="38.1" fill="#000000" transform="matrix(1.00, 0.00, -0.00, -1.00, 162.0, 472.0)">A</text><text xml:space="preserve" font-family="Montserrat-Regular" font-size="38.1" fill="#000000" transform="matrix(1.00, 0.00, -0.00, -1.00, 190.1, 472.0)">l</text><text xml:space="preserve" font-family="Montserrat-Regular" font-size="38.1" fill="#000000" transform="matrix(1.00, 0.00, -0.00, -1.00, 201.3, 472.0)">b</text><text xml:space="preserve" font-family="Montserrat-Regular" font-size="38.1" fill="#000000" transform="matrix(1.00, 0.00, -0.00, -1.00, 227.2, 472.0)">i</text><text xml:space="preserve" font-family="Montserrat-Regular" font-size="38.1" fill="#000000" transform="matrix(1.00, 0.00, -0.00, -1.00, 238.0, 472.0)">n</text><text xml:space="preserve" font-family="Montserrat-Regular" font-size="38.1" fill="#000000" transform="matrix(1.00, 0.00, -0.00, -1.00, 263.3, 472.0)">i</text><text xml:space="preserve" font-family="Montserrat-Regular" font-size="38.1" fill="#000000" transform="matrix(1.00, 0.00, -0.00, -1.00, 274.1, 472.0)">s</text><text xml:space="preserve" font-family="Montserrat-Regular" font-size="38.1" fill="#000000" transform="matrix(1.00, 0.00, -0.00, -1.00, 292.0, 472.0)">m</text><text xml:space="preserve" font-family="Montserrat-Regular" font-size="38.1" fill="#000000" transform="matrix(1.00, 0.00, -0.00, -1.00, 331.7, 472.0)"> </text><text xml:space="preserve" font-family="Montserrat-Regular" font-size="38.1" fill="#000000" transform="matrix(1.00, 0.00, -0.00, -1.00, 90.0, 372.0)">A</text><text xml:space="preserve" font-family="Montserrat-Regular" font-size="38.1" fill="#000000" transform="matrix(1.00, 0.00, -0.00, -1.00, 117.1, 372.0)">u</text><text xml:space="preserve" font-family="Montserrat-Regular" font-size="38.1" fill="#000000" transform="matrix(1.00, 0.00, -0.00, -1.00, 142.0, 372.0)">d</text><text xml:space="preserve" font-family="Montserrat-Regular" font-size="38.1" fill="#000000" transform="matrix(1.00, 0.00, -0.00, -1.00, 167.9, 372.0)">i</text><text xml:space="preserve" font-family="Montserrat-Regular" font-size="38.1" fill="#000000" transform="matrix(1.00, 0.00, -0.00, -1.00, 178.7, 372.0)">t</text><text xml:space="preserve" font-family="Montserrat-Regular" font-size="38.1" fill="#000000" transform="matrix(1.00, 0.00, -0.00, -1.00, 194.0, 372.0)">o</text><text xml:space="preserve" font-family="Montserrat-Regular" font-size="38.1" fill="#000000" transform="matrix(1.00, 0.00, -0.00, -1.00, 217.8, 372.0)">r</text><text xml:space="preserve" font-family="Montserrat-Regular" font-size="38.1" fill="#000000" transform="matrix(1.00, 0.00, -0.00, -1.00, 233.8, 372.0)">y</text><text xml:space="preserve" font-family="Montserrat-Regular" font-size="38.1" fill="#000000" transform="matrix(1.00, 0.00, -0.00, -1.00, 254.0, 372.0)"> </text><g><clipPath id="clip-121"><path d="M 89.1 366.7 L 254.1 366.7 L 254.1 370.6 L 89.1 370.6 Z M 89.1 366.7 "></path></clipPath><g clip-path="url(#clip-121)"><path d="M 4.0 346.9 L 168.0 346.9 " fill="none" stroke="#000000" stroke-width="1.90" stroke-miterlimit="0.00" transform="matrix(1.00, 0.00, 0.00, -1.00, 86.1, 715.6)"></path></g></g><text xml:space="preserve" font-family="Montserrat-Regular" font-size="28.6" fill="#000000" transform="matrix(1.00, 0.00, -0.00, -1.00, 90.1, 324.3)">•</text><text xml:space="preserve" font-family="Montserrat-Regular" font-size="38.1" fill="#000000" transform="matrix(1.00, 0.00, -0.00, -1.00, 127.0, 322.0)">P</text><text xml:space="preserve" font-family="Montserrat-Regular" font-size="38.1" fill="#000000" transform="matrix(1.00, 0.00, -0.00, -1.00, 152.6, 322.0)">r</text><text xml:space="preserve" font-family="Montserrat-Regular" font-size="38.1" fill="#000000" transform="matrix(1.00, 0.00, -0.00, -1.00, 167.6, 322.0)">e</text><text xml:space="preserve" font-family="Montserrat-Regular" font-size="38.1" fill="#000000" transform="matrix(1.00, 0.00, -0.00, -1.00, 190.0, 322.0)">s</text><text xml:space="preserve" font-family="Montserrat-Regular" font-size="38.1" fill="#000000" transform="matrix(1.00, 0.00, -0.00, -1.00, 207.9, 322.0)">b</text><text xml:space="preserve" font-family="Montserrat-Regular" font-size="38.1" fill="#000000" transform="matrix(1.00, 0.00, -0.00, -1.00, 233.0, 322.0)">y</text><text xml:space="preserve" font-family="Montserrat-Regular" font-size="38.1" fill="#000000" transform="matrix(1.00, 0.00, -0.00, -1.00, 252.5, 322.0)">c</text><text xml:space="preserve" font-family="Montserrat-Regular" font-size="38.1" fill="#000000" transform="matrix(1.00, 0.00, -0.00, -1.00, 274.0, 322.0)">u</text><text xml:space="preserve" font-family="Montserrat-Regular" font-size="38.1" fill="#000000" transform="matrix(1.00, 0.00, -0.00, -1.00, 298.8, 322.0)">s</text><text xml:space="preserve" font-family="Montserrat-Regular" font-size="38.1" fill="#000000" transform="matrix(1.00, 0.00, -0.00, -1.00, 316.7, 322.0)">i</text><text xml:space="preserve" font-family="Montserrat-Regular" font-size="38.1" fill="#000000" transform="matrix(1.00, 0.00, -0.00, -1.00, 327.5, 322.0)">s</text><text xml:space="preserve" font-family="Montserrat-Regular" font-size="38.1" fill="#000000" transform="matrix(1.00, 0.00, -0.00, -1.00, 345.4, 322.0)"> </text><text xml:space="preserve" font-family="Montserrat-Regular" font-size="28.6" fill="#000000" transform="matrix(1.00, 0.00, -0.00, -1.00, 90.1, 274.3)">•</text><text xml:space="preserve" font-family="Montserrat-Regular" font-size="38.1" fill="#000000" transform="matrix(1.00, 0.00, -0.00, -1.00, 127.0, 272.0)">A</text><text xml:space="preserve" font-family="Montserrat-Regular" font-size="38.1" fill="#000000" transform="matrix(1.00, 0.00, -0.00, -1.00, 154.1, 272.0)">c</text><text xml:space="preserve" font-family="Montserrat-Regular" font-size="38.1" fill="#000000" transform="matrix(1.00, 0.00, -0.00, -1.00, 174.8, 272.0)">o</text><text xml:space="preserve" font-family="Montserrat-Regular" font-size="38.1" fill="#000000" transform="matrix(1.00, 0.00, -0.00, -1.00, 198.6, 272.0)">u</text><text xml:space="preserve" font-family="Montserrat-Regular" font-size="38.1" fill="#000000" transform="matrix(1.00, 0.00, -0.00, -1.00, 223.4, 272.0)">s</text><text xml:space="preserve" font-family="Montserrat-Regular" font-size="38.1" fill="#000000" transform="matrix(1.00, 0.00, -0.00, -1.00, 241.3, 272.0)">t</text><text xml:space="preserve" font-family="Montserrat-Regular" font-size="38.1" fill="#000000" transform="matrix(1.00, 0.00, -0.00, -1.00, 256.8, 272.0)">i</text><text xml:space="preserve" font-family="Montserrat-Regular" font-size="38.1" fill="#000000" transform="matrix(1.00, 0.00, -0.00, -1.00, 267.6, 272.0)">c</text><text xml:space="preserve" font-family="Montserrat-Regular" font-size="38.1" fill="#000000" transform="matrix(1.00, 0.00, -0.00, -1.00, 289.1, 272.0)"> </text><text xml:space="preserve" font-family="Montserrat-Regular" font-size="38.1" fill="#000000" transform="matrix(1.00, 0.00, -0.00, -1.00, 298.9, 272.0)">t</text><text xml:space="preserve" font-family="Montserrat-Regular" font-size="38.1" fill="#000000" transform="matrix(1.00, 0.00, -0.00, -1.00, 314.4, 272.0)">r</text><text xml:space="preserve" font-family="Montserrat-Regular" font-size="38.1" fill="#000000" transform="matrix(1.00, 0.00, -0.00, -1.00, 328.6, 272.0)">a</text><text xml:space="preserve" font-family="Montserrat-Regular" font-size="38.1" fill="#000000" transform="matrix(1.00, 0.00, -0.00, -1.00, 350.9, 272.0)">u</text><text xml:space="preserve" font-family="Montserrat-Regular" font-size="38.1" fill="#000000" transform="matrix(1.00, 0.00, -0.00, -1.00, 375.8, 272.0)">m</text><text xml:space="preserve" font-family="Montserrat-Regular" font-size="38.1" fill="#000000" transform="matrix(1.00, 0.00, -0.00, -1.00, 415.5, 272.0)">a</text><text xml:space="preserve" font-family="Montserrat-Regular" font-size="38.1" fill="#000000" transform="matrix(1.00, 0.00, -0.00, -1.00, 437.8, 272.0)"> </text><text xml:space="preserve" font-family="Montserrat-Regular" font-size="28.6" fill="#000000" transform="matrix(1.00, 0.00, -0.00, -1.00, 90.1, 224.3)">•</text><text xml:space="preserve" font-family="Montserrat-Regular" font-size="38.1" fill="#000000" transform="matrix(1.00, 0.00, -0.00, -1.00, 127.0, 222.0)">A</text><text xml:space="preserve" font-family="Montserrat-Regular" font-size="38.1" fill="#000000" transform="matrix(1.00, 0.00, -0.00, -1.00, 154.1, 222.0)">u</text><text xml:space="preserve" font-family="Montserrat-Regular" font-size="38.1" fill="#000000" transform="matrix(1.00, 0.00, -0.00, -1.00, 179.0, 222.0)">d</text><text xml:space="preserve" font-family="Montserrat-Regular" font-size="38.1" fill="#000000" transform="matrix(1.00, 0.00, -0.00, -1.00, 204.9, 222.0)">i</text><text xml:space="preserve" font-family="Montserrat-Regular" font-size="38.1" fill="#000000" transform="matrix(1.00, 0.00, -0.00, -1.00, 215.7, 222.0)">t</text><text xml:space="preserve" font-family="Montserrat-Regular" font-size="38.1" fill="#000000" transform="matrix(1.00, 0.00, -0.00, -1.00, 231.0, 222.0)">o</text><text xml:space="preserve" font-family="Montserrat-Regular" font-size="38.1" fill="#000000" transform="matrix(1.00, 0.00, -0.00, -1.00, 254.8, 222.0)">r</text><text xml:space="preserve" font-family="Montserrat-Regular" font-size="38.1" fill="#000000" transform="matrix(1.00, 0.00, -0.00, -1.00, 270.8, 222.0)">y</text><text xml:space="preserve" font-family="Montserrat-Regular" font-size="38.1" fill="#000000" transform="matrix(1.00, 0.00, -0.00, -1.00, 291.0, 222.0)"> </text><text xml:space="preserve" font-family="Montserrat-Regular" font-size="38.1" fill="#000000" transform="matrix(1.00, 0.00, -0.00, -1.00, 127.0, 172.0)">P</text><text xml:space="preserve" font-family="Montserrat-Regular" font-size="38.1" fill="#000000" transform="matrix(1.00, 0.00, -0.00, -1.00, 152.6, 172.0)">r</text><text xml:space="preserve" font-family="Montserrat-Regular" font-size="38.1" fill="#000000" transform="matrix(1.00, 0.00, -0.00, -1.00, 167.6, 172.0)">o</text><text xml:space="preserve" font-family="Montserrat-Regular" font-size="38.1" fill="#000000" transform="matrix(1.00, 0.00, -0.00, -1.00, 191.4, 172.0)">c</text><text xml:space="preserve" font-family="Montserrat-Regular" font-size="38.1" fill="#000000" transform="matrix(1.00, 0.00, -0.00, -1.00, 212.1, 172.0)">e</text><text xml:space="preserve" font-family="Montserrat-Regular" font-size="38.1" fill="#000000" transform="matrix(1.00, 0.00, -0.00, -1.00, 234.5, 172.0)">s</text><text xml:space="preserve" font-family="Montserrat-Regular" font-size="38.1" fill="#000000" transform="matrix(1.00, 0.00, -0.00, -1.00, 252.4, 172.0)">s</text><text xml:space="preserve" font-family="Montserrat-Regular" font-size="38.1" fill="#000000" transform="matrix(1.00, 0.00, -0.00, -1.00, 270.3, 172.0)">i</text><text xml:space="preserve" font-family="Montserrat-Regular" font-size="38.1" fill="#000000" transform="matrix(1.00, 0.00, -0.00, -1.00, 281.1, 172.0)">n</text><text xml:space="preserve" font-family="Montserrat-Regular" font-size="38.1" fill="#000000" transform="matrix(1.00, 0.00, -0.00, -1.00, 306.3, 172.0)">g</text><text xml:space="preserve" font-family="Montserrat-Regular" font-size="38.1" fill="#000000" transform="matrix(1.00, 0.00, -0.00, -1.00, 330.7, 172.0)"> </text><text xml:space="preserve" font-family="Montserrat-Regular" font-size="38.1" fill="#000000" transform="matrix(1.00, 0.00, -0.00, -1.00, 127.0, 122.0)">D</text><text xml:space="preserve" font-family="Montserrat-Regular" font-size="38.1" fill="#000000" transform="matrix(1.00, 0.00, -0.00, -1.00, 156.5, 122.0)">i</text><text xml:space="preserve" font-family="Montserrat-Regular" font-size="38.1" fill="#000000" transform="matrix(1.00, 0.00, -0.00, -1.00, 167.3, 122.0)">s</text><text xml:space="preserve" font-family="Montserrat-Regular" font-size="38.1" fill="#000000" transform="matrix(1.00, 0.00, -0.00, -1.00, 185.2, 122.0)">o</text><text xml:space="preserve" font-family="Montserrat-Regular" font-size="38.1" fill="#000000" transform="matrix(1.00, 0.00, -0.00, -1.00, 209.0, 122.0)">r</text><text xml:space="preserve" font-family="Montserrat-Regular" font-size="38.1" fill="#000000" transform="matrix(1.00, 0.00, -0.00, -1.00, 224.0, 122.0)">d</text><text xml:space="preserve" font-family="Montserrat-Regular" font-size="38.1" fill="#000000" transform="matrix(1.00, 0.00, -0.00, -1.00, 250.0, 122.0)">e</text><text xml:space="preserve" font-family="Montserrat-Regular" font-size="38.1" fill="#000000" transform="matrix(1.00, 0.00, -0.00, -1.00, 272.4, 122.0)">r</text><text xml:space="preserve" font-family="Montserrat-Regular" font-size="38.1" fill="#000000" transform="matrix(1.00, 0.00, -0.00, -1.00, 287.4, 122.0)"> </text><text xml:space="preserve" font-family="Montserrat-Regular" font-size="28.6" fill="#000000" transform="matrix(1.00, 0.00, -0.00, -1.00, 90.1, 74.3)">•</text><text xml:space="preserve" font-family="Montserrat-Regular" font-size="38.1" fill="#000000" transform="matrix(1.00, 0.00, -0.00, -1.00, 127.0, 72.0)">O</text><text xml:space="preserve" font-family="Montserrat-Regular" font-size="38.1" fill="#000000" transform="matrix(1.00, 0.00, -0.00, -1.00, 157.8, 72.0)">t</text><text xml:space="preserve" font-family="Montserrat-Regular" font-size="38.1" fill="#000000" transform="matrix(1.00, 0.00, -0.00, -1.00, 173.1, 72.0)">o</text><text xml:space="preserve" font-family="Montserrat-Regular" font-size="38.1" fill="#000000" transform="matrix(1.00, 0.00, -0.00, -1.00, 196.9, 72.0)">s</text><text xml:space="preserve" font-family="Montserrat-Regular" font-size="38.1" fill="#000000" transform="matrix(1.00, 0.00, -0.00, -1.00, 214.8, 72.0)">c</text><text xml:space="preserve" font-family="Montserrat-Regular" font-size="38.1" fill="#000000" transform="matrix(1.00, 0.00, -0.00, -1.00, 236.3, 72.0)">l</text><text xml:space="preserve" font-family="Montserrat-Regular" font-size="38.1" fill="#000000" transform="matrix(1.00, 0.00, -0.00, -1.00, 247.5, 72.0)">e</text><text xml:space="preserve" font-family="Montserrat-Regular" font-size="38.1" fill="#000000" transform="matrix(1.00, 0.00, -0.00, -1.00, 269.9, 72.0)">r</text><text xml:space="preserve" font-family="Montserrat-Regular" font-size="38.1" fill="#000000" transform="matrix(1.00, 0.00, -0.00, -1.00, 284.9, 72.0)">o</text><text xml:space="preserve" font-family="Montserrat-Regular" font-size="38.1" fill="#000000" transform="matrix(1.00, 0.00, -0.00, -1.00, 308.7, 72.0)">s</text><text xml:space="preserve" font-family="Montserrat-Regular" font-size="38.1" fill="#000000" transform="matrix(1.00, 0.00, -0.00, -1.00, 326.6, 72.0)">i</text><text xml:space="preserve" font-family="Montserrat-Regular" font-size="38.1" fill="#000000" transform="matrix(1.00, 0.00, -0.00, -1.00, 337.4, 72.0)">s</text><text xml:space="preserve" font-family="Montserrat-Regular" font-size="36.5" fill="#000000" transform="matrix(1.00, 0.00, -0.00, -1.00, 523.0, 660.0)">M</text><text xml:space="preserve" font-family="Montserrat-Regular" font-size="36.5" fill="#000000" transform="matrix(1.00, 0.00, -0.00, -1.00, 556.7, 660.0)">o</text><text xml:space="preserve" font-family="Montserrat-Regular" font-size="36.5" fill="#000000" transform="matrix(1.00, 0.00, -0.00, -1.00, 579.5, 660.0)">t</text><text xml:space="preserve" font-family="Montserrat-Regular" font-size="36.5" fill="#000000" transform="matrix(1.00, 0.00, -0.00, -1.00, 594.1, 660.0)">o</text><text xml:space="preserve" font-family="Montserrat-Regular" font-size="36.5" fill="#000000" transform="matrix(1.00, 0.00, -0.00, -1.00, 616.9, 660.0)">r</text><text xml:space="preserve" font-family="Montserrat-Regular" font-size="36.5" fill="#000000" transform="matrix(1.00, 0.00, -0.00, -1.00, 631.3, 660.0)"> </text><g><clipPath id="clip-122"><path d="M 521.6 655.3 L 630.9 655.3 L 630.9 659.2 L 521.6 659.2 Z M 521.6 655.3 "></path></clipPath><g clip-path="url(#clip-122)"><path d="M 4.0 58.3 L 112.3 58.3 " fill="none" stroke="#000000" stroke-width="1.82" stroke-miterlimit="0.00" transform="matrix(1.00, 0.00, 0.00, -1.00, 518.6, 715.6)"></path></g></g><text xml:space="preserve" font-family="Montserrat-Regular" font-size="27.3" fill="#000000" transform="matrix(1.00, 0.00, -0.00, -1.00, 557.6, 614.9)">•</text><text xml:space="preserve" font-family="Montserrat-Regular" font-size="36.5" fill="#000000" transform="matrix(1.00, 0.00, -0.00, -1.00, 593.0, 612.0)">C</text><text xml:space="preserve" font-family="Montserrat-Regular" font-size="36.5" fill="#000000" transform="matrix(1.00, 0.00, -0.00, -1.00, 617.9, 612.0)">e</text><text xml:space="preserve" font-family="Montserrat-Regular" font-size="36.5" fill="#000000" transform="matrix(1.00, 0.00, -0.00, -1.00, 639.3, 612.0)">r</text><text xml:space="preserve" font-family="Montserrat-Regular" font-size="36.5" fill="#000000" transform="matrix(1.00, 0.00, -0.00, -1.00, 653.7, 612.0)">e</text><text xml:space="preserve" font-family="Montserrat-Regular" font-size="36.5" fill="#000000" transform="matrix(1.00, 0.00, -0.00, -1.00, 675.1, 612.0)">b</text><text xml:space="preserve" font-family="Montserrat-Regular" font-size="36.5" fill="#000000" transform="matrix(1.00, 0.00, -0.00, -1.00, 699.9, 612.0)">r</text><text xml:space="preserve" font-family="Montserrat-Regular" font-size="36.5" fill="#000000" transform="matrix(1.00, 0.00, -0.00, -1.00, 713.5, 612.0)">a</text><text xml:space="preserve" font-family="Montserrat-Regular" font-size="36.5" fill="#000000" transform="matrix(1.00, 0.00, -0.00, -1.00, 734.8, 612.0)">l</text><text xml:space="preserve" font-family="Montserrat-Regular" font-size="36.5" fill="#000000" transform="matrix(1.00, 0.00, -0.00, -1.00, 745.6, 612.0)"> </text><text xml:space="preserve" font-family="Montserrat-Regular" font-size="36.5" fill="#000000" transform="matrix(1.00, 0.00, -0.00, -1.00, 755.0, 612.0)">p</text><text xml:space="preserve" font-family="Montserrat-Regular" font-size="36.5" fill="#000000" transform="matrix(1.00, 0.00, -0.00, -1.00, 779.8, 612.0)">a</text><text xml:space="preserve" font-family="Montserrat-Regular" font-size="36.5" fill="#000000" transform="matrix(1.00, 0.00, -0.00, -1.00, 801.1, 612.0)">l</text><text xml:space="preserve" font-family="Montserrat-Regular" font-size="36.5" fill="#000000" transform="matrix(1.00, 0.00, -0.00, -1.00, 811.9, 612.0)">s</text><text xml:space="preserve" font-family="Montserrat-Regular" font-size="36.5" fill="#000000" transform="matrix(1.00, 0.00, -0.00, -1.00, 828.8, 612.0)">y</text><text xml:space="preserve" font-family="Montserrat-Regular" font-size="36.5" fill="#000000" transform="matrix(1.00, 0.00, -0.00, -1.00, 848.2, 612.0)"> </text><text xml:space="preserve" font-family="Montserrat-Regular" font-size="27.3" fill="#000000" transform="matrix(1.00, 0.00, -0.00, -1.00, 557.6, 566.9)">•</text><text xml:space="preserve" font-family="Montserrat-Regular" font-size="36.5" fill="#000000" transform="matrix(1.00, 0.00, -0.00, -1.00, 593.0, 564.0)">R</text><text xml:space="preserve" font-family="Montserrat-Regular" font-size="36.5" fill="#000000" transform="matrix(1.00, 0.00, -0.00, -1.00, 619.4, 564.0)">S</text><text xml:space="preserve" font-family="Montserrat-Regular" font-size="36.5" fill="#000000" transform="matrix(1.00, 0.00, -0.00, -1.00, 642.0, 564.0)">I</text><text xml:space="preserve" font-family="Montserrat-Regular" font-size="36.5" fill="#000000" transform="matrix(1.00, 0.00, -0.00, -1.00, 653.0, 564.0)"> </text><text xml:space="preserve" font-family="Montserrat-Regular" font-size="27.3" fill="#000000" transform="matrix(1.00, 0.00, -0.00, -1.00, 557.6, 518.9)">•</text><text xml:space="preserve" font-family="Montserrat-Regular" font-size="36.5" fill="#000000" transform="matrix(1.00, 0.00, -0.00, -1.00, 593.0, 516.0)">P</text><text xml:space="preserve" font-family="Montserrat-Regular" font-size="36.5" fill="#000000" transform="matrix(1.00, 0.00, -0.00, -1.00, 617.5, 516.0)">a</text><text xml:space="preserve" font-family="Montserrat-Regular" font-size="36.5" fill="#000000" transform="matrix(1.00, 0.00, -0.00, -1.00, 638.9, 516.0)">r</text><text xml:space="preserve" font-family="Montserrat-Regular" font-size="36.5" fill="#000000" transform="matrix(1.00, 0.00, -0.00, -1.00, 653.3, 516.0)">k</text><text xml:space="preserve" font-family="Montserrat-Regular" font-size="36.5" fill="#000000" transform="matrix(1.00, 0.00, -0.00, -1.00, 674.9, 516.0)">i</text><text xml:space="preserve" font-family="Montserrat-Regular" font-size="36.5" fill="#000000" transform="matrix(1.00, 0.00, -0.00, -1.00, 685.3, 516.0)">n</text><text xml:space="preserve" font-family="Montserrat-Regular" font-size="36.5" fill="#000000" transform="matrix(1.00, 0.00, -0.00, -1.00, 709.5, 516.0)">s</text><text xml:space="preserve" font-family="Montserrat-Regular" font-size="36.5" fill="#000000" transform="matrix(1.00, 0.00, -0.00, -1.00, 726.6, 516.0)">o</text><text xml:space="preserve" font-family="Montserrat-Regular" font-size="36.5" fill="#000000" transform="matrix(1.00, 0.00, -0.00, -1.00, 749.4, 516.0)">n</text><text xml:space="preserve" font-family="Montserrat-Regular" font-size="36.5" fill="#000000" transform="matrix(1.00, 0.00, -0.00, -1.00, 773.5, 516.0)">’</text><text xml:space="preserve" font-family="Montserrat-Regular" font-size="36.5" fill="#000000" transform="matrix(1.00, 0.00, -0.00, -1.00, 781.3, 516.0)">s</text><text xml:space="preserve" font-family="Montserrat-Regular" font-size="36.5" fill="#000000" transform="matrix(1.00, 0.00, -0.00, -1.00, 798.5, 516.0)"> </text><text xml:space="preserve" font-family="Montserrat-Regular" font-size="27.3" fill="#000000" transform="matrix(1.00, 0.00, -0.00, -1.00, 557.6, 470.9)">•</text><text xml:space="preserve" font-family="Montserrat-Regular" font-size="36.5" fill="#000000" transform="matrix(1.00, 0.00, -0.00, -1.00, 593.0, 468.0)">M</text><text xml:space="preserve" font-family="Montserrat-Regular" font-size="36.5" fill="#000000" transform="matrix(1.00, 0.00, -0.00, -1.00, 626.7, 468.0)">u</text><text xml:space="preserve" font-family="Montserrat-Regular" font-size="36.5" fill="#000000" transform="matrix(1.00, 0.00, -0.00, -1.00, 650.5, 468.0)">s</text><text xml:space="preserve" font-family="Montserrat-Regular" font-size="36.5" fill="#000000" transform="matrix(1.00, 0.00, -0.00, -1.00, 667.6, 468.0)">c</text><text xml:space="preserve" font-family="Montserrat-Regular" font-size="36.5" fill="#000000" transform="matrix(1.00, 0.00, -0.00, -1.00, 688.2, 468.0)">u</text><text xml:space="preserve" font-family="Montserrat-Regular" font-size="36.5" fill="#000000" transform="matrix(1.00, 0.00, -0.00, -1.00, 712.0, 468.0)">l</text><text xml:space="preserve" font-family="Montserrat-Regular" font-size="36.5" fill="#000000" transform="matrix(1.00, 0.00, -0.00, -1.00, 722.8, 468.0)">a</text><text xml:space="preserve" font-family="Montserrat-Regular" font-size="36.5" fill="#000000" transform="matrix(1.00, 0.00, -0.00, -1.00, 744.1, 468.0)">r</text><text xml:space="preserve" font-family="Montserrat-Regular" font-size="36.5" fill="#000000" transform="matrix(1.00, 0.00, -0.00, -1.00, 758.5, 468.0)"> </text><text xml:space="preserve" font-family="Montserrat-Regular" font-size="36.5" fill="#000000" transform="matrix(1.00, 0.00, -0.00, -1.00, 767.9, 468.0)">D</text><text xml:space="preserve" font-family="Montserrat-Regular" font-size="36.5" fill="#000000" transform="matrix(1.00, 0.00, -0.00, -1.00, 795.9, 468.0)">y</text><text xml:space="preserve" font-family="Montserrat-Regular" font-size="36.5" fill="#000000" transform="matrix(1.00, 0.00, -0.00, -1.00, 815.1, 468.0)">s</text><text xml:space="preserve" font-family="Montserrat-Regular" font-size="36.5" fill="#000000" transform="matrix(1.00, 0.00, -0.00, -1.00, 832.2, 468.0)">t</text><text xml:space="preserve" font-family="Montserrat-Regular" font-size="36.5" fill="#000000" transform="matrix(1.00, 0.00, -0.00, -1.00, 847.1, 468.0)">r</text><text xml:space="preserve" font-family="Montserrat-Regular" font-size="36.5" fill="#000000" transform="matrix(1.00, 0.00, -0.00, -1.00, 861.4, 468.0)">o</text><text xml:space="preserve" font-family="Montserrat-Regular" font-size="36.5" fill="#000000" transform="matrix(1.00, 0.00, -0.00, -1.00, 884.2, 468.0)">p</text><text xml:space="preserve" font-family="Montserrat-Regular" font-size="36.5" fill="#000000" transform="matrix(1.00, 0.00, -0.00, -1.00, 909.0, 468.0)">h</text><text xml:space="preserve" font-family="Montserrat-Regular" font-size="36.5" fill="#000000" transform="matrix(1.00, 0.00, -0.00, -1.00, 932.8, 468.0)">y</text><text xml:space="preserve" font-family="Montserrat-Regular" font-size="36.5" fill="#000000" transform="matrix(1.00, 0.00, -0.00, -1.00, 952.1, 468.0)"> </text><text xml:space="preserve" font-family="Montserrat-Regular" font-size="36.5" fill="#000000" transform="matrix(1.00, 0.00, -0.00, -1.00, 523.0, 372.0)">C</text><text xml:space="preserve" font-family="Montserrat-Regular" font-size="36.5" fill="#000000" transform="matrix(1.00, 0.00, -0.00, -1.00, 547.9, 372.0)">o</text><text xml:space="preserve" font-family="Montserrat-Regular" font-size="36.5" fill="#000000" transform="matrix(1.00, 0.00, -0.00, -1.00, 570.6, 372.0)">g</text><text xml:space="preserve" font-family="Montserrat-Regular" font-size="36.5" fill="#000000" transform="matrix(1.00, 0.00, -0.00, -1.00, 594.0, 372.0)">n</text><text xml:space="preserve" font-family="Montserrat-Regular" font-size="36.5" fill="#000000" transform="matrix(1.00, 0.00, -0.00, -1.00, 618.1, 372.0)">i</text><text xml:space="preserve" font-family="Montserrat-Regular" font-size="36.5" fill="#000000" transform="matrix(1.00, 0.00, -0.00, -1.00, 628.5, 372.0)">t</text><text xml:space="preserve" font-family="Montserrat-Regular" font-size="36.5" fill="#000000" transform="matrix(1.00, 0.00, -0.00, -1.00, 643.3, 372.0)">i</text><text xml:space="preserve" font-family="Montserrat-Regular" font-size="36.5" fill="#000000" transform="matrix(1.00, 0.00, -0.00, -1.00, 653.7, 372.0)">v</text><text xml:space="preserve" font-family="Montserrat-Regular" font-size="36.5" fill="#000000" transform="matrix(1.00, 0.00, -0.00, -1.00, 672.1, 372.0)">e</text><text xml:space="preserve" font-family="Montserrat-Regular" font-size="36.5" fill="#000000" transform="matrix(1.00, 0.00, -0.00, -1.00, 693.5, 372.0)"> </text><g><clipPath id="clip-123"><path d="M 521.6 367.3 L 693.1 367.3 L 693.1 371.2 L 521.6 371.2 Z M 521.6 367.3 "></path></clipPath><g clip-path="url(#clip-123)"><path d="M 4.0 346.3 L 174.5 346.3 " fill="none" stroke="#000000" stroke-width="1.82" stroke-miterlimit="0.00" transform="matrix(1.00, 0.00, 0.00, -1.00, 518.6, 715.6)"></path></g></g><text xml:space="preserve" font-family="Montserrat-Regular" font-size="27.3" fill="#000000" transform="matrix(1.00, 0.00, -0.00, -1.00, 557.6, 326.9)">•</text><text xml:space="preserve" font-family="Montserrat-Regular" font-size="36.5" fill="#000000" transform="matrix(1.00, 0.00, -0.00, -1.00, 593.0, 324.0)">D</text><text xml:space="preserve" font-family="Montserrat-Regular" font-size="36.5" fill="#000000" transform="matrix(1.00, 0.00, -0.00, -1.00, 621.2, 324.0)">o</text><text xml:space="preserve" font-family="Montserrat-Regular" font-size="36.5" fill="#000000" transform="matrix(1.00, 0.00, -0.00, -1.00, 643.3, 324.0)">w</text><text xml:space="preserve" font-family="Montserrat-Regular" font-size="36.5" fill="#000000" transform="matrix(1.00, 0.00, -0.00, -1.00, 676.1, 324.0)">n</text><text xml:space="preserve" font-family="Montserrat-Regular" font-size="36.5" fill="#000000" transform="matrix(1.00, 0.00, -0.00, -1.00, 700.2, 324.0)">’</text><text xml:space="preserve" font-family="Montserrat-Regular" font-size="36.5" fill="#000000" transform="matrix(1.00, 0.00, -0.00, -1.00, 708.0, 324.0)">s</text><text xml:space="preserve" font-family="Montserrat-Regular" font-size="36.5" fill="#000000" transform="matrix(1.00, 0.00, -0.00, -1.00, 725.2, 324.0)"> </text><text xml:space="preserve" font-family="Montserrat-Regular" font-size="36.5" fill="#000000" transform="matrix(1.00, 0.00, -0.00, -1.00, 734.6, 324.0)">S</text><text xml:space="preserve" font-family="Montserrat-Regular" font-size="36.5" fill="#000000" transform="matrix(1.00, 0.00, -0.00, -1.00, 757.2, 324.0)">y</text><text xml:space="preserve" font-family="Montserrat-Regular" font-size="36.5" fill="#000000" transform="matrix(1.00, 0.00, -0.00, -1.00, 776.8, 324.0)">n</text><text xml:space="preserve" font-family="Montserrat-Regular" font-size="36.5" fill="#000000" transform="matrix(1.00, 0.00, -0.00, -1.00, 801.0, 324.0)">d</text><text xml:space="preserve" font-family="Montserrat-Regular" font-size="36.5" fill="#000000" transform="matrix(1.00, 0.00, -0.00, -1.00, 825.8, 324.0)">r</text><text xml:space="preserve" font-family="Montserrat-Regular" font-size="36.5" fill="#000000" transform="matrix(1.00, 0.00, -0.00, -1.00, 840.2, 324.0)">o</text><text xml:space="preserve" font-family="Montserrat-Regular" font-size="36.5" fill="#000000" transform="matrix(1.00, 0.00, -0.00, -1.00, 863.0, 324.0)">m</text><text xml:space="preserve" font-family="Montserrat-Regular" font-size="36.5" fill="#000000" transform="matrix(1.00, 0.00, -0.00, -1.00, 901.0, 324.0)">e</text><text xml:space="preserve" font-family="Montserrat-Regular" font-size="36.5" fill="#000000" transform="matrix(1.00, 0.00, -0.00, -1.00, 922.4, 324.0)"> </text><text xml:space="preserve" font-family="Montserrat-Regular" font-size="27.3" fill="#000000" transform="matrix(1.00, 0.00, -0.00, -1.00, 557.6, 278.9)">•</text><text xml:space="preserve" font-family="Montserrat-Regular" font-size="36.5" fill="#000000" transform="matrix(1.00, 0.00, -0.00, -1.00, 593.0, 276.0)">A</text><text xml:space="preserve" font-family="Montserrat-Regular" font-size="36.5" fill="#000000" transform="matrix(1.00, 0.00, -0.00, -1.00, 619.0, 276.0)">u</text><text xml:space="preserve" font-family="Montserrat-Regular" font-size="36.5" fill="#000000" transform="matrix(1.00, 0.00, -0.00, -1.00, 642.8, 276.0)">t</text><text xml:space="preserve" font-family="Montserrat-Regular" font-size="36.5" fill="#000000" transform="matrix(1.00, 0.00, -0.00, -1.00, 657.6, 276.0)">i</text><text xml:space="preserve" font-family="Montserrat-Regular" font-size="36.5" fill="#000000" transform="matrix(1.00, 0.00, -0.00, -1.00, 667.9, 276.0)">s</text><text xml:space="preserve" font-family="Montserrat-Regular" font-size="36.5" fill="#000000" transform="matrix(1.00, 0.00, -0.00, -1.00, 685.1, 276.0)">m</text><text xml:space="preserve" font-family="Montserrat-Regular" font-size="36.5" fill="#000000" transform="matrix(1.00, 0.00, -0.00, -1.00, 723.1, 276.0)"> </text><text xml:space="preserve" font-family="Montserrat-Regular" font-size="27.3" fill="#000000" transform="matrix(1.00, 0.00, -0.00, -1.00, 557.6, 230.9)">•</text><text xml:space="preserve" font-family="Montserrat-Regular" font-size="36.5" fill="#000000" transform="matrix(1.00, 0.00, -0.00, -1.00, 593.0, 228.0)">G</text><text xml:space="preserve" font-family="Montserrat-Regular" font-size="36.5" fill="#000000" transform="matrix(1.00, 0.00, -0.00, -1.00, 620.3, 228.0)">l</text><text xml:space="preserve" font-family="Montserrat-Regular" font-size="36.5" fill="#000000" transform="matrix(1.00, 0.00, -0.00, -1.00, 631.1, 228.0)">o</text><text xml:space="preserve" font-family="Montserrat-Regular" font-size="36.5" fill="#000000" transform="matrix(1.00, 0.00, -0.00, -1.00, 653.8, 228.0)">b</text><text xml:space="preserve" font-family="Montserrat-Regular" font-size="36.5" fill="#000000" transform="matrix(1.00, 0.00, -0.00, -1.00, 678.6, 228.0)">a</text><text xml:space="preserve" font-family="Montserrat-Regular" font-size="36.5" fill="#000000" transform="matrix(1.00, 0.00, -0.00, -1.00, 700.0, 228.0)">l</text><text xml:space="preserve" font-family="Montserrat-Regular" font-size="36.5" fill="#000000" transform="matrix(1.00, 0.00, -0.00, -1.00, 710.7, 228.0)"> </text><text xml:space="preserve" font-family="Montserrat-Regular" font-size="36.5" fill="#000000" transform="matrix(1.00, 0.00, -0.00, -1.00, 593.0, 180.0)">d</text><text xml:space="preserve" font-family="Montserrat-Regular" font-size="36.5" fill="#000000" transform="matrix(1.00, 0.00, -0.00, -1.00, 617.9, 180.0)">e</text><text xml:space="preserve" font-family="Montserrat-Regular" font-size="36.5" fill="#000000" transform="matrix(1.00, 0.00, -0.00, -1.00, 638.6, 180.0)">v</text><text xml:space="preserve" font-family="Montserrat-Regular" font-size="36.5" fill="#000000" transform="matrix(1.00, 0.00, -0.00, -1.00, 657.0, 180.0)">e</text><text xml:space="preserve" font-family="Montserrat-Regular" font-size="36.5" fill="#000000" transform="matrix(1.00, 0.00, -0.00, -1.00, 678.4, 180.0)">l</text><text xml:space="preserve" font-family="Montserrat-Regular" font-size="36.5" fill="#000000" transform="matrix(1.00, 0.00, -0.00, -1.00, 689.2, 180.0)">o</text><text xml:space="preserve" font-family="Montserrat-Regular" font-size="36.5" fill="#000000" transform="matrix(1.00, 0.00, -0.00, -1.00, 711.9, 180.0)">p</text><text xml:space="preserve" font-family="Montserrat-Regular" font-size="36.5" fill="#000000" transform="matrix(1.00, 0.00, -0.00, -1.00, 736.7, 180.0)">m</text><text xml:space="preserve" font-family="Montserrat-Regular" font-size="36.5" fill="#000000" transform="matrix(1.00, 0.00, -0.00, -1.00, 774.7, 180.0)">e</text><text xml:space="preserve" font-family="Montserrat-Regular" font-size="36.5" fill="#000000" transform="matrix(1.00, 0.00, -0.00, -1.00, 796.2, 180.0)">n</text><text xml:space="preserve" font-family="Montserrat-Regular" font-size="36.5" fill="#000000" transform="matrix(1.00, 0.00, -0.00, -1.00, 820.3, 180.0)">t</text><text xml:space="preserve" font-family="Montserrat-Regular" font-size="36.5" fill="#000000" transform="matrix(1.00, 0.00, -0.00, -1.00, 835.2, 180.0)">a</text><text xml:space="preserve" font-family="Montserrat-Regular" font-size="36.5" fill="#000000" transform="matrix(1.00, 0.00, -0.00, -1.00, 856.5, 180.0)">l</text><text xml:space="preserve" font-family="Montserrat-Regular" font-size="36.5" fill="#000000" transform="matrix(1.00, 0.00, -0.00, -1.00, 867.3, 180.0)"> </text><text xml:space="preserve" font-family="Montserrat-Regular" font-size="36.5" fill="#000000" transform="matrix(1.00, 0.00, -0.00, -1.00, 876.7, 180.0)">d</text><text xml:space="preserve" font-family="Montserrat-Regular" font-size="36.5" fill="#000000" transform="matrix(1.00, 0.00, -0.00, -1.00, 901.5, 180.0)">e</text><text xml:space="preserve" font-family="Montserrat-Regular" font-size="36.5" fill="#000000" transform="matrix(1.00, 0.00, -0.00, -1.00, 923.0, 180.0)">l</text><text xml:space="preserve" font-family="Montserrat-Regular" font-size="36.5" fill="#000000" transform="matrix(1.00, 0.00, -0.00, -1.00, 933.7, 180.0)">a</text><text xml:space="preserve" font-family="Montserrat-Regular" font-size="36.5" fill="#000000" transform="matrix(1.00, 0.00, -0.00, -1.00, 954.5, 180.0)">y</text><text xml:space="preserve" font-family="Montserrat-Regular" font-size="36.5" fill="#000000" transform="matrix(1.00, 0.00, -0.00, -1.00, 973.9, 180.0)"> </text><text xml:space="preserve" font-family="Montserrat-Regular" font-size="27.3" fill="#000000" transform="matrix(1.00, 0.00, -0.00, -1.00, 557.6, 134.9)">•</text><text xml:space="preserve" font-family="Montserrat-Regular" font-size="36.5" fill="#000000" transform="matrix(1.00, 0.00, -0.00, -1.00, 593.0, 132.0)">D</text><text xml:space="preserve" font-family="Montserrat-Regular" font-size="36.5" fill="#000000" transform="matrix(1.00, 0.00, -0.00, -1.00, 621.0, 132.0)">y</text><text xml:space="preserve" font-family="Montserrat-Regular" font-size="36.5" fill="#000000" transform="matrix(1.00, 0.00, -0.00, -1.00, 640.2, 132.0)">s</text><text xml:space="preserve" font-family="Montserrat-Regular" font-size="36.5" fill="#000000" transform="matrix(1.00, 0.00, -0.00, -1.00, 657.3, 132.0)">l</text><text xml:space="preserve" font-family="Montserrat-Regular" font-size="36.5" fill="#000000" transform="matrix(1.00, 0.00, -0.00, -1.00, 668.1, 132.0)">e</text><text xml:space="preserve" font-family="Montserrat-Regular" font-size="36.5" fill="#000000" transform="matrix(1.00, 0.00, -0.00, -1.00, 688.4, 132.0)">x</text><text xml:space="preserve" font-family="Montserrat-Regular" font-size="36.5" fill="#000000" transform="matrix(1.00, 0.00, -0.00, -1.00, 708.6, 132.0)">i</text><text xml:space="preserve" font-family="Montserrat-Regular" font-size="36.5" fill="#000000" transform="matrix(1.00, 0.00, -0.00, -1.00, 719.0, 132.0)">a</text><text xml:space="preserve" font-family="Montserrat-Regular" font-size="36.5" fill="#000000" transform="matrix(1.00, 0.00, -0.00, -1.00, 740.3, 132.0)"> </text><text xml:space="preserve" font-family="Montserrat-Regular" font-size="36.5" fill="#000000" transform="matrix(1.00, 0.00, -0.00, -1.00, 749.7, 132.0)">a</text><text xml:space="preserve" font-family="Montserrat-Regular" font-size="36.5" fill="#000000" transform="matrix(1.00, 0.00, -0.00, -1.00, 771.1, 132.0)">n</text><text xml:space="preserve" font-family="Montserrat-Regular" font-size="36.5" fill="#000000" transform="matrix(1.00, 0.00, -0.00, -1.00, 795.3, 132.0)">d</text><text xml:space="preserve" font-family="Montserrat-Regular" font-size="36.5" fill="#000000" transform="matrix(1.00, 0.00, -0.00, -1.00, 820.1, 132.0)"> </text><text xml:space="preserve" font-family="Montserrat-Regular" font-size="36.5" fill="#000000" transform="matrix(1.00, 0.00, -0.00, -1.00, 829.5, 132.0)">o</text><text xml:space="preserve" font-family="Montserrat-Regular" font-size="36.5" fill="#000000" transform="matrix(1.00, 0.00, -0.00, -1.00, 852.3, 132.0)">t</text><text xml:space="preserve" font-family="Montserrat-Regular" font-size="36.5" fill="#000000" transform="matrix(1.00, 0.00, -0.00, -1.00, 867.1, 132.0)">h</text><text xml:space="preserve" font-family="Montserrat-Regular" font-size="36.5" fill="#000000" transform="matrix(1.00, 0.00, -0.00, -1.00, 891.5, 132.0)">e</text><text xml:space="preserve" font-family="Montserrat-Regular" font-size="36.5" fill="#000000" transform="matrix(1.00, 0.00, -0.00, -1.00, 913.0, 132.0)">r</text><text xml:space="preserve" font-family="Montserrat-Regular" font-size="36.5" fill="#000000" transform="matrix(1.00, 0.00, -0.00, -1.00, 927.3, 132.0)"> </text><text xml:space="preserve" font-family="Montserrat-Regular" font-size="36.5" fill="#000000" transform="matrix(1.00, 0.00, -0.00, -1.00, 593.0, 84.0)">l</text><text xml:space="preserve" font-family="Montserrat-Regular" font-size="36.5" fill="#000000" transform="matrix(1.00, 0.00, -0.00, -1.00, 603.8, 84.0)">e</text><text xml:space="preserve" font-family="Montserrat-Regular" font-size="36.5" fill="#000000" transform="matrix(1.00, 0.00, -0.00, -1.00, 625.2, 84.0)">a</text><text xml:space="preserve" font-family="Montserrat-Regular" font-size="36.5" fill="#000000" transform="matrix(1.00, 0.00, -0.00, -1.00, 646.5, 84.0)">r</text><text xml:space="preserve" font-family="Montserrat-Regular" font-size="36.5" fill="#000000" transform="matrix(1.00, 0.00, -0.00, -1.00, 660.9, 84.0)">n</text><text xml:space="preserve" font-family="Montserrat-Regular" font-size="36.5" fill="#000000" transform="matrix(1.00, 0.00, -0.00, -1.00, 685.1, 84.0)">i</text><text xml:space="preserve" font-family="Montserrat-Regular" font-size="36.5" fill="#000000" transform="matrix(1.00, 0.00, -0.00, -1.00, 695.4, 84.0)">n</text><text xml:space="preserve" font-family="Montserrat-Regular" font-size="36.5" fill="#000000" transform="matrix(1.00, 0.00, -0.00, -1.00, 719.6, 84.0)">g</text><text xml:space="preserve" font-family="Montserrat-Regular" font-size="36.5" fill="#000000" transform="matrix(1.00, 0.00, -0.00, -1.00, 742.9, 84.0)"> </text><text xml:space="preserve" font-family="Montserrat-Regular" font-size="36.5" fill="#000000" transform="matrix(1.00, 0.00, -0.00, -1.00, 752.3, 84.0)">d</text><text xml:space="preserve" font-family="Montserrat-Regular" font-size="36.5" fill="#000000" transform="matrix(1.00, 0.00, -0.00, -1.00, 777.2, 84.0)">i</text><text xml:space="preserve" font-family="Montserrat-Regular" font-size="36.5" fill="#000000" transform="matrix(1.00, 0.00, -0.00, -1.00, 787.5, 84.0)">s</text><text xml:space="preserve" font-family="Montserrat-Regular" font-size="36.5" fill="#000000" transform="matrix(1.00, 0.00, -0.00, -1.00, 804.7, 84.0)">a</text><text xml:space="preserve" font-family="Montserrat-Regular" font-size="36.5" fill="#000000" transform="matrix(1.00, 0.00, -0.00, -1.00, 826.0, 84.0)">b</text><text xml:space="preserve" font-family="Montserrat-Regular" font-size="36.5" fill="#000000" transform="matrix(1.00, 0.00, -0.00, -1.00, 850.8, 84.0)">i</text><text xml:space="preserve" font-family="Montserrat-Regular" font-size="36.5" fill="#000000" transform="matrix(1.00, 0.00, -0.00, -1.00, 861.2, 84.0)">l</text><text xml:space="preserve" font-family="Montserrat-Regular" font-size="36.5" fill="#000000" transform="matrix(1.00, 0.00, -0.00, -1.00, 871.9, 84.0)">i</text><text xml:space="preserve" font-family="Montserrat-Regular" font-size="36.5" fill="#000000" transform="matrix(1.00, 0.00, -0.00, -1.00, 882.3, 84.0)">t</text><text xml:space="preserve" font-family="Montserrat-Regular" font-size="36.5" fill="#000000" transform="matrix(1.00, 0.00, -0.00, -1.00, 897.1, 84.0)">i</text><text xml:space="preserve" font-family="Montserrat-Regular" font-size="36.5" fill="#000000" transform="matrix(1.00, 0.00, -0.00, -1.00, 907.5, 84.0)">e</text><text xml:space="preserve" font-family="Montserrat-Regular" font-size="36.5" fill="#000000" transform="matrix(1.00, 0.00, -0.00, -1.00, 928.9, 84.0)">s</text></g></svg>