<?xml version="1.0" encoding="UTF-8" standalone="no"?><svg xmlns="http://www.w3.org/2000/svg" xmlns:xlink="http://www.w3.org/1999/xlink" clip-rule="evenodd" stroke-miterlimit="4.00" viewBox="0 0 1024 768"><desc>SVG generated by Keynote</desc><defs></defs><g transform="matrix(1.00, 0.00, -0.00, -1.00, 0.0, 768.0)"><path d="M 0.0 768.0 L 1024.0 768.0 L 1024.0 0.0 L 0.0 0.0 Z M 0.0 768.0 " fill="#FFFFFF"></path><text xml:space="preserve" font-family="Montserrat-Regular" font-size="38.0" fill="#000000" transform="matrix(1.00, 0.00, -0.00, -1.00, 90.0, 647.0)">V</text><text xml:space="preserve" font-family="Montserrat-Regular" font-size="38.0" fill="#000000" transform="matrix(1.00, 0.00, -0.00, -1.00, 116.2, 647.0)">i</text><text xml:space="preserve" font-family="Montserrat-Regular" font-size="38.0" fill="#000000" transform="matrix(1.00, 0.00, -0.00, -1.00, 127.0, 647.0)">s</text><text xml:space="preserve" font-family="Montserrat-Regular" font-size="38.0" fill="#000000" transform="matrix(1.00, 0.00, -0.00, -1.00, 144.9, 647.0)">u</text><text xml:space="preserve" font-family="Montserrat-Regular" font-size="38.0" fill="#000000" transform="matrix(1.00, 0.00, -0.00, -1.00, 169.7, 647.0)">a</text><text xml:space="preserve" font-family="Montserrat-Regular" font-size="38.0" fill="#000000" transform="matrix(1.00, 0.00, -0.00, -1.00, 192.0, 647.0)">l</text><text xml:space="preserve" font-family="Montserrat-Regular" font-size="38.0" fill="#000000" transform="matrix(1.00, 0.00, -0.00, -1.00, 203.2, 647.0)"> </text><g><clipPath id="clip-241"><path d="M 89.1 641.7 L 203.2 641.7 L 203.2 645.6 L 89.1 645.6 Z M 89.1 641.7 "></path></clipPath><g clip-path="url(#clip-241)"><path d="M 4.0 71.9 L 117.2 71.9 " fill="none" stroke="#000000" stroke-width="1.90" stroke-miterlimit="0.00" transform="matrix(1.00, 0.00, 0.00, -1.00, 86.1, 715.6)"></path></g></g><text xml:space="preserve" font-family="Montserrat-Regular" font-size="38.0" fill="#000000" transform="matrix(1.00, 0.00, -0.00, -1.00, 107.0, 597.0)">M</text><text xml:space="preserve" font-family="Montserrat-Regular" font-size="38.0" fill="#000000" transform="matrix(1.00, 0.00, -0.00, -1.00, 142.2, 597.0)">y</text><text xml:space="preserve" font-family="Montserrat-Regular" font-size="38.0" fill="#000000" transform="matrix(1.00, 0.00, -0.00, -1.00, 161.6, 597.0)">o</text><text xml:space="preserve" font-family="Montserrat-Regular" font-size="38.0" fill="#000000" transform="matrix(1.00, 0.00, -0.00, -1.00, 185.3, 597.0)">p</text><text xml:space="preserve" font-family="Montserrat-Regular" font-size="38.0" fill="#000000" transform="matrix(1.00, 0.00, -0.00, -1.00, 211.2, 597.0)">i</text><text xml:space="preserve" font-family="Montserrat-Regular" font-size="38.0" fill="#000000" transform="matrix(1.00, 0.00, -0.00, -1.00, 222.0, 597.0)">a</text><text xml:space="preserve" font-family="Montserrat-Regular" font-size="38.0" fill="#000000" transform="matrix(1.00, 0.00, -0.00, -1.00, 244.2, 597.0)"> </text><text xml:space="preserve" font-family="Montserrat-Regular" font-size="38.0" fill="#000000" transform="matrix(1.00, 0.00, -0.00, -1.00, 107.0, 547.0)">C</text><text xml:space="preserve" font-family="Montserrat-Regular" font-size="38.0" fill="#000000" transform="matrix(1.00, 0.00, -0.00, -1.00, 132.9, 547.0)">o</text><text xml:space="preserve" font-family="Montserrat-Regular" font-size="38.0" fill="#000000" transform="matrix(1.00, 0.00, -0.00, -1.00, 156.7, 547.0)">l</text><text xml:space="preserve" font-family="Montserrat-Regular" font-size="38.0" fill="#000000" transform="matrix(1.00, 0.00, -0.00, -1.00, 167.9, 547.0)">o</text><text xml:space="preserve" font-family="Montserrat-Regular" font-size="38.0" fill="#000000" transform="matrix(1.00, 0.00, -0.00, -1.00, 191.6, 547.0)">r</text><text xml:space="preserve" font-family="Montserrat-Regular" font-size="38.0" fill="#000000" transform="matrix(1.00, 0.00, -0.00, -1.00, 206.6, 547.0)"> </text><text xml:space="preserve" font-family="Montserrat-Regular" font-size="38.0" fill="#000000" transform="matrix(1.00, 0.00, -0.00, -1.00, 216.4, 547.0)">B</text><text xml:space="preserve" font-family="Montserrat-Regular" font-size="38.0" fill="#000000" transform="matrix(1.00, 0.00, -0.00, -1.00, 243.2, 547.0)">l</text><text xml:space="preserve" font-family="Montserrat-Regular" font-size="38.0" fill="#000000" transform="matrix(1.00, 0.00, -0.00, -1.00, 254.4, 547.0)">i</text><text xml:space="preserve" font-family="Montserrat-Regular" font-size="38.0" fill="#000000" transform="matrix(1.00, 0.00, -0.00, -1.00, 265.2, 547.0)">n</text><text xml:space="preserve" font-family="Montserrat-Regular" font-size="38.0" fill="#000000" transform="matrix(1.00, 0.00, -0.00, -1.00, 290.4, 547.0)">d</text><text xml:space="preserve" font-family="Montserrat-Regular" font-size="38.0" fill="#000000" transform="matrix(1.00, 0.00, -0.00, -1.00, 316.3, 547.0)">n</text><text xml:space="preserve" font-family="Montserrat-Regular" font-size="38.0" fill="#000000" transform="matrix(1.00, 0.00, -0.00, -1.00, 341.5, 547.0)">e</text><text xml:space="preserve" font-family="Montserrat-Regular" font-size="38.0" fill="#000000" transform="matrix(1.00, 0.00, -0.00, -1.00, 363.9, 547.0)">s</text><text xml:space="preserve" font-family="Montserrat-Regular" font-size="38.0" fill="#000000" transform="matrix(1.00, 0.00, -0.00, -1.00, 381.7, 547.0)">s</text><text xml:space="preserve" font-family="Montserrat-Regular" font-size="38.0" fill="#000000" transform="matrix(1.00, 0.00, -0.00, -1.00, 399.6, 547.0)"> </text><text xml:space="preserve" font-family="Montserrat-Regular" font-size="38.0" fill="#000000" transform="matrix(1.00, 0.00, -0.00, -1.00, 107.0, 497.0)">G</text><text xml:space="preserve" font-family="Montserrat-Regular" font-size="38.0" fill="#000000" transform="matrix(1.00, 0.00, -0.00, -1.00, 135.5, 497.0)">l</text><text xml:space="preserve" font-family="Montserrat-Regular" font-size="38.0" fill="#000000" transform="matrix(1.00, 0.00, -0.00, -1.00, 146.7, 497.0)">a</text><text xml:space="preserve" font-family="Montserrat-Regular" font-size="38.0" fill="#000000" transform="matrix(1.00, 0.00, -0.00, -1.00, 168.9, 497.0)">u</text><text xml:space="preserve" font-family="Montserrat-Regular" font-size="38.0" fill="#000000" transform="matrix(1.00, 0.00, -0.00, -1.00, 193.8, 497.0)">c</text><text xml:space="preserve" font-family="Montserrat-Regular" font-size="38.0" fill="#000000" transform="matrix(1.00, 0.00, -0.00, -1.00, 214.4, 497.0)">o</text><text xml:space="preserve" font-family="Montserrat-Regular" font-size="38.0" fill="#000000" transform="matrix(1.00, 0.00, -0.00, -1.00, 238.1, 497.0)">m</text><text xml:space="preserve" font-family="Montserrat-Regular" font-size="38.0" fill="#000000" transform="matrix(1.00, 0.00, -0.00, -1.00, 277.8, 497.0)">a</text><text xml:space="preserve" font-family="Montserrat-Regular" font-size="38.0" fill="#000000" transform="matrix(1.00, 0.00, -0.00, -1.00, 300.0, 497.0)"> </text><text xml:space="preserve" font-family="Montserrat-Regular" font-size="38.0" fill="#000000" transform="matrix(1.00, 0.00, -0.00, -1.00, 107.0, 447.0)">A</text><text xml:space="preserve" font-family="Montserrat-Regular" font-size="38.0" fill="#000000" transform="matrix(1.00, 0.00, -0.00, -1.00, 135.0, 447.0)">l</text><text xml:space="preserve" font-family="Montserrat-Regular" font-size="38.0" fill="#000000" transform="matrix(1.00, 0.00, -0.00, -1.00, 146.3, 447.0)">b</text><text xml:space="preserve" font-family="Montserrat-Regular" font-size="38.0" fill="#000000" transform="matrix(1.00, 0.00, -0.00, -1.00, 172.1, 447.0)">i</text><text xml:space="preserve" font-family="Montserrat-Regular" font-size="38.0" fill="#000000" transform="matrix(1.00, 0.00, -0.00, -1.00, 182.9, 447.0)">n</text><text xml:space="preserve" font-family="Montserrat-Regular" font-size="38.0" fill="#000000" transform="matrix(1.00, 0.00, -0.00, -1.00, 208.1, 447.0)">i</text><text xml:space="preserve" font-family="Montserrat-Regular" font-size="38.0" fill="#000000" transform="matrix(1.00, 0.00, -0.00, -1.00, 218.9, 447.0)">s</text><text xml:space="preserve" font-family="Montserrat-Regular" font-size="38.0" fill="#000000" transform="matrix(1.00, 0.00, -0.00, -1.00, 236.7, 447.0)">m</text><text xml:space="preserve" font-family="Montserrat-Regular" font-size="38.0" fill="#000000" transform="matrix(1.00, 0.00, -0.00, -1.00, 276.4, 447.0)"> </text><text xml:space="preserve" font-family="Montserrat-Regular" font-size="38.0" fill="#000000" transform="matrix(1.00, 0.00, -0.00, -1.00, 90.0, 347.0)">A</text><text xml:space="preserve" font-family="Montserrat-Regular" font-size="38.0" fill="#000000" transform="matrix(1.00, 0.00, -0.00, -1.00, 117.1, 347.0)">u</text><text xml:space="preserve" font-family="Montserrat-Regular" font-size="38.0" fill="#000000" transform="matrix(1.00, 0.00, -0.00, -1.00, 141.9, 347.0)">d</text><text xml:space="preserve" font-family="Montserrat-Regular" font-size="38.0" fill="#000000" transform="matrix(1.00, 0.00, -0.00, -1.00, 167.8, 347.0)">i</text><text xml:space="preserve" font-family="Montserrat-Regular" font-size="38.0" fill="#000000" transform="matrix(1.00, 0.00, -0.00, -1.00, 178.6, 347.0)">t</text><text xml:space="preserve" font-family="Montserrat-Regular" font-size="38.0" fill="#000000" transform="matrix(1.00, 0.00, -0.00, -1.00, 193.8, 347.0)">o</text><text xml:space="preserve" font-family="Montserrat-Regular" font-size="38.0" fill="#000000" transform="matrix(1.00, 0.00, -0.00, -1.00, 217.6, 347.0)">r</text><text xml:space="preserve" font-family="Montserrat-Regular" font-size="38.0" fill="#000000" transform="matrix(1.00, 0.00, -0.00, -1.00, 233.5, 347.0)">y</text><text xml:space="preserve" font-family="Montserrat-Regular" font-size="38.0" fill="#000000" transform="matrix(1.00, 0.00, -0.00, -1.00, 253.7, 347.0)"> </text><g><clipPath id="clip-242"><path d="M 89.1 341.7 L 253.8 341.7 L 253.8 345.6 L 89.1 345.6 Z M 89.1 341.7 "></path></clipPath><g clip-path="url(#clip-242)"><path d="M 4.0 371.9 L 167.7 371.9 " fill="none" stroke="#000000" stroke-width="1.90" stroke-miterlimit="0.00" transform="matrix(1.00, 0.00, 0.00, -1.00, 86.1, 715.6)"></path></g></g><text xml:space="preserve" font-family="Montserrat-Regular" font-size="38.0" fill="#000000" transform="matrix(1.00, 0.00, -0.00, -1.00, 90.0, 297.0)">P</text><text xml:space="preserve" font-family="Montserrat-Regular" font-size="38.0" fill="#000000" transform="matrix(1.00, 0.00, -0.00, -1.00, 115.6, 297.0)">r</text><text xml:space="preserve" font-family="Montserrat-Regular" font-size="38.0" fill="#000000" transform="matrix(1.00, 0.00, -0.00, -1.00, 130.5, 297.0)">e</text><text xml:space="preserve" font-family="Montserrat-Regular" font-size="38.0" fill="#000000" transform="matrix(1.00, 0.00, -0.00, -1.00, 152.9, 297.0)">s</text><text xml:space="preserve" font-family="Montserrat-Regular" font-size="38.0" fill="#000000" transform="matrix(1.00, 0.00, -0.00, -1.00, 170.8, 297.0)">b</text><text xml:space="preserve" font-family="Montserrat-Regular" font-size="38.0" fill="#000000" transform="matrix(1.00, 0.00, -0.00, -1.00, 195.8, 297.0)">y</text><text xml:space="preserve" font-family="Montserrat-Regular" font-size="38.0" fill="#000000" transform="matrix(1.00, 0.00, -0.00, -1.00, 215.2, 297.0)">c</text><text xml:space="preserve" font-family="Montserrat-Regular" font-size="38.0" fill="#000000" transform="matrix(1.00, 0.00, -0.00, -1.00, 236.7, 297.0)">u</text><text xml:space="preserve" font-family="Montserrat-Regular" font-size="38.0" fill="#000000" transform="matrix(1.00, 0.00, -0.00, -1.00, 261.5, 297.0)">s</text><text xml:space="preserve" font-family="Montserrat-Regular" font-size="38.0" fill="#000000" transform="matrix(1.00, 0.00, -0.00, -1.00, 279.4, 297.0)">i</text><text xml:space="preserve" font-family="Montserrat-Regular" font-size="38.0" fill="#000000" transform="matrix(1.00, 0.00, -0.00, -1.00, 290.1, 297.0)">s</text><text xml:space="preserve" font-family="Montserrat-Regular" font-size="38.0" fill="#000000" transform="matrix(1.00, 0.00, -0.00, -1.00, 308.0, 297.0)"> </text><text xml:space="preserve" font-family="Montserrat-Regular" font-size="38.0" fill="#000000" transform="matrix(1.00, 0.00, -0.00, -1.00, 90.0, 247.0)">A</text><text xml:space="preserve" font-family="Montserrat-Regular" font-size="38.0" fill="#000000" transform="matrix(1.00, 0.00, -0.00, -1.00, 117.1, 247.0)">c</text><text xml:space="preserve" font-family="Montserrat-Regular" font-size="38.0" fill="#000000" transform="matrix(1.00, 0.00, -0.00, -1.00, 137.7, 247.0)">o</text><text xml:space="preserve" font-family="Montserrat-Regular" font-size="38.0" fill="#000000" transform="matrix(1.00, 0.00, -0.00, -1.00, 161.4, 247.0)">u</text><text xml:space="preserve" font-family="Montserrat-Regular" font-size="38.0" fill="#000000" transform="matrix(1.00, 0.00, -0.00, -1.00, 186.3, 247.0)">s</text><text xml:space="preserve" font-family="Montserrat-Regular" font-size="38.0" fill="#000000" transform="matrix(1.00, 0.00, -0.00, -1.00, 204.1, 247.0)">t</text><text xml:space="preserve" font-family="Montserrat-Regular" font-size="38.0" fill="#000000" transform="matrix(1.00, 0.00, -0.00, -1.00, 219.6, 247.0)">i</text><text xml:space="preserve" font-family="Montserrat-Regular" font-size="38.0" fill="#000000" transform="matrix(1.00, 0.00, -0.00, -1.00, 230.4, 247.0)">c</text><text xml:space="preserve" font-family="Montserrat-Regular" font-size="38.0" fill="#000000" transform="matrix(1.00, 0.00, -0.00, -1.00, 251.8, 247.0)"> </text><text xml:space="preserve" font-family="Montserrat-Regular" font-size="38.0" fill="#000000" transform="matrix(1.00, 0.00, -0.00, -1.00, 261.6, 247.0)">t</text><text xml:space="preserve" font-family="Montserrat-Regular" font-size="38.0" fill="#000000" transform="matrix(1.00, 0.00, -0.00, -1.00, 277.1, 247.0)">r</text><text xml:space="preserve" font-family="Montserrat-Regular" font-size="38.0" fill="#000000" transform="matrix(1.00, 0.00, -0.00, -1.00, 291.2, 247.0)">a</text><text xml:space="preserve" font-family="Montserrat-Regular" font-size="38.0" fill="#000000" transform="matrix(1.00, 0.00, -0.00, -1.00, 313.5, 247.0)">u</text><text xml:space="preserve" font-family="Montserrat-Regular" font-size="38.0" fill="#000000" transform="matrix(1.00, 0.00, -0.00, -1.00, 338.3, 247.0)">m</text><text xml:space="preserve" font-family="Montserrat-Regular" font-size="38.0" fill="#000000" transform="matrix(1.00, 0.00, -0.00, -1.00, 378.0, 247.0)">a</text><text xml:space="preserve" font-family="Montserrat-Regular" font-size="38.0" fill="#000000" transform="matrix(1.00, 0.00, -0.00, -1.00, 400.2, 247.0)"> </text><text xml:space="preserve" font-family="Montserrat-Regular" font-size="38.0" fill="#000000" transform="matrix(1.00, 0.00, -0.00, -1.00, 90.0, 197.0)">A</text><text xml:space="preserve" font-family="Montserrat-Regular" font-size="38.0" fill="#000000" transform="matrix(1.00, 0.00, -0.00, -1.00, 117.1, 197.0)">u</text><text xml:space="preserve" font-family="Montserrat-Regular" font-size="38.0" fill="#000000" transform="matrix(1.00, 0.00, -0.00, -1.00, 141.9, 197.0)">d</text><text xml:space="preserve" font-family="Montserrat-Regular" font-size="38.0" fill="#000000" transform="matrix(1.00, 0.00, -0.00, -1.00, 167.8, 197.0)">i</text><text xml:space="preserve" font-family="Montserrat-Regular" font-size="38.0" fill="#000000" transform="matrix(1.00, 0.00, -0.00, -1.00, 178.6, 197.0)">t</text><text xml:space="preserve" font-family="Montserrat-Regular" font-size="38.0" fill="#000000" transform="matrix(1.00, 0.00, -0.00, -1.00, 193.8, 197.0)">o</text><text xml:space="preserve" font-family="Montserrat-Regular" font-size="38.0" fill="#000000" transform="matrix(1.00, 0.00, -0.00, -1.00, 217.6, 197.0)">r</text><text xml:space="preserve" font-family="Montserrat-Regular" font-size="38.0" fill="#000000" transform="matrix(1.00, 0.00, -0.00, -1.00, 233.5, 197.0)">y</text><text xml:space="preserve" font-family="Montserrat-Regular" font-size="38.0" fill="#000000" transform="matrix(1.00, 0.00, -0.00, -1.00, 253.7, 197.0)"> </text><text xml:space="preserve" font-family="Montserrat-Regular" font-size="38.0" fill="#000000" transform="matrix(1.00, 0.00, -0.00, -1.00, 263.5, 197.0)">P</text><text xml:space="preserve" font-family="Montserrat-Regular" font-size="38.0" fill="#000000" transform="matrix(1.00, 0.00, -0.00, -1.00, 289.1, 197.0)">r</text><text xml:space="preserve" font-family="Montserrat-Regular" font-size="38.0" fill="#000000" transform="matrix(1.00, 0.00, -0.00, -1.00, 304.1, 197.0)">o</text><text xml:space="preserve" font-family="Montserrat-Regular" font-size="38.0" fill="#000000" transform="matrix(1.00, 0.00, -0.00, -1.00, 327.8, 197.0)">c</text><text xml:space="preserve" font-family="Montserrat-Regular" font-size="38.0" fill="#000000" transform="matrix(1.00, 0.00, -0.00, -1.00, 348.4, 197.0)">e</text><text xml:space="preserve" font-family="Montserrat-Regular" font-size="38.0" fill="#000000" transform="matrix(1.00, 0.00, -0.00, -1.00, 370.8, 197.0)">s</text><text xml:space="preserve" font-family="Montserrat-Regular" font-size="38.0" fill="#000000" transform="matrix(1.00, 0.00, -0.00, -1.00, 388.6, 197.0)">s</text><text xml:space="preserve" font-family="Montserrat-Regular" font-size="38.0" fill="#000000" transform="matrix(1.00, 0.00, -0.00, -1.00, 406.5, 197.0)">i</text><text xml:space="preserve" font-family="Montserrat-Regular" font-size="38.0" fill="#000000" transform="matrix(1.00, 0.00, -0.00, -1.00, 417.3, 197.0)">n</text><text xml:space="preserve" font-family="Montserrat-Regular" font-size="38.0" fill="#000000" transform="matrix(1.00, 0.00, -0.00, -1.00, 442.5, 197.0)">g</text><text xml:space="preserve" font-family="Montserrat-Regular" font-size="38.0" fill="#000000" transform="matrix(1.00, 0.00, -0.00, -1.00, 466.8, 197.0)"> </text><text xml:space="preserve" font-family="Montserrat-Regular" font-size="38.0" fill="#000000" transform="matrix(1.00, 0.00, -0.00, -1.00, 127.0, 147.0)">D</text><text xml:space="preserve" font-family="Montserrat-Regular" font-size="38.0" fill="#000000" transform="matrix(1.00, 0.00, -0.00, -1.00, 156.4, 147.0)">i</text><text xml:space="preserve" font-family="Montserrat-Regular" font-size="38.0" fill="#000000" transform="matrix(1.00, 0.00, -0.00, -1.00, 167.2, 147.0)">s</text><text xml:space="preserve" font-family="Montserrat-Regular" font-size="38.0" fill="#000000" transform="matrix(1.00, 0.00, -0.00, -1.00, 185.1, 147.0)">o</text><text xml:space="preserve" font-family="Montserrat-Regular" font-size="38.0" fill="#000000" transform="matrix(1.00, 0.00, -0.00, -1.00, 208.9, 147.0)">r</text><text xml:space="preserve" font-family="Montserrat-Regular" font-size="38.0" fill="#000000" transform="matrix(1.00, 0.00, -0.00, -1.00, 223.8, 147.0)">d</text><text xml:space="preserve" font-family="Montserrat-Regular" font-size="38.0" fill="#000000" transform="matrix(1.00, 0.00, -0.00, -1.00, 249.7, 147.0)">e</text><text xml:space="preserve" font-family="Montserrat-Regular" font-size="38.0" fill="#000000" transform="matrix(1.00, 0.00, -0.00, -1.00, 272.1, 147.0)">r</text><text xml:space="preserve" font-family="Montserrat-Regular" font-size="38.0" fill="#000000" transform="matrix(1.00, 0.00, -0.00, -1.00, 287.1, 147.0)"> </text><text xml:space="preserve" font-family="Montserrat-Regular" font-size="38.0" fill="#000000" transform="matrix(1.00, 0.00, -0.00, -1.00, 90.0, 97.0)">O</text><text xml:space="preserve" font-family="Montserrat-Regular" font-size="38.0" fill="#000000" transform="matrix(1.00, 0.00, -0.00, -1.00, 120.8, 97.0)">t</text><text xml:space="preserve" font-family="Montserrat-Regular" font-size="38.0" fill="#000000" transform="matrix(1.00, 0.00, -0.00, -1.00, 136.0, 97.0)">o</text><text xml:space="preserve" font-family="Montserrat-Regular" font-size="38.0" fill="#000000" transform="matrix(1.00, 0.00, -0.00, -1.00, 159.8, 97.0)">s</text><text xml:space="preserve" font-family="Montserrat-Regular" font-size="38.0" fill="#000000" transform="matrix(1.00, 0.00, -0.00, -1.00, 177.6, 97.0)">c</text><text xml:space="preserve" font-family="Montserrat-Regular" font-size="38.0" fill="#000000" transform="matrix(1.00, 0.00, -0.00, -1.00, 199.1, 97.0)">l</text><text xml:space="preserve" font-family="Montserrat-Regular" font-size="38.0" fill="#000000" transform="matrix(1.00, 0.00, -0.00, -1.00, 210.3, 97.0)">e</text><text xml:space="preserve" font-family="Montserrat-Regular" font-size="38.0" fill="#000000" transform="matrix(1.00, 0.00, -0.00, -1.00, 232.6, 97.0)">r</text><text xml:space="preserve" font-family="Montserrat-Regular" font-size="38.0" fill="#000000" transform="matrix(1.00, 0.00, -0.00, -1.00, 247.6, 97.0)">o</text><text xml:space="preserve" font-family="Montserrat-Regular" font-size="38.0" fill="#000000" transform="matrix(1.00, 0.00, -0.00, -1.00, 271.3, 97.0)">s</text><text xml:space="preserve" font-family="Montserrat-Regular" font-size="38.0" fill="#000000" transform="matrix(1.00, 0.00, -0.00, -1.00, 289.2, 97.0)">i</text><text xml:space="preserve" font-family="Montserrat-Regular" font-size="38.0" fill="#000000" transform="matrix(1.00, 0.00, -0.00, -1.00, 300.0, 97.0)">s</text><text xml:space="preserve" font-family="Montserrat-Regular" font-size="36.0" fill="#000000" transform="matrix(1.00, 0.00, -0.00, -1.00, 523.0, 655.0)">M</text><text xml:space="preserve" font-family="Montserrat-Regular" font-size="36.0" fill="#000000" transform="matrix(1.00, 0.00, -0.00, -1.00, 556.3, 655.0)">o</text><text xml:space="preserve" font-family="Montserrat-Regular" font-size="36.0" fill="#000000" transform="matrix(1.00, 0.00, -0.00, -1.00, 578.8, 655.0)">t</text><text xml:space="preserve" font-family="Montserrat-Regular" font-size="36.0" fill="#000000" transform="matrix(1.00, 0.00, -0.00, -1.00, 593.2, 655.0)">o</text><text xml:space="preserve" font-family="Montserrat-Regular" font-size="36.0" fill="#000000" transform="matrix(1.00, 0.00, -0.00, -1.00, 615.7, 655.0)">r</text><text xml:space="preserve" font-family="Montserrat-Regular" font-size="36.0" fill="#000000" transform="matrix(1.00, 0.00, -0.00, -1.00, 629.9, 655.0)"> </text><g><clipPath id="clip-243"><path d="M 521.6 650.1 L 629.5 650.1 L 629.5 653.9 L 521.6 653.9 Z M 521.6 650.1 "></path></clipPath><g clip-path="url(#clip-243)"><path d="M 4.0 41.5 L 110.9 41.5 " fill="none" stroke="#000000" stroke-width="1.80" stroke-miterlimit="0.00" transform="matrix(1.00, 0.00, 0.00, -1.00, 518.6, 693.5)"></path></g></g><text xml:space="preserve" font-family="Montserrat-Regular" font-size="27.0" fill="#000000" transform="matrix(1.00, 0.00, -0.00, -1.00, 538.4, 610.7)">•</text><text xml:space="preserve" font-family="Montserrat-Regular" font-size="36.0" fill="#000000" transform="matrix(1.00, 0.00, -0.00, -1.00, 573.0, 608.0)">C</text><text xml:space="preserve" font-family="Montserrat-Regular" font-size="36.0" fill="#000000" transform="matrix(1.00, 0.00, -0.00, -1.00, 597.6, 608.0)">e</text><text xml:space="preserve" font-family="Montserrat-Regular" font-size="36.0" fill="#000000" transform="matrix(1.00, 0.00, -0.00, -1.00, 618.7, 608.0)">r</text><text xml:space="preserve" font-family="Montserrat-Regular" font-size="36.0" fill="#000000" transform="matrix(1.00, 0.00, -0.00, -1.00, 632.9, 608.0)">e</text><text xml:space="preserve" font-family="Montserrat-Regular" font-size="36.0" fill="#000000" transform="matrix(1.00, 0.00, -0.00, -1.00, 654.1, 608.0)">b</text><text xml:space="preserve" font-family="Montserrat-Regular" font-size="36.0" fill="#000000" transform="matrix(1.00, 0.00, -0.00, -1.00, 678.6, 608.0)">r</text><text xml:space="preserve" font-family="Montserrat-Regular" font-size="36.0" fill="#000000" transform="matrix(1.00, 0.00, -0.00, -1.00, 692.0, 608.0)">a</text><text xml:space="preserve" font-family="Montserrat-Regular" font-size="36.0" fill="#000000" transform="matrix(1.00, 0.00, -0.00, -1.00, 713.1, 608.0)">l</text><text xml:space="preserve" font-family="Montserrat-Regular" font-size="36.0" fill="#000000" transform="matrix(1.00, 0.00, -0.00, -1.00, 723.7, 608.0)"> </text><text xml:space="preserve" font-family="Montserrat-Regular" font-size="36.0" fill="#000000" transform="matrix(1.00, 0.00, -0.00, -1.00, 733.0, 608.0)">p</text><text xml:space="preserve" font-family="Montserrat-Regular" font-size="36.0" fill="#000000" transform="matrix(1.00, 0.00, -0.00, -1.00, 757.5, 608.0)">a</text><text xml:space="preserve" font-family="Montserrat-Regular" font-size="36.0" fill="#000000" transform="matrix(1.00, 0.00, -0.00, -1.00, 778.6, 608.0)">l</text><text xml:space="preserve" font-family="Montserrat-Regular" font-size="36.0" fill="#000000" transform="matrix(1.00, 0.00, -0.00, -1.00, 789.2, 608.0)">s</text><text xml:space="preserve" font-family="Montserrat-Regular" font-size="36.0" fill="#000000" transform="matrix(1.00, 0.00, -0.00, -1.00, 805.9, 608.0)">y</text><text xml:space="preserve" font-family="Montserrat-Regular" font-size="36.0" fill="#000000" transform="matrix(1.00, 0.00, -0.00, -1.00, 825.0, 608.0)"> </text><text xml:space="preserve" font-family="Montserrat-Regular" font-size="27.0" fill="#000000" transform="matrix(1.00, 0.00, -0.00, -1.00, 538.4, 563.7)">•</text><text xml:space="preserve" font-family="Montserrat-Regular" font-size="36.0" fill="#000000" transform="matrix(1.00, 0.00, -0.00, -1.00, 573.0, 561.0)">R</text><text xml:space="preserve" font-family="Montserrat-Regular" font-size="36.0" fill="#000000" transform="matrix(1.00, 0.00, -0.00, -1.00, 599.0, 561.0)">S</text><text xml:space="preserve" font-family="Montserrat-Regular" font-size="36.0" fill="#000000" transform="matrix(1.00, 0.00, -0.00, -1.00, 621.4, 561.0)">I</text><text xml:space="preserve" font-family="Montserrat-Regular" font-size="36.0" fill="#000000" transform="matrix(1.00, 0.00, -0.00, -1.00, 632.3, 561.0)"> </text><text xml:space="preserve" font-family="Montserrat-Regular" font-size="27.0" fill="#000000" transform="matrix(1.00, 0.00, -0.00, -1.00, 538.4, 516.7)">•</text><text xml:space="preserve" font-family="Montserrat-Regular" font-size="36.0" fill="#000000" transform="matrix(1.00, 0.00, -0.00, -1.00, 573.0, 514.0)">P</text><text xml:space="preserve" font-family="Montserrat-Regular" font-size="36.0" fill="#000000" transform="matrix(1.00, 0.00, -0.00, -1.00, 597.2, 514.0)">a</text><text xml:space="preserve" font-family="Montserrat-Regular" font-size="36.0" fill="#000000" transform="matrix(1.00, 0.00, -0.00, -1.00, 618.3, 514.0)">r</text><text xml:space="preserve" font-family="Montserrat-Regular" font-size="36.0" fill="#000000" transform="matrix(1.00, 0.00, -0.00, -1.00, 632.5, 514.0)">k</text><text xml:space="preserve" font-family="Montserrat-Regular" font-size="36.0" fill="#000000" transform="matrix(1.00, 0.00, -0.00, -1.00, 653.9, 514.0)">i</text><text xml:space="preserve" font-family="Montserrat-Regular" font-size="36.0" fill="#000000" transform="matrix(1.00, 0.00, -0.00, -1.00, 664.2, 514.0)">n</text><text xml:space="preserve" font-family="Montserrat-Regular" font-size="36.0" fill="#000000" transform="matrix(1.00, 0.00, -0.00, -1.00, 688.0, 514.0)">s</text><text xml:space="preserve" font-family="Montserrat-Regular" font-size="36.0" fill="#000000" transform="matrix(1.00, 0.00, -0.00, -1.00, 704.9, 514.0)">o</text><text xml:space="preserve" font-family="Montserrat-Regular" font-size="36.0" fill="#000000" transform="matrix(1.00, 0.00, -0.00, -1.00, 727.4, 514.0)">n</text><text xml:space="preserve" font-family="Montserrat-Regular" font-size="36.0" fill="#000000" transform="matrix(1.00, 0.00, -0.00, -1.00, 751.3, 514.0)">’</text><text xml:space="preserve" font-family="Montserrat-Regular" font-size="36.0" fill="#000000" transform="matrix(1.00, 0.00, -0.00, -1.00, 759.0, 514.0)">s</text><text xml:space="preserve" font-family="Montserrat-Regular" font-size="36.0" fill="#000000" transform="matrix(1.00, 0.00, -0.00, -1.00, 775.9, 514.0)"> </text><text xml:space="preserve" font-family="Montserrat-Regular" font-size="27.0" fill="#000000" transform="matrix(1.00, 0.00, -0.00, -1.00, 538.4, 469.7)">•</text><text xml:space="preserve" font-family="Montserrat-Regular" font-size="36.0" fill="#000000" transform="matrix(1.00, 0.00, -0.00, -1.00, 573.0, 467.0)">M</text><text xml:space="preserve" font-family="Montserrat-Regular" font-size="36.0" fill="#000000" transform="matrix(1.00, 0.00, -0.00, -1.00, 606.3, 467.0)">u</text><text xml:space="preserve" font-family="Montserrat-Regular" font-size="36.0" fill="#000000" transform="matrix(1.00, 0.00, -0.00, -1.00, 629.8, 467.0)">s</text><text xml:space="preserve" font-family="Montserrat-Regular" font-size="36.0" fill="#000000" transform="matrix(1.00, 0.00, -0.00, -1.00, 646.7, 467.0)">c</text><text xml:space="preserve" font-family="Montserrat-Regular" font-size="36.0" fill="#000000" transform="matrix(1.00, 0.00, -0.00, -1.00, 667.0, 467.0)">u</text><text xml:space="preserve" font-family="Montserrat-Regular" font-size="36.0" fill="#000000" transform="matrix(1.00, 0.00, -0.00, -1.00, 690.5, 467.0)">l</text><text xml:space="preserve" font-family="Montserrat-Regular" font-size="36.0" fill="#000000" transform="matrix(1.00, 0.00, -0.00, -1.00, 701.2, 467.0)">a</text><text xml:space="preserve" font-family="Montserrat-Regular" font-size="36.0" fill="#000000" transform="matrix(1.00, 0.00, -0.00, -1.00, 722.3, 467.0)">r</text><text xml:space="preserve" font-family="Montserrat-Regular" font-size="36.0" fill="#000000" transform="matrix(1.00, 0.00, -0.00, -1.00, 736.4, 467.0)"> </text><text xml:space="preserve" font-family="Montserrat-Regular" font-size="36.0" fill="#000000" transform="matrix(1.00, 0.00, -0.00, -1.00, 745.7, 467.0)">D</text><text xml:space="preserve" font-family="Montserrat-Regular" font-size="36.0" fill="#000000" transform="matrix(1.00, 0.00, -0.00, -1.00, 773.4, 467.0)">y</text><text xml:space="preserve" font-family="Montserrat-Regular" font-size="36.0" fill="#000000" transform="matrix(1.00, 0.00, -0.00, -1.00, 792.3, 467.0)">s</text><text xml:space="preserve" font-family="Montserrat-Regular" font-size="36.0" fill="#000000" transform="matrix(1.00, 0.00, -0.00, -1.00, 809.3, 467.0)">t</text><text xml:space="preserve" font-family="Montserrat-Regular" font-size="36.0" fill="#000000" transform="matrix(1.00, 0.00, -0.00, -1.00, 823.9, 467.0)">r</text><text xml:space="preserve" font-family="Montserrat-Regular" font-size="36.0" fill="#000000" transform="matrix(1.00, 0.00, -0.00, -1.00, 838.1, 467.0)">o</text><text xml:space="preserve" font-family="Montserrat-Regular" font-size="36.0" fill="#000000" transform="matrix(1.00, 0.00, -0.00, -1.00, 860.6, 467.0)">p</text><text xml:space="preserve" font-family="Montserrat-Regular" font-size="36.0" fill="#000000" transform="matrix(1.00, 0.00, -0.00, -1.00, 885.1, 467.0)">h</text><text xml:space="preserve" font-family="Montserrat-Regular" font-size="36.0" fill="#000000" transform="matrix(1.00, 0.00, -0.00, -1.00, 908.6, 467.0)">y</text><text xml:space="preserve" font-family="Montserrat-Regular" font-size="36.0" fill="#000000" transform="matrix(1.00, 0.00, -0.00, -1.00, 927.7, 467.0)"> </text><text xml:space="preserve" font-family="Montserrat-Regular" font-size="36.0" fill="#000000" transform="matrix(1.00, 0.00, -0.00, -1.00, 523.0, 373.0)">C</text><text xml:space="preserve" font-family="Montserrat-Regular" font-size="36.0" fill="#000000" transform="matrix(1.00, 0.00, -0.00, -1.00, 547.6, 373.0)">o</text><text xml:space="preserve" font-family="Montserrat-Regular" font-size="36.0" fill="#000000" transform="matrix(1.00, 0.00, -0.00, -1.00, 570.1, 373.0)">g</text><text xml:space="preserve" font-family="Montserrat-Regular" font-size="36.0" fill="#000000" transform="matrix(1.00, 0.00, -0.00, -1.00, 593.1, 373.0)">n</text><text xml:space="preserve" font-family="Montserrat-Regular" font-size="36.0" fill="#000000" transform="matrix(1.00, 0.00, -0.00, -1.00, 617.0, 373.0)">i</text><text xml:space="preserve" font-family="Montserrat-Regular" font-size="36.0" fill="#000000" transform="matrix(1.00, 0.00, -0.00, -1.00, 627.2, 373.0)">t</text><text xml:space="preserve" font-family="Montserrat-Regular" font-size="36.0" fill="#000000" transform="matrix(1.00, 0.00, -0.00, -1.00, 641.8, 373.0)">i</text><text xml:space="preserve" font-family="Montserrat-Regular" font-size="36.0" fill="#000000" transform="matrix(1.00, 0.00, -0.00, -1.00, 652.1, 373.0)">v</text><text xml:space="preserve" font-family="Montserrat-Regular" font-size="36.0" fill="#000000" transform="matrix(1.00, 0.00, -0.00, -1.00, 670.2, 373.0)">e</text><text xml:space="preserve" font-family="Montserrat-Regular" font-size="36.0" fill="#000000" transform="matrix(1.00, 0.00, -0.00, -1.00, 691.4, 373.0)"> </text><g><clipPath id="clip-244"><path d="M 521.6 368.1 L 691.0 368.1 L 691.0 371.9 L 521.6 371.9 Z M 521.6 368.1 "></path></clipPath><g clip-path="url(#clip-244)"><path d="M 4.0 323.5 L 172.4 323.5 " fill="none" stroke="#000000" stroke-width="1.80" stroke-miterlimit="0.00" transform="matrix(1.00, 0.00, 0.00, -1.00, 518.6, 693.5)"></path></g></g><text xml:space="preserve" font-family="Montserrat-Regular" font-size="27.0" fill="#000000" transform="matrix(1.00, 0.00, -0.00, -1.00, 538.4, 328.7)">•</text><text xml:space="preserve" font-family="Montserrat-Regular" font-size="36.0" fill="#000000" transform="matrix(1.00, 0.00, -0.00, -1.00, 573.0, 326.0)">D</text><text xml:space="preserve" font-family="Montserrat-Regular" font-size="36.0" fill="#000000" transform="matrix(1.00, 0.00, -0.00, -1.00, 600.9, 326.0)">o</text><text xml:space="preserve" font-family="Montserrat-Regular" font-size="36.0" fill="#000000" transform="matrix(1.00, 0.00, -0.00, -1.00, 622.7, 326.0)">w</text><text xml:space="preserve" font-family="Montserrat-Regular" font-size="36.0" fill="#000000" transform="matrix(1.00, 0.00, -0.00, -1.00, 655.0, 326.0)">n</text><text xml:space="preserve" font-family="Montserrat-Regular" font-size="36.0" fill="#000000" transform="matrix(1.00, 0.00, -0.00, -1.00, 678.9, 326.0)">’</text><text xml:space="preserve" font-family="Montserrat-Regular" font-size="36.0" fill="#000000" transform="matrix(1.00, 0.00, -0.00, -1.00, 686.6, 326.0)">s</text><text xml:space="preserve" font-family="Montserrat-Regular" font-size="36.0" fill="#000000" transform="matrix(1.00, 0.00, -0.00, -1.00, 703.5, 326.0)"> </text><text xml:space="preserve" font-family="Montserrat-Regular" font-size="36.0" fill="#000000" transform="matrix(1.00, 0.00, -0.00, -1.00, 712.8, 326.0)">S</text><text xml:space="preserve" font-family="Montserrat-Regular" font-size="36.0" fill="#000000" transform="matrix(1.00, 0.00, -0.00, -1.00, 735.2, 326.0)">y</text><text xml:space="preserve" font-family="Montserrat-Regular" font-size="36.0" fill="#000000" transform="matrix(1.00, 0.00, -0.00, -1.00, 754.5, 326.0)">n</text><text xml:space="preserve" font-family="Montserrat-Regular" font-size="36.0" fill="#000000" transform="matrix(1.00, 0.00, -0.00, -1.00, 778.4, 326.0)">d</text><text xml:space="preserve" font-family="Montserrat-Regular" font-size="36.0" fill="#000000" transform="matrix(1.00, 0.00, -0.00, -1.00, 803.0, 326.0)">r</text><text xml:space="preserve" font-family="Montserrat-Regular" font-size="36.0" fill="#000000" transform="matrix(1.00, 0.00, -0.00, -1.00, 817.2, 326.0)">o</text><text xml:space="preserve" font-family="Montserrat-Regular" font-size="36.0" fill="#000000" transform="matrix(1.00, 0.00, -0.00, -1.00, 839.7, 326.0)">m</text><text xml:space="preserve" font-family="Montserrat-Regular" font-size="36.0" fill="#000000" transform="matrix(1.00, 0.00, -0.00, -1.00, 877.2, 326.0)">e</text><text xml:space="preserve" font-family="Montserrat-Regular" font-size="36.0" fill="#000000" transform="matrix(1.00, 0.00, -0.00, -1.00, 898.4, 326.0)"> </text><text xml:space="preserve" font-family="Montserrat-Regular" font-size="27.0" fill="#000000" transform="matrix(1.00, 0.00, -0.00, -1.00, 538.4, 281.7)">•</text><text xml:space="preserve" font-family="Montserrat-Regular" font-size="36.0" fill="#000000" transform="matrix(1.00, 0.00, -0.00, -1.00, 573.0, 279.0)">A</text><text xml:space="preserve" font-family="Montserrat-Regular" font-size="36.0" fill="#000000" transform="matrix(1.00, 0.00, -0.00, -1.00, 598.6, 279.0)">u</text><text xml:space="preserve" font-family="Montserrat-Regular" font-size="36.0" fill="#000000" transform="matrix(1.00, 0.00, -0.00, -1.00, 622.1, 279.0)">t</text><text xml:space="preserve" font-family="Montserrat-Regular" font-size="36.0" fill="#000000" transform="matrix(1.00, 0.00, -0.00, -1.00, 636.8, 279.0)">i</text><text xml:space="preserve" font-family="Montserrat-Regular" font-size="36.0" fill="#000000" transform="matrix(1.00, 0.00, -0.00, -1.00, 647.0, 279.0)">s</text><text xml:space="preserve" font-family="Montserrat-Regular" font-size="36.0" fill="#000000" transform="matrix(1.00, 0.00, -0.00, -1.00, 663.9, 279.0)">m</text><text xml:space="preserve" font-family="Montserrat-Regular" font-size="36.0" fill="#000000" transform="matrix(1.00, 0.00, -0.00, -1.00, 701.5, 279.0)"> </text><text xml:space="preserve" font-family="Montserrat-Regular" font-size="27.0" fill="#000000" transform="matrix(1.00, 0.00, -0.00, -1.00, 538.4, 234.7)">•</text><text xml:space="preserve" font-family="Montserrat-Regular" font-size="36.0" fill="#000000" transform="matrix(1.00, 0.00, -0.00, -1.00, 573.0, 232.0)">G</text><text xml:space="preserve" font-family="Montserrat-Regular" font-size="36.0" fill="#000000" transform="matrix(1.00, 0.00, -0.00, -1.00, 600.0, 232.0)">l</text><text xml:space="preserve" font-family="Montserrat-Regular" font-size="36.0" fill="#000000" transform="matrix(1.00, 0.00, -0.00, -1.00, 610.6, 232.0)">o</text><text xml:space="preserve" font-family="Montserrat-Regular" font-size="36.0" fill="#000000" transform="matrix(1.00, 0.00, -0.00, -1.00, 633.1, 232.0)">b</text><text xml:space="preserve" font-family="Montserrat-Regular" font-size="36.0" fill="#000000" transform="matrix(1.00, 0.00, -0.00, -1.00, 657.6, 232.0)">a</text><text xml:space="preserve" font-family="Montserrat-Regular" font-size="36.0" fill="#000000" transform="matrix(1.00, 0.00, -0.00, -1.00, 678.7, 232.0)">l</text><text xml:space="preserve" font-family="Montserrat-Regular" font-size="36.0" fill="#000000" transform="matrix(1.00, 0.00, -0.00, -1.00, 689.3, 232.0)"> </text><text xml:space="preserve" font-family="Montserrat-Regular" font-size="36.0" fill="#000000" transform="matrix(1.00, 0.00, -0.00, -1.00, 698.6, 232.0)">d</text><text xml:space="preserve" font-family="Montserrat-Regular" font-size="36.0" fill="#000000" transform="matrix(1.00, 0.00, -0.00, -1.00, 723.1, 232.0)">e</text><text xml:space="preserve" font-family="Montserrat-Regular" font-size="36.0" fill="#000000" transform="matrix(1.00, 0.00, -0.00, -1.00, 743.6, 232.0)">v</text><text xml:space="preserve" font-family="Montserrat-Regular" font-size="36.0" fill="#000000" transform="matrix(1.00, 0.00, -0.00, -1.00, 761.7, 232.0)">e</text><text xml:space="preserve" font-family="Montserrat-Regular" font-size="36.0" fill="#000000" transform="matrix(1.00, 0.00, -0.00, -1.00, 782.9, 232.0)">l</text><text xml:space="preserve" font-family="Montserrat-Regular" font-size="36.0" fill="#000000" transform="matrix(1.00, 0.00, -0.00, -1.00, 793.5, 232.0)">o</text><text xml:space="preserve" font-family="Montserrat-Regular" font-size="36.0" fill="#000000" transform="matrix(1.00, 0.00, -0.00, -1.00, 816.0, 232.0)">p</text><text xml:space="preserve" font-family="Montserrat-Regular" font-size="36.0" fill="#000000" transform="matrix(1.00, 0.00, -0.00, -1.00, 840.5, 232.0)">m</text><text xml:space="preserve" font-family="Montserrat-Regular" font-size="36.0" fill="#000000" transform="matrix(1.00, 0.00, -0.00, -1.00, 878.1, 232.0)">e</text><text xml:space="preserve" font-family="Montserrat-Regular" font-size="36.0" fill="#000000" transform="matrix(1.00, 0.00, -0.00, -1.00, 899.2, 232.0)">n</text><text xml:space="preserve" font-family="Montserrat-Regular" font-size="36.0" fill="#000000" transform="matrix(1.00, 0.00, -0.00, -1.00, 923.1, 232.0)">t</text><text xml:space="preserve" font-family="Montserrat-Regular" font-size="36.0" fill="#000000" transform="matrix(1.00, 0.00, -0.00, -1.00, 937.8, 232.0)">a</text><text xml:space="preserve" font-family="Montserrat-Regular" font-size="36.0" fill="#000000" transform="matrix(1.00, 0.00, -0.00, -1.00, 958.8, 232.0)">l</text><text xml:space="preserve" font-family="Montserrat-Regular" font-size="36.0" fill="#000000" transform="matrix(1.00, 0.00, -0.00, -1.00, 969.5, 232.0)"> </text><text xml:space="preserve" font-family="Montserrat-Regular" font-size="36.0" fill="#000000" transform="matrix(1.00, 0.00, -0.00, -1.00, 573.0, 185.0)">d</text><text xml:space="preserve" font-family="Montserrat-Regular" font-size="36.0" fill="#000000" transform="matrix(1.00, 0.00, -0.00, -1.00, 597.6, 185.0)">e</text><text xml:space="preserve" font-family="Montserrat-Regular" font-size="36.0" fill="#000000" transform="matrix(1.00, 0.00, -0.00, -1.00, 618.7, 185.0)">l</text><text xml:space="preserve" font-family="Montserrat-Regular" font-size="36.0" fill="#000000" transform="matrix(1.00, 0.00, -0.00, -1.00, 629.3, 185.0)">a</text><text xml:space="preserve" font-family="Montserrat-Regular" font-size="36.0" fill="#000000" transform="matrix(1.00, 0.00, -0.00, -1.00, 649.9, 185.0)">y</text><text xml:space="preserve" font-family="Montserrat-Regular" font-size="36.0" fill="#000000" transform="matrix(1.00, 0.00, -0.00, -1.00, 669.0, 185.0)"> </text><text xml:space="preserve" font-family="Montserrat-Regular" font-size="27.0" fill="#000000" transform="matrix(1.00, 0.00, -0.00, -1.00, 538.4, 140.7)">•</text><text xml:space="preserve" font-family="Montserrat-Regular" font-size="36.0" fill="#000000" transform="matrix(1.00, 0.00, -0.00, -1.00, 573.0, 138.0)">D</text><text xml:space="preserve" font-family="Montserrat-Regular" font-size="36.0" fill="#000000" transform="matrix(1.00, 0.00, -0.00, -1.00, 600.7, 138.0)">y</text><text xml:space="preserve" font-family="Montserrat-Regular" font-size="36.0" fill="#000000" transform="matrix(1.00, 0.00, -0.00, -1.00, 619.6, 138.0)">s</text><text xml:space="preserve" font-family="Montserrat-Regular" font-size="36.0" fill="#000000" transform="matrix(1.00, 0.00, -0.00, -1.00, 636.5, 138.0)">l</text><text xml:space="preserve" font-family="Montserrat-Regular" font-size="36.0" fill="#000000" transform="matrix(1.00, 0.00, -0.00, -1.00, 647.2, 138.0)">e</text><text xml:space="preserve" font-family="Montserrat-Regular" font-size="36.0" fill="#000000" transform="matrix(1.00, 0.00, -0.00, -1.00, 667.2, 138.0)">x</text><text xml:space="preserve" font-family="Montserrat-Regular" font-size="36.0" fill="#000000" transform="matrix(1.00, 0.00, -0.00, -1.00, 687.2, 138.0)">i</text><text xml:space="preserve" font-family="Montserrat-Regular" font-size="36.0" fill="#000000" transform="matrix(1.00, 0.00, -0.00, -1.00, 697.4, 138.0)">a</text><text xml:space="preserve" font-family="Montserrat-Regular" font-size="36.0" fill="#000000" transform="matrix(1.00, 0.00, -0.00, -1.00, 718.5, 138.0)"> </text><text xml:space="preserve" font-family="Montserrat-Regular" font-size="36.0" fill="#000000" transform="matrix(1.00, 0.00, -0.00, -1.00, 727.8, 138.0)">a</text><text xml:space="preserve" font-family="Montserrat-Regular" font-size="36.0" fill="#000000" transform="matrix(1.00, 0.00, -0.00, -1.00, 748.9, 138.0)">n</text><text xml:space="preserve" font-family="Montserrat-Regular" font-size="36.0" fill="#000000" transform="matrix(1.00, 0.00, -0.00, -1.00, 772.8, 138.0)">d</text><text xml:space="preserve" font-family="Montserrat-Regular" font-size="36.0" fill="#000000" transform="matrix(1.00, 0.00, -0.00, -1.00, 797.3, 138.0)"> </text><text xml:space="preserve" font-family="Montserrat-Regular" font-size="36.0" fill="#000000" transform="matrix(1.00, 0.00, -0.00, -1.00, 806.6, 138.0)">o</text><text xml:space="preserve" font-family="Montserrat-Regular" font-size="36.0" fill="#000000" transform="matrix(1.00, 0.00, -0.00, -1.00, 829.1, 138.0)">t</text><text xml:space="preserve" font-family="Montserrat-Regular" font-size="36.0" fill="#000000" transform="matrix(1.00, 0.00, -0.00, -1.00, 843.8, 138.0)">h</text><text xml:space="preserve" font-family="Montserrat-Regular" font-size="36.0" fill="#000000" transform="matrix(1.00, 0.00, -0.00, -1.00, 867.8, 138.0)">e</text><text xml:space="preserve" font-family="Montserrat-Regular" font-size="36.0" fill="#000000" transform="matrix(1.00, 0.00, -0.00, -1.00, 889.0, 138.0)">r</text><text xml:space="preserve" font-family="Montserrat-Regular" font-size="36.0" fill="#000000" transform="matrix(1.00, 0.00, -0.00, -1.00, 903.2, 138.0)"> </text><text xml:space="preserve" font-family="Montserrat-Regular" font-size="36.0" fill="#000000" transform="matrix(1.00, 0.00, -0.00, -1.00, 573.0, 91.0)">l</text><text xml:space="preserve" font-family="Montserrat-Regular" font-size="36.0" fill="#000000" transform="matrix(1.00, 0.00, -0.00, -1.00, 583.6, 91.0)">e</text><text xml:space="preserve" font-family="Montserrat-Regular" font-size="36.0" fill="#000000" transform="matrix(1.00, 0.00, -0.00, -1.00, 604.8, 91.0)">a</text><text xml:space="preserve" font-family="Montserrat-Regular" font-size="36.0" fill="#000000" transform="matrix(1.00, 0.00, -0.00, -1.00, 625.9, 91.0)">r</text><text xml:space="preserve" font-family="Montserrat-Regular" font-size="36.0" fill="#000000" transform="matrix(1.00, 0.00, -0.00, -1.00, 640.1, 91.0)">n</text><text xml:space="preserve" font-family="Montserrat-Regular" font-size="36.0" fill="#000000" transform="matrix(1.00, 0.00, -0.00, -1.00, 663.9, 91.0)">i</text><text xml:space="preserve" font-family="Montserrat-Regular" font-size="36.0" fill="#000000" transform="matrix(1.00, 0.00, -0.00, -1.00, 674.2, 91.0)">n</text><text xml:space="preserve" font-family="Montserrat-Regular" font-size="36.0" fill="#000000" transform="matrix(1.00, 0.00, -0.00, -1.00, 698.0, 91.0)">g</text><text xml:space="preserve" font-family="Montserrat-Regular" font-size="36.0" fill="#000000" transform="matrix(1.00, 0.00, -0.00, -1.00, 721.1, 91.0)"> </text><text xml:space="preserve" font-family="Montserrat-Regular" font-size="36.0" fill="#000000" transform="matrix(1.00, 0.00, -0.00, -1.00, 730.4, 91.0)">d</text><text xml:space="preserve" font-family="Montserrat-Regular" font-size="36.0" fill="#000000" transform="matrix(1.00, 0.00, -0.00, -1.00, 754.9, 91.0)">i</text><text xml:space="preserve" font-family="Montserrat-Regular" font-size="36.0" fill="#000000" transform="matrix(1.00, 0.00, -0.00, -1.00, 765.1, 91.0)">s</text><text xml:space="preserve" font-family="Montserrat-Regular" font-size="36.0" fill="#000000" transform="matrix(1.00, 0.00, -0.00, -1.00, 782.1, 91.0)">a</text><text xml:space="preserve" font-family="Montserrat-Regular" font-size="36.0" fill="#000000" transform="matrix(1.00, 0.00, -0.00, -1.00, 803.1, 91.0)">b</text><text xml:space="preserve" font-family="Montserrat-Regular" font-size="36.0" fill="#000000" transform="matrix(1.00, 0.00, -0.00, -1.00, 827.6, 91.0)">i</text><text xml:space="preserve" font-family="Montserrat-Regular" font-size="36.0" fill="#000000" transform="matrix(1.00, 0.00, -0.00, -1.00, 837.9, 91.0)">l</text><text xml:space="preserve" font-family="Montserrat-Regular" font-size="36.0" fill="#000000" transform="matrix(1.00, 0.00, -0.00, -1.00, 848.5, 91.0)">i</text><text xml:space="preserve" font-family="Montserrat-Regular" font-size="36.0" fill="#000000" transform="matrix(1.00, 0.00, -0.00, -1.00, 858.7, 91.0)">t</text><text xml:space="preserve" font-family="Montserrat-Regular" font-size="36.0" fill="#000000" transform="matrix(1.00, 0.00, -0.00, -1.00, 873.3, 91.0)">i</text><text xml:space="preserve" font-family="Montserrat-Regular" font-size="36.0" fill="#000000" transform="matrix(1.00, 0.00, -0.00, -1.00, 883.6, 91.0)">e</text><text xml:space="preserve" font-family="Montserrat-Regular" font-size="36.0" fill="#000000" transform="matrix(1.00, 0.00, -0.00, -1.00, 904.7, 91.0)">s</text></g></svg>