<?xml version="1.0" encoding="UTF-8" standalone="no"?><svg xmlns="http://www.w3.org/2000/svg" xmlns:xlink="http://www.w3.org/1999/xlink" clip-rule="evenodd" stroke-miterlimit="4.00" viewBox="0 0 1024 768"><desc>SVG generated by Keynote</desc><defs></defs><g transform="matrix(1.00, 0.00, -0.00, -1.00, 0.0, 768.0)"><path d="M 0.0 768.0 L 1024.0 768.0 L 1024.0 0.0 L 0.0 0.0 Z M 0.0 768.0 " fill="#FEFFFF"></path><text xml:space="preserve" font-family="Montserrat-SemiBold" font-weight="bold" font-size="51.0" fill="#000000" transform="matrix(1.00, 0.00, -0.00, -1.00, 127.0, 606.0)">“</text><text xml:space="preserve" font-family="Montserrat-SemiBold" font-weight="bold" font-size="51.0" fill="#000000" transform="matrix(1.00, 0.00, -0.00, -1.00, 147.6, 606.0)">T</text><text xml:space="preserve" font-family="Montserrat-SemiBold" font-weight="bold" font-size="51.0" fill="#000000" transform="matrix(1.00, 0.00, -0.00, -1.00, 175.9, 606.0)">h</text><text xml:space="preserve" font-family="Montserrat-SemiBold" font-weight="bold" font-size="51.0" fill="#000000" transform="matrix(1.00, 0.00, -0.00, -1.00, 210.3, 606.0)">e</text><text xml:space="preserve" font-family="Montserrat-SemiBold" font-weight="bold" font-size="51.0" fill="#000000" transform="matrix(1.00, 0.00, -0.00, -1.00, 240.7, 606.0)"> </text><text xml:space="preserve" font-family="Montserrat-SemiBold" font-weight="bold" font-size="51.0" fill="#000000" transform="matrix(1.00, 0.00, -0.00, -1.00, 253.0, 606.0)">p</text><text xml:space="preserve" font-family="Montserrat-SemiBold" font-weight="bold" font-size="51.0" fill="#000000" transform="matrix(1.00, 0.00, -0.00, -1.00, 287.9, 606.0)">o</text><text xml:space="preserve" font-family="Montserrat-SemiBold" font-weight="bold" font-size="51.0" fill="#000000" transform="matrix(1.00, 0.00, -0.00, -1.00, 319.2, 606.0)">w</text><text xml:space="preserve" font-family="Montserrat-SemiBold" font-weight="bold" font-size="51.0" fill="#000000" transform="matrix(1.00, 0.00, -0.00, -1.00, 365.3, 606.0)">e</text><text xml:space="preserve" font-family="Montserrat-SemiBold" font-weight="bold" font-size="51.0" fill="#000000" transform="matrix(1.00, 0.00, -0.00, -1.00, 395.8, 606.0)">r</text><text xml:space="preserve" font-family="Montserrat-SemiBold" font-weight="bold" font-size="51.0" fill="#000000" transform="matrix(1.00, 0.00, -0.00, -1.00, 417.0, 606.0)"> </text><text xml:space="preserve" font-family="Montserrat-SemiBold" font-weight="bold" font-size="51.0" fill="#000000" transform="matrix(1.00, 0.00, -0.00, -1.00, 429.2, 606.0)">o</text><text xml:space="preserve" font-family="Montserrat-SemiBold" font-weight="bold" font-size="51.0" fill="#000000" transform="matrix(1.00, 0.00, -0.00, -1.00, 461.1, 606.0)">f</text><text xml:space="preserve" font-family="Montserrat-SemiBold" font-weight="bold" font-size="51.0" fill="#000000" transform="matrix(1.00, 0.00, -0.00, -1.00, 480.1, 606.0)"> </text><text xml:space="preserve" font-family="Montserrat-SemiBold" font-weight="bold" font-size="51.0" fill="#000000" transform="matrix(1.00, 0.00, -0.00, -1.00, 492.4, 606.0)">t</text><text xml:space="preserve" font-family="Montserrat-SemiBold" font-weight="bold" font-size="51.0" fill="#000000" transform="matrix(1.00, 0.00, -0.00, -1.00, 514.1, 606.0)">h</text><text xml:space="preserve" font-family="Montserrat-SemiBold" font-weight="bold" font-size="51.0" fill="#000000" transform="matrix(1.00, 0.00, -0.00, -1.00, 548.5, 606.0)">e</text><text xml:space="preserve" font-family="Montserrat-SemiBold" font-weight="bold" font-size="51.0" fill="#000000" transform="matrix(1.00, 0.00, -0.00, -1.00, 578.9, 606.0)"> </text><text xml:space="preserve" font-family="Montserrat-SemiBold" font-weight="bold" font-size="51.0" fill="#000000" transform="matrix(1.00, 0.00, -0.00, -1.00, 591.2, 606.0)">W</text><text xml:space="preserve" font-family="Montserrat-SemiBold" font-weight="bold" font-size="51.0" fill="#000000" transform="matrix(1.00, 0.00, -0.00, -1.00, 642.5, 606.0)">e</text><text xml:space="preserve" font-family="Montserrat-SemiBold" font-weight="bold" font-size="51.0" fill="#000000" transform="matrix(1.00, 0.00, -0.00, -1.00, 672.9, 606.0)">b</text><text xml:space="preserve" font-family="Montserrat-SemiBold" font-weight="bold" font-size="51.0" fill="#000000" transform="matrix(1.00, 0.00, -0.00, -1.00, 707.7, 606.0)"> </text><text xml:space="preserve" font-family="Montserrat-SemiBold" font-weight="bold" font-size="51.0" fill="#000000" transform="matrix(1.00, 0.00, -0.00, -1.00, 720.0, 606.0)">i</text><text xml:space="preserve" font-family="Montserrat-SemiBold" font-weight="bold" font-size="51.0" fill="#000000" transform="matrix(1.00, 0.00, -0.00, -1.00, 735.4, 606.0)">s</text><text xml:space="preserve" font-family="Montserrat-SemiBold" font-weight="bold" font-size="51.0" fill="#000000" transform="matrix(1.00, 0.00, -0.00, -1.00, 760.8, 606.0)"> </text><text xml:space="preserve" font-family="Montserrat-SemiBold" font-weight="bold" font-size="51.0" fill="#000000" transform="matrix(1.00, 0.00, -0.00, -1.00, 773.1, 606.0)">i</text><text xml:space="preserve" font-family="Montserrat-SemiBold" font-weight="bold" font-size="51.0" fill="#000000" transform="matrix(1.00, 0.00, -0.00, -1.00, 788.5, 606.0)">n</text><text xml:space="preserve" font-family="Montserrat-SemiBold" font-weight="bold" font-size="51.0" fill="#000000" transform="matrix(1.00, 0.00, -0.00, -1.00, 822.6, 606.0)"> </text><text xml:space="preserve" font-family="Montserrat-SemiBold" font-weight="bold" font-size="51.0" fill="#000000" transform="matrix(1.00, 0.00, -0.00, -1.00, 834.9, 606.0)">i</text><text xml:space="preserve" font-family="Montserrat-SemiBold" font-weight="bold" font-size="51.0" fill="#000000" transform="matrix(1.00, 0.00, -0.00, -1.00, 850.3, 606.0)">t</text><text xml:space="preserve" font-family="Montserrat-SemiBold" font-weight="bold" font-size="51.0" fill="#000000" transform="matrix(1.00, 0.00, -0.00, -1.00, 872.0, 606.0)">s</text><text xml:space="preserve" font-family="Montserrat-SemiBold" font-weight="bold" font-size="51.0" fill="#000000" transform="matrix(1.00, 0.00, -0.00, -1.00, 897.4, 606.0)"> </text><text xml:space="preserve" font-family="Montserrat-SemiBold" font-weight="bold" font-size="51.0" fill="#000000" transform="matrix(1.00, 0.00, -0.00, -1.00, 226.0, 539.0)">u</text><text xml:space="preserve" font-family="Montserrat-SemiBold" font-weight="bold" font-size="51.0" fill="#000000" transform="matrix(1.00, 0.00, -0.00, -1.00, 259.6, 539.0)">n</text><text xml:space="preserve" font-family="Montserrat-SemiBold" font-weight="bold" font-size="51.0" fill="#000000" transform="matrix(1.00, 0.00, -0.00, -1.00, 293.8, 539.0)">i</text><text xml:space="preserve" font-family="Montserrat-SemiBold" font-weight="bold" font-size="51.0" fill="#000000" transform="matrix(1.00, 0.00, -0.00, -1.00, 309.2, 539.0)">v</text><text xml:space="preserve" font-family="Montserrat-SemiBold" font-weight="bold" font-size="51.0" fill="#000000" transform="matrix(1.00, 0.00, -0.00, -1.00, 336.6, 539.0)">e</text><text xml:space="preserve" font-family="Montserrat-SemiBold" font-weight="bold" font-size="51.0" fill="#000000" transform="matrix(1.00, 0.00, -0.00, -1.00, 367.0, 539.0)">r</text><text xml:space="preserve" font-family="Montserrat-SemiBold" font-weight="bold" font-size="51.0" fill="#000000" transform="matrix(1.00, 0.00, -0.00, -1.00, 388.2, 539.0)">s</text><text xml:space="preserve" font-family="Montserrat-SemiBold" font-weight="bold" font-size="51.0" fill="#000000" transform="matrix(1.00, 0.00, -0.00, -1.00, 413.6, 539.0)">a</text><text xml:space="preserve" font-family="Montserrat-SemiBold" font-weight="bold" font-size="51.0" fill="#000000" transform="matrix(1.00, 0.00, -0.00, -1.00, 444.0, 539.0)">l</text><text xml:space="preserve" font-family="Montserrat-SemiBold" font-weight="bold" font-size="51.0" fill="#000000" transform="matrix(1.00, 0.00, -0.00, -1.00, 460.0, 539.0)">i</text><text xml:space="preserve" font-family="Montserrat-SemiBold" font-weight="bold" font-size="51.0" fill="#000000" transform="matrix(1.00, 0.00, -0.00, -1.00, 475.3, 539.0)">t</text><text xml:space="preserve" font-family="Montserrat-SemiBold" font-weight="bold" font-size="51.0" fill="#000000" transform="matrix(1.00, 0.00, -0.00, -1.00, 497.1, 539.0)">y</text><text xml:space="preserve" font-family="Montserrat-SemiBold" font-weight="bold" font-size="51.0" fill="#000000" transform="matrix(1.00, 0.00, -0.00, -1.00, 524.8, 539.0)">.</text><text xml:space="preserve" font-family="Montserrat-SemiBold" font-weight="bold" font-size="51.0" fill="#000000" transform="matrix(1.00, 0.00, -0.00, -1.00, 536.8, 539.0)"> </text><text xml:space="preserve" font-family="Montserrat-SemiBold" font-weight="bold" font-size="51.0" fill="#000000" transform="matrix(1.00, 0.00, -0.00, -1.00, 549.0, 539.0)">A</text><text xml:space="preserve" font-family="Montserrat-SemiBold" font-weight="bold" font-size="51.0" fill="#000000" transform="matrix(1.00, 0.00, -0.00, -1.00, 586.5, 539.0)">c</text><text xml:space="preserve" font-family="Montserrat-SemiBold" font-weight="bold" font-size="51.0" fill="#000000" transform="matrix(1.00, 0.00, -0.00, -1.00, 614.3, 539.0)">c</text><text xml:space="preserve" font-family="Montserrat-SemiBold" font-weight="bold" font-size="51.0" fill="#000000" transform="matrix(1.00, 0.00, -0.00, -1.00, 642.0, 539.0)">e</text><text xml:space="preserve" font-family="Montserrat-SemiBold" font-weight="bold" font-size="51.0" fill="#000000" transform="matrix(1.00, 0.00, -0.00, -1.00, 672.5, 539.0)">s</text><text xml:space="preserve" font-family="Montserrat-SemiBold" font-weight="bold" font-size="51.0" fill="#000000" transform="matrix(1.00, 0.00, -0.00, -1.00, 697.9, 539.0)">s</text><text xml:space="preserve" font-family="Montserrat-SemiBold" font-weight="bold" font-size="51.0" fill="#000000" transform="matrix(1.00, 0.00, -0.00, -1.00, 723.3, 539.0)"> </text><text xml:space="preserve" font-family="Montserrat-SemiBold" font-weight="bold" font-size="51.0" fill="#000000" transform="matrix(1.00, 0.00, -0.00, -1.00, 735.6, 539.0)">b</text><text xml:space="preserve" font-family="Montserrat-SemiBold" font-weight="bold" font-size="51.0" fill="#000000" transform="matrix(1.00, 0.00, -0.00, -1.00, 769.5, 539.0)">y</text><text xml:space="preserve" font-family="Montserrat-SemiBold" font-weight="bold" font-size="51.0" fill="#000000" transform="matrix(1.00, 0.00, -0.00, -1.00, 798.2, 539.0)"> </text><text xml:space="preserve" font-family="Montserrat-SemiBold" font-weight="bold" font-size="51.0" fill="#000000" transform="matrix(1.00, 0.00, -0.00, -1.00, 223.0, 472.0)">e</text><text xml:space="preserve" font-family="Montserrat-SemiBold" font-weight="bold" font-size="51.0" fill="#000000" transform="matrix(1.00, 0.00, -0.00, -1.00, 252.5, 472.0)">v</text><text xml:space="preserve" font-family="Montserrat-SemiBold" font-weight="bold" font-size="51.0" fill="#000000" transform="matrix(1.00, 0.00, -0.00, -1.00, 279.9, 472.0)">e</text><text xml:space="preserve" font-family="Montserrat-SemiBold" font-weight="bold" font-size="51.0" fill="#000000" transform="matrix(1.00, 0.00, -0.00, -1.00, 310.3, 472.0)">r</text><text xml:space="preserve" font-family="Montserrat-SemiBold" font-weight="bold" font-size="51.0" fill="#000000" transform="matrix(1.00, 0.00, -0.00, -1.00, 332.8, 472.0)">y</text><text xml:space="preserve" font-family="Montserrat-SemiBold" font-weight="bold" font-size="51.0" fill="#000000" transform="matrix(1.00, 0.00, -0.00, -1.00, 360.6, 472.0)">o</text><text xml:space="preserve" font-family="Montserrat-SemiBold" font-weight="bold" font-size="51.0" fill="#000000" transform="matrix(1.00, 0.00, -0.00, -1.00, 392.8, 472.0)">n</text><text xml:space="preserve" font-family="Montserrat-SemiBold" font-weight="bold" font-size="51.0" fill="#000000" transform="matrix(1.00, 0.00, -0.00, -1.00, 427.0, 472.0)">e</text><text xml:space="preserve" font-family="Montserrat-SemiBold" font-weight="bold" font-size="51.0" fill="#000000" transform="matrix(1.00, 0.00, -0.00, -1.00, 457.4, 472.0)"> </text><text xml:space="preserve" font-family="Montserrat-SemiBold" font-weight="bold" font-size="51.0" fill="#000000" transform="matrix(1.00, 0.00, -0.00, -1.00, 469.7, 472.0)">r</text><text xml:space="preserve" font-family="Montserrat-SemiBold" font-weight="bold" font-size="51.0" fill="#000000" transform="matrix(1.00, 0.00, -0.00, -1.00, 490.9, 472.0)">e</text><text xml:space="preserve" font-family="Montserrat-SemiBold" font-weight="bold" font-size="51.0" fill="#000000" transform="matrix(1.00, 0.00, -0.00, -1.00, 521.3, 472.0)">g</text><text xml:space="preserve" font-family="Montserrat-SemiBold" font-weight="bold" font-size="51.0" fill="#000000" transform="matrix(1.00, 0.00, -0.00, -1.00, 554.2, 472.0)">a</text><text xml:space="preserve" font-family="Montserrat-SemiBold" font-weight="bold" font-size="51.0" fill="#000000" transform="matrix(1.00, 0.00, -0.00, -1.00, 584.6, 472.0)">r</text><text xml:space="preserve" font-family="Montserrat-SemiBold" font-weight="bold" font-size="51.0" fill="#000000" transform="matrix(1.00, 0.00, -0.00, -1.00, 605.8, 472.0)">d</text><text xml:space="preserve" font-family="Montserrat-SemiBold" font-weight="bold" font-size="51.0" fill="#000000" transform="matrix(1.00, 0.00, -0.00, -1.00, 640.7, 472.0)">l</text><text xml:space="preserve" font-family="Montserrat-SemiBold" font-weight="bold" font-size="51.0" fill="#000000" transform="matrix(1.00, 0.00, -0.00, -1.00, 656.6, 472.0)">e</text><text xml:space="preserve" font-family="Montserrat-SemiBold" font-weight="bold" font-size="51.0" fill="#000000" transform="matrix(1.00, 0.00, -0.00, -1.00, 687.0, 472.0)">s</text><text xml:space="preserve" font-family="Montserrat-SemiBold" font-weight="bold" font-size="51.0" fill="#000000" transform="matrix(1.00, 0.00, -0.00, -1.00, 712.5, 472.0)">s</text><text xml:space="preserve" font-family="Montserrat-SemiBold" font-weight="bold" font-size="51.0" fill="#000000" transform="matrix(1.00, 0.00, -0.00, -1.00, 737.9, 472.0)"> </text><text xml:space="preserve" font-family="Montserrat-SemiBold" font-weight="bold" font-size="51.0" fill="#000000" transform="matrix(1.00, 0.00, -0.00, -1.00, 750.2, 472.0)">o</text><text xml:space="preserve" font-family="Montserrat-SemiBold" font-weight="bold" font-size="51.0" fill="#000000" transform="matrix(1.00, 0.00, -0.00, -1.00, 782.1, 472.0)">f</text><text xml:space="preserve" font-family="Montserrat-SemiBold" font-weight="bold" font-size="51.0" fill="#000000" transform="matrix(1.00, 0.00, -0.00, -1.00, 801.0, 472.0)"> </text><text xml:space="preserve" font-family="Montserrat-SemiBold" font-weight="bold" font-size="51.0" fill="#000000" transform="matrix(1.00, 0.00, -0.00, -1.00, 105.0, 405.0)">d</text><text xml:space="preserve" font-family="Montserrat-SemiBold" font-weight="bold" font-size="51.0" fill="#000000" transform="matrix(1.00, 0.00, -0.00, -1.00, 139.9, 405.0)">i</text><text xml:space="preserve" font-family="Montserrat-SemiBold" font-weight="bold" font-size="51.0" fill="#000000" transform="matrix(1.00, 0.00, -0.00, -1.00, 155.3, 405.0)">s</text><text xml:space="preserve" font-family="Montserrat-SemiBold" font-weight="bold" font-size="51.0" fill="#000000" transform="matrix(1.00, 0.00, -0.00, -1.00, 180.7, 405.0)">a</text><text xml:space="preserve" font-family="Montserrat-SemiBold" font-weight="bold" font-size="51.0" fill="#000000" transform="matrix(1.00, 0.00, -0.00, -1.00, 211.1, 405.0)">b</text><text xml:space="preserve" font-family="Montserrat-SemiBold" font-weight="bold" font-size="51.0" fill="#000000" transform="matrix(1.00, 0.00, -0.00, -1.00, 245.9, 405.0)">i</text><text xml:space="preserve" font-family="Montserrat-SemiBold" font-weight="bold" font-size="51.0" fill="#000000" transform="matrix(1.00, 0.00, -0.00, -1.00, 261.3, 405.0)">l</text><text xml:space="preserve" font-family="Montserrat-SemiBold" font-weight="bold" font-size="51.0" fill="#000000" transform="matrix(1.00, 0.00, -0.00, -1.00, 277.2, 405.0)">i</text><text xml:space="preserve" font-family="Montserrat-SemiBold" font-weight="bold" font-size="51.0" fill="#000000" transform="matrix(1.00, 0.00, -0.00, -1.00, 292.6, 405.0)">t</text><text xml:space="preserve" font-family="Montserrat-SemiBold" font-weight="bold" font-size="51.0" fill="#000000" transform="matrix(1.00, 0.00, -0.00, -1.00, 314.3, 405.0)">y</text><text xml:space="preserve" font-family="Montserrat-SemiBold" font-weight="bold" font-size="51.0" fill="#000000" transform="matrix(1.00, 0.00, -0.00, -1.00, 343.1, 405.0)"> </text><text xml:space="preserve" font-family="Montserrat-SemiBold" font-weight="bold" font-size="51.0" fill="#000000" transform="matrix(1.00, 0.00, -0.00, -1.00, 355.4, 405.0)">i</text><text xml:space="preserve" font-family="Montserrat-SemiBold" font-weight="bold" font-size="51.0" fill="#000000" transform="matrix(1.00, 0.00, -0.00, -1.00, 370.8, 405.0)">s</text><text xml:space="preserve" font-family="Montserrat-SemiBold" font-weight="bold" font-size="51.0" fill="#000000" transform="matrix(1.00, 0.00, -0.00, -1.00, 396.2, 405.0)"> </text><text xml:space="preserve" font-family="Montserrat-SemiBold" font-weight="bold" font-size="51.0" fill="#000000" transform="matrix(1.00, 0.00, -0.00, -1.00, 408.5, 405.0)">a</text><text xml:space="preserve" font-family="Montserrat-SemiBold" font-weight="bold" font-size="51.0" fill="#000000" transform="matrix(1.00, 0.00, -0.00, -1.00, 438.8, 405.0)">n</text><text xml:space="preserve" font-family="Montserrat-SemiBold" font-weight="bold" font-size="51.0" fill="#000000" transform="matrix(1.00, 0.00, -0.00, -1.00, 473.0, 405.0)"> </text><text xml:space="preserve" font-family="Montserrat-SemiBold" font-weight="bold" font-size="51.0" fill="#000000" transform="matrix(1.00, 0.00, -0.00, -1.00, 485.3, 405.0)">e</text><text xml:space="preserve" font-family="Montserrat-SemiBold" font-weight="bold" font-size="51.0" fill="#000000" transform="matrix(1.00, 0.00, -0.00, -1.00, 515.7, 405.0)">s</text><text xml:space="preserve" font-family="Montserrat-SemiBold" font-weight="bold" font-size="51.0" fill="#000000" transform="matrix(1.00, 0.00, -0.00, -1.00, 541.1, 405.0)">s</text><text xml:space="preserve" font-family="Montserrat-SemiBold" font-weight="bold" font-size="51.0" fill="#000000" transform="matrix(1.00, 0.00, -0.00, -1.00, 566.5, 405.0)">e</text><text xml:space="preserve" font-family="Montserrat-SemiBold" font-weight="bold" font-size="51.0" fill="#000000" transform="matrix(1.00, 0.00, -0.00, -1.00, 597.0, 405.0)">n</text><text xml:space="preserve" font-family="Montserrat-SemiBold" font-weight="bold" font-size="51.0" fill="#000000" transform="matrix(1.00, 0.00, -0.00, -1.00, 631.1, 405.0)">t</text><text xml:space="preserve" font-family="Montserrat-SemiBold" font-weight="bold" font-size="51.0" fill="#000000" transform="matrix(1.00, 0.00, -0.00, -1.00, 652.8, 405.0)">i</text><text xml:space="preserve" font-family="Montserrat-SemiBold" font-weight="bold" font-size="51.0" fill="#000000" transform="matrix(1.00, 0.00, -0.00, -1.00, 668.2, 405.0)">a</text><text xml:space="preserve" font-family="Montserrat-SemiBold" font-weight="bold" font-size="51.0" fill="#000000" transform="matrix(1.00, 0.00, -0.00, -1.00, 698.6, 405.0)">l</text><text xml:space="preserve" font-family="Montserrat-SemiBold" font-weight="bold" font-size="51.0" fill="#000000" transform="matrix(1.00, 0.00, -0.00, -1.00, 714.5, 405.0)"> </text><text xml:space="preserve" font-family="Montserrat-SemiBold" font-weight="bold" font-size="51.0" fill="#000000" transform="matrix(1.00, 0.00, -0.00, -1.00, 726.8, 405.0)">a</text><text xml:space="preserve" font-family="Montserrat-SemiBold" font-weight="bold" font-size="51.0" fill="#000000" transform="matrix(1.00, 0.00, -0.00, -1.00, 757.2, 405.0)">s</text><text xml:space="preserve" font-family="Montserrat-SemiBold" font-weight="bold" font-size="51.0" fill="#000000" transform="matrix(1.00, 0.00, -0.00, -1.00, 782.6, 405.0)">p</text><text xml:space="preserve" font-family="Montserrat-SemiBold" font-weight="bold" font-size="51.0" fill="#000000" transform="matrix(1.00, 0.00, -0.00, -1.00, 817.5, 405.0)">e</text><text xml:space="preserve" font-family="Montserrat-SemiBold" font-weight="bold" font-size="51.0" fill="#000000" transform="matrix(1.00, 0.00, -0.00, -1.00, 847.9, 405.0)">c</text><text xml:space="preserve" font-family="Montserrat-SemiBold" font-weight="bold" font-size="51.0" fill="#000000" transform="matrix(1.00, 0.00, -0.00, -1.00, 876.6, 405.0)">t</text><text xml:space="preserve" font-family="Montserrat-SemiBold" font-weight="bold" font-size="51.0" fill="#000000" transform="matrix(1.00, 0.00, -0.00, -1.00, 898.3, 405.0)">"</text><text xml:space="preserve" font-family="Montserrat-SemiBold" font-weight="bold" font-size="51.0" fill="#000000" transform="matrix(1.00, 0.00, -0.00, -1.00, 919.4, 405.0)"> </text><text xml:space="preserve" font-family="Montserrat-SemiBold" font-weight="bold" font-size="23.0" fill="#000000" transform="matrix(1.00, 0.00, -0.00, -1.00, 115.0, 298.0)">-</text><text xml:space="preserve" font-family="Montserrat-SemiBold" font-weight="bold" font-size="23.0" fill="#000000" transform="matrix(1.00, 0.00, -0.00, -1.00, 123.5, 298.0)"> </text><text xml:space="preserve" font-family="Montserrat-SemiBold" font-weight="bold" font-size="23.0" fill="#000000" transform="matrix(1.00, 0.00, -0.00, -1.00, 129.1, 298.0)">T</text><text xml:space="preserve" font-family="Montserrat-SemiBold" font-weight="bold" font-size="23.0" fill="#000000" transform="matrix(1.00, 0.00, -0.00, -1.00, 142.9, 298.0)">i</text><text xml:space="preserve" font-family="Montserrat-SemiBold" font-weight="bold" font-size="23.0" fill="#000000" transform="matrix(1.00, 0.00, -0.00, -1.00, 149.8, 298.0)">m</text><text xml:space="preserve" font-family="Montserrat-SemiBold" font-weight="bold" font-size="23.0" fill="#000000" transform="matrix(1.00, 0.00, -0.00, -1.00, 173.7, 298.0)"> </text><text xml:space="preserve" font-family="Montserrat-SemiBold" font-weight="bold" font-size="23.0" fill="#000000" transform="matrix(1.00, 0.00, -0.00, -1.00, 179.2, 298.0)">B</text><text xml:space="preserve" font-family="Montserrat-SemiBold" font-weight="bold" font-size="23.0" fill="#000000" transform="matrix(1.00, 0.00, -0.00, -1.00, 195.5, 298.0)">e</text><text xml:space="preserve" font-family="Montserrat-SemiBold" font-weight="bold" font-size="23.0" fill="#000000" transform="matrix(1.00, 0.00, -0.00, -1.00, 209.3, 298.0)">r</text><text xml:space="preserve" font-family="Montserrat-SemiBold" font-weight="bold" font-size="23.0" fill="#000000" transform="matrix(1.00, 0.00, -0.00, -1.00, 218.8, 298.0)">n</text><text xml:space="preserve" font-family="Montserrat-SemiBold" font-weight="bold" font-size="23.0" fill="#000000" transform="matrix(1.00, 0.00, -0.00, -1.00, 234.2, 298.0)">e</text><text xml:space="preserve" font-family="Montserrat-SemiBold" font-weight="bold" font-size="23.0" fill="#000000" transform="matrix(1.00, 0.00, -0.00, -1.00, 247.9, 298.0)">r</text><text xml:space="preserve" font-family="Montserrat-SemiBold" font-weight="bold" font-size="23.0" fill="#000000" transform="matrix(1.00, 0.00, -0.00, -1.00, 257.4, 298.0)">s</text><text xml:space="preserve" font-family="Montserrat-SemiBold" font-weight="bold" font-size="23.0" fill="#000000" transform="matrix(1.00, 0.00, -0.00, -1.00, 268.9, 298.0)">-</text><text xml:space="preserve" font-family="Montserrat-SemiBold" font-weight="bold" font-size="23.0" fill="#000000" transform="matrix(1.00, 0.00, -0.00, -1.00, 277.4, 298.0)">L</text><text xml:space="preserve" font-family="Montserrat-SemiBold" font-weight="bold" font-size="23.0" fill="#000000" transform="matrix(1.00, 0.00, -0.00, -1.00, 290.1, 298.0)">e</text><text xml:space="preserve" font-family="Montserrat-SemiBold" font-weight="bold" font-size="23.0" fill="#000000" transform="matrix(1.00, 0.00, -0.00, -1.00, 303.8, 298.0)">e</text><text xml:space="preserve" font-family="Montserrat-SemiBold" font-weight="bold" font-size="23.0" fill="#000000" transform="matrix(1.00, 0.00, -0.00, -1.00, 317.5, 298.0)">,</text><text xml:space="preserve" font-family="Montserrat-SemiBold" font-weight="bold" font-size="23.0" fill="#000000" transform="matrix(1.00, 0.00, -0.00, -1.00, 322.9, 298.0)"> </text><text xml:space="preserve" font-family="Montserrat-SemiBold" font-weight="bold" font-size="23.0" fill="#000000" transform="matrix(1.00, 0.00, -0.00, -1.00, 328.4, 298.0)">W</text><text xml:space="preserve" font-family="Montserrat-SemiBold" font-weight="bold" font-size="23.0" fill="#000000" transform="matrix(1.00, 0.00, -0.00, -1.00, 352.9, 298.0)">3</text><text xml:space="preserve" font-family="Montserrat-SemiBold" font-weight="bold" font-size="23.0" fill="#000000" transform="matrix(1.00, 0.00, -0.00, -1.00, 367.0, 298.0)">C</text><text xml:space="preserve" font-family="Montserrat-SemiBold" font-weight="bold" font-size="23.0" fill="#000000" transform="matrix(1.00, 0.00, -0.00, -1.00, 383.0, 298.0)"> </text><text xml:space="preserve" font-family="Montserrat-SemiBold" font-weight="bold" font-size="23.0" fill="#000000" transform="matrix(1.00, 0.00, -0.00, -1.00, 388.5, 298.0)">D</text><text xml:space="preserve" font-family="Montserrat-SemiBold" font-weight="bold" font-size="23.0" fill="#000000" transform="matrix(1.00, 0.00, -0.00, -1.00, 406.2, 298.0)">i</text><text xml:space="preserve" font-family="Montserrat-SemiBold" font-weight="bold" font-size="23.0" fill="#000000" transform="matrix(1.00, 0.00, -0.00, -1.00, 413.1, 298.0)">r</text><text xml:space="preserve" font-family="Montserrat-SemiBold" font-weight="bold" font-size="23.0" fill="#000000" transform="matrix(1.00, 0.00, -0.00, -1.00, 422.6, 298.0)">e</text><text xml:space="preserve" font-family="Montserrat-SemiBold" font-weight="bold" font-size="23.0" fill="#000000" transform="matrix(1.00, 0.00, -0.00, -1.00, 436.3, 298.0)">c</text><text xml:space="preserve" font-family="Montserrat-SemiBold" font-weight="bold" font-size="23.0" fill="#000000" transform="matrix(1.00, 0.00, -0.00, -1.00, 449.3, 298.0)">t</text><text xml:space="preserve" font-family="Montserrat-SemiBold" font-weight="bold" font-size="23.0" fill="#000000" transform="matrix(1.00, 0.00, -0.00, -1.00, 459.0, 298.0)">o</text><text xml:space="preserve" font-family="Montserrat-SemiBold" font-weight="bold" font-size="23.0" fill="#000000" transform="matrix(1.00, 0.00, -0.00, -1.00, 473.5, 298.0)">r</text><text xml:space="preserve" font-family="Montserrat-SemiBold" font-weight="bold" font-size="23.0" fill="#000000" transform="matrix(1.00, 0.00, -0.00, -1.00, 483.0, 298.0)"> </text><text xml:space="preserve" font-family="Montserrat-SemiBold" font-weight="bold" font-size="23.0" fill="#000000" transform="matrix(1.00, 0.00, -0.00, -1.00, 488.6, 298.0)">a</text><text xml:space="preserve" font-family="Montserrat-SemiBold" font-weight="bold" font-size="23.0" fill="#000000" transform="matrix(1.00, 0.00, -0.00, -1.00, 502.3, 298.0)">n</text><text xml:space="preserve" font-family="Montserrat-SemiBold" font-weight="bold" font-size="23.0" fill="#000000" transform="matrix(1.00, 0.00, -0.00, -1.00, 517.6, 298.0)">d</text><text xml:space="preserve" font-family="Montserrat-SemiBold" font-weight="bold" font-size="23.0" fill="#000000" transform="matrix(1.00, 0.00, -0.00, -1.00, 533.4, 298.0)"> </text><text xml:space="preserve" font-family="Montserrat-SemiBold" font-weight="bold" font-size="23.0" fill="#000000" transform="matrix(1.00, 0.00, -0.00, -1.00, 538.9, 298.0)">i</text><text xml:space="preserve" font-family="Montserrat-SemiBold" font-weight="bold" font-size="23.0" fill="#000000" transform="matrix(1.00, 0.00, -0.00, -1.00, 545.8, 298.0)">n</text><text xml:space="preserve" font-family="Montserrat-SemiBold" font-weight="bold" font-size="23.0" fill="#000000" transform="matrix(1.00, 0.00, -0.00, -1.00, 561.0, 298.0)">v</text><text xml:space="preserve" font-family="Montserrat-SemiBold" font-weight="bold" font-size="23.0" fill="#000000" transform="matrix(1.00, 0.00, -0.00, -1.00, 573.4, 298.0)">e</text><text xml:space="preserve" font-family="Montserrat-SemiBold" font-weight="bold" font-size="23.0" fill="#000000" transform="matrix(1.00, 0.00, -0.00, -1.00, 587.1, 298.0)">n</text><text xml:space="preserve" font-family="Montserrat-SemiBold" font-weight="bold" font-size="23.0" fill="#000000" transform="matrix(1.00, 0.00, -0.00, -1.00, 602.4, 298.0)">t</text><text xml:space="preserve" font-family="Montserrat-SemiBold" font-weight="bold" font-size="23.0" fill="#000000" transform="matrix(1.00, 0.00, -0.00, -1.00, 612.1, 298.0)">o</text><text xml:space="preserve" font-family="Montserrat-SemiBold" font-weight="bold" font-size="23.0" fill="#000000" transform="matrix(1.00, 0.00, -0.00, -1.00, 626.7, 298.0)">r</text><text xml:space="preserve" font-family="Montserrat-SemiBold" font-weight="bold" font-size="23.0" fill="#000000" transform="matrix(1.00, 0.00, -0.00, -1.00, 636.2, 298.0)"> </text><text xml:space="preserve" font-family="Montserrat-SemiBold" font-weight="bold" font-size="23.0" fill="#000000" transform="matrix(1.00, 0.00, -0.00, -1.00, 641.7, 298.0)">o</text><text xml:space="preserve" font-family="Montserrat-SemiBold" font-weight="bold" font-size="23.0" fill="#000000" transform="matrix(1.00, 0.00, -0.00, -1.00, 656.1, 298.0)">f</text><text xml:space="preserve" font-family="Montserrat-SemiBold" font-weight="bold" font-size="23.0" fill="#000000" transform="matrix(1.00, 0.00, -0.00, -1.00, 664.7, 298.0)"> </text><text xml:space="preserve" font-family="Montserrat-SemiBold" font-weight="bold" font-size="23.0" fill="#000000" transform="matrix(1.00, 0.00, -0.00, -1.00, 670.2, 298.0)">t</text><text xml:space="preserve" font-family="Montserrat-SemiBold" font-weight="bold" font-size="23.0" fill="#000000" transform="matrix(1.00, 0.00, -0.00, -1.00, 680.0, 298.0)">h</text><text xml:space="preserve" font-family="Montserrat-SemiBold" font-weight="bold" font-size="23.0" fill="#000000" transform="matrix(1.00, 0.00, -0.00, -1.00, 695.5, 298.0)">e</text><text xml:space="preserve" font-family="Montserrat-SemiBold" font-weight="bold" font-size="23.0" fill="#000000" transform="matrix(1.00, 0.00, -0.00, -1.00, 709.2, 298.0)"> </text><text xml:space="preserve" font-family="Montserrat-SemiBold" font-weight="bold" font-size="23.0" fill="#000000" transform="matrix(1.00, 0.00, -0.00, -1.00, 714.7, 298.0)">W</text><text xml:space="preserve" font-family="Montserrat-SemiBold" font-weight="bold" font-size="23.0" fill="#000000" transform="matrix(1.00, 0.00, -0.00, -1.00, 737.8, 298.0)">o</text><text xml:space="preserve" font-family="Montserrat-SemiBold" font-weight="bold" font-size="23.0" fill="#000000" transform="matrix(1.00, 0.00, -0.00, -1.00, 752.3, 298.0)">r</text><text xml:space="preserve" font-family="Montserrat-SemiBold" font-weight="bold" font-size="23.0" fill="#000000" transform="matrix(1.00, 0.00, -0.00, -1.00, 761.9, 298.0)">l</text><text xml:space="preserve" font-family="Montserrat-SemiBold" font-weight="bold" font-size="23.0" fill="#000000" transform="matrix(1.00, 0.00, -0.00, -1.00, 769.1, 298.0)">d</text><text xml:space="preserve" font-family="Montserrat-SemiBold" font-weight="bold" font-size="23.0" fill="#000000" transform="matrix(1.00, 0.00, -0.00, -1.00, 784.8, 298.0)"> </text><text xml:space="preserve" font-family="Montserrat-SemiBold" font-weight="bold" font-size="23.0" fill="#000000" transform="matrix(1.00, 0.00, -0.00, -1.00, 790.3, 298.0)">W</text><text xml:space="preserve" font-family="Montserrat-SemiBold" font-weight="bold" font-size="23.0" fill="#000000" transform="matrix(1.00, 0.00, -0.00, -1.00, 814.8, 298.0)">i</text><text xml:space="preserve" font-family="Montserrat-SemiBold" font-weight="bold" font-size="23.0" fill="#000000" transform="matrix(1.00, 0.00, -0.00, -1.00, 821.8, 298.0)">d</text><text xml:space="preserve" font-family="Montserrat-SemiBold" font-weight="bold" font-size="23.0" fill="#000000" transform="matrix(1.00, 0.00, -0.00, -1.00, 837.5, 298.0)">e</text><text xml:space="preserve" font-family="Montserrat-SemiBold" font-weight="bold" font-size="23.0" fill="#000000" transform="matrix(1.00, 0.00, -0.00, -1.00, 851.2, 298.0)"> </text><text xml:space="preserve" font-family="Montserrat-SemiBold" font-weight="bold" font-size="23.0" fill="#000000" transform="matrix(1.00, 0.00, -0.00, -1.00, 856.7, 298.0)">W</text><text xml:space="preserve" font-family="Montserrat-SemiBold" font-weight="bold" font-size="23.0" fill="#000000" transform="matrix(1.00, 0.00, -0.00, -1.00, 879.8, 298.0)">e</text><text xml:space="preserve" font-family="Montserrat-SemiBold" font-weight="bold" font-size="23.0" fill="#000000" transform="matrix(1.00, 0.00, -0.00, -1.00, 893.5, 298.0)">b</text><text xml:space="preserve" font-family="Montserrat-SemiBold" font-weight="bold" font-size="23.0" fill="#000000" transform="matrix(1.00, 0.00, -0.00, -1.00, 909.2, 298.0)"> </text></g></svg>