<?xml version="1.0" encoding="UTF-8" standalone="no"?><svg xmlns="http://www.w3.org/2000/svg" xmlns:xlink="http://www.w3.org/1999/xlink" clip-rule="evenodd" stroke-miterlimit="4.00" viewBox="0 0 1024 768"><desc>SVG generated by Keynote</desc><defs></defs><g transform="matrix(1.00, 0.00, -0.00, -1.00, 0.0, 768.0)"><path d="M 0.0 768.0 L 1024.0 768.0 L 1024.0 0.0 L 0.0 0.0 Z M 0.0 768.0 " fill="#FEFFFF"></path><text xml:space="preserve" font-family="Montserrat-SemiBold" font-weight="bold" font-size="33.6" fill="#000000" transform="matrix(1.00, 0.00, -0.00, -1.00, 463.0, 488.0)">T</text><text xml:space="preserve" font-family="Montserrat-SemiBold" font-weight="bold" font-size="33.6" fill="#000000" transform="matrix(1.00, 0.00, -0.00, -1.00, 480.8, 488.0)">A</text><text xml:space="preserve" font-family="Montserrat-SemiBold" font-weight="bold" font-size="33.6" fill="#000000" transform="matrix(1.00, 0.00, -0.00, -1.00, 506.1, 488.0)">S</text><text xml:space="preserve" font-family="Montserrat-SemiBold" font-weight="bold" font-size="33.6" fill="#000000" transform="matrix(1.00, 0.00, -0.00, -1.00, 527.6, 488.0)">K</text><text xml:space="preserve" font-family="Montserrat-SemiBold" font-weight="bold" font-size="33.6" fill="#000000" transform="matrix(1.00, 0.00, -0.00, -1.00, 552.4, 488.0)">:</text><text xml:space="preserve" font-family="Montserrat-SemiBold" font-weight="bold" font-size="33.6" fill="#000000" transform="matrix(1.00, 0.00, -0.00, -1.00, 560.3, 488.0)"> </text><text xml:space="preserve" font-family="Montserrat-SemiBold" font-weight="bold" font-size="33.6" fill="#000000" transform="matrix(1.00, 0.00, -0.00, -1.00, 449.0, 420.0)">1</text><text xml:space="preserve" font-family="Montserrat-SemiBold" font-weight="bold" font-size="33.6" fill="#000000" transform="matrix(1.00, 0.00, -0.00, -1.00, 469.7, 420.0)">.</text><text xml:space="preserve" font-family="Montserrat-SemiBold" font-weight="bold" font-size="33.6" fill="#000000" transform="matrix(1.00, 0.00, -0.00, -1.00, 477.7, 420.0)"> </text><text xml:space="preserve" font-family="Montserrat-SemiBold" font-weight="bold" font-size="33.6" fill="#000000" transform="matrix(1.00, 0.00, -0.00, -1.00, 485.8, 420.0)">G</text><text xml:space="preserve" font-family="Montserrat-SemiBold" font-weight="bold" font-size="33.6" fill="#000000" transform="matrix(1.00, 0.00, -0.00, -1.00, 510.8, 420.0)">o</text><text xml:space="preserve" font-family="Montserrat-SemiBold" font-weight="bold" font-size="33.6" fill="#000000" transform="matrix(1.00, 0.00, -0.00, -1.00, 532.1, 420.0)"> </text><text xml:space="preserve" font-family="Montserrat-SemiBold" font-weight="bold" font-size="33.6" fill="#000000" transform="matrix(1.00, 0.00, -0.00, -1.00, 540.2, 420.0)">t</text><text xml:space="preserve" font-family="Montserrat-SemiBold" font-weight="bold" font-size="33.6" fill="#000000" transform="matrix(1.00, 0.00, -0.00, -1.00, 554.4, 420.0)">o</text><text xml:space="preserve" font-family="Montserrat-SemiBold" font-weight="bold" font-size="33.6" fill="#000000" transform="matrix(1.00, 0.00, -0.00, -1.00, 575.7, 420.0)"> </text><text xml:space="preserve" font-family="Montserrat-SemiBold" font-weight="bold" font-size="33.6" fill="#000000" transform="matrix(1.00, 0.00, -0.00, -1.00, 583.8, 420.0)"> </text><text xml:space="preserve" font-family="Montserrat-SemiBold" font-weight="bold" font-size="33.6" fill="#000000" transform="matrix(1.00, 0.00, -0.00, -1.00, 315.0, 352.0)">h</text><text xml:space="preserve" font-family="Montserrat-SemiBold" font-weight="bold" font-size="33.6" fill="#000000" transform="matrix(1.00, 0.00, -0.00, -1.00, 337.7, 352.0)">t</text><text xml:space="preserve" font-family="Montserrat-SemiBold" font-weight="bold" font-size="33.6" fill="#000000" transform="matrix(1.00, 0.00, -0.00, -1.00, 352.0, 352.0)">t</text><text xml:space="preserve" font-family="Montserrat-SemiBold" font-weight="bold" font-size="33.6" fill="#000000" transform="matrix(1.00, 0.00, -0.00, -1.00, 366.4, 352.0)">p</text><text xml:space="preserve" font-family="Montserrat-SemiBold" font-weight="bold" font-size="33.6" fill="#000000" transform="matrix(1.00, 0.00, -0.00, -1.00, 389.4, 352.0)">:</text><text xml:space="preserve" font-family="Montserrat-SemiBold" font-weight="bold" font-size="33.6" fill="#000000" transform="matrix(1.00, 0.00, -0.00, -1.00, 397.3, 352.0)">/</text><text xml:space="preserve" font-family="Montserrat-SemiBold" font-weight="bold" font-size="33.6" fill="#000000" transform="matrix(1.00, 0.00, -0.00, -1.00, 408.9, 352.0)">/</text><text xml:space="preserve" font-family="Montserrat-SemiBold" font-weight="bold" font-size="33.6" fill="#000000" transform="matrix(1.00, 0.00, -0.00, -1.00, 420.5, 352.0)">b</text><text xml:space="preserve" font-family="Montserrat-SemiBold" font-weight="bold" font-size="33.6" fill="#000000" transform="matrix(1.00, 0.00, -0.00, -1.00, 443.5, 352.0)">i</text><text xml:space="preserve" font-family="Montserrat-SemiBold" font-weight="bold" font-size="33.6" fill="#000000" transform="matrix(1.00, 0.00, -0.00, -1.00, 453.7, 352.0)">t</text><text xml:space="preserve" font-family="Montserrat-SemiBold" font-weight="bold" font-size="33.6" fill="#000000" transform="matrix(1.00, 0.00, -0.00, -1.00, 468.0, 352.0)">.</text><text xml:space="preserve" font-family="Montserrat-SemiBold" font-weight="bold" font-size="33.6" fill="#000000" transform="matrix(1.00, 0.00, -0.00, -1.00, 475.9, 352.0)">l</text><text xml:space="preserve" font-family="Montserrat-SemiBold" font-weight="bold" font-size="33.6" fill="#000000" transform="matrix(1.00, 0.00, -0.00, -1.00, 486.4, 352.0)">y</text><text xml:space="preserve" font-family="Montserrat-SemiBold" font-weight="bold" font-size="33.6" fill="#000000" transform="matrix(1.00, 0.00, -0.00, -1.00, 505.4, 352.0)">/</text><text xml:space="preserve" font-family="Montserrat-SemiBold" font-weight="bold" font-size="33.6" fill="#000000" transform="matrix(1.00, 0.00, -0.00, -1.00, 516.6, 352.0)">a</text><text xml:space="preserve" font-family="Montserrat-SemiBold" font-weight="bold" font-size="33.6" fill="#000000" transform="matrix(1.00, 0.00, -0.00, -1.00, 536.7, 352.0)">1</text><text xml:space="preserve" font-family="Montserrat-SemiBold" font-weight="bold" font-size="33.6" fill="#000000" transform="matrix(1.00, 0.00, -0.00, -1.00, 557.4, 352.0)">1</text><text xml:space="preserve" font-family="Montserrat-SemiBold" font-weight="bold" font-size="33.6" fill="#000000" transform="matrix(1.00, 0.00, -0.00, -1.00, 578.2, 352.0)">y</text><text xml:space="preserve" font-family="Montserrat-SemiBold" font-weight="bold" font-size="33.6" fill="#000000" transform="matrix(1.00, 0.00, -0.00, -1.00, 597.2, 352.0)">-</text><text xml:space="preserve" font-family="Montserrat-SemiBold" font-weight="bold" font-size="33.6" fill="#000000" transform="matrix(1.00, 0.00, -0.00, -1.00, 609.7, 352.0)">d</text><text xml:space="preserve" font-family="Montserrat-SemiBold" font-weight="bold" font-size="33.6" fill="#000000" transform="matrix(1.00, 0.00, -0.00, -1.00, 632.7, 352.0)">e</text><text xml:space="preserve" font-family="Montserrat-SemiBold" font-weight="bold" font-size="33.6" fill="#000000" transform="matrix(1.00, 0.00, -0.00, -1.00, 652.8, 352.0)">m</text><text xml:space="preserve" font-family="Montserrat-SemiBold" font-weight="bold" font-size="33.6" fill="#000000" transform="matrix(1.00, 0.00, -0.00, -1.00, 687.7, 352.0)">o</text><text xml:space="preserve" font-family="Montserrat-SemiBold" font-weight="bold" font-size="33.6" fill="#000000" transform="matrix(1.00, 0.00, -0.00, -1.00, 709.0, 352.0)"> </text><g><clipPath id="clip-175"><path d="M 314.0 348.0 L 709.0 348.0 L 709.0 351.7 L 314.0 351.7 Z M 314.0 348.0 "></path></clipPath><g clip-path="url(#clip-175)"><path d="M 154.3 177.0 L 548.4 177.0 " fill="none" stroke="#000000" stroke-width="1.68" stroke-miterlimit="0.00" transform="matrix(1.00, 0.00, 0.00, -1.00, 160.7, 526.8)"></path></g></g><text xml:space="preserve" font-family="Montserrat-SemiBold" font-weight="bold" font-size="33.6" fill="#000000" transform="matrix(1.00, 0.00, -0.00, -1.00, 305.0, 284.0)"> </text><text xml:space="preserve" font-family="Montserrat-SemiBold" font-weight="bold" font-size="33.6" fill="#000000" transform="matrix(1.00, 0.00, -0.00, -1.00, 313.1, 284.0)">2</text><text xml:space="preserve" font-family="Montserrat-SemiBold" font-weight="bold" font-size="33.6" fill="#000000" transform="matrix(1.00, 0.00, -0.00, -1.00, 333.9, 284.0)">.</text><text xml:space="preserve" font-family="Montserrat-SemiBold" font-weight="bold" font-size="33.6" fill="#000000" transform="matrix(1.00, 0.00, -0.00, -1.00, 341.8, 284.0)"> </text><text xml:space="preserve" font-family="Montserrat-SemiBold" font-weight="bold" font-size="33.6" fill="#000000" transform="matrix(1.00, 0.00, -0.00, -1.00, 349.9, 284.0)">O</text><text xml:space="preserve" font-family="Montserrat-SemiBold" font-weight="bold" font-size="33.6" fill="#000000" transform="matrix(1.00, 0.00, -0.00, -1.00, 377.0, 284.0)">p</text><text xml:space="preserve" font-family="Montserrat-SemiBold" font-weight="bold" font-size="33.6" fill="#000000" transform="matrix(1.00, 0.00, -0.00, -1.00, 400.0, 284.0)">e</text><text xml:space="preserve" font-family="Montserrat-SemiBold" font-weight="bold" font-size="33.6" fill="#000000" transform="matrix(1.00, 0.00, -0.00, -1.00, 420.0, 284.0)">n</text><text xml:space="preserve" font-family="Montserrat-SemiBold" font-weight="bold" font-size="33.6" fill="#000000" transform="matrix(1.00, 0.00, -0.00, -1.00, 442.6, 284.0)"> </text><text xml:space="preserve" font-family="Montserrat-SemiBold" font-weight="bold" font-size="33.6" fill="#000000" transform="matrix(1.00, 0.00, -0.00, -1.00, 450.7, 284.0)">D</text><text xml:space="preserve" font-family="Montserrat-SemiBold" font-weight="bold" font-size="33.6" fill="#000000" transform="matrix(1.00, 0.00, -0.00, -1.00, 476.5, 284.0)">e</text><text xml:space="preserve" font-family="Montserrat-SemiBold" font-weight="bold" font-size="33.6" fill="#000000" transform="matrix(1.00, 0.00, -0.00, -1.00, 496.0, 284.0)">v</text><text xml:space="preserve" font-family="Montserrat-SemiBold" font-weight="bold" font-size="33.6" fill="#000000" transform="matrix(1.00, 0.00, -0.00, -1.00, 514.1, 284.0)">e</text><text xml:space="preserve" font-family="Montserrat-SemiBold" font-weight="bold" font-size="33.6" fill="#000000" transform="matrix(1.00, 0.00, -0.00, -1.00, 534.2, 284.0)">l</text><text xml:space="preserve" font-family="Montserrat-SemiBold" font-weight="bold" font-size="33.6" fill="#000000" transform="matrix(1.00, 0.00, -0.00, -1.00, 544.7, 284.0)">o</text><text xml:space="preserve" font-family="Montserrat-SemiBold" font-weight="bold" font-size="33.6" fill="#000000" transform="matrix(1.00, 0.00, -0.00, -1.00, 566.0, 284.0)">p</text><text xml:space="preserve" font-family="Montserrat-SemiBold" font-weight="bold" font-size="33.6" fill="#000000" transform="matrix(1.00, 0.00, -0.00, -1.00, 589.0, 284.0)">e</text><text xml:space="preserve" font-family="Montserrat-SemiBold" font-weight="bold" font-size="33.6" fill="#000000" transform="matrix(1.00, 0.00, -0.00, -1.00, 609.1, 284.0)">r</text><text xml:space="preserve" font-family="Montserrat-SemiBold" font-weight="bold" font-size="33.6" fill="#000000" transform="matrix(1.00, 0.00, -0.00, -1.00, 623.1, 284.0)"> </text><text xml:space="preserve" font-family="Montserrat-SemiBold" font-weight="bold" font-size="33.6" fill="#000000" transform="matrix(1.00, 0.00, -0.00, -1.00, 631.2, 284.0)">T</text><text xml:space="preserve" font-family="Montserrat-SemiBold" font-weight="bold" font-size="33.6" fill="#000000" transform="matrix(1.00, 0.00, -0.00, -1.00, 649.2, 284.0)">o</text><text xml:space="preserve" font-family="Montserrat-SemiBold" font-weight="bold" font-size="33.6" fill="#000000" transform="matrix(1.00, 0.00, -0.00, -1.00, 670.5, 284.0)">o</text><text xml:space="preserve" font-family="Montserrat-SemiBold" font-weight="bold" font-size="33.6" fill="#000000" transform="matrix(1.00, 0.00, -0.00, -1.00, 691.7, 284.0)">l</text><text xml:space="preserve" font-family="Montserrat-SemiBold" font-weight="bold" font-size="33.6" fill="#000000" transform="matrix(1.00, 0.00, -0.00, -1.00, 702.3, 284.0)">s</text><text xml:space="preserve" font-family="Montserrat-SemiBold" font-weight="bold" font-size="33.6" fill="#000000" transform="matrix(1.00, 0.00, -0.00, -1.00, 719.1, 284.0)"> </text><text xml:space="preserve" font-family="Montserrat-SemiBold" font-weight="bold" font-size="33.6" fill="#000000" transform="matrix(1.00, 0.00, -0.00, -1.00, 328.0, 217.0)">3</text><text xml:space="preserve" font-family="Montserrat-SemiBold" font-weight="bold" font-size="33.6" fill="#000000" transform="matrix(1.00, 0.00, -0.00, -1.00, 348.7, 217.0)">.</text><text xml:space="preserve" font-family="Montserrat-SemiBold" font-weight="bold" font-size="33.6" fill="#000000" transform="matrix(1.00, 0.00, -0.00, -1.00, 356.7, 217.0)"> </text><text xml:space="preserve" font-family="Montserrat-SemiBold" font-weight="bold" font-size="33.6" fill="#000000" transform="matrix(1.00, 0.00, -0.00, -1.00, 364.8, 217.0)">C</text><text xml:space="preserve" font-family="Montserrat-SemiBold" font-weight="bold" font-size="33.6" fill="#000000" transform="matrix(1.00, 0.00, -0.00, -1.00, 388.1, 217.0)">l</text><text xml:space="preserve" font-family="Montserrat-SemiBold" font-weight="bold" font-size="33.6" fill="#000000" transform="matrix(1.00, 0.00, -0.00, -1.00, 398.6, 217.0)">i</text><text xml:space="preserve" font-family="Montserrat-SemiBold" font-weight="bold" font-size="33.6" fill="#000000" transform="matrix(1.00, 0.00, -0.00, -1.00, 408.8, 217.0)">c</text><text xml:space="preserve" font-family="Montserrat-SemiBold" font-weight="bold" font-size="33.6" fill="#000000" transform="matrix(1.00, 0.00, -0.00, -1.00, 427.7, 217.0)">k</text><text xml:space="preserve" font-family="Montserrat-SemiBold" font-weight="bold" font-size="33.6" fill="#000000" transform="matrix(1.00, 0.00, -0.00, -1.00, 448.5, 217.0)"> </text><text xml:space="preserve" font-family="Montserrat-SemiBold" font-weight="bold" font-size="33.6" fill="#000000" transform="matrix(1.00, 0.00, -0.00, -1.00, 456.6, 217.0)">o</text><text xml:space="preserve" font-family="Montserrat-SemiBold" font-weight="bold" font-size="33.6" fill="#000000" transform="matrix(1.00, 0.00, -0.00, -1.00, 477.9, 217.0)">n</text><text xml:space="preserve" font-family="Montserrat-SemiBold" font-weight="bold" font-size="33.6" fill="#000000" transform="matrix(1.00, 0.00, -0.00, -1.00, 500.5, 217.0)"> </text><text xml:space="preserve" font-family="Montserrat-SemiBold" font-weight="bold" font-size="33.6" fill="#000000" transform="matrix(1.00, 0.00, -0.00, -1.00, 508.6, 217.0)">“</text><text xml:space="preserve" font-family="Montserrat-SemiBold" font-weight="bold" font-size="33.6" fill="#000000" transform="matrix(1.00, 0.00, -0.00, -1.00, 522.2, 217.0)">A</text><text xml:space="preserve" font-family="Montserrat-SemiBold" font-weight="bold" font-size="33.6" fill="#000000" transform="matrix(1.00, 0.00, -0.00, -1.00, 546.9, 217.0)">u</text><text xml:space="preserve" font-family="Montserrat-SemiBold" font-weight="bold" font-size="33.6" fill="#000000" transform="matrix(1.00, 0.00, -0.00, -1.00, 569.1, 217.0)">d</text><text xml:space="preserve" font-family="Montserrat-SemiBold" font-weight="bold" font-size="33.6" fill="#000000" transform="matrix(1.00, 0.00, -0.00, -1.00, 592.1, 217.0)">i</text><text xml:space="preserve" font-family="Montserrat-SemiBold" font-weight="bold" font-size="33.6" fill="#000000" transform="matrix(1.00, 0.00, -0.00, -1.00, 602.3, 217.0)">t</text><text xml:space="preserve" font-family="Montserrat-SemiBold" font-weight="bold" font-size="33.6" fill="#000000" transform="matrix(1.00, 0.00, -0.00, -1.00, 616.6, 217.0)">”</text><text xml:space="preserve" font-family="Montserrat-SemiBold" font-weight="bold" font-size="33.6" fill="#000000" transform="matrix(1.00, 0.00, -0.00, -1.00, 630.2, 217.0)"> </text><text xml:space="preserve" font-family="Montserrat-SemiBold" font-weight="bold" font-size="33.6" fill="#000000" transform="matrix(1.00, 0.00, -0.00, -1.00, 638.3, 217.0)">t</text><text xml:space="preserve" font-family="Montserrat-SemiBold" font-weight="bold" font-size="33.6" fill="#000000" transform="matrix(1.00, 0.00, -0.00, -1.00, 652.7, 217.0)">a</text><text xml:space="preserve" font-family="Montserrat-SemiBold" font-weight="bold" font-size="33.6" fill="#000000" transform="matrix(1.00, 0.00, -0.00, -1.00, 672.7, 217.0)">b</text><text xml:space="preserve" font-family="Montserrat-SemiBold" font-weight="bold" font-size="33.6" fill="#000000" transform="matrix(1.00, 0.00, -0.00, -1.00, 695.7, 217.0)"> </text><text xml:space="preserve" font-family="Montserrat-SemiBold" font-weight="bold" font-size="33.6" fill="#000000" transform="matrix(1.00, 0.00, -0.00, -1.00, 408.0, 149.0)">4</text><text xml:space="preserve" font-family="Montserrat-SemiBold" font-weight="bold" font-size="33.6" fill="#000000" transform="matrix(1.00, 0.00, -0.00, -1.00, 428.7, 149.0)">.</text><text xml:space="preserve" font-family="Montserrat-SemiBold" font-weight="bold" font-size="33.6" fill="#000000" transform="matrix(1.00, 0.00, -0.00, -1.00, 436.7, 149.0)"> </text><text xml:space="preserve" font-family="Montserrat-SemiBold" font-weight="bold" font-size="33.6" fill="#000000" transform="matrix(1.00, 0.00, -0.00, -1.00, 444.8, 149.0)">R</text><text xml:space="preserve" font-family="Montserrat-SemiBold" font-weight="bold" font-size="33.6" fill="#000000" transform="matrix(1.00, 0.00, -0.00, -1.00, 469.1, 149.0)">u</text><text xml:space="preserve" font-family="Montserrat-SemiBold" font-weight="bold" font-size="33.6" fill="#000000" transform="matrix(1.00, 0.00, -0.00, -1.00, 491.3, 149.0)">n</text><text xml:space="preserve" font-family="Montserrat-SemiBold" font-weight="bold" font-size="33.6" fill="#000000" transform="matrix(1.00, 0.00, -0.00, -1.00, 513.8, 149.0)"> </text><text xml:space="preserve" font-family="Montserrat-SemiBold" font-weight="bold" font-size="33.6" fill="#000000" transform="matrix(1.00, 0.00, -0.00, -1.00, 521.9, 149.0)">A</text><text xml:space="preserve" font-family="Montserrat-SemiBold" font-weight="bold" font-size="33.6" fill="#000000" transform="matrix(1.00, 0.00, -0.00, -1.00, 546.7, 149.0)">u</text><text xml:space="preserve" font-family="Montserrat-SemiBold" font-weight="bold" font-size="33.6" fill="#000000" transform="matrix(1.00, 0.00, -0.00, -1.00, 568.9, 149.0)">d</text><text xml:space="preserve" font-family="Montserrat-SemiBold" font-weight="bold" font-size="33.6" fill="#000000" transform="matrix(1.00, 0.00, -0.00, -1.00, 591.9, 149.0)">i</text><text xml:space="preserve" font-family="Montserrat-SemiBold" font-weight="bold" font-size="33.6" fill="#000000" transform="matrix(1.00, 0.00, -0.00, -1.00, 602.0, 149.0)">t</text><text xml:space="preserve" font-family="Montserrat-SemiBold" font-weight="bold" font-size="33.6" fill="#000000" transform="matrix(1.00, 0.00, -0.00, -1.00, 616.4, 149.0)"> </text><text xml:space="preserve" font-family="Montserrat-SemiBold" font-weight="bold" font-size="78.4" fill="#000000" transform="matrix(1.00, 0.00, -0.00, -1.00, 133.0, 571.0)">E</text><text xml:space="preserve" font-family="Montserrat-SemiBold" font-weight="bold" font-size="78.4" fill="#000000" transform="matrix(1.00, 0.00, -0.00, -1.00, 185.4, 571.0)">X</text><text xml:space="preserve" font-family="Montserrat-SemiBold" font-weight="bold" font-size="78.4" fill="#000000" transform="matrix(1.00, 0.00, -0.00, -1.00, 241.9, 571.0)">T</text><text xml:space="preserve" font-family="Montserrat-SemiBold" font-weight="bold" font-size="78.4" fill="#000000" transform="matrix(1.00, 0.00, -0.00, -1.00, 289.0, 571.0)">E</text><text xml:space="preserve" font-family="Montserrat-SemiBold" font-weight="bold" font-size="78.4" fill="#000000" transform="matrix(1.00, 0.00, -0.00, -1.00, 341.4, 571.0)">N</text><text xml:space="preserve" font-family="Montserrat-SemiBold" font-weight="bold" font-size="78.4" fill="#000000" transform="matrix(1.00, 0.00, -0.00, -1.00, 403.2, 571.0)">S</text><text xml:space="preserve" font-family="Montserrat-SemiBold" font-weight="bold" font-size="78.4" fill="#000000" transform="matrix(1.00, 0.00, -0.00, -1.00, 453.1, 571.0)">I</text><text xml:space="preserve" font-family="Montserrat-SemiBold" font-weight="bold" font-size="78.4" fill="#000000" transform="matrix(1.00, 0.00, -0.00, -1.00, 477.6, 571.0)">O</text><text xml:space="preserve" font-family="Montserrat-SemiBold" font-weight="bold" font-size="78.4" fill="#000000" transform="matrix(1.00, 0.00, -0.00, -1.00, 540.8, 571.0)">N</text><text xml:space="preserve" font-family="Montserrat-SemiBold" font-weight="bold" font-size="78.4" fill="#000000" transform="matrix(1.00, 0.00, -0.00, -1.00, 602.6, 571.0)"> </text><text xml:space="preserve" font-family="Montserrat-SemiBold" font-weight="bold" font-size="78.4" fill="#000000" transform="matrix(1.00, 0.00, -0.00, -1.00, 621.5, 571.0)">T</text><text xml:space="preserve" font-family="Montserrat-SemiBold" font-weight="bold" font-size="78.4" fill="#000000" transform="matrix(1.00, 0.00, -0.00, -1.00, 665.6, 571.0)">O</text><text xml:space="preserve" font-family="Montserrat-SemiBold" font-weight="bold" font-size="78.4" fill="#000000" transform="matrix(1.00, 0.00, -0.00, -1.00, 727.4, 571.0)">O</text><text xml:space="preserve" font-family="Montserrat-SemiBold" font-weight="bold" font-size="78.4" fill="#000000" transform="matrix(1.00, 0.00, -0.00, -1.00, 790.6, 571.0)">L</text><text xml:space="preserve" font-family="Montserrat-SemiBold" font-weight="bold" font-size="78.4" fill="#000000" transform="matrix(1.00, 0.00, -0.00, -1.00, 833.9, 571.0)">S</text><path d="M 0.0 696.0 L 564.4 696.0 L 564.4 672.2 L 0.0 672.2 Z M 0.0 696.0 " fill="#E962EB"></path></g></svg>