<?xml version="1.0" encoding="UTF-8" standalone="no"?><svg xmlns="http://www.w3.org/2000/svg" xmlns:xlink="http://www.w3.org/1999/xlink" clip-rule="evenodd" stroke-miterlimit="4.00" viewBox="0 0 1024 768"><desc>SVG generated by Keynote</desc><defs></defs><g transform="matrix(1.00, 0.00, -0.00, -1.00, 0.0, 768.0)"><path d="M 0.0 768.0 L 1024.0 768.0 L 1024.0 0.0 L 0.0 0.0 Z M 0.0 768.0 " fill="#FEFFFF"></path><text xml:space="preserve" font-family="Montserrat-SemiBold" font-weight="bold" font-size="30.7" fill="#000000" transform="matrix(1.00, 0.00, -0.00, -1.00, 468.0, 491.0)">T</text><text xml:space="preserve" font-family="Montserrat-SemiBold" font-weight="bold" font-size="30.7" fill="#000000" transform="matrix(1.00, 0.00, -0.00, -1.00, 484.2, 491.0)">A</text><text xml:space="preserve" font-family="Montserrat-SemiBold" font-weight="bold" font-size="30.7" fill="#000000" transform="matrix(1.00, 0.00, -0.00, -1.00, 507.4, 491.0)">S</text><text xml:space="preserve" font-family="Montserrat-SemiBold" font-weight="bold" font-size="30.7" fill="#000000" transform="matrix(1.00, 0.00, -0.00, -1.00, 526.9, 491.0)">K</text><text xml:space="preserve" font-family="Montserrat-SemiBold" font-weight="bold" font-size="30.7" fill="#000000" transform="matrix(1.00, 0.00, -0.00, -1.00, 549.5, 491.0)">:</text><text xml:space="preserve" font-family="Montserrat-SemiBold" font-weight="bold" font-size="30.7" fill="#000000" transform="matrix(1.00, 0.00, -0.00, -1.00, 556.7, 491.0)"> </text><text xml:space="preserve" font-family="Montserrat-SemiBold" font-weight="bold" font-size="30.7" fill="#000000" transform="matrix(1.00, 0.00, -0.00, -1.00, 454.0, 429.0)">1</text><text xml:space="preserve" font-family="Montserrat-SemiBold" font-weight="bold" font-size="30.7" fill="#000000" transform="matrix(1.00, 0.00, -0.00, -1.00, 472.9, 429.0)">.</text><text xml:space="preserve" font-family="Montserrat-SemiBold" font-weight="bold" font-size="30.7" fill="#000000" transform="matrix(1.00, 0.00, -0.00, -1.00, 480.1, 429.0)"> </text><text xml:space="preserve" font-family="Montserrat-SemiBold" font-weight="bold" font-size="30.7" fill="#000000" transform="matrix(1.00, 0.00, -0.00, -1.00, 487.5, 429.0)">G</text><text xml:space="preserve" font-family="Montserrat-SemiBold" font-weight="bold" font-size="30.7" fill="#000000" transform="matrix(1.00, 0.00, -0.00, -1.00, 510.4, 429.0)">o</text><text xml:space="preserve" font-family="Montserrat-SemiBold" font-weight="bold" font-size="30.7" fill="#000000" transform="matrix(1.00, 0.00, -0.00, -1.00, 529.8, 429.0)"> </text><text xml:space="preserve" font-family="Montserrat-SemiBold" font-weight="bold" font-size="30.7" fill="#000000" transform="matrix(1.00, 0.00, -0.00, -1.00, 537.2, 429.0)">t</text><text xml:space="preserve" font-family="Montserrat-SemiBold" font-weight="bold" font-size="30.7" fill="#000000" transform="matrix(1.00, 0.00, -0.00, -1.00, 550.2, 429.0)">o</text><text xml:space="preserve" font-family="Montserrat-SemiBold" font-weight="bold" font-size="30.7" fill="#000000" transform="matrix(1.00, 0.00, -0.00, -1.00, 569.6, 429.0)"> </text><text xml:space="preserve" font-family="Montserrat-SemiBold" font-weight="bold" font-size="30.7" fill="#000000" transform="matrix(1.00, 0.00, -0.00, -1.00, 577.0, 429.0)"> </text><text xml:space="preserve" font-family="Montserrat-SemiBold" font-weight="bold" font-size="30.7" fill="#000000" transform="matrix(1.00, 0.00, -0.00, -1.00, 213.0, 368.0)">h</text><text xml:space="preserve" font-family="Montserrat-SemiBold" font-weight="bold" font-size="30.7" fill="#000000" transform="matrix(1.00, 0.00, -0.00, -1.00, 233.7, 368.0)">t</text><text xml:space="preserve" font-family="Montserrat-SemiBold" font-weight="bold" font-size="30.7" fill="#000000" transform="matrix(1.00, 0.00, -0.00, -1.00, 246.8, 368.0)">t</text><text xml:space="preserve" font-family="Montserrat-SemiBold" font-weight="bold" font-size="30.7" fill="#000000" transform="matrix(1.00, 0.00, -0.00, -1.00, 259.8, 368.0)">p</text><text xml:space="preserve" font-family="Montserrat-SemiBold" font-weight="bold" font-size="30.7" fill="#000000" transform="matrix(1.00, 0.00, -0.00, -1.00, 280.8, 368.0)">s</text><text xml:space="preserve" font-family="Montserrat-SemiBold" font-weight="bold" font-size="30.7" fill="#000000" transform="matrix(1.00, 0.00, -0.00, -1.00, 296.1, 368.0)">:</text><text xml:space="preserve" font-family="Montserrat-SemiBold" font-weight="bold" font-size="30.7" fill="#000000" transform="matrix(1.00, 0.00, -0.00, -1.00, 303.4, 368.0)">/</text><text xml:space="preserve" font-family="Montserrat-SemiBold" font-weight="bold" font-size="30.7" fill="#000000" transform="matrix(1.00, 0.00, -0.00, -1.00, 314.0, 368.0)">/</text><text xml:space="preserve" font-family="Montserrat-SemiBold" font-weight="bold" font-size="30.7" fill="#000000" transform="matrix(1.00, 0.00, -0.00, -1.00, 324.6, 368.0)">e</text><text xml:space="preserve" font-family="Montserrat-SemiBold" font-weight="bold" font-size="30.7" fill="#000000" transform="matrix(1.00, 0.00, -0.00, -1.00, 342.9, 368.0)">m</text><text xml:space="preserve" font-family="Montserrat-SemiBold" font-weight="bold" font-size="30.7" fill="#000000" transform="matrix(1.00, 0.00, -0.00, -1.00, 374.8, 368.0)">i</text><text xml:space="preserve" font-family="Montserrat-SemiBold" font-weight="bold" font-size="30.7" fill="#000000" transform="matrix(1.00, 0.00, -0.00, -1.00, 384.0, 368.0)">l</text><text xml:space="preserve" font-family="Montserrat-SemiBold" font-weight="bold" font-size="30.7" fill="#000000" transform="matrix(1.00, 0.00, -0.00, -1.00, 393.6, 368.0)">y</text><text xml:space="preserve" font-family="Montserrat-SemiBold" font-weight="bold" font-size="30.7" fill="#000000" transform="matrix(1.00, 0.00, -0.00, -1.00, 410.9, 368.0)">-</text><text xml:space="preserve" font-family="Montserrat-SemiBold" font-weight="bold" font-size="30.7" fill="#000000" transform="matrix(1.00, 0.00, -0.00, -1.00, 422.4, 368.0)">p</text><text xml:space="preserve" font-family="Montserrat-SemiBold" font-weight="bold" font-size="30.7" fill="#000000" transform="matrix(1.00, 0.00, -0.00, -1.00, 443.3, 368.0)">l</text><text xml:space="preserve" font-family="Montserrat-SemiBold" font-weight="bold" font-size="30.7" fill="#000000" transform="matrix(1.00, 0.00, -0.00, -1.00, 452.9, 368.0)">u</text><text xml:space="preserve" font-family="Montserrat-SemiBold" font-weight="bold" font-size="30.7" fill="#000000" transform="matrix(1.00, 0.00, -0.00, -1.00, 473.2, 368.0)">m</text><text xml:space="preserve" font-family="Montserrat-SemiBold" font-weight="bold" font-size="30.7" fill="#000000" transform="matrix(1.00, 0.00, -0.00, -1.00, 505.1, 368.0)">m</text><text xml:space="preserve" font-family="Montserrat-SemiBold" font-weight="bold" font-size="30.7" fill="#000000" transform="matrix(1.00, 0.00, -0.00, -1.00, 537.0, 368.0)">e</text><text xml:space="preserve" font-family="Montserrat-SemiBold" font-weight="bold" font-size="30.7" fill="#000000" transform="matrix(1.00, 0.00, -0.00, -1.00, 555.3, 368.0)">r</text><text xml:space="preserve" font-family="Montserrat-SemiBold" font-weight="bold" font-size="30.7" fill="#000000" transform="matrix(1.00, 0.00, -0.00, -1.00, 568.0, 368.0)">.</text><text xml:space="preserve" font-family="Montserrat-SemiBold" font-weight="bold" font-size="30.7" fill="#000000" transform="matrix(1.00, 0.00, -0.00, -1.00, 575.2, 368.0)">g</text><text xml:space="preserve" font-family="Montserrat-SemiBold" font-weight="bold" font-size="30.7" fill="#000000" transform="matrix(1.00, 0.00, -0.00, -1.00, 595.0, 368.0)">i</text><text xml:space="preserve" font-family="Montserrat-SemiBold" font-weight="bold" font-size="30.7" fill="#000000" transform="matrix(1.00, 0.00, -0.00, -1.00, 604.3, 368.0)">t</text><text xml:space="preserve" font-family="Montserrat-SemiBold" font-weight="bold" font-size="30.7" fill="#000000" transform="matrix(1.00, 0.00, -0.00, -1.00, 617.4, 368.0)">h</text><text xml:space="preserve" font-family="Montserrat-SemiBold" font-weight="bold" font-size="30.7" fill="#000000" transform="matrix(1.00, 0.00, -0.00, -1.00, 638.1, 368.0)">u</text><text xml:space="preserve" font-family="Montserrat-SemiBold" font-weight="bold" font-size="30.7" fill="#000000" transform="matrix(1.00, 0.00, -0.00, -1.00, 658.3, 368.0)">b</text><text xml:space="preserve" font-family="Montserrat-SemiBold" font-weight="bold" font-size="30.7" fill="#000000" transform="matrix(1.00, 0.00, -0.00, -1.00, 679.3, 368.0)">.</text><text xml:space="preserve" font-family="Montserrat-SemiBold" font-weight="bold" font-size="30.7" fill="#000000" transform="matrix(1.00, 0.00, -0.00, -1.00, 686.5, 368.0)">i</text><text xml:space="preserve" font-family="Montserrat-SemiBold" font-weight="bold" font-size="30.7" fill="#000000" transform="matrix(1.00, 0.00, -0.00, -1.00, 695.7, 368.0)">o</text><text xml:space="preserve" font-family="Montserrat-SemiBold" font-weight="bold" font-size="30.7" fill="#000000" transform="matrix(1.00, 0.00, -0.00, -1.00, 715.2, 368.0)">/</text><text xml:space="preserve" font-family="Montserrat-SemiBold" font-weight="bold" font-size="30.7" fill="#000000" transform="matrix(1.00, 0.00, -0.00, -1.00, 725.4, 368.0)">a</text><text xml:space="preserve" font-family="Montserrat-SemiBold" font-weight="bold" font-size="30.7" fill="#000000" transform="matrix(1.00, 0.00, -0.00, -1.00, 743.7, 368.0)">1</text><text xml:space="preserve" font-family="Montserrat-SemiBold" font-weight="bold" font-size="30.7" fill="#000000" transform="matrix(1.00, 0.00, -0.00, -1.00, 762.7, 368.0)">1</text><text xml:space="preserve" font-family="Montserrat-SemiBold" font-weight="bold" font-size="30.7" fill="#000000" transform="matrix(1.00, 0.00, -0.00, -1.00, 781.6, 368.0)">y</text><text xml:space="preserve" font-family="Montserrat-SemiBold" font-weight="bold" font-size="30.7" fill="#000000" transform="matrix(1.00, 0.00, -0.00, -1.00, 798.9, 368.0)">-</text><g><clipPath id="clip-52"><path d="M 212.3 363.5 L 810.7 363.5 L 810.7 367.1 L 212.3 367.1 Z M 212.3 363.5 "></path></clipPath><g clip-path="url(#clip-52)"><path d="M 52.7 161.5 L 650.0 161.5 " fill="none" stroke="#000000" stroke-width="1.53" stroke-miterlimit="0.00" transform="matrix(1.00, 0.00, 0.00, -1.00, 160.7, 526.8)"></path></g></g><text xml:space="preserve" font-family="Montserrat-SemiBold" font-weight="bold" font-size="30.7" fill="#000000" transform="matrix(1.00, 0.00, -0.00, -1.00, 461.0, 328.0)">d</text><text xml:space="preserve" font-family="Montserrat-SemiBold" font-weight="bold" font-size="30.7" fill="#000000" transform="matrix(1.00, 0.00, -0.00, -1.00, 482.0, 328.0)">e</text><text xml:space="preserve" font-family="Montserrat-SemiBold" font-weight="bold" font-size="30.7" fill="#000000" transform="matrix(1.00, 0.00, -0.00, -1.00, 500.3, 328.0)">m</text><text xml:space="preserve" font-family="Montserrat-SemiBold" font-weight="bold" font-size="30.7" fill="#000000" transform="matrix(1.00, 0.00, -0.00, -1.00, 532.2, 328.0)">o</text><text xml:space="preserve" font-family="Montserrat-SemiBold" font-weight="bold" font-size="30.7" fill="#000000" transform="matrix(1.00, 0.00, -0.00, -1.00, 551.6, 328.0)">/</text><text xml:space="preserve" font-family="Montserrat-SemiBold" font-weight="bold" font-size="30.7" fill="#000000" transform="matrix(1.00, 0.00, -0.00, -1.00, 562.2, 328.0)"> </text><g><clipPath id="clip-53"><path d="M 460.4 323.5 L 562.6 323.5 L 562.6 327.1 L 460.4 327.1 Z M 460.4 323.5 "></path></clipPath><g clip-path="url(#clip-53)"><path d="M 300.7 201.5 L 402.0 201.5 " fill="none" stroke="#000000" stroke-width="1.53" stroke-miterlimit="0.00" transform="matrix(1.00, 0.00, 0.00, -1.00, 160.7, 526.8)"></path></g></g><text xml:space="preserve" font-family="Montserrat-SemiBold" font-weight="bold" font-size="30.7" fill="#000000" transform="matrix(1.00, 0.00, -0.00, -1.00, 323.0, 266.0)"> </text><text xml:space="preserve" font-family="Montserrat-SemiBold" font-weight="bold" font-size="30.7" fill="#000000" transform="matrix(1.00, 0.00, -0.00, -1.00, 330.4, 266.0)">2</text><text xml:space="preserve" font-family="Montserrat-SemiBold" font-weight="bold" font-size="30.7" fill="#000000" transform="matrix(1.00, 0.00, -0.00, -1.00, 349.3, 266.0)">.</text><text xml:space="preserve" font-family="Montserrat-SemiBold" font-weight="bold" font-size="30.7" fill="#000000" transform="matrix(1.00, 0.00, -0.00, -1.00, 356.5, 266.0)"> </text><text xml:space="preserve" font-family="Montserrat-SemiBold" font-weight="bold" font-size="30.7" fill="#000000" transform="matrix(1.00, 0.00, -0.00, -1.00, 363.9, 266.0)">O</text><text xml:space="preserve" font-family="Montserrat-SemiBold" font-weight="bold" font-size="30.7" fill="#000000" transform="matrix(1.00, 0.00, -0.00, -1.00, 388.7, 266.0)">p</text><text xml:space="preserve" font-family="Montserrat-SemiBold" font-weight="bold" font-size="30.7" fill="#000000" transform="matrix(1.00, 0.00, -0.00, -1.00, 409.6, 266.0)">e</text><text xml:space="preserve" font-family="Montserrat-SemiBold" font-weight="bold" font-size="30.7" fill="#000000" transform="matrix(1.00, 0.00, -0.00, -1.00, 428.0, 266.0)">n</text><text xml:space="preserve" font-family="Montserrat-SemiBold" font-weight="bold" font-size="30.7" fill="#000000" transform="matrix(1.00, 0.00, -0.00, -1.00, 448.5, 266.0)"> </text><text xml:space="preserve" font-family="Montserrat-SemiBold" font-weight="bold" font-size="30.7" fill="#000000" transform="matrix(1.00, 0.00, -0.00, -1.00, 455.9, 266.0)">D</text><text xml:space="preserve" font-family="Montserrat-SemiBold" font-weight="bold" font-size="30.7" fill="#000000" transform="matrix(1.00, 0.00, -0.00, -1.00, 479.5, 266.0)">e</text><text xml:space="preserve" font-family="Montserrat-SemiBold" font-weight="bold" font-size="30.7" fill="#000000" transform="matrix(1.00, 0.00, -0.00, -1.00, 497.3, 266.0)">v</text><text xml:space="preserve" font-family="Montserrat-SemiBold" font-weight="bold" font-size="30.7" fill="#000000" transform="matrix(1.00, 0.00, -0.00, -1.00, 513.8, 266.0)">e</text><text xml:space="preserve" font-family="Montserrat-SemiBold" font-weight="bold" font-size="30.7" fill="#000000" transform="matrix(1.00, 0.00, -0.00, -1.00, 532.1, 266.0)">l</text><text xml:space="preserve" font-family="Montserrat-SemiBold" font-weight="bold" font-size="30.7" fill="#000000" transform="matrix(1.00, 0.00, -0.00, -1.00, 541.7, 266.0)">o</text><text xml:space="preserve" font-family="Montserrat-SemiBold" font-weight="bold" font-size="30.7" fill="#000000" transform="matrix(1.00, 0.00, -0.00, -1.00, 561.1, 266.0)">p</text><text xml:space="preserve" font-family="Montserrat-SemiBold" font-weight="bold" font-size="30.7" fill="#000000" transform="matrix(1.00, 0.00, -0.00, -1.00, 582.1, 266.0)">e</text><text xml:space="preserve" font-family="Montserrat-SemiBold" font-weight="bold" font-size="30.7" fill="#000000" transform="matrix(1.00, 0.00, -0.00, -1.00, 600.4, 266.0)">r</text><text xml:space="preserve" font-family="Montserrat-SemiBold" font-weight="bold" font-size="30.7" fill="#000000" transform="matrix(1.00, 0.00, -0.00, -1.00, 613.2, 266.0)"> </text><text xml:space="preserve" font-family="Montserrat-SemiBold" font-weight="bold" font-size="30.7" fill="#000000" transform="matrix(1.00, 0.00, -0.00, -1.00, 620.6, 266.0)">T</text><text xml:space="preserve" font-family="Montserrat-SemiBold" font-weight="bold" font-size="30.7" fill="#000000" transform="matrix(1.00, 0.00, -0.00, -1.00, 637.0, 266.0)">o</text><text xml:space="preserve" font-family="Montserrat-SemiBold" font-weight="bold" font-size="30.7" fill="#000000" transform="matrix(1.00, 0.00, -0.00, -1.00, 656.4, 266.0)">o</text><text xml:space="preserve" font-family="Montserrat-SemiBold" font-weight="bold" font-size="30.7" fill="#000000" transform="matrix(1.00, 0.00, -0.00, -1.00, 675.8, 266.0)">l</text><text xml:space="preserve" font-family="Montserrat-SemiBold" font-weight="bold" font-size="30.7" fill="#000000" transform="matrix(1.00, 0.00, -0.00, -1.00, 685.4, 266.0)">s</text><text xml:space="preserve" font-family="Montserrat-SemiBold" font-weight="bold" font-size="30.7" fill="#000000" transform="matrix(1.00, 0.00, -0.00, -1.00, 700.7, 266.0)"> </text><text xml:space="preserve" font-family="Montserrat-SemiBold" font-weight="bold" font-size="30.7" fill="#000000" transform="matrix(1.00, 0.00, -0.00, -1.00, 344.0, 204.0)">3</text><text xml:space="preserve" font-family="Montserrat-SemiBold" font-weight="bold" font-size="30.7" fill="#000000" transform="matrix(1.00, 0.00, -0.00, -1.00, 362.9, 204.0)">.</text><text xml:space="preserve" font-family="Montserrat-SemiBold" font-weight="bold" font-size="30.7" fill="#000000" transform="matrix(1.00, 0.00, -0.00, -1.00, 370.1, 204.0)"> </text><text xml:space="preserve" font-family="Montserrat-SemiBold" font-weight="bold" font-size="30.7" fill="#000000" transform="matrix(1.00, 0.00, -0.00, -1.00, 377.5, 204.0)">C</text><text xml:space="preserve" font-family="Montserrat-SemiBold" font-weight="bold" font-size="30.7" fill="#000000" transform="matrix(1.00, 0.00, -0.00, -1.00, 398.8, 204.0)">l</text><text xml:space="preserve" font-family="Montserrat-SemiBold" font-weight="bold" font-size="30.7" fill="#000000" transform="matrix(1.00, 0.00, -0.00, -1.00, 408.4, 204.0)">i</text><text xml:space="preserve" font-family="Montserrat-SemiBold" font-weight="bold" font-size="30.7" fill="#000000" transform="matrix(1.00, 0.00, -0.00, -1.00, 417.7, 204.0)">c</text><text xml:space="preserve" font-family="Montserrat-SemiBold" font-weight="bold" font-size="30.7" fill="#000000" transform="matrix(1.00, 0.00, -0.00, -1.00, 435.0, 204.0)">k</text><text xml:space="preserve" font-family="Montserrat-SemiBold" font-weight="bold" font-size="30.7" fill="#000000" transform="matrix(1.00, 0.00, -0.00, -1.00, 454.0, 204.0)"> </text><text xml:space="preserve" font-family="Montserrat-SemiBold" font-weight="bold" font-size="30.7" fill="#000000" transform="matrix(1.00, 0.00, -0.00, -1.00, 461.4, 204.0)">o</text><text xml:space="preserve" font-family="Montserrat-SemiBold" font-weight="bold" font-size="30.7" fill="#000000" transform="matrix(1.00, 0.00, -0.00, -1.00, 480.8, 204.0)">n</text><text xml:space="preserve" font-family="Montserrat-SemiBold" font-weight="bold" font-size="30.7" fill="#000000" transform="matrix(1.00, 0.00, -0.00, -1.00, 501.3, 204.0)"> </text><text xml:space="preserve" font-family="Montserrat-SemiBold" font-weight="bold" font-size="30.7" fill="#000000" transform="matrix(1.00, 0.00, -0.00, -1.00, 508.7, 204.0)">“</text><text xml:space="preserve" font-family="Montserrat-SemiBold" font-weight="bold" font-size="30.7" fill="#000000" transform="matrix(1.00, 0.00, -0.00, -1.00, 521.1, 204.0)">A</text><text xml:space="preserve" font-family="Montserrat-SemiBold" font-weight="bold" font-size="30.7" fill="#000000" transform="matrix(1.00, 0.00, -0.00, -1.00, 543.7, 204.0)">u</text><text xml:space="preserve" font-family="Montserrat-SemiBold" font-weight="bold" font-size="30.7" fill="#000000" transform="matrix(1.00, 0.00, -0.00, -1.00, 563.9, 204.0)">d</text><text xml:space="preserve" font-family="Montserrat-SemiBold" font-weight="bold" font-size="30.7" fill="#000000" transform="matrix(1.00, 0.00, -0.00, -1.00, 585.0, 204.0)">i</text><text xml:space="preserve" font-family="Montserrat-SemiBold" font-weight="bold" font-size="30.7" fill="#000000" transform="matrix(1.00, 0.00, -0.00, -1.00, 594.2, 204.0)">t</text><text xml:space="preserve" font-family="Montserrat-SemiBold" font-weight="bold" font-size="30.7" fill="#000000" transform="matrix(1.00, 0.00, -0.00, -1.00, 607.3, 204.0)">”</text><text xml:space="preserve" font-family="Montserrat-SemiBold" font-weight="bold" font-size="30.7" fill="#000000" transform="matrix(1.00, 0.00, -0.00, -1.00, 619.7, 204.0)"> </text><text xml:space="preserve" font-family="Montserrat-SemiBold" font-weight="bold" font-size="30.7" fill="#000000" transform="matrix(1.00, 0.00, -0.00, -1.00, 627.1, 204.0)">t</text><text xml:space="preserve" font-family="Montserrat-SemiBold" font-weight="bold" font-size="30.7" fill="#000000" transform="matrix(1.00, 0.00, -0.00, -1.00, 640.2, 204.0)">a</text><text xml:space="preserve" font-family="Montserrat-SemiBold" font-weight="bold" font-size="30.7" fill="#000000" transform="matrix(1.00, 0.00, -0.00, -1.00, 658.5, 204.0)">b</text><text xml:space="preserve" font-family="Montserrat-SemiBold" font-weight="bold" font-size="30.7" fill="#000000" transform="matrix(1.00, 0.00, -0.00, -1.00, 679.4, 204.0)"> </text><text xml:space="preserve" font-family="Montserrat-SemiBold" font-weight="bold" font-size="30.7" fill="#000000" transform="matrix(1.00, 0.00, -0.00, -1.00, 417.0, 142.0)">4</text><text xml:space="preserve" font-family="Montserrat-SemiBold" font-weight="bold" font-size="30.7" fill="#000000" transform="matrix(1.00, 0.00, -0.00, -1.00, 435.9, 142.0)">.</text><text xml:space="preserve" font-family="Montserrat-SemiBold" font-weight="bold" font-size="30.7" fill="#000000" transform="matrix(1.00, 0.00, -0.00, -1.00, 443.1, 142.0)"> </text><text xml:space="preserve" font-family="Montserrat-SemiBold" font-weight="bold" font-size="30.7" fill="#000000" transform="matrix(1.00, 0.00, -0.00, -1.00, 450.5, 142.0)">R</text><text xml:space="preserve" font-family="Montserrat-SemiBold" font-weight="bold" font-size="30.7" fill="#000000" transform="matrix(1.00, 0.00, -0.00, -1.00, 472.7, 142.0)">u</text><text xml:space="preserve" font-family="Montserrat-SemiBold" font-weight="bold" font-size="30.7" fill="#000000" transform="matrix(1.00, 0.00, -0.00, -1.00, 493.0, 142.0)">n</text><text xml:space="preserve" font-family="Montserrat-SemiBold" font-weight="bold" font-size="30.7" fill="#000000" transform="matrix(1.00, 0.00, -0.00, -1.00, 513.5, 142.0)"> </text><text xml:space="preserve" font-family="Montserrat-SemiBold" font-weight="bold" font-size="30.7" fill="#000000" transform="matrix(1.00, 0.00, -0.00, -1.00, 520.9, 142.0)">A</text><text xml:space="preserve" font-family="Montserrat-SemiBold" font-weight="bold" font-size="30.7" fill="#000000" transform="matrix(1.00, 0.00, -0.00, -1.00, 543.5, 142.0)">u</text><text xml:space="preserve" font-family="Montserrat-SemiBold" font-weight="bold" font-size="30.7" fill="#000000" transform="matrix(1.00, 0.00, -0.00, -1.00, 563.7, 142.0)">d</text><text xml:space="preserve" font-family="Montserrat-SemiBold" font-weight="bold" font-size="30.7" fill="#000000" transform="matrix(1.00, 0.00, -0.00, -1.00, 584.8, 142.0)">i</text><text xml:space="preserve" font-family="Montserrat-SemiBold" font-weight="bold" font-size="30.7" fill="#000000" transform="matrix(1.00, 0.00, -0.00, -1.00, 594.0, 142.0)">t</text><text xml:space="preserve" font-family="Montserrat-SemiBold" font-weight="bold" font-size="30.7" fill="#000000" transform="matrix(1.00, 0.00, -0.00, -1.00, 607.1, 142.0)"> </text><text xml:space="preserve" font-family="Montserrat-SemiBold" font-weight="bold" font-size="78.4" fill="#000000" transform="matrix(1.00, 0.00, -0.00, -1.00, 133.0, 571.0)">E</text><text xml:space="preserve" font-family="Montserrat-SemiBold" font-weight="bold" font-size="78.4" fill="#000000" transform="matrix(1.00, 0.00, -0.00, -1.00, 185.4, 571.0)">X</text><text xml:space="preserve" font-family="Montserrat-SemiBold" font-weight="bold" font-size="78.4" fill="#000000" transform="matrix(1.00, 0.00, -0.00, -1.00, 241.9, 571.0)">T</text><text xml:space="preserve" font-family="Montserrat-SemiBold" font-weight="bold" font-size="78.4" fill="#000000" transform="matrix(1.00, 0.00, -0.00, -1.00, 289.0, 571.0)">E</text><text xml:space="preserve" font-family="Montserrat-SemiBold" font-weight="bold" font-size="78.4" fill="#000000" transform="matrix(1.00, 0.00, -0.00, -1.00, 341.4, 571.0)">N</text><text xml:space="preserve" font-family="Montserrat-SemiBold" font-weight="bold" font-size="78.4" fill="#000000" transform="matrix(1.00, 0.00, -0.00, -1.00, 403.2, 571.0)">S</text><text xml:space="preserve" font-family="Montserrat-SemiBold" font-weight="bold" font-size="78.4" fill="#000000" transform="matrix(1.00, 0.00, -0.00, -1.00, 453.1, 571.0)">I</text><text xml:space="preserve" font-family="Montserrat-SemiBold" font-weight="bold" font-size="78.4" fill="#000000" transform="matrix(1.00, 0.00, -0.00, -1.00, 477.6, 571.0)">O</text><text xml:space="preserve" font-family="Montserrat-SemiBold" font-weight="bold" font-size="78.4" fill="#000000" transform="matrix(1.00, 0.00, -0.00, -1.00, 540.8, 571.0)">N</text><text xml:space="preserve" font-family="Montserrat-SemiBold" font-weight="bold" font-size="78.4" fill="#000000" transform="matrix(1.00, 0.00, -0.00, -1.00, 602.6, 571.0)"> </text><text xml:space="preserve" font-family="Montserrat-SemiBold" font-weight="bold" font-size="78.4" fill="#000000" transform="matrix(1.00, 0.00, -0.00, -1.00, 621.5, 571.0)">T</text><text xml:space="preserve" font-family="Montserrat-SemiBold" font-weight="bold" font-size="78.4" fill="#000000" transform="matrix(1.00, 0.00, -0.00, -1.00, 665.6, 571.0)">O</text><text xml:space="preserve" font-family="Montserrat-SemiBold" font-weight="bold" font-size="78.4" fill="#000000" transform="matrix(1.00, 0.00, -0.00, -1.00, 727.4, 571.0)">O</text><text xml:space="preserve" font-family="Montserrat-SemiBold" font-weight="bold" font-size="78.4" fill="#000000" transform="matrix(1.00, 0.00, -0.00, -1.00, 790.6, 571.0)">L</text><text xml:space="preserve" font-family="Montserrat-SemiBold" font-weight="bold" font-size="78.4" fill="#000000" transform="matrix(1.00, 0.00, -0.00, -1.00, 833.9, 571.0)">S</text><path d="M 0.0 696.0 L 564.4 696.0 L 564.4 672.2 L 0.0 672.2 Z M 0.0 696.0 " fill="#E962EB"></path></g></svg>