<?xml version="1.0" encoding="UTF-8" standalone="no"?><svg xmlns="http://www.w3.org/2000/svg" xmlns:xlink="http://www.w3.org/1999/xlink" clip-rule="evenodd" stroke-miterlimit="4.00" viewBox="0 0 1024 768"><desc>SVG generated by Keynote</desc><defs></defs><g transform="matrix(1.00, 0.00, -0.00, -1.00, 0.0, 768.0)"><path d="M 0.0 768.0 L 1024.0 768.0 L 1024.0 0.0 L 0.0 0.0 Z M 0.0 768.0 " fill="#FFFFFF"></path><text xml:space="preserve" font-family="Montserrat-SemiBold" font-weight="bold" font-size="33.0" fill="#000000" transform="matrix(1.00, 0.00, -0.00, -1.00, 464.0, 450.0)">T</text><text xml:space="preserve" font-family="Montserrat-SemiBold" font-weight="bold" font-size="33.0" fill="#000000" transform="matrix(1.00, 0.00, -0.00, -1.00, 481.4, 450.0)">A</text><text xml:space="preserve" font-family="Montserrat-SemiBold" font-weight="bold" font-size="33.0" fill="#000000" transform="matrix(1.00, 0.00, -0.00, -1.00, 506.3, 450.0)">S</text><text xml:space="preserve" font-family="Montserrat-SemiBold" font-weight="bold" font-size="33.0" fill="#000000" transform="matrix(1.00, 0.00, -0.00, -1.00, 527.4, 450.0)">K</text><text xml:space="preserve" font-family="Montserrat-SemiBold" font-weight="bold" font-size="33.0" fill="#000000" transform="matrix(1.00, 0.00, -0.00, -1.00, 551.7, 450.0)">:</text><text xml:space="preserve" font-family="Montserrat-SemiBold" font-weight="bold" font-size="33.0" fill="#000000" transform="matrix(1.00, 0.00, -0.00, -1.00, 559.4, 450.0)"> </text><text xml:space="preserve" font-family="Montserrat-SemiBold" font-weight="bold" font-size="33.0" fill="#000000" transform="matrix(1.00, 0.00, -0.00, -1.00, 450.0, 384.0)">1</text><text xml:space="preserve" font-family="Montserrat-SemiBold" font-weight="bold" font-size="33.0" fill="#000000" transform="matrix(1.00, 0.00, -0.00, -1.00, 470.4, 384.0)">.</text><text xml:space="preserve" font-family="Montserrat-SemiBold" font-weight="bold" font-size="33.0" fill="#000000" transform="matrix(1.00, 0.00, -0.00, -1.00, 478.1, 384.0)"> </text><text xml:space="preserve" font-family="Montserrat-SemiBold" font-weight="bold" font-size="33.0" fill="#000000" transform="matrix(1.00, 0.00, -0.00, -1.00, 486.1, 384.0)">G</text><text xml:space="preserve" font-family="Montserrat-SemiBold" font-weight="bold" font-size="33.0" fill="#000000" transform="matrix(1.00, 0.00, -0.00, -1.00, 510.7, 384.0)">o</text><text xml:space="preserve" font-family="Montserrat-SemiBold" font-weight="bold" font-size="33.0" fill="#000000" transform="matrix(1.00, 0.00, -0.00, -1.00, 531.5, 384.0)"> </text><text xml:space="preserve" font-family="Montserrat-SemiBold" font-weight="bold" font-size="33.0" fill="#000000" transform="matrix(1.00, 0.00, -0.00, -1.00, 539.5, 384.0)">t</text><text xml:space="preserve" font-family="Montserrat-SemiBold" font-weight="bold" font-size="33.0" fill="#000000" transform="matrix(1.00, 0.00, -0.00, -1.00, 553.4, 384.0)">o</text><text xml:space="preserve" font-family="Montserrat-SemiBold" font-weight="bold" font-size="33.0" fill="#000000" transform="matrix(1.00, 0.00, -0.00, -1.00, 574.3, 384.0)"> </text><text xml:space="preserve" font-family="Montserrat-SemiBold" font-weight="bold" font-size="33.0" fill="#000000" transform="matrix(1.00, 0.00, -0.00, -1.00, 582.3, 384.0)"> </text><text xml:space="preserve" font-family="Montserrat-SemiBold" font-weight="bold" font-size="33.0" fill="#0000FF" transform="matrix(1.00, 0.00, -0.00, -1.00, 319.0, 318.0)">h</text><text xml:space="preserve" font-family="Montserrat-SemiBold" font-weight="bold" font-size="33.0" fill="#0000FF" transform="matrix(1.00, 0.00, -0.00, -1.00, 341.3, 318.0)">t</text><text xml:space="preserve" font-family="Montserrat-SemiBold" font-weight="bold" font-size="33.0" fill="#0000FF" transform="matrix(1.00, 0.00, -0.00, -1.00, 355.3, 318.0)">t</text><text xml:space="preserve" font-family="Montserrat-SemiBold" font-weight="bold" font-size="33.0" fill="#0000FF" transform="matrix(1.00, 0.00, -0.00, -1.00, 369.4, 318.0)">p</text><text xml:space="preserve" font-family="Montserrat-SemiBold" font-weight="bold" font-size="33.0" fill="#0000FF" transform="matrix(1.00, 0.00, -0.00, -1.00, 392.0, 318.0)">:</text><text xml:space="preserve" font-family="Montserrat-SemiBold" font-weight="bold" font-size="33.0" fill="#0000FF" transform="matrix(1.00, 0.00, -0.00, -1.00, 399.7, 318.0)">/</text><text xml:space="preserve" font-family="Montserrat-SemiBold" font-weight="bold" font-size="33.0" fill="#0000FF" transform="matrix(1.00, 0.00, -0.00, -1.00, 411.1, 318.0)">/</text><text xml:space="preserve" font-family="Montserrat-SemiBold" font-weight="bold" font-size="33.0" fill="#0000FF" transform="matrix(1.00, 0.00, -0.00, -1.00, 422.6, 318.0)">b</text><text xml:space="preserve" font-family="Montserrat-SemiBold" font-weight="bold" font-size="33.0" fill="#0000FF" transform="matrix(1.00, 0.00, -0.00, -1.00, 445.1, 318.0)">i</text><text xml:space="preserve" font-family="Montserrat-SemiBold" font-weight="bold" font-size="33.0" fill="#0000FF" transform="matrix(1.00, 0.00, -0.00, -1.00, 455.1, 318.0)">t</text><text xml:space="preserve" font-family="Montserrat-SemiBold" font-weight="bold" font-size="33.0" fill="#0000FF" transform="matrix(1.00, 0.00, -0.00, -1.00, 469.1, 318.0)">.</text><text xml:space="preserve" font-family="Montserrat-SemiBold" font-weight="bold" font-size="33.0" fill="#0000FF" transform="matrix(1.00, 0.00, -0.00, -1.00, 476.9, 318.0)">l</text><text xml:space="preserve" font-family="Montserrat-SemiBold" font-weight="bold" font-size="33.0" fill="#0000FF" transform="matrix(1.00, 0.00, -0.00, -1.00, 487.2, 318.0)">y</text><text xml:space="preserve" font-family="Montserrat-SemiBold" font-weight="bold" font-size="33.0" fill="#0000FF" transform="matrix(1.00, 0.00, -0.00, -1.00, 505.8, 318.0)">/</text><text xml:space="preserve" font-family="Montserrat-SemiBold" font-weight="bold" font-size="33.0" fill="#0000FF" transform="matrix(1.00, 0.00, -0.00, -1.00, 516.9, 318.0)">a</text><text xml:space="preserve" font-family="Montserrat-SemiBold" font-weight="bold" font-size="33.0" fill="#0000FF" transform="matrix(1.00, 0.00, -0.00, -1.00, 536.5, 318.0)">1</text><text xml:space="preserve" font-family="Montserrat-SemiBold" font-weight="bold" font-size="33.0" fill="#0000FF" transform="matrix(1.00, 0.00, -0.00, -1.00, 556.9, 318.0)">1</text><text xml:space="preserve" font-family="Montserrat-SemiBold" font-weight="bold" font-size="33.0" fill="#0000FF" transform="matrix(1.00, 0.00, -0.00, -1.00, 577.3, 318.0)">y</text><text xml:space="preserve" font-family="Montserrat-SemiBold" font-weight="bold" font-size="33.0" fill="#0000FF" transform="matrix(1.00, 0.00, -0.00, -1.00, 595.9, 318.0)">-</text><text xml:space="preserve" font-family="Montserrat-SemiBold" font-weight="bold" font-size="33.0" fill="#0000FF" transform="matrix(1.00, 0.00, -0.00, -1.00, 608.1, 318.0)">d</text><text xml:space="preserve" font-family="Montserrat-SemiBold" font-weight="bold" font-size="33.0" fill="#0000FF" transform="matrix(1.00, 0.00, -0.00, -1.00, 630.8, 318.0)">e</text><text xml:space="preserve" font-family="Montserrat-SemiBold" font-weight="bold" font-size="33.0" fill="#0000FF" transform="matrix(1.00, 0.00, -0.00, -1.00, 650.5, 318.0)">m</text><text xml:space="preserve" font-family="Montserrat-SemiBold" font-weight="bold" font-size="33.0" fill="#0000FF" transform="matrix(1.00, 0.00, -0.00, -1.00, 684.7, 318.0)">o</text><text xml:space="preserve" font-family="Montserrat-SemiBold" font-weight="bold" font-size="33.0" fill="#000000" transform="matrix(1.00, 0.00, -0.00, -1.00, 705.6, 318.0)"> </text><g><clipPath id="clip-249"><path d="M 317.7 313.8 L 705.3 313.8 L 705.3 317.4 L 317.7 317.4 Z M 317.7 313.8 "></path></clipPath><g clip-path="url(#clip-249)"><path d="M 158.0 211.3 L 544.7 211.3 " fill="none" stroke="#0000FF" stroke-width="1.65" stroke-miterlimit="0.00" transform="matrix(1.00, 0.00, 0.00, -1.00, 160.7, 526.8)"></path></g></g><text xml:space="preserve" font-family="Montserrat-SemiBold" font-weight="bold" font-size="33.0" fill="#000000" transform="matrix(1.00, 0.00, -0.00, -1.00, 309.0, 252.0)"> </text><text xml:space="preserve" font-family="Montserrat-SemiBold" font-weight="bold" font-size="33.0" fill="#000000" transform="matrix(1.00, 0.00, -0.00, -1.00, 317.0, 252.0)">2</text><text xml:space="preserve" font-family="Montserrat-SemiBold" font-weight="bold" font-size="33.0" fill="#000000" transform="matrix(1.00, 0.00, -0.00, -1.00, 337.3, 252.0)">.</text><text xml:space="preserve" font-family="Montserrat-SemiBold" font-weight="bold" font-size="33.0" fill="#000000" transform="matrix(1.00, 0.00, -0.00, -1.00, 345.1, 252.0)"> </text><text xml:space="preserve" font-family="Montserrat-SemiBold" font-weight="bold" font-size="33.0" fill="#000000" transform="matrix(1.00, 0.00, -0.00, -1.00, 353.0, 252.0)">O</text><text xml:space="preserve" font-family="Montserrat-SemiBold" font-weight="bold" font-size="33.0" fill="#000000" transform="matrix(1.00, 0.00, -0.00, -1.00, 379.6, 252.0)">p</text><text xml:space="preserve" font-family="Montserrat-SemiBold" font-weight="bold" font-size="33.0" fill="#000000" transform="matrix(1.00, 0.00, -0.00, -1.00, 402.2, 252.0)">e</text><text xml:space="preserve" font-family="Montserrat-SemiBold" font-weight="bold" font-size="33.0" fill="#000000" transform="matrix(1.00, 0.00, -0.00, -1.00, 421.9, 252.0)">n</text><text xml:space="preserve" font-family="Montserrat-SemiBold" font-weight="bold" font-size="33.0" fill="#000000" transform="matrix(1.00, 0.00, -0.00, -1.00, 444.0, 252.0)"> </text><text xml:space="preserve" font-family="Montserrat-SemiBold" font-weight="bold" font-size="33.0" fill="#000000" transform="matrix(1.00, 0.00, -0.00, -1.00, 452.0, 252.0)">D</text><text xml:space="preserve" font-family="Montserrat-SemiBold" font-weight="bold" font-size="33.0" fill="#000000" transform="matrix(1.00, 0.00, -0.00, -1.00, 477.3, 252.0)">e</text><text xml:space="preserve" font-family="Montserrat-SemiBold" font-weight="bold" font-size="33.0" fill="#000000" transform="matrix(1.00, 0.00, -0.00, -1.00, 496.4, 252.0)">v</text><text xml:space="preserve" font-family="Montserrat-SemiBold" font-weight="bold" font-size="33.0" fill="#000000" transform="matrix(1.00, 0.00, -0.00, -1.00, 514.2, 252.0)">e</text><text xml:space="preserve" font-family="Montserrat-SemiBold" font-weight="bold" font-size="33.0" fill="#000000" transform="matrix(1.00, 0.00, -0.00, -1.00, 533.9, 252.0)">l</text><text xml:space="preserve" font-family="Montserrat-SemiBold" font-weight="bold" font-size="33.0" fill="#000000" transform="matrix(1.00, 0.00, -0.00, -1.00, 544.2, 252.0)">o</text><text xml:space="preserve" font-family="Montserrat-SemiBold" font-weight="bold" font-size="33.0" fill="#000000" transform="matrix(1.00, 0.00, -0.00, -1.00, 565.1, 252.0)">p</text><text xml:space="preserve" font-family="Montserrat-SemiBold" font-weight="bold" font-size="33.0" fill="#000000" transform="matrix(1.00, 0.00, -0.00, -1.00, 587.7, 252.0)">e</text><text xml:space="preserve" font-family="Montserrat-SemiBold" font-weight="bold" font-size="33.0" fill="#000000" transform="matrix(1.00, 0.00, -0.00, -1.00, 607.4, 252.0)">r</text><text xml:space="preserve" font-family="Montserrat-SemiBold" font-weight="bold" font-size="33.0" fill="#000000" transform="matrix(1.00, 0.00, -0.00, -1.00, 621.1, 252.0)"> </text><text xml:space="preserve" font-family="Montserrat-SemiBold" font-weight="bold" font-size="33.0" fill="#000000" transform="matrix(1.00, 0.00, -0.00, -1.00, 629.1, 252.0)">T</text><text xml:space="preserve" font-family="Montserrat-SemiBold" font-weight="bold" font-size="33.0" fill="#000000" transform="matrix(1.00, 0.00, -0.00, -1.00, 646.7, 252.0)">o</text><text xml:space="preserve" font-family="Montserrat-SemiBold" font-weight="bold" font-size="33.0" fill="#000000" transform="matrix(1.00, 0.00, -0.00, -1.00, 667.6, 252.0)">o</text><text xml:space="preserve" font-family="Montserrat-SemiBold" font-weight="bold" font-size="33.0" fill="#000000" transform="matrix(1.00, 0.00, -0.00, -1.00, 688.5, 252.0)">l</text><text xml:space="preserve" font-family="Montserrat-SemiBold" font-weight="bold" font-size="33.0" fill="#000000" transform="matrix(1.00, 0.00, -0.00, -1.00, 698.8, 252.0)">s</text><text xml:space="preserve" font-family="Montserrat-SemiBold" font-weight="bold" font-size="33.0" fill="#000000" transform="matrix(1.00, 0.00, -0.00, -1.00, 715.3, 252.0)"> </text><text xml:space="preserve" font-family="Montserrat-SemiBold" font-weight="bold" font-size="33.0" fill="#000000" transform="matrix(1.00, 0.00, -0.00, -1.00, 332.0, 186.0)">3</text><text xml:space="preserve" font-family="Montserrat-SemiBold" font-weight="bold" font-size="33.0" fill="#000000" transform="matrix(1.00, 0.00, -0.00, -1.00, 352.4, 186.0)">.</text><text xml:space="preserve" font-family="Montserrat-SemiBold" font-weight="bold" font-size="33.0" fill="#000000" transform="matrix(1.00, 0.00, -0.00, -1.00, 360.1, 186.0)"> </text><text xml:space="preserve" font-family="Montserrat-SemiBold" font-weight="bold" font-size="33.0" fill="#000000" transform="matrix(1.00, 0.00, -0.00, -1.00, 368.1, 186.0)">C</text><text xml:space="preserve" font-family="Montserrat-SemiBold" font-weight="bold" font-size="33.0" fill="#000000" transform="matrix(1.00, 0.00, -0.00, -1.00, 391.0, 186.0)">l</text><text xml:space="preserve" font-family="Montserrat-SemiBold" font-weight="bold" font-size="33.0" fill="#000000" transform="matrix(1.00, 0.00, -0.00, -1.00, 401.3, 186.0)">i</text><text xml:space="preserve" font-family="Montserrat-SemiBold" font-weight="bold" font-size="33.0" fill="#000000" transform="matrix(1.00, 0.00, -0.00, -1.00, 411.3, 186.0)">c</text><text xml:space="preserve" font-family="Montserrat-SemiBold" font-weight="bold" font-size="33.0" fill="#000000" transform="matrix(1.00, 0.00, -0.00, -1.00, 429.8, 186.0)">k</text><text xml:space="preserve" font-family="Montserrat-SemiBold" font-weight="bold" font-size="33.0" fill="#000000" transform="matrix(1.00, 0.00, -0.00, -1.00, 450.3, 186.0)"> </text><text xml:space="preserve" font-family="Montserrat-SemiBold" font-weight="bold" font-size="33.0" fill="#000000" transform="matrix(1.00, 0.00, -0.00, -1.00, 458.2, 186.0)">o</text><text xml:space="preserve" font-family="Montserrat-SemiBold" font-weight="bold" font-size="33.0" fill="#000000" transform="matrix(1.00, 0.00, -0.00, -1.00, 479.1, 186.0)">n</text><text xml:space="preserve" font-family="Montserrat-SemiBold" font-weight="bold" font-size="33.0" fill="#000000" transform="matrix(1.00, 0.00, -0.00, -1.00, 501.2, 186.0)"> </text><text xml:space="preserve" font-family="Montserrat-SemiBold" font-weight="bold" font-size="33.0" fill="#000000" transform="matrix(1.00, 0.00, -0.00, -1.00, 509.2, 186.0)">“</text><text xml:space="preserve" font-family="Montserrat-SemiBold" font-weight="bold" font-size="33.0" fill="#000000" transform="matrix(1.00, 0.00, -0.00, -1.00, 522.5, 186.0)">A</text><text xml:space="preserve" font-family="Montserrat-SemiBold" font-weight="bold" font-size="33.0" fill="#000000" transform="matrix(1.00, 0.00, -0.00, -1.00, 546.8, 186.0)">u</text><text xml:space="preserve" font-family="Montserrat-SemiBold" font-weight="bold" font-size="33.0" fill="#000000" transform="matrix(1.00, 0.00, -0.00, -1.00, 568.6, 186.0)">d</text><text xml:space="preserve" font-family="Montserrat-SemiBold" font-weight="bold" font-size="33.0" fill="#000000" transform="matrix(1.00, 0.00, -0.00, -1.00, 591.2, 186.0)">i</text><text xml:space="preserve" font-family="Montserrat-SemiBold" font-weight="bold" font-size="33.0" fill="#000000" transform="matrix(1.00, 0.00, -0.00, -1.00, 601.1, 186.0)">t</text><text xml:space="preserve" font-family="Montserrat-SemiBold" font-weight="bold" font-size="33.0" fill="#000000" transform="matrix(1.00, 0.00, -0.00, -1.00, 615.2, 186.0)">”</text><text xml:space="preserve" font-family="Montserrat-SemiBold" font-weight="bold" font-size="33.0" fill="#000000" transform="matrix(1.00, 0.00, -0.00, -1.00, 628.6, 186.0)"> </text><text xml:space="preserve" font-family="Montserrat-SemiBold" font-weight="bold" font-size="33.0" fill="#000000" transform="matrix(1.00, 0.00, -0.00, -1.00, 636.5, 186.0)">t</text><text xml:space="preserve" font-family="Montserrat-SemiBold" font-weight="bold" font-size="33.0" fill="#000000" transform="matrix(1.00, 0.00, -0.00, -1.00, 650.6, 186.0)">a</text><text xml:space="preserve" font-family="Montserrat-SemiBold" font-weight="bold" font-size="33.0" fill="#000000" transform="matrix(1.00, 0.00, -0.00, -1.00, 670.2, 186.0)">b</text><text xml:space="preserve" font-family="Montserrat-SemiBold" font-weight="bold" font-size="33.0" fill="#000000" transform="matrix(1.00, 0.00, -0.00, -1.00, 692.8, 186.0)"> </text><text xml:space="preserve" font-family="Montserrat-SemiBold" font-weight="bold" font-size="33.0" fill="#000000" transform="matrix(1.00, 0.00, -0.00, -1.00, 410.0, 120.0)">4</text><text xml:space="preserve" font-family="Montserrat-SemiBold" font-weight="bold" font-size="33.0" fill="#000000" transform="matrix(1.00, 0.00, -0.00, -1.00, 430.4, 120.0)">.</text><text xml:space="preserve" font-family="Montserrat-SemiBold" font-weight="bold" font-size="33.0" fill="#000000" transform="matrix(1.00, 0.00, -0.00, -1.00, 438.1, 120.0)"> </text><text xml:space="preserve" font-family="Montserrat-SemiBold" font-weight="bold" font-size="33.0" fill="#000000" transform="matrix(1.00, 0.00, -0.00, -1.00, 446.1, 120.0)">R</text><text xml:space="preserve" font-family="Montserrat-SemiBold" font-weight="bold" font-size="33.0" fill="#000000" transform="matrix(1.00, 0.00, -0.00, -1.00, 470.0, 120.0)">u</text><text xml:space="preserve" font-family="Montserrat-SemiBold" font-weight="bold" font-size="33.0" fill="#000000" transform="matrix(1.00, 0.00, -0.00, -1.00, 491.7, 120.0)">n</text><text xml:space="preserve" font-family="Montserrat-SemiBold" font-weight="bold" font-size="33.0" fill="#000000" transform="matrix(1.00, 0.00, -0.00, -1.00, 513.9, 120.0)"> </text><text xml:space="preserve" font-family="Montserrat-SemiBold" font-weight="bold" font-size="33.0" fill="#000000" transform="matrix(1.00, 0.00, -0.00, -1.00, 521.8, 120.0)">A</text><text xml:space="preserve" font-family="Montserrat-SemiBold" font-weight="bold" font-size="33.0" fill="#000000" transform="matrix(1.00, 0.00, -0.00, -1.00, 546.1, 120.0)">u</text><text xml:space="preserve" font-family="Montserrat-SemiBold" font-weight="bold" font-size="33.0" fill="#000000" transform="matrix(1.00, 0.00, -0.00, -1.00, 567.8, 120.0)">d</text><text xml:space="preserve" font-family="Montserrat-SemiBold" font-weight="bold" font-size="33.0" fill="#000000" transform="matrix(1.00, 0.00, -0.00, -1.00, 590.4, 120.0)">i</text><text xml:space="preserve" font-family="Montserrat-SemiBold" font-weight="bold" font-size="33.0" fill="#000000" transform="matrix(1.00, 0.00, -0.00, -1.00, 600.4, 120.0)">t</text><text xml:space="preserve" font-family="Montserrat-SemiBold" font-weight="bold" font-size="78.0" fill="#000000" transform="matrix(1.00, 0.00, -0.00, -1.00, 133.0, 571.0)">E</text><text xml:space="preserve" font-family="Montserrat-SemiBold" font-weight="bold" font-size="78.0" fill="#000000" transform="matrix(1.00, 0.00, -0.00, -1.00, 185.1, 571.0)">X</text><text xml:space="preserve" font-family="Montserrat-SemiBold" font-weight="bold" font-size="78.0" fill="#000000" transform="matrix(1.00, 0.00, -0.00, -1.00, 241.3, 571.0)">T</text><text xml:space="preserve" font-family="Montserrat-SemiBold" font-weight="bold" font-size="78.0" fill="#000000" transform="matrix(1.00, 0.00, -0.00, -1.00, 288.2, 571.0)">E</text><text xml:space="preserve" font-family="Montserrat-SemiBold" font-weight="bold" font-size="78.0" fill="#000000" transform="matrix(1.00, 0.00, -0.00, -1.00, 340.3, 571.0)">N</text><text xml:space="preserve" font-family="Montserrat-SemiBold" font-weight="bold" font-size="78.0" fill="#000000" transform="matrix(1.00, 0.00, -0.00, -1.00, 401.8, 571.0)">S</text><text xml:space="preserve" font-family="Montserrat-SemiBold" font-weight="bold" font-size="78.0" fill="#000000" transform="matrix(1.00, 0.00, -0.00, -1.00, 451.5, 571.0)">I</text><text xml:space="preserve" font-family="Montserrat-SemiBold" font-weight="bold" font-size="78.0" fill="#000000" transform="matrix(1.00, 0.00, -0.00, -1.00, 475.9, 571.0)">O</text><text xml:space="preserve" font-family="Montserrat-SemiBold" font-weight="bold" font-size="78.0" fill="#000000" transform="matrix(1.00, 0.00, -0.00, -1.00, 538.8, 571.0)">N</text><text xml:space="preserve" font-family="Montserrat-SemiBold" font-weight="bold" font-size="78.0" fill="#000000" transform="matrix(1.00, 0.00, -0.00, -1.00, 600.2, 571.0)"> </text><text xml:space="preserve" font-family="Montserrat-SemiBold" font-weight="bold" font-size="78.0" fill="#000000" transform="matrix(1.00, 0.00, -0.00, -1.00, 619.0, 571.0)">T</text><text xml:space="preserve" font-family="Montserrat-SemiBold" font-weight="bold" font-size="78.0" fill="#000000" transform="matrix(1.00, 0.00, -0.00, -1.00, 662.9, 571.0)">O</text><text xml:space="preserve" font-family="Montserrat-SemiBold" font-weight="bold" font-size="78.0" fill="#000000" transform="matrix(1.00, 0.00, -0.00, -1.00, 724.4, 571.0)">O</text><text xml:space="preserve" font-family="Montserrat-SemiBold" font-weight="bold" font-size="78.0" fill="#000000" transform="matrix(1.00, 0.00, -0.00, -1.00, 787.3, 571.0)">L</text><text xml:space="preserve" font-family="Montserrat-SemiBold" font-weight="bold" font-size="78.0" fill="#000000" transform="matrix(1.00, 0.00, -0.00, -1.00, 830.3, 571.0)">S</text><path d="M 0.0 696.0 L 564.4 696.0 L 564.4 672.2 L 0.0 672.2 Z M 0.0 696.0 " fill="#E963EC"></path></g></svg>