<?xml version="1.0" encoding="UTF-8" standalone="no"?><svg xmlns="http://www.w3.org/2000/svg" xmlns:xlink="http://www.w3.org/1999/xlink" clip-rule="evenodd" stroke-miterlimit="4.00" viewBox="0 0 1024 768"><desc>SVG generated by Keynote</desc><defs></defs><g transform="matrix(1.00, 0.00, -0.00, -1.00, 0.0, 768.0)"><path d="M 0.0 768.0 L 1024.0 768.0 L 1024.0 0.0 L 0.0 0.0 Z M 0.0 768.0 " fill="#FEFFFF"></path><text xml:space="preserve" font-family="Montserrat-SemiBold" font-weight="bold" font-size="27.7" fill="#000000" transform="matrix(1.00, 0.00, -0.00, -1.00, 484.0, 491.0)">T</text><text xml:space="preserve" font-family="Montserrat-SemiBold" font-weight="bold" font-size="27.7" fill="#000000" transform="matrix(1.00, 0.00, -0.00, -1.00, 498.6, 491.0)">A</text><text xml:space="preserve" font-family="Montserrat-SemiBold" font-weight="bold" font-size="27.7" fill="#000000" transform="matrix(1.00, 0.00, -0.00, -1.00, 519.5, 491.0)">S</text><text xml:space="preserve" font-family="Montserrat-SemiBold" font-weight="bold" font-size="27.7" fill="#000000" transform="matrix(1.00, 0.00, -0.00, -1.00, 537.2, 491.0)">K</text><text xml:space="preserve" font-family="Montserrat-SemiBold" font-weight="bold" font-size="27.7" fill="#000000" transform="matrix(1.00, 0.00, -0.00, -1.00, 557.6, 491.0)"> </text><text xml:space="preserve" font-family="Montserrat-SemiBold" font-weight="bold" font-size="27.7" fill="#000000" transform="matrix(1.00, 0.00, -0.00, -1.00, 564.2, 491.0)">1</text><text xml:space="preserve" font-family="Montserrat-SemiBold" font-weight="bold" font-size="27.7" fill="#000000" transform="matrix(1.00, 0.00, -0.00, -1.00, 581.3, 491.0)"> </text><text xml:space="preserve" font-family="Montserrat-SemiBold" font-weight="bold" font-size="27.7" fill="#000000" transform="matrix(1.00, 0.00, -0.00, -1.00, 425.0, 425.0)">1</text><text xml:space="preserve" font-family="Montserrat-SemiBold" font-weight="bold" font-size="27.7" fill="#000000" transform="matrix(1.00, 0.00, -0.00, -1.00, 442.1, 425.0)">.</text><text xml:space="preserve" font-family="Montserrat-SemiBold" font-weight="bold" font-size="27.7" fill="#000000" transform="matrix(1.00, 0.00, -0.00, -1.00, 448.6, 425.0)"> </text><text xml:space="preserve" font-family="Montserrat-SemiBold" font-weight="bold" font-size="27.7" fill="#000000" transform="matrix(1.00, 0.00, -0.00, -1.00, 455.3, 425.0)">O</text><text xml:space="preserve" font-family="Montserrat-SemiBold" font-weight="bold" font-size="27.7" fill="#000000" transform="matrix(1.00, 0.00, -0.00, -1.00, 477.6, 425.0)">p</text><text xml:space="preserve" font-family="Montserrat-SemiBold" font-weight="bold" font-size="27.7" fill="#000000" transform="matrix(1.00, 0.00, -0.00, -1.00, 496.5, 425.0)">e</text><text xml:space="preserve" font-family="Montserrat-SemiBold" font-weight="bold" font-size="27.7" fill="#000000" transform="matrix(1.00, 0.00, -0.00, -1.00, 513.1, 425.0)">n</text><text xml:space="preserve" font-family="Montserrat-SemiBold" font-weight="bold" font-size="27.7" fill="#000000" transform="matrix(1.00, 0.00, -0.00, -1.00, 531.6, 425.0)"> </text><text xml:space="preserve" font-family="Montserrat-SemiBold" font-weight="bold" font-size="27.7" fill="#000000" transform="matrix(1.00, 0.00, -0.00, -1.00, 538.3, 425.0)">T</text><text xml:space="preserve" font-family="Montserrat-SemiBold" font-weight="bold" font-size="27.7" fill="#000000" transform="matrix(1.00, 0.00, -0.00, -1.00, 554.2, 425.0)">w</text><text xml:space="preserve" font-family="Montserrat-SemiBold" font-weight="bold" font-size="27.7" fill="#000000" transform="matrix(1.00, 0.00, -0.00, -1.00, 579.8, 425.0)">i</text><text xml:space="preserve" font-family="Montserrat-SemiBold" font-weight="bold" font-size="27.7" fill="#000000" transform="matrix(1.00, 0.00, -0.00, -1.00, 588.1, 425.0)">t</text><text xml:space="preserve" font-family="Montserrat-SemiBold" font-weight="bold" font-size="27.7" fill="#000000" transform="matrix(1.00, 0.00, -0.00, -1.00, 599.9, 425.0)">t</text><text xml:space="preserve" font-family="Montserrat-SemiBold" font-weight="bold" font-size="27.7" fill="#000000" transform="matrix(1.00, 0.00, -0.00, -1.00, 611.6, 425.0)">e</text><text xml:space="preserve" font-family="Montserrat-SemiBold" font-weight="bold" font-size="27.7" fill="#000000" transform="matrix(1.00, 0.00, -0.00, -1.00, 628.2, 425.0)">r</text><text xml:space="preserve" font-family="Montserrat-SemiBold" font-weight="bold" font-size="27.7" fill="#000000" transform="matrix(1.00, 0.00, -0.00, -1.00, 639.7, 425.0)"> </text><text xml:space="preserve" font-family="Montserrat-SemiBold" font-weight="bold" font-size="27.7" fill="#000000" transform="matrix(1.00, 0.00, -0.00, -1.00, 396.0, 359.0)">2</text><text xml:space="preserve" font-family="Montserrat-SemiBold" font-weight="bold" font-size="27.7" fill="#000000" transform="matrix(1.00, 0.00, -0.00, -1.00, 413.1, 359.0)">.</text><text xml:space="preserve" font-family="Montserrat-SemiBold" font-weight="bold" font-size="27.7" fill="#000000" transform="matrix(1.00, 0.00, -0.00, -1.00, 419.6, 359.0)"> </text><text xml:space="preserve" font-family="Montserrat-SemiBold" font-weight="bold" font-size="27.7" fill="#000000" transform="matrix(1.00, 0.00, -0.00, -1.00, 426.3, 359.0)">C</text><text xml:space="preserve" font-family="Montserrat-SemiBold" font-weight="bold" font-size="27.7" fill="#000000" transform="matrix(1.00, 0.00, -0.00, -1.00, 445.1, 359.0)">o</text><text xml:space="preserve" font-family="Montserrat-SemiBold" font-weight="bold" font-size="27.7" fill="#000000" transform="matrix(1.00, 0.00, -0.00, -1.00, 462.6, 359.0)">m</text><text xml:space="preserve" font-family="Montserrat-SemiBold" font-weight="bold" font-size="27.7" fill="#000000" transform="matrix(1.00, 0.00, -0.00, -1.00, 491.4, 359.0)">p</text><text xml:space="preserve" font-family="Montserrat-SemiBold" font-weight="bold" font-size="27.7" fill="#000000" transform="matrix(1.00, 0.00, -0.00, -1.00, 510.3, 359.0)">o</text><text xml:space="preserve" font-family="Montserrat-SemiBold" font-weight="bold" font-size="27.7" fill="#000000" transform="matrix(1.00, 0.00, -0.00, -1.00, 527.9, 359.0)">s</text><text xml:space="preserve" font-family="Montserrat-SemiBold" font-weight="bold" font-size="27.7" fill="#000000" transform="matrix(1.00, 0.00, -0.00, -1.00, 541.7, 359.0)">e</text><text xml:space="preserve" font-family="Montserrat-SemiBold" font-weight="bold" font-size="27.7" fill="#000000" transform="matrix(1.00, 0.00, -0.00, -1.00, 558.2, 359.0)"> </text><text xml:space="preserve" font-family="Montserrat-SemiBold" font-weight="bold" font-size="27.7" fill="#000000" transform="matrix(1.00, 0.00, -0.00, -1.00, 564.9, 359.0)">a</text><text xml:space="preserve" font-family="Montserrat-SemiBold" font-weight="bold" font-size="27.7" fill="#000000" transform="matrix(1.00, 0.00, -0.00, -1.00, 581.4, 359.0)"> </text><text xml:space="preserve" font-family="Montserrat-SemiBold" font-weight="bold" font-size="27.7" fill="#000000" transform="matrix(1.00, 0.00, -0.00, -1.00, 588.1, 359.0)">t</text><text xml:space="preserve" font-family="Montserrat-SemiBold" font-weight="bold" font-size="27.7" fill="#000000" transform="matrix(1.00, 0.00, -0.00, -1.00, 599.9, 359.0)">w</text><text xml:space="preserve" font-family="Montserrat-SemiBold" font-weight="bold" font-size="27.7" fill="#000000" transform="matrix(1.00, 0.00, -0.00, -1.00, 624.9, 359.0)">e</text><text xml:space="preserve" font-family="Montserrat-SemiBold" font-weight="bold" font-size="27.7" fill="#000000" transform="matrix(1.00, 0.00, -0.00, -1.00, 641.4, 359.0)">e</text><text xml:space="preserve" font-family="Montserrat-SemiBold" font-weight="bold" font-size="27.7" fill="#000000" transform="matrix(1.00, 0.00, -0.00, -1.00, 658.0, 359.0)">t</text><text xml:space="preserve" font-family="Montserrat-SemiBold" font-weight="bold" font-size="27.7" fill="#000000" transform="matrix(1.00, 0.00, -0.00, -1.00, 669.8, 359.0)"> </text><text xml:space="preserve" font-family="Montserrat-SemiBold" font-weight="bold" font-size="27.7" fill="#000000" transform="matrix(1.00, 0.00, -0.00, -1.00, 484.0, 227.0)">T</text><text xml:space="preserve" font-family="Montserrat-SemiBold" font-weight="bold" font-size="27.7" fill="#000000" transform="matrix(1.00, 0.00, -0.00, -1.00, 498.6, 227.0)">A</text><text xml:space="preserve" font-family="Montserrat-SemiBold" font-weight="bold" font-size="27.7" fill="#000000" transform="matrix(1.00, 0.00, -0.00, -1.00, 519.5, 227.0)">S</text><text xml:space="preserve" font-family="Montserrat-SemiBold" font-weight="bold" font-size="27.7" fill="#000000" transform="matrix(1.00, 0.00, -0.00, -1.00, 537.2, 227.0)">K</text><text xml:space="preserve" font-family="Montserrat-SemiBold" font-weight="bold" font-size="27.7" fill="#000000" transform="matrix(1.00, 0.00, -0.00, -1.00, 557.6, 227.0)"> </text><text xml:space="preserve" font-family="Montserrat-SemiBold" font-weight="bold" font-size="27.7" fill="#000000" transform="matrix(1.00, 0.00, -0.00, -1.00, 564.2, 227.0)">2</text><text xml:space="preserve" font-family="Montserrat-SemiBold" font-weight="bold" font-size="27.7" fill="#000000" transform="matrix(1.00, 0.00, -0.00, -1.00, 581.3, 227.0)"> </text><text xml:space="preserve" font-family="Montserrat-SemiBold" font-weight="bold" font-size="27.7" fill="#000000" transform="matrix(1.00, 0.00, -0.00, -1.00, 425.0, 161.0)">1</text><text xml:space="preserve" font-family="Montserrat-SemiBold" font-weight="bold" font-size="27.7" fill="#000000" transform="matrix(1.00, 0.00, -0.00, -1.00, 442.1, 161.0)">.</text><text xml:space="preserve" font-family="Montserrat-SemiBold" font-weight="bold" font-size="27.7" fill="#000000" transform="matrix(1.00, 0.00, -0.00, -1.00, 448.6, 161.0)"> </text><text xml:space="preserve" font-family="Montserrat-SemiBold" font-weight="bold" font-size="27.7" fill="#000000" transform="matrix(1.00, 0.00, -0.00, -1.00, 455.3, 161.0)">O</text><text xml:space="preserve" font-family="Montserrat-SemiBold" font-weight="bold" font-size="27.7" fill="#000000" transform="matrix(1.00, 0.00, -0.00, -1.00, 477.6, 161.0)">p</text><text xml:space="preserve" font-family="Montserrat-SemiBold" font-weight="bold" font-size="27.7" fill="#000000" transform="matrix(1.00, 0.00, -0.00, -1.00, 496.5, 161.0)">e</text><text xml:space="preserve" font-family="Montserrat-SemiBold" font-weight="bold" font-size="27.7" fill="#000000" transform="matrix(1.00, 0.00, -0.00, -1.00, 513.1, 161.0)">n</text><text xml:space="preserve" font-family="Montserrat-SemiBold" font-weight="bold" font-size="27.7" fill="#000000" transform="matrix(1.00, 0.00, -0.00, -1.00, 531.6, 161.0)"> </text><text xml:space="preserve" font-family="Montserrat-SemiBold" font-weight="bold" font-size="27.7" fill="#000000" transform="matrix(1.00, 0.00, -0.00, -1.00, 538.3, 161.0)">T</text><text xml:space="preserve" font-family="Montserrat-SemiBold" font-weight="bold" font-size="27.7" fill="#000000" transform="matrix(1.00, 0.00, -0.00, -1.00, 554.2, 161.0)">w</text><text xml:space="preserve" font-family="Montserrat-SemiBold" font-weight="bold" font-size="27.7" fill="#000000" transform="matrix(1.00, 0.00, -0.00, -1.00, 579.8, 161.0)">i</text><text xml:space="preserve" font-family="Montserrat-SemiBold" font-weight="bold" font-size="27.7" fill="#000000" transform="matrix(1.00, 0.00, -0.00, -1.00, 588.1, 161.0)">t</text><text xml:space="preserve" font-family="Montserrat-SemiBold" font-weight="bold" font-size="27.7" fill="#000000" transform="matrix(1.00, 0.00, -0.00, -1.00, 599.9, 161.0)">t</text><text xml:space="preserve" font-family="Montserrat-SemiBold" font-weight="bold" font-size="27.7" fill="#000000" transform="matrix(1.00, 0.00, -0.00, -1.00, 611.6, 161.0)">e</text><text xml:space="preserve" font-family="Montserrat-SemiBold" font-weight="bold" font-size="27.7" fill="#000000" transform="matrix(1.00, 0.00, -0.00, -1.00, 628.2, 161.0)">r</text><text xml:space="preserve" font-family="Montserrat-SemiBold" font-weight="bold" font-size="27.7" fill="#000000" transform="matrix(1.00, 0.00, -0.00, -1.00, 639.7, 161.0)"> </text><text xml:space="preserve" font-family="Montserrat-SemiBold" font-weight="bold" font-size="27.7" fill="#000000" transform="matrix(1.00, 0.00, -0.00, -1.00, 291.0, 96.0)">2</text><text xml:space="preserve" font-family="Montserrat-SemiBold" font-weight="bold" font-size="27.7" fill="#000000" transform="matrix(1.00, 0.00, -0.00, -1.00, 308.1, 96.0)">.</text><text xml:space="preserve" font-family="Montserrat-SemiBold" font-weight="bold" font-size="27.7" fill="#000000" transform="matrix(1.00, 0.00, -0.00, -1.00, 314.6, 96.0)"> </text><text xml:space="preserve" font-family="Montserrat-SemiBold" font-weight="bold" font-size="27.7" fill="#000000" transform="matrix(1.00, 0.00, -0.00, -1.00, 321.3, 96.0)">C</text><text xml:space="preserve" font-family="Montserrat-SemiBold" font-weight="bold" font-size="27.7" fill="#000000" transform="matrix(1.00, 0.00, -0.00, -1.00, 340.1, 96.0)">o</text><text xml:space="preserve" font-family="Montserrat-SemiBold" font-weight="bold" font-size="27.7" fill="#000000" transform="matrix(1.00, 0.00, -0.00, -1.00, 357.6, 96.0)">m</text><text xml:space="preserve" font-family="Montserrat-SemiBold" font-weight="bold" font-size="27.7" fill="#000000" transform="matrix(1.00, 0.00, -0.00, -1.00, 386.4, 96.0)">p</text><text xml:space="preserve" font-family="Montserrat-SemiBold" font-weight="bold" font-size="27.7" fill="#000000" transform="matrix(1.00, 0.00, -0.00, -1.00, 405.3, 96.0)">o</text><text xml:space="preserve" font-family="Montserrat-SemiBold" font-weight="bold" font-size="27.7" fill="#000000" transform="matrix(1.00, 0.00, -0.00, -1.00, 422.9, 96.0)">s</text><text xml:space="preserve" font-family="Montserrat-SemiBold" font-weight="bold" font-size="27.7" fill="#000000" transform="matrix(1.00, 0.00, -0.00, -1.00, 436.7, 96.0)">e</text><text xml:space="preserve" font-family="Montserrat-SemiBold" font-weight="bold" font-size="27.7" fill="#000000" transform="matrix(1.00, 0.00, -0.00, -1.00, 453.2, 96.0)">r</text><text xml:space="preserve" font-family="Montserrat-SemiBold" font-weight="bold" font-size="27.7" fill="#000000" transform="matrix(1.00, 0.00, -0.00, -1.00, 464.7, 96.0)"> </text><text xml:space="preserve" font-family="Montserrat-SemiBold" font-weight="bold" font-size="27.7" fill="#000000" transform="matrix(1.00, 0.00, -0.00, -1.00, 471.4, 96.0)">a</text><text xml:space="preserve" font-family="Montserrat-SemiBold" font-weight="bold" font-size="27.7" fill="#000000" transform="matrix(1.00, 0.00, -0.00, -1.00, 487.9, 96.0)"> </text><text xml:space="preserve" font-family="Montserrat-SemiBold" font-weight="bold" font-size="27.7" fill="#000000" transform="matrix(1.00, 0.00, -0.00, -1.00, 494.6, 96.0)">t</text><text xml:space="preserve" font-family="Montserrat-SemiBold" font-weight="bold" font-size="27.7" fill="#000000" transform="matrix(1.00, 0.00, -0.00, -1.00, 506.4, 96.0)">w</text><text xml:space="preserve" font-family="Montserrat-SemiBold" font-weight="bold" font-size="27.7" fill="#000000" transform="matrix(1.00, 0.00, -0.00, -1.00, 531.4, 96.0)">e</text><text xml:space="preserve" font-family="Montserrat-SemiBold" font-weight="bold" font-size="27.7" fill="#000000" transform="matrix(1.00, 0.00, -0.00, -1.00, 548.0, 96.0)">e</text><text xml:space="preserve" font-family="Montserrat-SemiBold" font-weight="bold" font-size="27.7" fill="#000000" transform="matrix(1.00, 0.00, -0.00, -1.00, 564.5, 96.0)">t</text><text xml:space="preserve" font-family="Montserrat-SemiBold" font-weight="bold" font-size="27.7" fill="#000000" transform="matrix(1.00, 0.00, -0.00, -1.00, 576.3, 96.0)"> </text><text xml:space="preserve" font-family="Montserrat-SemiBold" font-weight="bold" font-size="27.7" fill="#000000" transform="matrix(1.00, 0.00, -0.00, -1.00, 583.0, 96.0)">a</text><text xml:space="preserve" font-family="Montserrat-SemiBold" font-weight="bold" font-size="27.7" fill="#000000" transform="matrix(1.00, 0.00, -0.00, -1.00, 599.5, 96.0)">n</text><text xml:space="preserve" font-family="Montserrat-SemiBold" font-weight="bold" font-size="27.7" fill="#000000" transform="matrix(1.00, 0.00, -0.00, -1.00, 618.0, 96.0)">d</text><text xml:space="preserve" font-family="Montserrat-SemiBold" font-weight="bold" font-size="27.7" fill="#000000" transform="matrix(1.00, 0.00, -0.00, -1.00, 637.0, 96.0)"> </text><text xml:space="preserve" font-family="Montserrat-SemiBold" font-weight="bold" font-size="27.7" fill="#000000" transform="matrix(1.00, 0.00, -0.00, -1.00, 643.7, 96.0)">a</text><text xml:space="preserve" font-family="Montserrat-SemiBold" font-weight="bold" font-size="27.7" fill="#000000" transform="matrix(1.00, 0.00, -0.00, -1.00, 660.2, 96.0)">d</text><text xml:space="preserve" font-family="Montserrat-SemiBold" font-weight="bold" font-size="27.7" fill="#000000" transform="matrix(1.00, 0.00, -0.00, -1.00, 679.1, 96.0)">d</text><text xml:space="preserve" font-family="Montserrat-SemiBold" font-weight="bold" font-size="27.7" fill="#000000" transform="matrix(1.00, 0.00, -0.00, -1.00, 698.1, 96.0)"> </text><text xml:space="preserve" font-family="Montserrat-SemiBold" font-weight="bold" font-size="27.7" fill="#000000" transform="matrix(1.00, 0.00, -0.00, -1.00, 704.8, 96.0)">a</text><text xml:space="preserve" font-family="Montserrat-SemiBold" font-weight="bold" font-size="27.7" fill="#000000" transform="matrix(1.00, 0.00, -0.00, -1.00, 721.3, 96.0)"> </text><text xml:space="preserve" font-family="Montserrat-SemiBold" font-weight="bold" font-size="27.7" fill="#000000" transform="matrix(1.00, 0.00, -0.00, -1.00, 727.9, 96.0)">G</text><text xml:space="preserve" font-family="Montserrat-SemiBold" font-weight="bold" font-size="27.7" fill="#000000" transform="matrix(1.00, 0.00, -0.00, -1.00, 748.6, 96.0)">I</text><text xml:space="preserve" font-family="Montserrat-SemiBold" font-weight="bold" font-size="27.7" fill="#000000" transform="matrix(1.00, 0.00, -0.00, -1.00, 757.2, 96.0)">F</text><path d="M 0.0 696.0 L 564.4 696.0 L 564.4 672.2 L 0.0 672.2 Z M 0.0 696.0 " fill="#E962EB"></path><text xml:space="preserve" font-family="Montserrat-SemiBold" font-weight="bold" font-size="87.5" fill="#000000" transform="matrix(1.00, 0.00, -0.00, -1.00, 66.0, 568.0)">S</text><text xml:space="preserve" font-family="Montserrat-SemiBold" font-weight="bold" font-size="87.5" fill="#000000" transform="matrix(1.00, 0.00, -0.00, -1.00, 121.7, 568.0)">C</text><text xml:space="preserve" font-family="Montserrat-SemiBold" font-weight="bold" font-size="87.5" fill="#000000" transform="matrix(1.00, 0.00, -0.00, -1.00, 182.4, 568.0)">R</text><text xml:space="preserve" font-family="Montserrat-SemiBold" font-weight="bold" font-size="87.5" fill="#000000" transform="matrix(1.00, 0.00, -0.00, -1.00, 245.8, 568.0)">E</text><text xml:space="preserve" font-family="Montserrat-SemiBold" font-weight="bold" font-size="87.5" fill="#000000" transform="matrix(1.00, 0.00, -0.00, -1.00, 304.2, 568.0)">E</text><text xml:space="preserve" font-family="Montserrat-SemiBold" font-weight="bold" font-size="87.5" fill="#000000" transform="matrix(1.00, 0.00, -0.00, -1.00, 362.6, 568.0)">N</text><text xml:space="preserve" font-family="Montserrat-SemiBold" font-weight="bold" font-size="87.5" fill="#000000" transform="matrix(1.00, 0.00, -0.00, -1.00, 431.6, 568.0)"> </text><text xml:space="preserve" font-family="Montserrat-SemiBold" font-weight="bold" font-size="87.5" fill="#000000" transform="matrix(1.00, 0.00, -0.00, -1.00, 452.7, 568.0)">R</text><text xml:space="preserve" font-family="Montserrat-SemiBold" font-weight="bold" font-size="87.5" fill="#000000" transform="matrix(1.00, 0.00, -0.00, -1.00, 516.0, 568.0)">E</text><text xml:space="preserve" font-family="Montserrat-SemiBold" font-weight="bold" font-size="87.5" fill="#000000" transform="matrix(1.00, 0.00, -0.00, -1.00, 574.4, 568.0)">A</text><text xml:space="preserve" font-family="Montserrat-SemiBold" font-weight="bold" font-size="87.5" fill="#000000" transform="matrix(1.00, 0.00, -0.00, -1.00, 640.8, 568.0)">D</text><text xml:space="preserve" font-family="Montserrat-SemiBold" font-weight="bold" font-size="87.5" fill="#000000" transform="matrix(1.00, 0.00, -0.00, -1.00, 708.1, 568.0)">E</text><text xml:space="preserve" font-family="Montserrat-SemiBold" font-weight="bold" font-size="87.5" fill="#000000" transform="matrix(1.00, 0.00, -0.00, -1.00, 766.5, 568.0)">R</text><text xml:space="preserve" font-family="Montserrat-SemiBold" font-weight="bold" font-size="87.5" fill="#000000" transform="matrix(1.00, 0.00, -0.00, -1.00, 829.9, 568.0)">S</text></g></svg>