<?xml version="1.0" encoding="UTF-8" standalone="no"?><svg xmlns="http://www.w3.org/2000/svg" xmlns:xlink="http://www.w3.org/1999/xlink" clip-rule="evenodd" stroke-miterlimit="4.00" viewBox="0 0 1024 768"><desc>SVG generated by Keynote</desc><defs></defs><g transform="matrix(1.00, 0.00, -0.00, -1.00, 0.0, 768.0)"><path d="M 0.0 768.0 L 1024.0 768.0 L 1024.0 0.0 L 0.0 0.0 Z M 0.0 768.0 " fill="#FEFFFF"></path><text xml:space="preserve" font-family="TrebuchetMS-Bold" font-weight="bold" font-size="36.0" fill="#000000" transform="matrix(1.00, 0.00, -0.00, -1.00, 84.0, 413.0)">E</text><text xml:space="preserve" font-family="TrebuchetMS-Bold" font-weight="bold" font-size="36.0" fill="#000000" transform="matrix(1.00, 0.00, -0.00, -1.00, 104.5, 413.0)">T</text><text xml:space="preserve" font-family="TrebuchetMS-Bold" font-weight="bold" font-size="36.0" fill="#000000" transform="matrix(1.00, 0.00, -0.00, -1.00, 126.5, 413.0)">H</text><text xml:space="preserve" font-family="TrebuchetMS-Bold" font-weight="bold" font-size="36.0" fill="#000000" transform="matrix(1.00, 0.00, -0.00, -1.00, 151.1, 413.0)">I</text><text xml:space="preserve" font-family="TrebuchetMS-Bold" font-weight="bold" font-size="36.0" fill="#000000" transform="matrix(1.00, 0.00, -0.00, -1.00, 161.1, 413.0)">C</text><text xml:space="preserve" font-family="TrebuchetMS-Bold" font-weight="bold" font-size="36.0" fill="#000000" transform="matrix(1.00, 0.00, -0.00, -1.00, 183.2, 413.0)">A</text><text xml:space="preserve" font-family="TrebuchetMS-Bold" font-weight="bold" font-size="36.0" fill="#000000" transform="matrix(1.00, 0.00, -0.00, -1.00, 206.0, 413.0)">L</text><text xml:space="preserve" font-family="TrebuchetMS-Bold" font-weight="bold" font-size="36.0" fill="#000000" transform="matrix(1.00, 0.00, -0.00, -1.00, 224.5, 413.0)"> </text><text xml:space="preserve" font-family="TrebuchetMS-Bold" font-weight="bold" font-size="36.0" fill="#000000" transform="matrix(1.00, 0.00, -0.00, -1.00, 84.0, 329.0)">L</text><text xml:space="preserve" font-family="TrebuchetMS-Bold" font-weight="bold" font-size="36.0" fill="#000000" transform="matrix(1.00, 0.00, -0.00, -1.00, 103.9, 329.0)">E</text><text xml:space="preserve" font-family="TrebuchetMS-Bold" font-weight="bold" font-size="36.0" fill="#000000" transform="matrix(1.00, 0.00, -0.00, -1.00, 124.4, 329.0)">G</text><text xml:space="preserve" font-family="TrebuchetMS-Bold" font-weight="bold" font-size="36.0" fill="#000000" transform="matrix(1.00, 0.00, -0.00, -1.00, 148.6, 329.0)">A</text><text xml:space="preserve" font-family="TrebuchetMS-Bold" font-weight="bold" font-size="36.0" fill="#000000" transform="matrix(1.00, 0.00, -0.00, -1.00, 171.4, 329.0)">L</text><text xml:space="preserve" font-family="TrebuchetMS-Bold" font-weight="bold" font-size="36.0" fill="#000000" transform="matrix(1.00, 0.00, -0.00, -1.00, 189.9, 329.0)"> </text><text xml:space="preserve" font-family="TrebuchetMS-Bold" font-weight="bold" font-size="36.0" fill="#000000" transform="matrix(1.00, 0.00, -0.00, -1.00, 84.0, 245.0)">B</text><text xml:space="preserve" font-family="TrebuchetMS-Bold" font-weight="bold" font-size="36.0" fill="#000000" transform="matrix(1.00, 0.00, -0.00, -1.00, 105.4, 245.0)">U</text><text xml:space="preserve" font-family="TrebuchetMS-Bold" font-weight="bold" font-size="36.0" fill="#000000" transform="matrix(1.00, 0.00, -0.00, -1.00, 129.8, 245.0)">S</text><text xml:space="preserve" font-family="TrebuchetMS-Bold" font-weight="bold" font-size="36.0" fill="#000000" transform="matrix(1.00, 0.00, -0.00, -1.00, 148.2, 245.0)">I</text><text xml:space="preserve" font-family="TrebuchetMS-Bold" font-weight="bold" font-size="36.0" fill="#000000" transform="matrix(1.00, 0.00, -0.00, -1.00, 158.2, 245.0)">N</text><text xml:space="preserve" font-family="TrebuchetMS-Bold" font-weight="bold" font-size="36.0" fill="#000000" transform="matrix(1.00, 0.00, -0.00, -1.00, 182.3, 245.0)">E</text><text xml:space="preserve" font-family="TrebuchetMS-Bold" font-weight="bold" font-size="36.0" fill="#000000" transform="matrix(1.00, 0.00, -0.00, -1.00, 202.8, 245.0)">S</text><text xml:space="preserve" font-family="TrebuchetMS-Bold" font-weight="bold" font-size="36.0" fill="#000000" transform="matrix(1.00, 0.00, -0.00, -1.00, 221.2, 245.0)">S</text><text xml:space="preserve" font-family="TrebuchetMS-Bold" font-weight="bold" font-size="36.0" fill="#000000" transform="matrix(1.00, 0.00, -0.00, -1.00, 239.6, 245.0)"> </text><text xml:space="preserve" font-family="TrebuchetMS-Bold" font-weight="bold" font-size="36.0" fill="#000000" transform="matrix(1.00, 0.00, -0.00, -1.00, 250.4, 245.0)">I</text><text xml:space="preserve" font-family="TrebuchetMS-Bold" font-weight="bold" font-size="36.0" fill="#000000" transform="matrix(1.00, 0.00, -0.00, -1.00, 260.5, 245.0)">M</text><text xml:space="preserve" font-family="TrebuchetMS-Bold" font-weight="bold" font-size="36.0" fill="#000000" transform="matrix(1.00, 0.00, -0.00, -1.00, 287.3, 245.0)">P</text><text xml:space="preserve" font-family="TrebuchetMS-Bold" font-weight="bold" font-size="36.0" fill="#000000" transform="matrix(1.00, 0.00, -0.00, -1.00, 305.7, 245.0)">A</text><text xml:space="preserve" font-family="TrebuchetMS-Bold" font-weight="bold" font-size="36.0" fill="#000000" transform="matrix(1.00, 0.00, -0.00, -1.00, 328.5, 245.0)">C</text><text xml:space="preserve" font-family="TrebuchetMS-Bold" font-weight="bold" font-size="36.0" fill="#000000" transform="matrix(1.00, 0.00, -0.00, -1.00, 350.6, 245.0)">T</text><text xml:space="preserve" font-family="TrebuchetMS-Bold" font-weight="bold" font-size="36.0" fill="#000000" transform="matrix(1.00, 0.00, -0.00, -1.00, 371.9, 245.0)"> </text><text xml:space="preserve" font-family="TrebuchetMS-Bold" font-weight="bold" font-size="36.0" fill="#000000" transform="matrix(1.00, 0.00, -0.00, -1.00, 84.0, 161.0)">B</text><text xml:space="preserve" font-family="TrebuchetMS-Bold" font-weight="bold" font-size="36.0" fill="#000000" transform="matrix(1.00, 0.00, -0.00, -1.00, 105.4, 161.0)">E</text><text xml:space="preserve" font-family="TrebuchetMS-Bold" font-weight="bold" font-size="36.0" fill="#000000" transform="matrix(1.00, 0.00, -0.00, -1.00, 125.9, 161.0)">N</text><text xml:space="preserve" font-family="TrebuchetMS-Bold" font-weight="bold" font-size="36.0" fill="#000000" transform="matrix(1.00, 0.00, -0.00, -1.00, 150.0, 161.0)">E</text><text xml:space="preserve" font-family="TrebuchetMS-Bold" font-weight="bold" font-size="36.0" fill="#000000" transform="matrix(1.00, 0.00, -0.00, -1.00, 170.4, 161.0)">F</text><text xml:space="preserve" font-family="TrebuchetMS-Bold" font-weight="bold" font-size="36.0" fill="#000000" transform="matrix(1.00, 0.00, -0.00, -1.00, 191.5, 161.0)">I</text><text xml:space="preserve" font-family="TrebuchetMS-Bold" font-weight="bold" font-size="36.0" fill="#000000" transform="matrix(1.00, 0.00, -0.00, -1.00, 201.5, 161.0)">T</text><text xml:space="preserve" font-family="TrebuchetMS-Bold" font-weight="bold" font-size="36.0" fill="#000000" transform="matrix(1.00, 0.00, -0.00, -1.00, 223.5, 161.0)">S</text><text xml:space="preserve" font-family="TrebuchetMS-Bold" font-weight="bold" font-size="36.0" fill="#000000" transform="matrix(1.00, 0.00, -0.00, -1.00, 241.9, 161.0)"> </text><text xml:space="preserve" font-family="TrebuchetMS-Bold" font-weight="bold" font-size="36.0" fill="#000000" transform="matrix(1.00, 0.00, -0.00, -1.00, 252.8, 161.0)">F</text><text xml:space="preserve" font-family="TrebuchetMS-Bold" font-weight="bold" font-size="36.0" fill="#000000" transform="matrix(1.00, 0.00, -0.00, -1.00, 273.8, 161.0)">O</text><text xml:space="preserve" font-family="TrebuchetMS-Bold" font-weight="bold" font-size="36.0" fill="#000000" transform="matrix(1.00, 0.00, -0.00, -1.00, 299.1, 161.0)">R</text><text xml:space="preserve" font-family="TrebuchetMS-Bold" font-weight="bold" font-size="36.0" fill="#000000" transform="matrix(1.00, 0.00, -0.00, -1.00, 321.1, 161.0)"> </text><text xml:space="preserve" font-family="TrebuchetMS-Bold" font-weight="bold" font-size="36.0" fill="#000000" transform="matrix(1.00, 0.00, -0.00, -1.00, 330.0, 161.0)">A</text><text xml:space="preserve" font-family="TrebuchetMS-Bold" font-weight="bold" font-size="36.0" fill="#000000" transform="matrix(1.00, 0.00, -0.00, -1.00, 352.8, 161.0)">L</text><text xml:space="preserve" font-family="TrebuchetMS-Bold" font-weight="bold" font-size="36.0" fill="#000000" transform="matrix(1.00, 0.00, -0.00, -1.00, 372.7, 161.0)">L</text><text xml:space="preserve" font-family="TrebuchetMS-Bold" font-weight="bold" font-size="36.0" fill="#000000" transform="matrix(1.00, 0.00, -0.00, -1.00, 391.2, 161.0)"> </text><text xml:space="preserve" font-family="TrebuchetMS-Bold" font-weight="bold" font-size="36.0" fill="#000000" transform="matrix(1.00, 0.00, -0.00, -1.00, 402.0, 161.0)">U</text><text xml:space="preserve" font-family="TrebuchetMS-Bold" font-weight="bold" font-size="36.0" fill="#000000" transform="matrix(1.00, 0.00, -0.00, -1.00, 426.4, 161.0)">S</text><text xml:space="preserve" font-family="TrebuchetMS-Bold" font-weight="bold" font-size="36.0" fill="#000000" transform="matrix(1.00, 0.00, -0.00, -1.00, 444.8, 161.0)">E</text><text xml:space="preserve" font-family="TrebuchetMS-Bold" font-weight="bold" font-size="36.0" fill="#000000" transform="matrix(1.00, 0.00, -0.00, -1.00, 465.3, 161.0)">R</text><text xml:space="preserve" font-family="TrebuchetMS-Bold" font-weight="bold" font-size="36.0" fill="#000000" transform="matrix(1.00, 0.00, -0.00, -1.00, 487.3, 161.0)">S</text><text xml:space="preserve" font-family="Montserrat-SemiBold" font-weight="bold" font-size="80.0" fill="#000000" transform="matrix(1.00, 0.00, -0.00, -1.00, 79.0, 571.0)">C</text><text xml:space="preserve" font-family="Montserrat-SemiBold" font-weight="bold" font-size="80.0" fill="#000000" transform="matrix(1.00, 0.00, -0.00, -1.00, 133.4, 571.0)">O</text><text xml:space="preserve" font-family="Montserrat-SemiBold" font-weight="bold" font-size="80.0" fill="#000000" transform="matrix(1.00, 0.00, -0.00, -1.00, 197.9, 571.0)">M</text><text xml:space="preserve" font-family="Montserrat-SemiBold" font-weight="bold" font-size="80.0" fill="#000000" transform="matrix(1.00, 0.00, -0.00, -1.00, 271.1, 571.0)">P</text><text xml:space="preserve" font-family="Montserrat-SemiBold" font-weight="bold" font-size="80.0" fill="#000000" transform="matrix(1.00, 0.00, -0.00, -1.00, 321.4, 571.0)">A</text><text xml:space="preserve" font-family="Montserrat-SemiBold" font-weight="bold" font-size="80.0" fill="#000000" transform="matrix(1.00, 0.00, -0.00, -1.00, 382.1, 571.0)">N</text><text xml:space="preserve" font-family="Montserrat-SemiBold" font-weight="bold" font-size="80.0" fill="#000000" transform="matrix(1.00, 0.00, -0.00, -1.00, 445.2, 571.0)">Y</text><text xml:space="preserve" font-family="Montserrat-SemiBold" font-weight="bold" font-size="80.0" fill="#000000" transform="matrix(1.00, 0.00, -0.00, -1.00, 498.4, 571.0)"> </text><text xml:space="preserve" font-family="Montserrat-SemiBold" font-weight="bold" font-size="80.0" fill="#000000" transform="matrix(1.00, 0.00, -0.00, -1.00, 517.7, 571.0)">B</text><text xml:space="preserve" font-family="Montserrat-SemiBold" font-weight="bold" font-size="80.0" fill="#000000" transform="matrix(1.00, 0.00, -0.00, -1.00, 574.7, 571.0)">U</text><text xml:space="preserve" font-family="Montserrat-SemiBold" font-weight="bold" font-size="80.0" fill="#000000" transform="matrix(1.00, 0.00, -0.00, -1.00, 635.5, 571.0)">Y</text><text xml:space="preserve" font-family="Montserrat-SemiBold" font-weight="bold" font-size="80.0" fill="#000000" transform="matrix(1.00, 0.00, -0.00, -1.00, 688.8, 571.0)">-</text><text xml:space="preserve" font-family="Montserrat-SemiBold" font-weight="bold" font-size="80.0" fill="#000000" transform="matrix(1.00, 0.00, -0.00, -1.00, 718.5, 571.0)">I</text><text xml:space="preserve" font-family="Montserrat-SemiBold" font-weight="bold" font-size="80.0" fill="#000000" transform="matrix(1.00, 0.00, -0.00, -1.00, 743.6, 571.0)">N</text><path d="M 0.0 696.0 L 564.4 696.0 L 564.4 672.2 L 0.0 672.2 Z M 0.0 696.0 " fill="#E962EB"></path></g></svg>