<?xml version="1.0" encoding="UTF-8" standalone="no"?><svg xmlns="http://www.w3.org/2000/svg" xmlns:xlink="http://www.w3.org/1999/xlink" clip-rule="evenodd" stroke-miterlimit="4.00" viewBox="0 0 1024 768"><desc>SVG generated by Keynote</desc><defs></defs><g transform="matrix(1.00, 0.00, -0.00, -1.00, 0.0, 768.0)"><path d="M 0.0 768.0 L 1024.0 768.0 L 1024.0 0.0 L 0.0 0.0 Z M 0.0 768.0 " fill="#FEFFFF"></path><path d="M 0.0 696.0 L 564.4 696.0 L 564.4 672.2 L 0.0 672.2 Z M 0.0 696.0 " fill="#E962EB"></path><text xml:space="preserve" font-family="TrebuchetMS-Bold" font-weight="bold" font-size="31.3" fill="#000000" transform="matrix(1.00, 0.00, -0.00, -1.00, 380.0, 415.0)">O</text><text xml:space="preserve" font-family="TrebuchetMS-Bold" font-weight="bold" font-size="31.3" fill="#000000" transform="matrix(1.00, 0.00, -0.00, -1.00, 402.0, 415.0)">n</text><text xml:space="preserve" font-family="TrebuchetMS-Bold" font-weight="bold" font-size="31.3" fill="#000000" transform="matrix(1.00, 0.00, -0.00, -1.00, 420.5, 415.0)"> </text><text xml:space="preserve" font-family="TrebuchetMS-Bold" font-weight="bold" font-size="31.3" fill="#000000" transform="matrix(1.00, 0.00, -0.00, -1.00, 430.0, 415.0)">M</text><text xml:space="preserve" font-family="TrebuchetMS-Bold" font-weight="bold" font-size="31.3" fill="#000000" transform="matrix(1.00, 0.00, -0.00, -1.00, 453.3, 415.0)">a</text><text xml:space="preserve" font-family="TrebuchetMS-Bold" font-weight="bold" font-size="31.3" fill="#000000" transform="matrix(1.00, 0.00, -0.00, -1.00, 470.0, 415.0)">c</text><text xml:space="preserve" font-family="TrebuchetMS-Bold" font-weight="bold" font-size="31.3" fill="#000000" transform="matrix(1.00, 0.00, -0.00, -1.00, 486.0, 415.0)">:</text><text xml:space="preserve" font-family="TrebuchetMS-Bold" font-weight="bold" font-size="31.3" fill="#000000" transform="matrix(1.00, 0.00, -0.00, -1.00, 497.5, 415.0)"> </text><text xml:space="preserve" font-family="TrebuchetMS-Bold" font-weight="bold" font-size="31.3" fill="#000000" transform="matrix(1.00, 0.00, -0.00, -1.00, 507.0, 415.0)">C</text><text xml:space="preserve" font-family="TrebuchetMS-Bold" font-weight="bold" font-size="31.3" fill="#000000" transform="matrix(1.00, 0.00, -0.00, -1.00, 526.1, 415.0)">M</text><text xml:space="preserve" font-family="TrebuchetMS-Bold" font-weight="bold" font-size="31.3" fill="#000000" transform="matrix(1.00, 0.00, -0.00, -1.00, 549.5, 415.0)">D</text><text xml:space="preserve" font-family="TrebuchetMS-Bold" font-weight="bold" font-size="31.3" fill="#000000" transform="matrix(1.00, 0.00, -0.00, -1.00, 569.6, 415.0)"> </text><text xml:space="preserve" font-family="TrebuchetMS-Bold" font-weight="bold" font-size="31.3" fill="#000000" transform="matrix(1.00, 0.00, -0.00, -1.00, 579.0, 415.0)">+</text><text xml:space="preserve" font-family="TrebuchetMS-Bold" font-weight="bold" font-size="31.3" fill="#000000" transform="matrix(1.00, 0.00, -0.00, -1.00, 597.4, 415.0)"> </text><text xml:space="preserve" font-family="TrebuchetMS-Bold" font-weight="bold" font-size="31.3" fill="#000000" transform="matrix(1.00, 0.00, -0.00, -1.00, 606.8, 415.0)">F</text><text xml:space="preserve" font-family="TrebuchetMS-Bold" font-weight="bold" font-size="31.3" fill="#000000" transform="matrix(1.00, 0.00, -0.00, -1.00, 625.1, 415.0)">5</text><text xml:space="preserve" font-family="TrebuchetMS-Bold" font-weight="bold" font-size="31.3" fill="#000000" transform="matrix(1.00, 0.00, -0.00, -1.00, 643.4, 415.0)"> </text><text xml:space="preserve" font-family="TrebuchetMS-Bold" font-weight="bold" font-size="31.3" fill="#000000" transform="matrix(1.00, 0.00, -0.00, -1.00, 417.0, 270.0)">O</text><text xml:space="preserve" font-family="TrebuchetMS-Bold" font-weight="bold" font-size="31.3" fill="#000000" transform="matrix(1.00, 0.00, -0.00, -1.00, 439.0, 270.0)">n</text><text xml:space="preserve" font-family="TrebuchetMS-Bold" font-weight="bold" font-size="31.3" fill="#000000" transform="matrix(1.00, 0.00, -0.00, -1.00, 457.5, 270.0)"> </text><text xml:space="preserve" font-family="TrebuchetMS-Bold" font-weight="bold" font-size="31.3" fill="#000000" transform="matrix(1.00, 0.00, -0.00, -1.00, 467.0, 270.0)">W</text><text xml:space="preserve" font-family="TrebuchetMS-Bold" font-weight="bold" font-size="31.3" fill="#000000" transform="matrix(1.00, 0.00, -0.00, -1.00, 494.6, 270.0)">i</text><text xml:space="preserve" font-family="TrebuchetMS-Bold" font-weight="bold" font-size="31.3" fill="#000000" transform="matrix(1.00, 0.00, -0.00, -1.00, 504.0, 270.0)">n</text><text xml:space="preserve" font-family="TrebuchetMS-Bold" font-weight="bold" font-size="31.3" fill="#000000" transform="matrix(1.00, 0.00, -0.00, -1.00, 522.5, 270.0)">d</text><text xml:space="preserve" font-family="TrebuchetMS-Bold" font-weight="bold" font-size="31.3" fill="#000000" transform="matrix(1.00, 0.00, -0.00, -1.00, 540.6, 270.0)">o</text><text xml:space="preserve" font-family="TrebuchetMS-Bold" font-weight="bold" font-size="31.3" fill="#000000" transform="matrix(1.00, 0.00, -0.00, -1.00, 558.4, 270.0)">w</text><text xml:space="preserve" font-family="TrebuchetMS-Bold" font-weight="bold" font-size="31.3" fill="#000000" transform="matrix(1.00, 0.00, -0.00, -1.00, 582.9, 270.0)">s</text><text xml:space="preserve" font-family="TrebuchetMS-Bold" font-weight="bold" font-size="31.3" fill="#000000" transform="matrix(1.00, 0.00, -0.00, -1.00, 596.4, 270.0)">:</text><text xml:space="preserve" font-family="TrebuchetMS-Bold" font-weight="bold" font-size="31.3" fill="#000000" transform="matrix(1.00, 0.00, -0.00, -1.00, 607.9, 270.0)"> </text><text xml:space="preserve" font-family="TrebuchetMS-Bold" font-weight="bold" font-size="31.3" fill="#000000" transform="matrix(1.00, 0.00, -0.00, -1.00, 617.3, 270.0)"> </text><text xml:space="preserve" font-family="TrebuchetMS-Bold" font-weight="bold" font-size="31.3" fill="#000000" transform="matrix(1.00, 0.00, -0.00, -1.00, 232.0, 197.0)">h</text><text xml:space="preserve" font-family="TrebuchetMS-Bold" font-weight="bold" font-size="31.3" fill="#000000" transform="matrix(1.00, 0.00, -0.00, -1.00, 250.6, 197.0)">t</text><text xml:space="preserve" font-family="TrebuchetMS-Bold" font-weight="bold" font-size="31.3" fill="#000000" transform="matrix(1.00, 0.00, -0.00, -1.00, 263.0, 197.0)">t</text><text xml:space="preserve" font-family="TrebuchetMS-Bold" font-weight="bold" font-size="31.3" fill="#000000" transform="matrix(1.00, 0.00, -0.00, -1.00, 275.4, 197.0)">p</text><text xml:space="preserve" font-family="TrebuchetMS-Bold" font-weight="bold" font-size="31.3" fill="#000000" transform="matrix(1.00, 0.00, -0.00, -1.00, 293.7, 197.0)">s</text><text xml:space="preserve" font-family="TrebuchetMS-Bold" font-weight="bold" font-size="31.3" fill="#000000" transform="matrix(1.00, 0.00, -0.00, -1.00, 307.1, 197.0)">:</text><text xml:space="preserve" font-family="TrebuchetMS-Bold" font-weight="bold" font-size="31.3" fill="#000000" transform="matrix(1.00, 0.00, -0.00, -1.00, 318.6, 197.0)">/</text><text xml:space="preserve" font-family="TrebuchetMS-Bold" font-weight="bold" font-size="31.3" fill="#000000" transform="matrix(1.00, 0.00, -0.00, -1.00, 330.9, 197.0)">/</text><text xml:space="preserve" font-family="TrebuchetMS-Bold" font-weight="bold" font-size="31.3" fill="#000000" transform="matrix(1.00, 0.00, -0.00, -1.00, 343.1, 197.0)">c</text><text xml:space="preserve" font-family="TrebuchetMS-Bold" font-weight="bold" font-size="31.3" fill="#000000" transform="matrix(1.00, 0.00, -0.00, -1.00, 359.1, 197.0)">h</text><text xml:space="preserve" font-family="TrebuchetMS-Bold" font-weight="bold" font-size="31.3" fill="#000000" transform="matrix(1.00, 0.00, -0.00, -1.00, 377.7, 197.0)">r</text><text xml:space="preserve" font-family="TrebuchetMS-Bold" font-weight="bold" font-size="31.3" fill="#000000" transform="matrix(1.00, 0.00, -0.00, -1.00, 391.1, 197.0)">o</text><text xml:space="preserve" font-family="TrebuchetMS-Bold" font-weight="bold" font-size="31.3" fill="#000000" transform="matrix(1.00, 0.00, -0.00, -1.00, 408.8, 197.0)">m</text><text xml:space="preserve" font-family="TrebuchetMS-Bold" font-weight="bold" font-size="31.3" fill="#000000" transform="matrix(1.00, 0.00, -0.00, -1.00, 435.7, 197.0)">e</text><text xml:space="preserve" font-family="TrebuchetMS-Bold" font-weight="bold" font-size="31.3" fill="#000000" transform="matrix(1.00, 0.00, -0.00, -1.00, 453.7, 197.0)">.</text><text xml:space="preserve" font-family="TrebuchetMS-Bold" font-weight="bold" font-size="31.3" fill="#000000" transform="matrix(1.00, 0.00, -0.00, -1.00, 465.2, 197.0)">g</text><text xml:space="preserve" font-family="TrebuchetMS-Bold" font-weight="bold" font-size="31.3" fill="#000000" transform="matrix(1.00, 0.00, -0.00, -1.00, 480.9, 197.0)">o</text><text xml:space="preserve" font-family="TrebuchetMS-Bold" font-weight="bold" font-size="31.3" fill="#000000" transform="matrix(1.00, 0.00, -0.00, -1.00, 498.6, 197.0)">o</text><text xml:space="preserve" font-family="TrebuchetMS-Bold" font-weight="bold" font-size="31.3" fill="#000000" transform="matrix(1.00, 0.00, -0.00, -1.00, 516.4, 197.0)">g</text><text xml:space="preserve" font-family="TrebuchetMS-Bold" font-weight="bold" font-size="31.3" fill="#000000" transform="matrix(1.00, 0.00, -0.00, -1.00, 532.1, 197.0)">l</text><text xml:space="preserve" font-family="TrebuchetMS-Bold" font-weight="bold" font-size="31.3" fill="#000000" transform="matrix(1.00, 0.00, -0.00, -1.00, 541.3, 197.0)">e</text><text xml:space="preserve" font-family="TrebuchetMS-Bold" font-weight="bold" font-size="31.3" fill="#000000" transform="matrix(1.00, 0.00, -0.00, -1.00, 559.3, 197.0)">.</text><text xml:space="preserve" font-family="TrebuchetMS-Bold" font-weight="bold" font-size="31.3" fill="#000000" transform="matrix(1.00, 0.00, -0.00, -1.00, 570.8, 197.0)">c</text><text xml:space="preserve" font-family="TrebuchetMS-Bold" font-weight="bold" font-size="31.3" fill="#000000" transform="matrix(1.00, 0.00, -0.00, -1.00, 586.8, 197.0)">o</text><text xml:space="preserve" font-family="TrebuchetMS-Bold" font-weight="bold" font-size="31.3" fill="#000000" transform="matrix(1.00, 0.00, -0.00, -1.00, 604.6, 197.0)">m</text><text xml:space="preserve" font-family="TrebuchetMS-Bold" font-weight="bold" font-size="31.3" fill="#000000" transform="matrix(1.00, 0.00, -0.00, -1.00, 631.5, 197.0)">/</text><text xml:space="preserve" font-family="TrebuchetMS-Bold" font-weight="bold" font-size="31.3" fill="#000000" transform="matrix(1.00, 0.00, -0.00, -1.00, 643.7, 197.0)">w</text><text xml:space="preserve" font-family="TrebuchetMS-Bold" font-weight="bold" font-size="31.3" fill="#000000" transform="matrix(1.00, 0.00, -0.00, -1.00, 668.2, 197.0)">e</text><text xml:space="preserve" font-family="TrebuchetMS-Bold" font-weight="bold" font-size="31.3" fill="#000000" transform="matrix(1.00, 0.00, -0.00, -1.00, 686.2, 197.0)">b</text><text xml:space="preserve" font-family="TrebuchetMS-Bold" font-weight="bold" font-size="31.3" fill="#000000" transform="matrix(1.00, 0.00, -0.00, -1.00, 704.4, 197.0)">s</text><text xml:space="preserve" font-family="TrebuchetMS-Bold" font-weight="bold" font-size="31.3" fill="#000000" transform="matrix(1.00, 0.00, -0.00, -1.00, 717.9, 197.0)">t</text><text xml:space="preserve" font-family="TrebuchetMS-Bold" font-weight="bold" font-size="31.3" fill="#000000" transform="matrix(1.00, 0.00, -0.00, -1.00, 730.3, 197.0)">o</text><text xml:space="preserve" font-family="TrebuchetMS-Bold" font-weight="bold" font-size="31.3" fill="#000000" transform="matrix(1.00, 0.00, -0.00, -1.00, 748.1, 197.0)">r</text><text xml:space="preserve" font-family="TrebuchetMS-Bold" font-weight="bold" font-size="31.3" fill="#000000" transform="matrix(1.00, 0.00, -0.00, -1.00, 761.4, 197.0)">e</text><text xml:space="preserve" font-family="TrebuchetMS-Bold" font-weight="bold" font-size="31.3" fill="#000000" transform="matrix(1.00, 0.00, -0.00, -1.00, 779.4, 197.0)">/</text><g><clipPath id="clip-128"><path d="M 231.2 190.5 L 791.8 190.5 L 791.8 195.6 L 231.2 195.6 Z M 231.2 190.5 "></path></clipPath><g clip-path="url(#clip-128)"><path d="M 29.3 255.7 L 589.0 255.7 " fill="none" stroke="#000000" stroke-width="3.06" stroke-miterlimit="0.00" transform="matrix(1.00, 0.00, 0.00, -1.00, 202.8, 448.7)"></path></g></g><text xml:space="preserve" font-family="TrebuchetMS-Bold" font-weight="bold" font-size="31.3" fill="#000000" transform="matrix(1.00, 0.00, -0.00, -1.00, 377.0, 161.0)">d</text><text xml:space="preserve" font-family="TrebuchetMS-Bold" font-weight="bold" font-size="31.3" fill="#000000" transform="matrix(1.00, 0.00, -0.00, -1.00, 395.2, 161.0)">e</text><text xml:space="preserve" font-family="TrebuchetMS-Bold" font-weight="bold" font-size="31.3" fill="#000000" transform="matrix(1.00, 0.00, -0.00, -1.00, 413.2, 161.0)">t</text><text xml:space="preserve" font-family="TrebuchetMS-Bold" font-weight="bold" font-size="31.3" fill="#000000" transform="matrix(1.00, 0.00, -0.00, -1.00, 425.6, 161.0)">a</text><text xml:space="preserve" font-family="TrebuchetMS-Bold" font-weight="bold" font-size="31.3" fill="#000000" transform="matrix(1.00, 0.00, -0.00, -1.00, 442.3, 161.0)">i</text><text xml:space="preserve" font-family="TrebuchetMS-Bold" font-weight="bold" font-size="31.3" fill="#000000" transform="matrix(1.00, 0.00, -0.00, -1.00, 451.6, 161.0)">l</text><text xml:space="preserve" font-family="TrebuchetMS-Bold" font-weight="bold" font-size="31.3" fill="#000000" transform="matrix(1.00, 0.00, -0.00, -1.00, 460.9, 161.0)">/</text><text xml:space="preserve" font-family="TrebuchetMS-Bold" font-weight="bold" font-size="31.3" fill="#000000" transform="matrix(1.00, 0.00, -0.00, -1.00, 473.1, 161.0)">c</text><text xml:space="preserve" font-family="TrebuchetMS-Bold" font-weight="bold" font-size="31.3" fill="#000000" transform="matrix(1.00, 0.00, -0.00, -1.00, 489.1, 161.0)">h</text><text xml:space="preserve" font-family="TrebuchetMS-Bold" font-weight="bold" font-size="31.3" fill="#000000" transform="matrix(1.00, 0.00, -0.00, -1.00, 507.7, 161.0)">r</text><text xml:space="preserve" font-family="TrebuchetMS-Bold" font-weight="bold" font-size="31.3" fill="#000000" transform="matrix(1.00, 0.00, -0.00, -1.00, 521.1, 161.0)">o</text><text xml:space="preserve" font-family="TrebuchetMS-Bold" font-weight="bold" font-size="31.3" fill="#000000" transform="matrix(1.00, 0.00, -0.00, -1.00, 538.8, 161.0)">m</text><text xml:space="preserve" font-family="TrebuchetMS-Bold" font-weight="bold" font-size="31.3" fill="#000000" transform="matrix(1.00, 0.00, -0.00, -1.00, 565.7, 161.0)">e</text><text xml:space="preserve" font-family="TrebuchetMS-Bold" font-weight="bold" font-size="31.3" fill="#000000" transform="matrix(1.00, 0.00, -0.00, -1.00, 583.7, 161.0)">v</text><text xml:space="preserve" font-family="TrebuchetMS-Bold" font-weight="bold" font-size="31.3" fill="#000000" transform="matrix(1.00, 0.00, -0.00, -1.00, 600.2, 161.0)">o</text><text xml:space="preserve" font-family="TrebuchetMS-Bold" font-weight="bold" font-size="31.3" fill="#000000" transform="matrix(1.00, 0.00, -0.00, -1.00, 617.9, 161.0)">x</text><text xml:space="preserve" font-family="TrebuchetMS-Bold" font-weight="bold" font-size="31.3" fill="#000000" transform="matrix(1.00, 0.00, -0.00, -1.00, 635.3, 161.0)">/</text><g><clipPath id="clip-129"><path d="M 375.8 154.5 L 647.2 154.5 L 647.2 159.6 L 375.8 159.6 Z M 375.8 154.5 "></path></clipPath><g clip-path="url(#clip-129)"><path d="M 174.0 291.7 L 444.4 291.7 " fill="none" stroke="#000000" stroke-width="3.06" stroke-miterlimit="0.00" transform="matrix(1.00, 0.00, 0.00, -1.00, 202.8, 448.7)"></path></g></g><text xml:space="preserve" font-family="TrebuchetMS-Bold" font-weight="bold" font-size="31.3" fill="#000000" transform="matrix(1.00, 0.00, -0.00, -1.00, 207.0, 125.0)">k</text><text xml:space="preserve" font-family="TrebuchetMS-Bold" font-weight="bold" font-size="31.3" fill="#000000" transform="matrix(1.00, 0.00, -0.00, -1.00, 224.2, 125.0)">g</text><text xml:space="preserve" font-family="TrebuchetMS-Bold" font-weight="bold" font-size="31.3" fill="#000000" transform="matrix(1.00, 0.00, -0.00, -1.00, 239.9, 125.0)">e</text><text xml:space="preserve" font-family="TrebuchetMS-Bold" font-weight="bold" font-size="31.3" fill="#000000" transform="matrix(1.00, 0.00, -0.00, -1.00, 257.9, 125.0)">j</text><text xml:space="preserve" font-family="TrebuchetMS-Bold" font-weight="bold" font-size="31.3" fill="#000000" transform="matrix(1.00, 0.00, -0.00, -1.00, 269.3, 125.0)">g</text><text xml:space="preserve" font-family="TrebuchetMS-Bold" font-weight="bold" font-size="31.3" fill="#000000" transform="matrix(1.00, 0.00, -0.00, -1.00, 285.1, 125.0)">l</text><text xml:space="preserve" font-family="TrebuchetMS-Bold" font-weight="bold" font-size="31.3" fill="#000000" transform="matrix(1.00, 0.00, -0.00, -1.00, 294.3, 125.0)">h</text><text xml:space="preserve" font-family="TrebuchetMS-Bold" font-weight="bold" font-size="31.3" fill="#000000" transform="matrix(1.00, 0.00, -0.00, -1.00, 312.9, 125.0)">p</text><text xml:space="preserve" font-family="TrebuchetMS-Bold" font-weight="bold" font-size="31.3" fill="#000000" transform="matrix(1.00, 0.00, -0.00, -1.00, 331.1, 125.0)">j</text><text xml:space="preserve" font-family="TrebuchetMS-Bold" font-weight="bold" font-size="31.3" fill="#000000" transform="matrix(1.00, 0.00, -0.00, -1.00, 342.6, 125.0)">i</text><text xml:space="preserve" font-family="TrebuchetMS-Bold" font-weight="bold" font-size="31.3" fill="#000000" transform="matrix(1.00, 0.00, -0.00, -1.00, 351.9, 125.0)">e</text><text xml:space="preserve" font-family="TrebuchetMS-Bold" font-weight="bold" font-size="31.3" fill="#000000" transform="matrix(1.00, 0.00, -0.00, -1.00, 369.9, 125.0)">f</text><text xml:space="preserve" font-family="TrebuchetMS-Bold" font-weight="bold" font-size="31.3" fill="#000000" transform="matrix(1.00, 0.00, -0.00, -1.00, 381.5, 125.0)">p</text><text xml:space="preserve" font-family="TrebuchetMS-Bold" font-weight="bold" font-size="31.3" fill="#000000" transform="matrix(1.00, 0.00, -0.00, -1.00, 399.7, 125.0)">p</text><text xml:space="preserve" font-family="TrebuchetMS-Bold" font-weight="bold" font-size="31.3" fill="#000000" transform="matrix(1.00, 0.00, -0.00, -1.00, 417.9, 125.0)">e</text><text xml:space="preserve" font-family="TrebuchetMS-Bold" font-weight="bold" font-size="31.3" fill="#000000" transform="matrix(1.00, 0.00, -0.00, -1.00, 435.9, 125.0)">l</text><text xml:space="preserve" font-family="TrebuchetMS-Bold" font-weight="bold" font-size="31.3" fill="#000000" transform="matrix(1.00, 0.00, -0.00, -1.00, 445.2, 125.0)">p</text><text xml:space="preserve" font-family="TrebuchetMS-Bold" font-weight="bold" font-size="31.3" fill="#000000" transform="matrix(1.00, 0.00, -0.00, -1.00, 463.4, 125.0)">m</text><text xml:space="preserve" font-family="TrebuchetMS-Bold" font-weight="bold" font-size="31.3" fill="#000000" transform="matrix(1.00, 0.00, -0.00, -1.00, 490.3, 125.0)">l</text><text xml:space="preserve" font-family="TrebuchetMS-Bold" font-weight="bold" font-size="31.3" fill="#000000" transform="matrix(1.00, 0.00, -0.00, -1.00, 499.5, 125.0)">j</text><text xml:space="preserve" font-family="TrebuchetMS-Bold" font-weight="bold" font-size="31.3" fill="#000000" transform="matrix(1.00, 0.00, -0.00, -1.00, 511.0, 125.0)">g</text><text xml:space="preserve" font-family="TrebuchetMS-Bold" font-weight="bold" font-size="31.3" fill="#000000" transform="matrix(1.00, 0.00, -0.00, -1.00, 526.7, 125.0)">l</text><text xml:space="preserve" font-family="TrebuchetMS-Bold" font-weight="bold" font-size="31.3" fill="#000000" transform="matrix(1.00, 0.00, -0.00, -1.00, 536.0, 125.0)">c</text><text xml:space="preserve" font-family="TrebuchetMS-Bold" font-weight="bold" font-size="31.3" fill="#000000" transform="matrix(1.00, 0.00, -0.00, -1.00, 552.0, 125.0)">j</text><text xml:space="preserve" font-family="TrebuchetMS-Bold" font-weight="bold" font-size="31.3" fill="#000000" transform="matrix(1.00, 0.00, -0.00, -1.00, 563.5, 125.0)">b</text><text xml:space="preserve" font-family="TrebuchetMS-Bold" font-weight="bold" font-size="31.3" fill="#000000" transform="matrix(1.00, 0.00, -0.00, -1.00, 581.7, 125.0)">h</text><text xml:space="preserve" font-family="TrebuchetMS-Bold" font-weight="bold" font-size="31.3" fill="#000000" transform="matrix(1.00, 0.00, -0.00, -1.00, 600.2, 125.0)">o</text><text xml:space="preserve" font-family="TrebuchetMS-Bold" font-weight="bold" font-size="31.3" fill="#000000" transform="matrix(1.00, 0.00, -0.00, -1.00, 617.9, 125.0)">i</text><text xml:space="preserve" font-family="TrebuchetMS-Bold" font-weight="bold" font-size="31.3" fill="#000000" transform="matrix(1.00, 0.00, -0.00, -1.00, 627.3, 125.0)">p</text><text xml:space="preserve" font-family="TrebuchetMS-Bold" font-weight="bold" font-size="31.3" fill="#000000" transform="matrix(1.00, 0.00, -0.00, -1.00, 645.5, 125.0)">l</text><text xml:space="preserve" font-family="TrebuchetMS-Bold" font-weight="bold" font-size="31.3" fill="#000000" transform="matrix(1.00, 0.00, -0.00, -1.00, 654.8, 125.0)">f</text><text xml:space="preserve" font-family="TrebuchetMS-Bold" font-weight="bold" font-size="31.3" fill="#000000" transform="matrix(1.00, 0.00, -0.00, -1.00, 666.3, 125.0)">n</text><text xml:space="preserve" font-family="TrebuchetMS-Bold" font-weight="bold" font-size="31.3" fill="#000000" transform="matrix(1.00, 0.00, -0.00, -1.00, 684.8, 125.0)">/</text><text xml:space="preserve" font-family="TrebuchetMS-Bold" font-weight="bold" font-size="31.3" fill="#000000" transform="matrix(1.00, 0.00, -0.00, -1.00, 697.0, 125.0)">r</text><text xml:space="preserve" font-family="TrebuchetMS-Bold" font-weight="bold" font-size="31.3" fill="#000000" transform="matrix(1.00, 0.00, -0.00, -1.00, 710.4, 125.0)">e</text><text xml:space="preserve" font-family="TrebuchetMS-Bold" font-weight="bold" font-size="31.3" fill="#000000" transform="matrix(1.00, 0.00, -0.00, -1.00, 728.4, 125.0)">l</text><text xml:space="preserve" font-family="TrebuchetMS-Bold" font-weight="bold" font-size="31.3" fill="#000000" transform="matrix(1.00, 0.00, -0.00, -1.00, 737.7, 125.0)">a</text><text xml:space="preserve" font-family="TrebuchetMS-Bold" font-weight="bold" font-size="31.3" fill="#000000" transform="matrix(1.00, 0.00, -0.00, -1.00, 754.3, 125.0)">t</text><text xml:space="preserve" font-family="TrebuchetMS-Bold" font-weight="bold" font-size="31.3" fill="#000000" transform="matrix(1.00, 0.00, -0.00, -1.00, 766.8, 125.0)">e</text><text xml:space="preserve" font-family="TrebuchetMS-Bold" font-weight="bold" font-size="31.3" fill="#000000" transform="matrix(1.00, 0.00, -0.00, -1.00, 784.8, 125.0)">d</text><text xml:space="preserve" font-family="TrebuchetMS-Bold" font-weight="bold" font-size="31.3" fill="#000000" transform="matrix(1.00, 0.00, -0.00, -1.00, 802.9, 125.0)">?</text><g><clipPath id="clip-130"><path d="M 206.1 118.5 L 816.9 118.5 L 816.9 123.6 L 206.1 123.6 Z M 206.1 118.5 "></path></clipPath><g clip-path="url(#clip-130)"><path d="M 4.3 327.7 L 614.1 327.7 " fill="none" stroke="#000000" stroke-width="3.06" stroke-miterlimit="0.00" transform="matrix(1.00, 0.00, 0.00, -1.00, 202.8, 448.7)"></path></g></g><text xml:space="preserve" font-family="TrebuchetMS-Bold" font-weight="bold" font-size="31.3" fill="#000000" transform="matrix(1.00, 0.00, -0.00, -1.00, 440.0, 89.0)">h</text><text xml:space="preserve" font-family="TrebuchetMS-Bold" font-weight="bold" font-size="31.3" fill="#000000" transform="matrix(1.00, 0.00, -0.00, -1.00, 458.6, 89.0)">l</text><text xml:space="preserve" font-family="TrebuchetMS-Bold" font-weight="bold" font-size="31.3" fill="#000000" transform="matrix(1.00, 0.00, -0.00, -1.00, 467.8, 89.0)">=</text><text xml:space="preserve" font-family="TrebuchetMS-Bold" font-weight="bold" font-size="31.3" fill="#000000" transform="matrix(1.00, 0.00, -0.00, -1.00, 486.1, 89.0)">e</text><text xml:space="preserve" font-family="TrebuchetMS-Bold" font-weight="bold" font-size="31.3" fill="#000000" transform="matrix(1.00, 0.00, -0.00, -1.00, 504.1, 89.0)">s</text><text xml:space="preserve" font-family="TrebuchetMS-Bold" font-weight="bold" font-size="31.3" fill="#000000" transform="matrix(1.00, 0.00, -0.00, -1.00, 517.6, 89.0)">-</text><text xml:space="preserve" font-family="TrebuchetMS-Bold" font-weight="bold" font-size="31.3" fill="#000000" transform="matrix(1.00, 0.00, -0.00, -1.00, 529.1, 89.0)">4</text><text xml:space="preserve" font-family="TrebuchetMS-Bold" font-weight="bold" font-size="31.3" fill="#000000" transform="matrix(1.00, 0.00, -0.00, -1.00, 547.5, 89.0)">1</text><text xml:space="preserve" font-family="TrebuchetMS-Bold" font-weight="bold" font-size="31.3" fill="#000000" transform="matrix(1.00, 0.00, -0.00, -1.00, 565.8, 89.0)">9</text><g><clipPath id="clip-131"><path d="M 438.9 82.5 L 584.1 82.5 L 584.1 87.6 L 438.9 87.6 Z M 438.9 82.5 "></path></clipPath><g clip-path="url(#clip-131)"><path d="M 237.1 363.7 L 381.3 363.7 " fill="none" stroke="#000000" stroke-width="3.06" stroke-miterlimit="0.00" transform="matrix(1.00, 0.00, 0.00, -1.00, 202.8, 448.7)"></path></g></g><text xml:space="preserve" font-family="Montserrat-SemiBold" font-weight="bold" font-size="87.5" fill="#000000" transform="matrix(1.00, 0.00, -0.00, -1.00, 66.0, 568.0)">S</text><text xml:space="preserve" font-family="Montserrat-SemiBold" font-weight="bold" font-size="87.5" fill="#000000" transform="matrix(1.00, 0.00, -0.00, -1.00, 121.7, 568.0)">C</text><text xml:space="preserve" font-family="Montserrat-SemiBold" font-weight="bold" font-size="87.5" fill="#000000" transform="matrix(1.00, 0.00, -0.00, -1.00, 182.4, 568.0)">R</text><text xml:space="preserve" font-family="Montserrat-SemiBold" font-weight="bold" font-size="87.5" fill="#000000" transform="matrix(1.00, 0.00, -0.00, -1.00, 245.8, 568.0)">E</text><text xml:space="preserve" font-family="Montserrat-SemiBold" font-weight="bold" font-size="87.5" fill="#000000" transform="matrix(1.00, 0.00, -0.00, -1.00, 304.2, 568.0)">E</text><text xml:space="preserve" font-family="Montserrat-SemiBold" font-weight="bold" font-size="87.5" fill="#000000" transform="matrix(1.00, 0.00, -0.00, -1.00, 362.6, 568.0)">N</text><text xml:space="preserve" font-family="Montserrat-SemiBold" font-weight="bold" font-size="87.5" fill="#000000" transform="matrix(1.00, 0.00, -0.00, -1.00, 431.6, 568.0)"> </text><text xml:space="preserve" font-family="Montserrat-SemiBold" font-weight="bold" font-size="87.5" fill="#000000" transform="matrix(1.00, 0.00, -0.00, -1.00, 452.7, 568.0)">R</text><text xml:space="preserve" font-family="Montserrat-SemiBold" font-weight="bold" font-size="87.5" fill="#000000" transform="matrix(1.00, 0.00, -0.00, -1.00, 516.0, 568.0)">E</text><text xml:space="preserve" font-family="Montserrat-SemiBold" font-weight="bold" font-size="87.5" fill="#000000" transform="matrix(1.00, 0.00, -0.00, -1.00, 574.4, 568.0)">A</text><text xml:space="preserve" font-family="Montserrat-SemiBold" font-weight="bold" font-size="87.5" fill="#000000" transform="matrix(1.00, 0.00, -0.00, -1.00, 640.8, 568.0)">D</text><text xml:space="preserve" font-family="Montserrat-SemiBold" font-weight="bold" font-size="87.5" fill="#000000" transform="matrix(1.00, 0.00, -0.00, -1.00, 708.1, 568.0)">E</text><text xml:space="preserve" font-family="Montserrat-SemiBold" font-weight="bold" font-size="87.5" fill="#000000" transform="matrix(1.00, 0.00, -0.00, -1.00, 766.5, 568.0)">R</text><text xml:space="preserve" font-family="Montserrat-SemiBold" font-weight="bold" font-size="87.5" fill="#000000" transform="matrix(1.00, 0.00, -0.00, -1.00, 829.9, 568.0)">S</text></g></svg>