<?xml version="1.0" encoding="UTF-8" standalone="no"?><svg xmlns="http://www.w3.org/2000/svg" xmlns:xlink="http://www.w3.org/1999/xlink" clip-rule="evenodd" stroke-miterlimit="4.00" viewBox="0 0 1024 768"><desc>SVG generated by Keynote</desc><defs></defs><g transform="matrix(1.00, 0.00, -0.00, -1.00, 0.0, 768.0)"><path d="M 0.0 768.0 L 1024.0 768.0 L 1024.0 0.0 L 0.0 0.0 Z M 0.0 768.0 " fill="#FFFFFF"></path><text xml:space="preserve" font-family="Montserrat-SemiBold" font-weight="bold" font-size="358.0" fill="#000000" transform="matrix(1.00, 0.00, -0.00, -1.00, 96.0, 321.0)">1</text><text xml:space="preserve" font-family="Montserrat-SemiBold" font-weight="bold" font-size="358.0" fill="#000000" transform="matrix(1.00, 0.00, -0.00, -1.00, 316.9, 321.0)">0</text><text xml:space="preserve" font-family="Montserrat-SemiBold" font-weight="bold" font-size="358.0" fill="#000000" transform="matrix(1.00, 0.00, -0.00, -1.00, 537.8, 321.0)">%</text><text xml:space="preserve" font-family="Montserrat-Light" font-size="26.0" fill="#000000" transform="matrix(1.00, 0.00, -0.00, -1.00, 67.0, 116.0)">G</text><text xml:space="preserve" font-family="Montserrat-Light" font-size="26.0" fill="#000000" transform="matrix(1.00, 0.00, -0.00, -1.00, 86.6, 116.0)">r</text><text xml:space="preserve" font-family="Montserrat-Light" font-size="26.0" fill="#000000" transform="matrix(1.00, 0.00, -0.00, -1.00, 96.2, 116.0)">o</text><text xml:space="preserve" font-family="Montserrat-Light" font-size="26.0" fill="#000000" transform="matrix(1.00, 0.00, -0.00, -1.00, 111.9, 116.0)">v</text><text xml:space="preserve" font-family="Montserrat-Light" font-size="26.0" fill="#000000" transform="matrix(1.00, 0.00, -0.00, -1.00, 124.4, 116.0)">e</text><text xml:space="preserve" font-family="Montserrat-Light" font-size="26.0" fill="#000000" transform="matrix(1.00, 0.00, -0.00, -1.00, 139.7, 116.0)">s</text><text xml:space="preserve" font-family="Montserrat-Light" font-size="26.0" fill="#000000" transform="matrix(1.00, 0.00, -0.00, -1.00, 151.4, 116.0)">,</text><text xml:space="preserve" font-family="Montserrat-Light" font-size="26.0" fill="#000000" transform="matrix(1.00, 0.00, -0.00, -1.00, 156.6, 116.0)"> </text><text xml:space="preserve" font-family="Montserrat-Light" font-size="26.0" fill="#000000" transform="matrix(1.00, 0.00, -0.00, -1.00, 163.7, 116.0)">K</text><text xml:space="preserve" font-family="Montserrat-Light" font-size="26.0" fill="#000000" transform="matrix(1.00, 0.00, -0.00, -1.00, 181.9, 116.0)">.</text><text xml:space="preserve" font-family="Montserrat-Light" font-size="26.0" fill="#000000" transform="matrix(1.00, 0.00, -0.00, -1.00, 187.0, 116.0)"> </text><text xml:space="preserve" font-family="Montserrat-Light" font-size="26.0" fill="#000000" transform="matrix(1.00, 0.00, -0.00, -1.00, 194.2, 116.0)">(</text><text xml:space="preserve" font-family="Montserrat-Light" font-size="26.0" fill="#000000" transform="matrix(1.00, 0.00, -0.00, -1.00, 202.0, 116.0)">2</text><text xml:space="preserve" font-family="Montserrat-Light" font-size="26.0" fill="#000000" transform="matrix(1.00, 0.00, -0.00, -1.00, 218.1, 116.0)">0</text><text xml:space="preserve" font-family="Montserrat-Light" font-size="26.0" fill="#000000" transform="matrix(1.00, 0.00, -0.00, -1.00, 234.1, 116.0)">1</text><text xml:space="preserve" font-family="Montserrat-Light" font-size="26.0" fill="#000000" transform="matrix(1.00, 0.00, -0.00, -1.00, 250.2, 116.0)">1</text><text xml:space="preserve" font-family="Montserrat-Light" font-size="26.0" fill="#000000" transform="matrix(1.00, 0.00, -0.00, -1.00, 266.2, 116.0)">,</text><text xml:space="preserve" font-family="Montserrat-Light" font-size="26.0" fill="#000000" transform="matrix(1.00, 0.00, -0.00, -1.00, 271.3, 116.0)"> </text><text xml:space="preserve" font-family="Montserrat-Light" font-size="26.0" fill="#000000" transform="matrix(1.00, 0.00, -0.00, -1.00, 278.5, 116.0)">O</text><text xml:space="preserve" font-family="Montserrat-Light" font-size="26.0" fill="#000000" transform="matrix(1.00, 0.00, -0.00, -1.00, 299.6, 116.0)">c</text><text xml:space="preserve" font-family="Montserrat-Light" font-size="26.0" fill="#000000" transform="matrix(1.00, 0.00, -0.00, -1.00, 314.2, 116.0)">t</text><text xml:space="preserve" font-family="Montserrat-Light" font-size="26.0" fill="#000000" transform="matrix(1.00, 0.00, -0.00, -1.00, 324.1, 116.0)">o</text><text xml:space="preserve" font-family="Montserrat-Light" font-size="26.0" fill="#000000" transform="matrix(1.00, 0.00, -0.00, -1.00, 340.2, 116.0)">b</text><text xml:space="preserve" font-family="Montserrat-Light" font-size="26.0" fill="#000000" transform="matrix(1.00, 0.00, -0.00, -1.00, 357.8, 116.0)">e</text><text xml:space="preserve" font-family="Montserrat-Light" font-size="26.0" fill="#000000" transform="matrix(1.00, 0.00, -0.00, -1.00, 373.0, 116.0)">r</text><text xml:space="preserve" font-family="Montserrat-Light" font-size="26.0" fill="#000000" transform="matrix(1.00, 0.00, -0.00, -1.00, 382.7, 116.0)"> </text><text xml:space="preserve" font-family="Montserrat-Light" font-size="26.0" fill="#000000" transform="matrix(1.00, 0.00, -0.00, -1.00, 389.8, 116.0)">2</text><text xml:space="preserve" font-family="Montserrat-Light" font-size="26.0" fill="#000000" transform="matrix(1.00, 0.00, -0.00, -1.00, 405.9, 116.0)">1</text><text xml:space="preserve" font-family="Montserrat-Light" font-size="26.0" fill="#000000" transform="matrix(1.00, 0.00, -0.00, -1.00, 421.9, 116.0)">)</text><text xml:space="preserve" font-family="Montserrat-Light" font-size="26.0" fill="#000000" transform="matrix(1.00, 0.00, -0.00, -1.00, 430.2, 116.0)">.</text><text xml:space="preserve" font-family="Montserrat-Light" font-size="26.0" fill="#000000" transform="matrix(1.00, 0.00, -0.00, -1.00, 435.4, 116.0)"> </text><text xml:space="preserve" font-family="Montserrat-Light" font-size="26.0" fill="#000000" transform="matrix(1.00, 0.00, -0.00, -1.00, 442.5, 116.0)">C</text><text xml:space="preserve" font-family="Montserrat-Light" font-size="26.0" fill="#000000" transform="matrix(1.00, 0.00, -0.00, -1.00, 460.7, 116.0)">h</text><text xml:space="preserve" font-family="Montserrat-Light" font-size="26.0" fill="#000000" transform="matrix(1.00, 0.00, -0.00, -1.00, 477.9, 116.0)">a</text><text xml:space="preserve" font-family="Montserrat-Light" font-size="26.0" fill="#000000" transform="matrix(1.00, 0.00, -0.00, -1.00, 492.9, 116.0)">s</text><text xml:space="preserve" font-family="Montserrat-Light" font-size="26.0" fill="#000000" transform="matrix(1.00, 0.00, -0.00, -1.00, 504.7, 116.0)">i</text><text xml:space="preserve" font-family="Montserrat-Light" font-size="26.0" fill="#000000" transform="matrix(1.00, 0.00, -0.00, -1.00, 511.6, 116.0)">n</text><text xml:space="preserve" font-family="Montserrat-Light" font-size="26.0" fill="#000000" transform="matrix(1.00, 0.00, -0.00, -1.00, 528.7, 116.0)">g</text><text xml:space="preserve" font-family="Montserrat-Light" font-size="26.0" fill="#000000" transform="matrix(1.00, 0.00, -0.00, -1.00, 545.2, 116.0)"> </text><text xml:space="preserve" font-family="Montserrat-Light" font-size="26.0" fill="#000000" transform="matrix(1.00, 0.00, -0.00, -1.00, 552.3, 116.0)">t</text><text xml:space="preserve" font-family="Montserrat-Light" font-size="26.0" fill="#000000" transform="matrix(1.00, 0.00, -0.00, -1.00, 562.5, 116.0)">h</text><text xml:space="preserve" font-family="Montserrat-Light" font-size="26.0" fill="#000000" transform="matrix(1.00, 0.00, -0.00, -1.00, 579.7, 116.0)">e</text><text xml:space="preserve" font-family="Montserrat-Light" font-size="26.0" fill="#000000" transform="matrix(1.00, 0.00, -0.00, -1.00, 595.0, 116.0)"> </text><text xml:space="preserve" font-family="Montserrat-Light" font-size="26.0" fill="#000000" transform="matrix(1.00, 0.00, -0.00, -1.00, 602.1, 116.0)">A</text><text xml:space="preserve" font-family="Montserrat-Light" font-size="26.0" fill="#000000" transform="matrix(1.00, 0.00, -0.00, -1.00, 620.0, 116.0)">c</text><text xml:space="preserve" font-family="Montserrat-Light" font-size="26.0" fill="#000000" transform="matrix(1.00, 0.00, -0.00, -1.00, 634.0, 116.0)">c</text><text xml:space="preserve" font-family="Montserrat-Light" font-size="26.0" fill="#000000" transform="matrix(1.00, 0.00, -0.00, -1.00, 647.9, 116.0)">e</text><text xml:space="preserve" font-family="Montserrat-Light" font-size="26.0" fill="#000000" transform="matrix(1.00, 0.00, -0.00, -1.00, 663.2, 116.0)">s</text><text xml:space="preserve" font-family="Montserrat-Light" font-size="26.0" fill="#000000" transform="matrix(1.00, 0.00, -0.00, -1.00, 675.0, 116.0)">s</text><text xml:space="preserve" font-family="Montserrat-Light" font-size="26.0" fill="#000000" transform="matrix(1.00, 0.00, -0.00, -1.00, 686.8, 116.0)">i</text><text xml:space="preserve" font-family="Montserrat-Light" font-size="26.0" fill="#000000" transform="matrix(1.00, 0.00, -0.00, -1.00, 693.7, 116.0)">b</text><text xml:space="preserve" font-family="Montserrat-Light" font-size="26.0" fill="#000000" transform="matrix(1.00, 0.00, -0.00, -1.00, 711.3, 116.0)">i</text><text xml:space="preserve" font-family="Montserrat-Light" font-size="26.0" fill="#000000" transform="matrix(1.00, 0.00, -0.00, -1.00, 718.2, 116.0)">l</text><text xml:space="preserve" font-family="Montserrat-Light" font-size="26.0" fill="#000000" transform="matrix(1.00, 0.00, -0.00, -1.00, 725.5, 116.0)">i</text><text xml:space="preserve" font-family="Montserrat-Light" font-size="26.0" fill="#000000" transform="matrix(1.00, 0.00, -0.00, -1.00, 732.4, 116.0)">t</text><text xml:space="preserve" font-family="Montserrat-Light" font-size="26.0" fill="#000000" transform="matrix(1.00, 0.00, -0.00, -1.00, 742.5, 116.0)">y</text><text xml:space="preserve" font-family="Montserrat-Light" font-size="26.0" fill="#000000" transform="matrix(1.00, 0.00, -0.00, -1.00, 755.6, 116.0)"> </text><text xml:space="preserve" font-family="Montserrat-Light" font-size="26.0" fill="#000000" transform="matrix(1.00, 0.00, -0.00, -1.00, 762.7, 116.0)">B</text><text xml:space="preserve" font-family="Montserrat-Light" font-size="26.0" fill="#000000" transform="matrix(1.00, 0.00, -0.00, -1.00, 781.3, 116.0)">u</text><text xml:space="preserve" font-family="Montserrat-Light" font-size="26.0" fill="#000000" transform="matrix(1.00, 0.00, -0.00, -1.00, 798.1, 116.0)">s</text><text xml:space="preserve" font-family="Montserrat-Light" font-size="26.0" fill="#000000" transform="matrix(1.00, 0.00, -0.00, -1.00, 809.9, 116.0)">i</text><text xml:space="preserve" font-family="Montserrat-Light" font-size="26.0" fill="#000000" transform="matrix(1.00, 0.00, -0.00, -1.00, 816.9, 116.0)">n</text><text xml:space="preserve" font-family="Montserrat-Light" font-size="26.0" fill="#000000" transform="matrix(1.00, 0.00, -0.00, -1.00, 833.9, 116.0)">e</text><text xml:space="preserve" font-family="Montserrat-Light" font-size="26.0" fill="#000000" transform="matrix(1.00, 0.00, -0.00, -1.00, 849.2, 116.0)">s</text><text xml:space="preserve" font-family="Montserrat-Light" font-size="26.0" fill="#000000" transform="matrix(1.00, 0.00, -0.00, -1.00, 861.0, 116.0)">s</text><text xml:space="preserve" font-family="Montserrat-Light" font-size="26.0" fill="#000000" transform="matrix(1.00, 0.00, -0.00, -1.00, 872.8, 116.0)"> </text><text xml:space="preserve" font-family="Montserrat-Light" font-size="26.0" fill="#000000" transform="matrix(1.00, 0.00, -0.00, -1.00, 879.9, 116.0)">C</text><text xml:space="preserve" font-family="Montserrat-Light" font-size="26.0" fill="#000000" transform="matrix(1.00, 0.00, -0.00, -1.00, 898.1, 116.0)">a</text><text xml:space="preserve" font-family="Montserrat-Light" font-size="26.0" fill="#000000" transform="matrix(1.00, 0.00, -0.00, -1.00, 913.1, 116.0)">s</text><text xml:space="preserve" font-family="Montserrat-Light" font-size="26.0" fill="#000000" transform="matrix(1.00, 0.00, -0.00, -1.00, 924.9, 116.0)">e</text><text xml:space="preserve" font-family="Montserrat-Light" font-size="26.0" fill="#000000" transform="matrix(1.00, 0.00, -0.00, -1.00, 940.2, 116.0)"> </text><text xml:space="preserve" font-family="Montserrat-Light" font-size="26.0" fill="#000000" transform="matrix(1.00, 0.00, -0.00, -1.00, 947.3, 116.0)">–</text><text xml:space="preserve" font-family="Montserrat-Light" font-size="26.0" fill="#000000" transform="matrix(1.00, 0.00, -0.00, -1.00, 957.8, 116.0)"> </text><text xml:space="preserve" font-family="Montserrat-Light" font-size="26.0" fill="#000000" transform="matrix(1.00, 0.00, -0.00, -1.00, 75.0, 81.0)">C</text><text xml:space="preserve" font-family="Montserrat-Light" font-size="26.0" fill="#000000" transform="matrix(1.00, 0.00, -0.00, -1.00, 92.8, 81.0)">o</text><text xml:space="preserve" font-family="Montserrat-Light" font-size="26.0" fill="#000000" transform="matrix(1.00, 0.00, -0.00, -1.00, 108.8, 81.0)">n</text><text xml:space="preserve" font-family="Montserrat-Light" font-size="26.0" fill="#000000" transform="matrix(1.00, 0.00, -0.00, -1.00, 125.9, 81.0)">c</text><text xml:space="preserve" font-family="Montserrat-Light" font-size="26.0" fill="#000000" transform="matrix(1.00, 0.00, -0.00, -1.00, 140.5, 81.0)">l</text><text xml:space="preserve" font-family="Montserrat-Light" font-size="26.0" fill="#000000" transform="matrix(1.00, 0.00, -0.00, -1.00, 147.7, 81.0)">u</text><text xml:space="preserve" font-family="Montserrat-Light" font-size="26.0" fill="#000000" transform="matrix(1.00, 0.00, -0.00, -1.00, 164.5, 81.0)">s</text><text xml:space="preserve" font-family="Montserrat-Light" font-size="26.0" fill="#000000" transform="matrix(1.00, 0.00, -0.00, -1.00, 176.3, 81.0)">i</text><text xml:space="preserve" font-family="Montserrat-Light" font-size="26.0" fill="#000000" transform="matrix(1.00, 0.00, -0.00, -1.00, 183.2, 81.0)">o</text><text xml:space="preserve" font-family="Montserrat-Light" font-size="26.0" fill="#000000" transform="matrix(1.00, 0.00, -0.00, -1.00, 199.3, 81.0)">n</text><text xml:space="preserve" font-family="Montserrat-Light" font-size="26.0" fill="#000000" transform="matrix(1.00, 0.00, -0.00, -1.00, 216.4, 81.0)">.</text><text xml:space="preserve" font-family="Montserrat-Light" font-size="26.0" fill="#000000" transform="matrix(1.00, 0.00, -0.00, -1.00, 221.5, 81.0)"> </text><text xml:space="preserve" font-family="Montserrat-Light" font-size="26.0" fill="#000000" transform="matrix(1.00, 0.00, -0.00, -1.00, 228.7, 81.0)">R</text><text xml:space="preserve" font-family="Montserrat-Light" font-size="26.0" fill="#000000" transform="matrix(1.00, 0.00, -0.00, -1.00, 247.5, 81.0)">e</text><text xml:space="preserve" font-family="Montserrat-Light" font-size="26.0" fill="#000000" transform="matrix(1.00, 0.00, -0.00, -1.00, 262.7, 81.0)">t</text><text xml:space="preserve" font-family="Montserrat-Light" font-size="26.0" fill="#000000" transform="matrix(1.00, 0.00, -0.00, -1.00, 272.9, 81.0)">r</text><text xml:space="preserve" font-family="Montserrat-Light" font-size="26.0" fill="#000000" transform="matrix(1.00, 0.00, -0.00, -1.00, 282.6, 81.0)">i</text><text xml:space="preserve" font-family="Montserrat-Light" font-size="26.0" fill="#000000" transform="matrix(1.00, 0.00, -0.00, -1.00, 289.5, 81.0)">e</text><text xml:space="preserve" font-family="Montserrat-Light" font-size="26.0" fill="#000000" transform="matrix(1.00, 0.00, -0.00, -1.00, 304.3, 81.0)">v</text><text xml:space="preserve" font-family="Montserrat-Light" font-size="26.0" fill="#000000" transform="matrix(1.00, 0.00, -0.00, -1.00, 316.9, 81.0)">e</text><text xml:space="preserve" font-family="Montserrat-Light" font-size="26.0" fill="#000000" transform="matrix(1.00, 0.00, -0.00, -1.00, 332.1, 81.0)">d</text><text xml:space="preserve" font-family="Montserrat-Light" font-size="26.0" fill="#000000" transform="matrix(1.00, 0.00, -0.00, -1.00, 349.8, 81.0)"> </text><text xml:space="preserve" font-family="Montserrat-Light" font-size="26.0" fill="#000000" transform="matrix(1.00, 0.00, -0.00, -1.00, 356.9, 81.0)">J</text><text xml:space="preserve" font-family="Montserrat-Light" font-size="26.0" fill="#000000" transform="matrix(1.00, 0.00, -0.00, -1.00, 369.5, 81.0)">u</text><text xml:space="preserve" font-family="Montserrat-Light" font-size="26.0" fill="#000000" transform="matrix(1.00, 0.00, -0.00, -1.00, 386.3, 81.0)">l</text><text xml:space="preserve" font-family="Montserrat-Light" font-size="26.0" fill="#000000" transform="matrix(1.00, 0.00, -0.00, -1.00, 393.5, 81.0)">y</text><text xml:space="preserve" font-family="Montserrat-Light" font-size="26.0" fill="#000000" transform="matrix(1.00, 0.00, -0.00, -1.00, 406.6, 81.0)"> </text><text xml:space="preserve" font-family="Montserrat-Light" font-size="26.0" fill="#000000" transform="matrix(1.00, 0.00, -0.00, -1.00, 413.7, 81.0)">2</text><text xml:space="preserve" font-family="Montserrat-Light" font-size="26.0" fill="#000000" transform="matrix(1.00, 0.00, -0.00, -1.00, 429.7, 81.0)">2</text><text xml:space="preserve" font-family="Montserrat-Light" font-size="26.0" fill="#000000" transform="matrix(1.00, 0.00, -0.00, -1.00, 445.8, 81.0)">,</text><text xml:space="preserve" font-family="Montserrat-Light" font-size="26.0" fill="#000000" transform="matrix(1.00, 0.00, -0.00, -1.00, 450.9, 81.0)"> </text><text xml:space="preserve" font-family="Montserrat-Light" font-size="26.0" fill="#000000" transform="matrix(1.00, 0.00, -0.00, -1.00, 458.0, 81.0)">2</text><text xml:space="preserve" font-family="Montserrat-Light" font-size="26.0" fill="#000000" transform="matrix(1.00, 0.00, -0.00, -1.00, 474.1, 81.0)">0</text><text xml:space="preserve" font-family="Montserrat-Light" font-size="26.0" fill="#000000" transform="matrix(1.00, 0.00, -0.00, -1.00, 490.1, 81.0)">1</text><text xml:space="preserve" font-family="Montserrat-Light" font-size="26.0" fill="#000000" transform="matrix(1.00, 0.00, -0.00, -1.00, 506.2, 81.0)">6</text><text xml:space="preserve" font-family="Montserrat-Light" font-size="26.0" fill="#000000" transform="matrix(1.00, 0.00, -0.00, -1.00, 522.2, 81.0)">,</text><text xml:space="preserve" font-family="Montserrat-Light" font-size="26.0" fill="#000000" transform="matrix(1.00, 0.00, -0.00, -1.00, 527.3, 81.0)"> </text><text xml:space="preserve" font-family="Montserrat-Light" font-size="26.0" fill="#000000" transform="matrix(1.00, 0.00, -0.00, -1.00, 534.4, 81.0)">f</text><text xml:space="preserve" font-family="Montserrat-Light" font-size="26.0" fill="#000000" transform="matrix(1.00, 0.00, -0.00, -1.00, 542.9, 81.0)">r</text><text xml:space="preserve" font-family="Montserrat-Light" font-size="26.0" fill="#000000" transform="matrix(1.00, 0.00, -0.00, -1.00, 552.5, 81.0)">o</text><text xml:space="preserve" font-family="Montserrat-Light" font-size="26.0" fill="#000000" transform="matrix(1.00, 0.00, -0.00, -1.00, 568.6, 81.0)">m</text><text xml:space="preserve" font-family="Montserrat-Light" font-size="26.0" fill="#000000" transform="matrix(1.00, 0.00, -0.00, -1.00, 595.8, 81.0)"> </text><text xml:space="preserve" font-family="Montserrat-Light" font-size="26.0" fill="#000000" transform="matrix(1.00, 0.00, -0.00, -1.00, 602.9, 81.0)">h</text><text xml:space="preserve" font-family="Montserrat-Light" font-size="26.0" fill="#000000" transform="matrix(1.00, 0.00, -0.00, -1.00, 620.1, 81.0)">t</text><text xml:space="preserve" font-family="Montserrat-Light" font-size="26.0" fill="#000000" transform="matrix(1.00, 0.00, -0.00, -1.00, 630.2, 81.0)">t</text><text xml:space="preserve" font-family="Montserrat-Light" font-size="26.0" fill="#000000" transform="matrix(1.00, 0.00, -0.00, -1.00, 640.4, 81.0)">p</text><text xml:space="preserve" font-family="Montserrat-Light" font-size="26.0" fill="#000000" transform="matrix(1.00, 0.00, -0.00, -1.00, 657.9, 81.0)">:</text><text xml:space="preserve" font-family="Montserrat-Light" font-size="26.0" fill="#000000" transform="matrix(1.00, 0.00, -0.00, -1.00, 663.1, 81.0)">/</text><text xml:space="preserve" font-family="Montserrat-Light" font-size="26.0" fill="#000000" transform="matrix(1.00, 0.00, -0.00, -1.00, 671.4, 81.0)">/</text><text xml:space="preserve" font-family="Montserrat-Light" font-size="26.0" fill="#000000" transform="matrix(1.00, 0.00, -0.00, -1.00, 679.6, 81.0)">w</text><text xml:space="preserve" font-family="Montserrat-Light" font-size="26.0" fill="#000000" transform="matrix(1.00, 0.00, -0.00, -1.00, 702.1, 81.0)">w</text><text xml:space="preserve" font-family="Montserrat-Light" font-size="26.0" fill="#000000" transform="matrix(1.00, 0.00, -0.00, -1.00, 724.5, 81.0)">w</text><text xml:space="preserve" font-family="Montserrat-Light" font-size="26.0" fill="#000000" transform="matrix(1.00, 0.00, -0.00, -1.00, 746.6, 81.0)">.</text><text xml:space="preserve" font-family="Montserrat-Light" font-size="26.0" fill="#000000" transform="matrix(1.00, 0.00, -0.00, -1.00, 751.8, 81.0)">k</text><text xml:space="preserve" font-family="Montserrat-Light" font-size="26.0" fill="#000000" transform="matrix(1.00, 0.00, -0.00, -1.00, 765.9, 81.0)">a</text><text xml:space="preserve" font-family="Montserrat-Light" font-size="26.0" fill="#000000" transform="matrix(1.00, 0.00, -0.00, -1.00, 781.0, 81.0)">r</text><text xml:space="preserve" font-family="Montserrat-Light" font-size="26.0" fill="#000000" transform="matrix(1.00, 0.00, -0.00, -1.00, 790.6, 81.0)">l</text><text xml:space="preserve" font-family="Montserrat-Light" font-size="26.0" fill="#000000" transform="matrix(1.00, 0.00, -0.00, -1.00, 797.9, 81.0)">g</text><text xml:space="preserve" font-family="Montserrat-Light" font-size="26.0" fill="#000000" transform="matrix(1.00, 0.00, -0.00, -1.00, 814.4, 81.0)">r</text><text xml:space="preserve" font-family="Montserrat-Light" font-size="26.0" fill="#000000" transform="matrix(1.00, 0.00, -0.00, -1.00, 824.1, 81.0)">o</text><text xml:space="preserve" font-family="Montserrat-Light" font-size="26.0" fill="#000000" transform="matrix(1.00, 0.00, -0.00, -1.00, 839.7, 81.0)">v</text><text xml:space="preserve" font-family="Montserrat-Light" font-size="26.0" fill="#000000" transform="matrix(1.00, 0.00, -0.00, -1.00, 852.2, 81.0)">e</text><text xml:space="preserve" font-family="Montserrat-Light" font-size="26.0" fill="#000000" transform="matrix(1.00, 0.00, -0.00, -1.00, 867.5, 81.0)">s</text><text xml:space="preserve" font-family="Montserrat-Light" font-size="26.0" fill="#000000" transform="matrix(1.00, 0.00, -0.00, -1.00, 879.3, 81.0)">.</text><text xml:space="preserve" font-family="Montserrat-Light" font-size="26.0" fill="#000000" transform="matrix(1.00, 0.00, -0.00, -1.00, 884.4, 81.0)">c</text><text xml:space="preserve" font-family="Montserrat-Light" font-size="26.0" fill="#000000" transform="matrix(1.00, 0.00, -0.00, -1.00, 898.4, 81.0)">o</text><text xml:space="preserve" font-family="Montserrat-Light" font-size="26.0" fill="#000000" transform="matrix(1.00, 0.00, -0.00, -1.00, 914.4, 81.0)">m</text><text xml:space="preserve" font-family="Montserrat-Light" font-size="26.0" fill="#000000" transform="matrix(1.00, 0.00, -0.00, -1.00, 941.6, 81.0)">/</text><text xml:space="preserve" font-family="Montserrat-Light" font-size="26.0" fill="#000000" transform="matrix(1.00, 0.00, -0.00, -1.00, 114.0, 46.0)">2</text><text xml:space="preserve" font-family="Montserrat-Light" font-size="26.0" fill="#000000" transform="matrix(1.00, 0.00, -0.00, -1.00, 130.0, 46.0)">0</text><text xml:space="preserve" font-family="Montserrat-Light" font-size="26.0" fill="#000000" transform="matrix(1.00, 0.00, -0.00, -1.00, 146.1, 46.0)">1</text><text xml:space="preserve" font-family="Montserrat-Light" font-size="26.0" fill="#000000" transform="matrix(1.00, 0.00, -0.00, -1.00, 162.1, 46.0)">2</text><text xml:space="preserve" font-family="Montserrat-Light" font-size="26.0" fill="#000000" transform="matrix(1.00, 0.00, -0.00, -1.00, 178.2, 46.0)">/</text><text xml:space="preserve" font-family="Montserrat-Light" font-size="26.0" fill="#000000" transform="matrix(1.00, 0.00, -0.00, -1.00, 186.4, 46.0)">0</text><text xml:space="preserve" font-family="Montserrat-Light" font-size="26.0" fill="#000000" transform="matrix(1.00, 0.00, -0.00, -1.00, 202.5, 46.0)">1</text><text xml:space="preserve" font-family="Montserrat-Light" font-size="26.0" fill="#000000" transform="matrix(1.00, 0.00, -0.00, -1.00, 218.5, 46.0)">/</text><text xml:space="preserve" font-family="Montserrat-Light" font-size="26.0" fill="#000000" transform="matrix(1.00, 0.00, -0.00, -1.00, 226.7, 46.0)">2</text><text xml:space="preserve" font-family="Montserrat-Light" font-size="26.0" fill="#000000" transform="matrix(1.00, 0.00, -0.00, -1.00, 242.8, 46.0)">7</text><text xml:space="preserve" font-family="Montserrat-Light" font-size="26.0" fill="#000000" transform="matrix(1.00, 0.00, -0.00, -1.00, 258.8, 46.0)">/</text><text xml:space="preserve" font-family="Montserrat-Light" font-size="26.0" fill="#000000" transform="matrix(1.00, 0.00, -0.00, -1.00, 267.1, 46.0)">c</text><text xml:space="preserve" font-family="Montserrat-Light" font-size="26.0" fill="#000000" transform="matrix(1.00, 0.00, -0.00, -1.00, 281.6, 46.0)">h</text><text xml:space="preserve" font-family="Montserrat-Light" font-size="26.0" fill="#000000" transform="matrix(1.00, 0.00, -0.00, -1.00, 298.9, 46.0)">a</text><text xml:space="preserve" font-family="Montserrat-Light" font-size="26.0" fill="#000000" transform="matrix(1.00, 0.00, -0.00, -1.00, 313.9, 46.0)">s</text><text xml:space="preserve" font-family="Montserrat-Light" font-size="26.0" fill="#000000" transform="matrix(1.00, 0.00, -0.00, -1.00, 325.6, 46.0)">i</text><text xml:space="preserve" font-family="Montserrat-Light" font-size="26.0" fill="#000000" transform="matrix(1.00, 0.00, -0.00, -1.00, 332.6, 46.0)">n</text><text xml:space="preserve" font-family="Montserrat-Light" font-size="26.0" fill="#000000" transform="matrix(1.00, 0.00, -0.00, -1.00, 349.6, 46.0)">g</text><text xml:space="preserve" font-family="Montserrat-Light" font-size="26.0" fill="#000000" transform="matrix(1.00, 0.00, -0.00, -1.00, 366.2, 46.0)">-</text><text xml:space="preserve" font-family="Montserrat-Light" font-size="26.0" fill="#000000" transform="matrix(1.00, 0.00, -0.00, -1.00, 375.6, 46.0)">t</text><text xml:space="preserve" font-family="Montserrat-Light" font-size="26.0" fill="#000000" transform="matrix(1.00, 0.00, -0.00, -1.00, 385.8, 46.0)">h</text><text xml:space="preserve" font-family="Montserrat-Light" font-size="26.0" fill="#000000" transform="matrix(1.00, 0.00, -0.00, -1.00, 403.0, 46.0)">e</text><text xml:space="preserve" font-family="Montserrat-Light" font-size="26.0" fill="#000000" transform="matrix(1.00, 0.00, -0.00, -1.00, 418.3, 46.0)">-</text><text xml:space="preserve" font-family="Montserrat-Light" font-size="26.0" fill="#000000" transform="matrix(1.00, 0.00, -0.00, -1.00, 427.7, 46.0)">a</text><text xml:space="preserve" font-family="Montserrat-Light" font-size="26.0" fill="#000000" transform="matrix(1.00, 0.00, -0.00, -1.00, 442.7, 46.0)">c</text><text xml:space="preserve" font-family="Montserrat-Light" font-size="26.0" fill="#000000" transform="matrix(1.00, 0.00, -0.00, -1.00, 456.6, 46.0)">c</text><text xml:space="preserve" font-family="Montserrat-Light" font-size="26.0" fill="#000000" transform="matrix(1.00, 0.00, -0.00, -1.00, 470.6, 46.0)">e</text><text xml:space="preserve" font-family="Montserrat-Light" font-size="26.0" fill="#000000" transform="matrix(1.00, 0.00, -0.00, -1.00, 485.9, 46.0)">s</text><text xml:space="preserve" font-family="Montserrat-Light" font-size="26.0" fill="#000000" transform="matrix(1.00, 0.00, -0.00, -1.00, 497.6, 46.0)">s</text><text xml:space="preserve" font-family="Montserrat-Light" font-size="26.0" fill="#000000" transform="matrix(1.00, 0.00, -0.00, -1.00, 509.4, 46.0)">i</text><text xml:space="preserve" font-family="Montserrat-Light" font-size="26.0" fill="#000000" transform="matrix(1.00, 0.00, -0.00, -1.00, 516.4, 46.0)">b</text><text xml:space="preserve" font-family="Montserrat-Light" font-size="26.0" fill="#000000" transform="matrix(1.00, 0.00, -0.00, -1.00, 533.9, 46.0)">i</text><text xml:space="preserve" font-family="Montserrat-Light" font-size="26.0" fill="#000000" transform="matrix(1.00, 0.00, -0.00, -1.00, 540.9, 46.0)">l</text><text xml:space="preserve" font-family="Montserrat-Light" font-size="26.0" fill="#000000" transform="matrix(1.00, 0.00, -0.00, -1.00, 548.1, 46.0)">i</text><text xml:space="preserve" font-family="Montserrat-Light" font-size="26.0" fill="#000000" transform="matrix(1.00, 0.00, -0.00, -1.00, 555.0, 46.0)">t</text><text xml:space="preserve" font-family="Montserrat-Light" font-size="26.0" fill="#000000" transform="matrix(1.00, 0.00, -0.00, -1.00, 565.2, 46.0)">y</text><text xml:space="preserve" font-family="Montserrat-Light" font-size="26.0" fill="#000000" transform="matrix(1.00, 0.00, -0.00, -1.00, 578.2, 46.0)">-</text><text xml:space="preserve" font-family="Montserrat-Light" font-size="26.0" fill="#000000" transform="matrix(1.00, 0.00, -0.00, -1.00, 587.7, 46.0)">b</text><text xml:space="preserve" font-family="Montserrat-Light" font-size="26.0" fill="#000000" transform="matrix(1.00, 0.00, -0.00, -1.00, 605.2, 46.0)">u</text><text xml:space="preserve" font-family="Montserrat-Light" font-size="26.0" fill="#000000" transform="matrix(1.00, 0.00, -0.00, -1.00, 622.1, 46.0)">s</text><text xml:space="preserve" font-family="Montserrat-Light" font-size="26.0" fill="#000000" transform="matrix(1.00, 0.00, -0.00, -1.00, 633.8, 46.0)">i</text><text xml:space="preserve" font-family="Montserrat-Light" font-size="26.0" fill="#000000" transform="matrix(1.00, 0.00, -0.00, -1.00, 640.8, 46.0)">n</text><text xml:space="preserve" font-family="Montserrat-Light" font-size="26.0" fill="#000000" transform="matrix(1.00, 0.00, -0.00, -1.00, 657.8, 46.0)">e</text><text xml:space="preserve" font-family="Montserrat-Light" font-size="26.0" fill="#000000" transform="matrix(1.00, 0.00, -0.00, -1.00, 673.1, 46.0)">s</text><text xml:space="preserve" font-family="Montserrat-Light" font-size="26.0" fill="#000000" transform="matrix(1.00, 0.00, -0.00, -1.00, 684.9, 46.0)">s</text><text xml:space="preserve" font-family="Montserrat-Light" font-size="26.0" fill="#000000" transform="matrix(1.00, 0.00, -0.00, -1.00, 696.7, 46.0)">-</text><text xml:space="preserve" font-family="Montserrat-Light" font-size="26.0" fill="#000000" transform="matrix(1.00, 0.00, -0.00, -1.00, 706.1, 46.0)">c</text><text xml:space="preserve" font-family="Montserrat-Light" font-size="26.0" fill="#000000" transform="matrix(1.00, 0.00, -0.00, -1.00, 720.0, 46.0)">a</text><text xml:space="preserve" font-family="Montserrat-Light" font-size="26.0" fill="#000000" transform="matrix(1.00, 0.00, -0.00, -1.00, 735.0, 46.0)">s</text><text xml:space="preserve" font-family="Montserrat-Light" font-size="26.0" fill="#000000" transform="matrix(1.00, 0.00, -0.00, -1.00, 746.7, 46.0)">e</text><text xml:space="preserve" font-family="Montserrat-Light" font-size="26.0" fill="#000000" transform="matrix(1.00, 0.00, -0.00, -1.00, 762.0, 46.0)">-</text><text xml:space="preserve" font-family="Montserrat-Light" font-size="26.0" fill="#000000" transform="matrix(1.00, 0.00, -0.00, -1.00, 771.5, 46.0)">c</text><text xml:space="preserve" font-family="Montserrat-Light" font-size="26.0" fill="#000000" transform="matrix(1.00, 0.00, -0.00, -1.00, 785.4, 46.0)">o</text><text xml:space="preserve" font-family="Montserrat-Light" font-size="26.0" fill="#000000" transform="matrix(1.00, 0.00, -0.00, -1.00, 801.5, 46.0)">n</text><text xml:space="preserve" font-family="Montserrat-Light" font-size="26.0" fill="#000000" transform="matrix(1.00, 0.00, -0.00, -1.00, 818.5, 46.0)">c</text><text xml:space="preserve" font-family="Montserrat-Light" font-size="26.0" fill="#000000" transform="matrix(1.00, 0.00, -0.00, -1.00, 833.1, 46.0)">l</text><text xml:space="preserve" font-family="Montserrat-Light" font-size="26.0" fill="#000000" transform="matrix(1.00, 0.00, -0.00, -1.00, 840.3, 46.0)">u</text><text xml:space="preserve" font-family="Montserrat-Light" font-size="26.0" fill="#000000" transform="matrix(1.00, 0.00, -0.00, -1.00, 857.2, 46.0)">s</text><text xml:space="preserve" font-family="Montserrat-Light" font-size="26.0" fill="#000000" transform="matrix(1.00, 0.00, -0.00, -1.00, 868.9, 46.0)">i</text><text xml:space="preserve" font-family="Montserrat-Light" font-size="26.0" fill="#000000" transform="matrix(1.00, 0.00, -0.00, -1.00, 875.9, 46.0)">o</text><text xml:space="preserve" font-family="Montserrat-Light" font-size="26.0" fill="#000000" transform="matrix(1.00, 0.00, -0.00, -1.00, 891.9, 46.0)">n</text></g></svg>