<?xml version="1.0" encoding="UTF-8" standalone="no"?><svg xmlns="http://www.w3.org/2000/svg" xmlns:xlink="http://www.w3.org/1999/xlink" clip-rule="evenodd" stroke-miterlimit="4.00" viewBox="0 0 1024 768"><desc>SVG generated by Keynote</desc><defs></defs><g transform="matrix(1.00, 0.00, -0.00, -1.00, 0.0, 768.0)"><path d="M 0.0 768.0 L 1024.0 768.0 L 1024.0 0.0 L 0.0 0.0 Z M 0.0 768.0 " fill="#FEFFFF"></path><text xml:space="preserve" font-family="Montserrat-Medium" font-size="40.0" fill="#000000" transform="matrix(1.00, 0.00, 0.00, -1.00, 130.8, 576.3)">“</text><text xml:space="preserve" font-family="Montserrat-Medium" font-size="40.0" fill="#000000" transform="matrix(1.00, 0.00, 0.00, -1.00, 146.0, 576.4)">W</text><text xml:space="preserve" font-family="Montserrat-Medium" font-size="40.0" fill="#000000" transform="matrix(1.00, 0.00, 0.00, -1.00, 185.6, 576.6)">e</text><text xml:space="preserve" font-family="Montserrat-Medium" font-size="40.0" fill="#000000" transform="matrix(1.00, 0.00, 0.00, -1.00, 209.3, 576.7)">b</text><text xml:space="preserve" font-family="Montserrat-Medium" font-size="40.0" fill="#000000" transform="matrix(1.00, 0.00, 0.00, -1.00, 236.6, 576.8)"> </text><text xml:space="preserve" font-family="Montserrat-Medium" font-size="40.0" fill="#000000" transform="matrix(1.00, 0.00, 0.00, -1.00, 246.6, 576.8)">a</text><text xml:space="preserve" font-family="Montserrat-Medium" font-size="40.0" fill="#000000" transform="matrix(1.00, 0.00, 0.00, -1.00, 270.2, 576.9)">c</text><text xml:space="preserve" font-family="Montserrat-Medium" font-size="40.0" fill="#000000" transform="matrix(1.00, 0.00, 0.00, -1.00, 292.0, 577.0)">c</text><text xml:space="preserve" font-family="Montserrat-Medium" font-size="40.0" fill="#000000" transform="matrix(1.00, 0.00, 0.00, -1.00, 313.8, 577.1)">e</text><text xml:space="preserve" font-family="Montserrat-Medium" font-size="40.0" fill="#000000" transform="matrix(1.00, 0.00, 0.00, -1.00, 337.5, 577.2)">s</text><text xml:space="preserve" font-family="Montserrat-Medium" font-size="40.0" fill="#000000" transform="matrix(1.00, 0.00, 0.00, -1.00, 356.8, 577.3)">s</text><text xml:space="preserve" font-family="Montserrat-Medium" font-size="40.0" fill="#000000" transform="matrix(1.00, 0.00, 0.00, -1.00, 376.0, 577.4)">i</text><text xml:space="preserve" font-family="Montserrat-Medium" font-size="40.0" fill="#000000" transform="matrix(1.00, 0.00, 0.00, -1.00, 387.7, 577.4)">b</text><text xml:space="preserve" font-family="Montserrat-Medium" font-size="40.0" fill="#000000" transform="matrix(1.00, 0.00, 0.00, -1.00, 414.9, 577.5)">i</text><text xml:space="preserve" font-family="Montserrat-Medium" font-size="40.0" fill="#000000" transform="matrix(1.00, 0.00, 0.00, -1.00, 426.6, 577.6)">l</text><text xml:space="preserve" font-family="Montserrat-Medium" font-size="40.0" fill="#000000" transform="matrix(1.00, 0.00, 0.00, -1.00, 438.6, 577.6)">i</text><text xml:space="preserve" font-family="Montserrat-Medium" font-size="40.0" fill="#000000" transform="matrix(1.00, 0.00, 0.00, -1.00, 450.3, 577.7)">t</text><text xml:space="preserve" font-family="Montserrat-Medium" font-size="40.0" fill="#000000" transform="matrix(1.00, 0.00, 0.00, -1.00, 466.9, 577.8)">y</text><text xml:space="preserve" font-family="Montserrat-Medium" font-size="40.0" fill="#000000" transform="matrix(1.00, 0.00, 0.00, -1.00, 488.6, 577.9)"> </text><text xml:space="preserve" font-family="Montserrat-Medium" font-size="40.0" fill="#000000" transform="matrix(1.00, 0.00, 0.00, -1.00, 498.7, 577.9)">r</text><text xml:space="preserve" font-family="Montserrat-Medium" font-size="40.0" fill="#000000" transform="matrix(1.00, 0.00, 0.00, -1.00, 514.8, 578.0)">e</text><text xml:space="preserve" font-family="Montserrat-Medium" font-size="40.0" fill="#000000" transform="matrix(1.00, 0.00, 0.00, -1.00, 538.3, 578.1)">f</text><text xml:space="preserve" font-family="Montserrat-Medium" font-size="40.0" fill="#000000" transform="matrix(1.00, 0.00, 0.00, -1.00, 552.1, 578.1)">e</text><text xml:space="preserve" font-family="Montserrat-Medium" font-size="40.0" fill="#000000" transform="matrix(1.00, 0.00, 0.00, -1.00, 575.8, 578.2)">r</text><text xml:space="preserve" font-family="Montserrat-Medium" font-size="40.0" fill="#000000" transform="matrix(1.00, 0.00, 0.00, -1.00, 591.9, 578.3)">s</text><text xml:space="preserve" font-family="Montserrat-Medium" font-size="40.0" fill="#000000" transform="matrix(1.00, 0.00, 0.00, -1.00, 611.2, 578.4)"> </text><text xml:space="preserve" font-family="Montserrat-Medium" font-size="40.0" fill="#000000" transform="matrix(1.00, 0.00, 0.00, -1.00, 621.2, 578.4)">t</text><text xml:space="preserve" font-family="Montserrat-Medium" font-size="40.0" fill="#000000" transform="matrix(1.00, 0.00, 0.00, -1.00, 637.6, 578.5)">o</text><text xml:space="preserve" font-family="Montserrat-Medium" font-size="40.0" fill="#000000" transform="matrix(1.00, 0.00, 0.00, -1.00, 662.8, 578.6)"> </text><text xml:space="preserve" font-family="Montserrat-Medium" font-size="40.0" fill="#000000" transform="matrix(1.00, 0.00, 0.00, -1.00, 672.8, 578.6)">t</text><text xml:space="preserve" font-family="Montserrat-Medium" font-size="40.0" fill="#000000" transform="matrix(1.00, 0.00, 0.00, -1.00, 689.4, 578.7)">h</text><text xml:space="preserve" font-family="Montserrat-Medium" font-size="40.0" fill="#000000" transform="matrix(1.00, 0.00, 0.00, -1.00, 716.3, 578.8)">e</text><text xml:space="preserve" font-family="Montserrat-Medium" font-size="40.0" fill="#000000" transform="matrix(1.00, 0.00, 0.00, -1.00, 740.0, 578.9)"> </text><text xml:space="preserve" font-family="Montserrat-Medium" font-size="40.0" fill="#000000" transform="matrix(1.00, 0.00, 0.00, -1.00, 750.0, 579.0)">i</text><text xml:space="preserve" font-family="Montserrat-Medium" font-size="40.0" fill="#000000" transform="matrix(1.00, 0.00, 0.00, -1.00, 761.6, 579.0)">n</text><text xml:space="preserve" font-family="Montserrat-Medium" font-size="40.0" fill="#000000" transform="matrix(1.00, 0.00, 0.00, -1.00, 788.3, 579.1)">c</text><text xml:space="preserve" font-family="Montserrat-Medium" font-size="40.0" fill="#000000" transform="matrix(1.00, 0.00, 0.00, -1.00, 810.8, 579.2)">l</text><text xml:space="preserve" font-family="Montserrat-Medium" font-size="40.0" fill="#000000" transform="matrix(1.00, 0.00, 0.00, -1.00, 822.9, 579.3)">u</text><text xml:space="preserve" font-family="Montserrat-Medium" font-size="40.0" fill="#000000" transform="matrix(1.00, 0.00, 0.00, -1.00, 849.2, 579.4)">s</text><text xml:space="preserve" font-family="Montserrat-Medium" font-size="40.0" fill="#000000" transform="matrix(1.00, 0.00, 0.00, -1.00, 868.4, 579.5)">i</text><text xml:space="preserve" font-family="Montserrat-Medium" font-size="40.0" fill="#000000" transform="matrix(1.00, 0.00, 0.00, -1.00, 880.1, 579.5)">v</text><text xml:space="preserve" font-family="Montserrat-Medium" font-size="40.0" fill="#000000" transform="matrix(1.00, 0.00, 0.00, -1.00, 900.8, 579.6)">e</text><text xml:space="preserve" font-family="Montserrat-Medium" font-size="40.0" fill="#000000" transform="matrix(1.00, 0.00, 0.00, -1.00, 924.5, 579.7)"> </text><text xml:space="preserve" font-family="Montserrat-Medium" font-size="40.0" fill="#000000" transform="matrix(1.00, 0.00, 0.00, -1.00, 110.6, 523.2)">p</text><text xml:space="preserve" font-family="Montserrat-Medium" font-size="40.0" fill="#000000" transform="matrix(1.00, 0.00, 0.00, -1.00, 137.8, 523.3)">r</text><text xml:space="preserve" font-family="Montserrat-Medium" font-size="40.0" fill="#000000" transform="matrix(1.00, 0.00, 0.00, -1.00, 153.2, 523.4)">a</text><text xml:space="preserve" font-family="Montserrat-Medium" font-size="40.0" fill="#000000" transform="matrix(1.00, 0.00, 0.00, -1.00, 176.8, 523.5)">c</text><text xml:space="preserve" font-family="Montserrat-Medium" font-size="40.0" fill="#000000" transform="matrix(1.00, 0.00, 0.00, -1.00, 199.4, 523.6)">t</text><text xml:space="preserve" font-family="Montserrat-Medium" font-size="40.0" fill="#000000" transform="matrix(1.00, 0.00, 0.00, -1.00, 216.0, 523.7)">i</text><text xml:space="preserve" font-family="Montserrat-Medium" font-size="40.0" fill="#000000" transform="matrix(1.00, 0.00, 0.00, -1.00, 227.6, 523.7)">c</text><text xml:space="preserve" font-family="Montserrat-Medium" font-size="40.0" fill="#000000" transform="matrix(1.00, 0.00, 0.00, -1.00, 249.4, 523.8)">e</text><text xml:space="preserve" font-family="Montserrat-Medium" font-size="40.0" fill="#000000" transform="matrix(1.00, 0.00, 0.00, -1.00, 273.1, 523.9)"> </text><text xml:space="preserve" font-family="Montserrat-Medium" font-size="40.0" fill="#000000" transform="matrix(1.00, 0.00, 0.00, -1.00, 283.1, 524.0)">o</text><text xml:space="preserve" font-family="Montserrat-Medium" font-size="40.0" fill="#000000" transform="matrix(1.00, 0.00, 0.00, -1.00, 308.1, 524.1)">f</text><text xml:space="preserve" font-family="Montserrat-Medium" font-size="40.0" fill="#000000" transform="matrix(1.00, 0.00, 0.00, -1.00, 322.3, 524.1)"> </text><text xml:space="preserve" font-family="Montserrat-Medium" font-size="40.0" fill="#000000" transform="matrix(1.00, 0.00, 0.00, -1.00, 332.3, 524.2)">r</text><text xml:space="preserve" font-family="Montserrat-Medium" font-size="40.0" fill="#000000" transform="matrix(1.00, 0.00, 0.00, -1.00, 348.4, 524.2)">e</text><text xml:space="preserve" font-family="Montserrat-Medium" font-size="40.0" fill="#000000" transform="matrix(1.00, 0.00, 0.00, -1.00, 372.1, 524.4)">m</text><text xml:space="preserve" font-family="Montserrat-Medium" font-size="40.0" fill="#000000" transform="matrix(1.00, 0.00, 0.00, -1.00, 413.8, 524.5)">o</text><text xml:space="preserve" font-family="Montserrat-Medium" font-size="40.0" fill="#000000" transform="matrix(1.00, 0.00, 0.00, -1.00, 438.2, 524.6)">v</text><text xml:space="preserve" font-family="Montserrat-Medium" font-size="40.0" fill="#000000" transform="matrix(1.00, 0.00, 0.00, -1.00, 459.6, 524.7)">i</text><text xml:space="preserve" font-family="Montserrat-Medium" font-size="40.0" fill="#000000" transform="matrix(1.00, 0.00, 0.00, -1.00, 471.3, 524.8)">n</text><text xml:space="preserve" font-family="Montserrat-Medium" font-size="40.0" fill="#000000" transform="matrix(1.00, 0.00, 0.00, -1.00, 497.9, 524.9)">g</text><text xml:space="preserve" font-family="Montserrat-Medium" font-size="40.0" fill="#000000" transform="matrix(1.00, 0.00, 0.00, -1.00, 523.6, 525.0)"> </text><text xml:space="preserve" font-family="Montserrat-Medium" font-size="40.0" fill="#000000" transform="matrix(1.00, 0.00, 0.00, -1.00, 533.6, 525.0)">b</text><text xml:space="preserve" font-family="Montserrat-Medium" font-size="40.0" fill="#000000" transform="matrix(1.00, 0.00, 0.00, -1.00, 560.9, 525.2)">a</text><text xml:space="preserve" font-family="Montserrat-Medium" font-size="40.0" fill="#000000" transform="matrix(1.00, 0.00, 0.00, -1.00, 584.5, 525.3)">r</text><text xml:space="preserve" font-family="Montserrat-Medium" font-size="40.0" fill="#000000" transform="matrix(1.00, 0.00, 0.00, -1.00, 600.6, 525.3)">r</text><text xml:space="preserve" font-family="Montserrat-Medium" font-size="40.0" fill="#000000" transform="matrix(1.00, 0.00, 0.00, -1.00, 616.7, 525.4)">i</text><text xml:space="preserve" font-family="Montserrat-Medium" font-size="40.0" fill="#000000" transform="matrix(1.00, 0.00, 0.00, -1.00, 628.3, 525.4)">e</text><text xml:space="preserve" font-family="Montserrat-Medium" font-size="40.0" fill="#000000" transform="matrix(1.00, 0.00, 0.00, -1.00, 652.0, 525.6)">r</text><text xml:space="preserve" font-family="Montserrat-Medium" font-size="40.0" fill="#000000" transform="matrix(1.00, 0.00, 0.00, -1.00, 668.1, 525.6)">s</text><text xml:space="preserve" font-family="Montserrat-Medium" font-size="40.0" fill="#000000" transform="matrix(1.00, 0.00, 0.00, -1.00, 687.4, 525.7)"> </text><text xml:space="preserve" font-family="Montserrat-Medium" font-size="40.0" fill="#000000" transform="matrix(1.00, 0.00, 0.00, -1.00, 697.5, 525.7)">t</text><text xml:space="preserve" font-family="Montserrat-Medium" font-size="40.0" fill="#000000" transform="matrix(1.00, 0.00, 0.00, -1.00, 714.1, 525.8)">h</text><text xml:space="preserve" font-family="Montserrat-Medium" font-size="40.0" fill="#000000" transform="matrix(1.00, 0.00, 0.00, -1.00, 740.9, 525.9)">a</text><text xml:space="preserve" font-family="Montserrat-Medium" font-size="40.0" fill="#000000" transform="matrix(1.00, 0.00, 0.00, -1.00, 764.5, 526.0)">t</text><text xml:space="preserve" font-family="Montserrat-Medium" font-size="40.0" fill="#000000" transform="matrix(1.00, 0.00, 0.00, -1.00, 781.1, 526.1)"> </text><text xml:space="preserve" font-family="Montserrat-Medium" font-size="40.0" fill="#000000" transform="matrix(1.00, 0.00, 0.00, -1.00, 791.2, 526.1)">p</text><text xml:space="preserve" font-family="Montserrat-Medium" font-size="40.0" fill="#000000" transform="matrix(1.00, 0.00, 0.00, -1.00, 818.4, 526.3)">r</text><text xml:space="preserve" font-family="Montserrat-Medium" font-size="40.0" fill="#000000" transform="matrix(1.00, 0.00, 0.00, -1.00, 834.5, 526.3)">e</text><text xml:space="preserve" font-family="Montserrat-Medium" font-size="40.0" fill="#000000" transform="matrix(1.00, 0.00, 0.00, -1.00, 857.5, 526.4)">v</text><text xml:space="preserve" font-family="Montserrat-Medium" font-size="40.0" fill="#000000" transform="matrix(1.00, 0.00, 0.00, -1.00, 878.2, 526.5)">e</text><text xml:space="preserve" font-family="Montserrat-Medium" font-size="40.0" fill="#000000" transform="matrix(1.00, 0.00, 0.00, -1.00, 901.9, 526.6)">n</text><text xml:space="preserve" font-family="Montserrat-Medium" font-size="40.0" fill="#000000" transform="matrix(1.00, 0.00, 0.00, -1.00, 928.5, 526.7)">t</text><text xml:space="preserve" font-family="Montserrat-Medium" font-size="40.0" fill="#000000" transform="matrix(1.00, 0.00, 0.00, -1.00, 945.1, 526.8)"> </text><text xml:space="preserve" font-family="Montserrat-Medium" font-size="40.0" fill="#000000" transform="matrix(1.00, 0.00, 0.00, -1.00, 114.9, 470.2)">i</text><text xml:space="preserve" font-family="Montserrat-Medium" font-size="40.0" fill="#000000" transform="matrix(1.00, 0.00, 0.00, -1.00, 126.6, 470.3)">n</text><text xml:space="preserve" font-family="Montserrat-Medium" font-size="40.0" fill="#000000" transform="matrix(1.00, 0.00, 0.00, -1.00, 153.2, 470.4)">t</text><text xml:space="preserve" font-family="Montserrat-Medium" font-size="40.0" fill="#000000" transform="matrix(1.00, 0.00, 0.00, -1.00, 169.6, 470.5)">e</text><text xml:space="preserve" font-family="Montserrat-Medium" font-size="40.0" fill="#000000" transform="matrix(1.00, 0.00, 0.00, -1.00, 193.3, 470.6)">r</text><text xml:space="preserve" font-family="Montserrat-Medium" font-size="40.0" fill="#000000" transform="matrix(1.00, 0.00, 0.00, -1.00, 208.6, 470.6)">a</text><text xml:space="preserve" font-family="Montserrat-Medium" font-size="40.0" fill="#000000" transform="matrix(1.00, 0.00, 0.00, -1.00, 232.2, 470.8)">c</text><text xml:space="preserve" font-family="Montserrat-Medium" font-size="40.0" fill="#000000" transform="matrix(1.00, 0.00, 0.00, -1.00, 254.8, 470.8)">t</text><text xml:space="preserve" font-family="Montserrat-Medium" font-size="40.0" fill="#000000" transform="matrix(1.00, 0.00, 0.00, -1.00, 271.4, 470.9)">i</text><text xml:space="preserve" font-family="Montserrat-Medium" font-size="40.0" fill="#000000" transform="matrix(1.00, 0.00, 0.00, -1.00, 283.0, 471.0)">o</text><text xml:space="preserve" font-family="Montserrat-Medium" font-size="40.0" fill="#000000" transform="matrix(1.00, 0.00, 0.00, -1.00, 308.2, 471.1)">n</text><text xml:space="preserve" font-family="Montserrat-Medium" font-size="40.0" fill="#000000" transform="matrix(1.00, 0.00, 0.00, -1.00, 334.8, 471.2)"> </text><text xml:space="preserve" font-family="Montserrat-Medium" font-size="40.0" fill="#000000" transform="matrix(1.00, 0.00, 0.00, -1.00, 344.9, 471.2)">w</text><text xml:space="preserve" font-family="Montserrat-Medium" font-size="40.0" fill="#000000" transform="matrix(1.00, 0.00, 0.00, -1.00, 381.1, 471.4)">i</text><text xml:space="preserve" font-family="Montserrat-Medium" font-size="40.0" fill="#000000" transform="matrix(1.00, 0.00, 0.00, -1.00, 392.7, 471.4)">t</text><text xml:space="preserve" font-family="Montserrat-Medium" font-size="40.0" fill="#000000" transform="matrix(1.00, 0.00, 0.00, -1.00, 409.3, 471.5)">h</text><text xml:space="preserve" font-family="Montserrat-Medium" font-size="40.0" fill="#000000" transform="matrix(1.00, 0.00, 0.00, -1.00, 436.2, 471.6)">,</text><text xml:space="preserve" font-family="Montserrat-Medium" font-size="40.0" fill="#000000" transform="matrix(1.00, 0.00, 0.00, -1.00, 445.0, 471.7)"> </text><text xml:space="preserve" font-family="Montserrat-Medium" font-size="40.0" fill="#000000" transform="matrix(1.00, 0.00, 0.00, -1.00, 455.1, 471.7)">o</text><text xml:space="preserve" font-family="Montserrat-Medium" font-size="40.0" fill="#000000" transform="matrix(1.00, 0.00, 0.00, -1.00, 480.2, 471.8)">r</text><text xml:space="preserve" font-family="Montserrat-Medium" font-size="40.0" fill="#000000" transform="matrix(1.00, 0.00, 0.00, -1.00, 496.4, 471.9)"> </text><text xml:space="preserve" font-family="Montserrat-Medium" font-size="40.0" fill="#000000" transform="matrix(1.00, 0.00, 0.00, -1.00, 506.4, 471.9)">a</text><text xml:space="preserve" font-family="Montserrat-Medium" font-size="40.0" fill="#000000" transform="matrix(1.00, 0.00, 0.00, -1.00, 530.0, 472.0)">c</text><text xml:space="preserve" font-family="Montserrat-Medium" font-size="40.0" fill="#000000" transform="matrix(1.00, 0.00, 0.00, -1.00, 551.8, 472.1)">c</text><text xml:space="preserve" font-family="Montserrat-Medium" font-size="40.0" fill="#000000" transform="matrix(1.00, 0.00, 0.00, -1.00, 573.6, 472.2)">e</text><text xml:space="preserve" font-family="Montserrat-Medium" font-size="40.0" fill="#000000" transform="matrix(1.00, 0.00, 0.00, -1.00, 597.3, 472.3)">s</text><text xml:space="preserve" font-family="Montserrat-Medium" font-size="40.0" fill="#000000" transform="matrix(1.00, 0.00, 0.00, -1.00, 616.6, 472.4)">s</text><text xml:space="preserve" font-family="Montserrat-Medium" font-size="40.0" fill="#000000" transform="matrix(1.00, 0.00, 0.00, -1.00, 635.8, 472.5)"> </text><text xml:space="preserve" font-family="Montserrat-Medium" font-size="40.0" fill="#000000" transform="matrix(1.00, 0.00, 0.00, -1.00, 645.9, 472.5)">t</text><text xml:space="preserve" font-family="Montserrat-Medium" font-size="40.0" fill="#000000" transform="matrix(1.00, 0.00, 0.00, -1.00, 662.3, 472.6)">o</text><text xml:space="preserve" font-family="Montserrat-Medium" font-size="40.0" fill="#000000" transform="matrix(1.00, 0.00, 0.00, -1.00, 687.4, 472.7)"> </text><text xml:space="preserve" font-family="Montserrat-Medium" font-size="40.0" fill="#000000" transform="matrix(1.00, 0.00, 0.00, -1.00, 697.5, 472.7)">w</text><text xml:space="preserve" font-family="Montserrat-Medium" font-size="40.0" fill="#000000" transform="matrix(1.00, 0.00, 0.00, -1.00, 732.9, 472.9)">e</text><text xml:space="preserve" font-family="Montserrat-Medium" font-size="40.0" fill="#000000" transform="matrix(1.00, 0.00, 0.00, -1.00, 756.6, 473.0)">b</text><text xml:space="preserve" font-family="Montserrat-Medium" font-size="40.0" fill="#000000" transform="matrix(1.00, 0.00, 0.00, -1.00, 783.8, 473.1)">s</text><text xml:space="preserve" font-family="Montserrat-Medium" font-size="40.0" fill="#000000" transform="matrix(1.00, 0.00, 0.00, -1.00, 803.1, 473.2)">i</text><text xml:space="preserve" font-family="Montserrat-Medium" font-size="40.0" fill="#000000" transform="matrix(1.00, 0.00, 0.00, -1.00, 814.8, 473.2)">t</text><text xml:space="preserve" font-family="Montserrat-Medium" font-size="40.0" fill="#000000" transform="matrix(1.00, 0.00, 0.00, -1.00, 831.2, 473.3)">e</text><text xml:space="preserve" font-family="Montserrat-Medium" font-size="40.0" fill="#000000" transform="matrix(1.00, 0.00, 0.00, -1.00, 854.8, 473.4)">s</text><text xml:space="preserve" font-family="Montserrat-Medium" font-size="40.0" fill="#000000" transform="matrix(1.00, 0.00, 0.00, -1.00, 874.1, 473.5)">,</text><text xml:space="preserve" font-family="Montserrat-Medium" font-size="40.0" fill="#000000" transform="matrix(1.00, 0.00, 0.00, -1.00, 883.0, 473.5)"> </text><text xml:space="preserve" font-family="Montserrat-Medium" font-size="40.0" fill="#000000" transform="matrix(1.00, 0.00, 0.00, -1.00, 893.0, 473.6)">b</text><text xml:space="preserve" font-family="Montserrat-Medium" font-size="40.0" fill="#000000" transform="matrix(1.00, 0.00, 0.00, -1.00, 919.5, 473.7)">y</text><text xml:space="preserve" font-family="Montserrat-Medium" font-size="40.0" fill="#000000" transform="matrix(1.00, 0.00, 0.00, -1.00, 941.2, 473.8)"> </text><text xml:space="preserve" font-family="Montserrat-Medium" font-size="40.0" fill="#000000" transform="matrix(1.00, 0.00, 0.00, -1.00, 139.3, 417.4)">p</text><text xml:space="preserve" font-family="Montserrat-Medium" font-size="40.0" fill="#000000" transform="matrix(1.00, 0.00, 0.00, -1.00, 166.5, 417.5)">e</text><text xml:space="preserve" font-family="Montserrat-Medium" font-size="40.0" fill="#000000" transform="matrix(1.00, 0.00, 0.00, -1.00, 190.2, 417.6)">o</text><text xml:space="preserve" font-family="Montserrat-Medium" font-size="40.0" fill="#000000" transform="matrix(1.00, 0.00, 0.00, -1.00, 215.4, 417.7)">p</text><text xml:space="preserve" font-family="Montserrat-Medium" font-size="40.0" fill="#000000" transform="matrix(1.00, 0.00, 0.00, -1.00, 242.6, 417.8)">l</text><text xml:space="preserve" font-family="Montserrat-Medium" font-size="40.0" fill="#000000" transform="matrix(1.00, 0.00, 0.00, -1.00, 254.7, 417.8)">e</text><text xml:space="preserve" font-family="Montserrat-Medium" font-size="40.0" fill="#000000" transform="matrix(1.00, 0.00, 0.00, -1.00, 278.4, 417.9)"> </text><text xml:space="preserve" font-family="Montserrat-Medium" font-size="40.0" fill="#000000" transform="matrix(1.00, 0.00, 0.00, -1.00, 288.4, 418.0)">w</text><text xml:space="preserve" font-family="Montserrat-Medium" font-size="40.0" fill="#000000" transform="matrix(1.00, 0.00, 0.00, -1.00, 324.6, 418.1)">i</text><text xml:space="preserve" font-family="Montserrat-Medium" font-size="40.0" fill="#000000" transform="matrix(1.00, 0.00, 0.00, -1.00, 336.2, 418.2)">t</text><text xml:space="preserve" font-family="Montserrat-Medium" font-size="40.0" fill="#000000" transform="matrix(1.00, 0.00, 0.00, -1.00, 352.8, 418.3)">h</text><text xml:space="preserve" font-family="Montserrat-Medium" font-size="40.0" fill="#000000" transform="matrix(1.00, 0.00, 0.00, -1.00, 379.7, 418.4)"> </text><text xml:space="preserve" font-family="Montserrat-Medium" font-size="40.0" fill="#000000" transform="matrix(1.00, 0.00, 0.00, -1.00, 389.8, 418.4)">d</text><text xml:space="preserve" font-family="Montserrat-Medium" font-size="40.0" fill="#000000" transform="matrix(1.00, 0.00, 0.00, -1.00, 417.1, 418.5)">i</text><text xml:space="preserve" font-family="Montserrat-Medium" font-size="40.0" fill="#000000" transform="matrix(1.00, 0.00, 0.00, -1.00, 428.7, 418.6)">s</text><text xml:space="preserve" font-family="Montserrat-Medium" font-size="40.0" fill="#000000" transform="matrix(1.00, 0.00, 0.00, -1.00, 448.0, 418.7)">a</text><text xml:space="preserve" font-family="Montserrat-Medium" font-size="40.0" fill="#000000" transform="matrix(1.00, 0.00, 0.00, -1.00, 471.6, 418.8)">b</text><text xml:space="preserve" font-family="Montserrat-Medium" font-size="40.0" fill="#000000" transform="matrix(1.00, 0.00, 0.00, -1.00, 498.8, 418.9)">i</text><text xml:space="preserve" font-family="Montserrat-Medium" font-size="40.0" fill="#000000" transform="matrix(1.00, 0.00, 0.00, -1.00, 510.5, 418.9)">l</text><text xml:space="preserve" font-family="Montserrat-Medium" font-size="40.0" fill="#000000" transform="matrix(1.00, 0.00, 0.00, -1.00, 522.6, 419.0)">i</text><text xml:space="preserve" font-family="Montserrat-Medium" font-size="40.0" fill="#000000" transform="matrix(1.00, 0.00, 0.00, -1.00, 534.2, 419.0)">t</text><text xml:space="preserve" font-family="Montserrat-Medium" font-size="40.0" fill="#000000" transform="matrix(1.00, 0.00, 0.00, -1.00, 550.8, 419.1)">i</text><text xml:space="preserve" font-family="Montserrat-Medium" font-size="40.0" fill="#000000" transform="matrix(1.00, 0.00, 0.00, -1.00, 562.4, 419.2)">e</text><text xml:space="preserve" font-family="Montserrat-Medium" font-size="40.0" fill="#000000" transform="matrix(1.00, 0.00, 0.00, -1.00, 586.1, 419.3)">s</text><text xml:space="preserve" font-family="Montserrat-Medium" font-size="40.0" fill="#000000" transform="matrix(1.00, 0.00, 0.00, -1.00, 605.4, 419.4)">.</text><text xml:space="preserve" font-family="Montserrat-Medium" font-size="40.0" fill="#000000" transform="matrix(1.00, 0.00, 0.00, -1.00, 614.4, 419.4)"> </text><text xml:space="preserve" font-family="Montserrat-Medium" font-size="40.0" fill="#000000" transform="matrix(1.00, 0.00, 0.00, -1.00, 624.4, 419.4)">W</text><text xml:space="preserve" font-family="Montserrat-Medium" font-size="40.0" fill="#000000" transform="matrix(1.00, 0.00, 0.00, -1.00, 666.4, 419.6)">h</text><text xml:space="preserve" font-family="Montserrat-Medium" font-size="40.0" fill="#000000" transform="matrix(1.00, 0.00, 0.00, -1.00, 693.2, 419.7)">e</text><text xml:space="preserve" font-family="Montserrat-Medium" font-size="40.0" fill="#000000" transform="matrix(1.00, 0.00, 0.00, -1.00, 716.9, 419.8)">n</text><text xml:space="preserve" font-family="Montserrat-Medium" font-size="40.0" fill="#000000" transform="matrix(1.00, 0.00, 0.00, -1.00, 743.6, 419.9)"> </text><text xml:space="preserve" font-family="Montserrat-Medium" font-size="40.0" fill="#000000" transform="matrix(1.00, 0.00, 0.00, -1.00, 753.6, 420.0)">s</text><text xml:space="preserve" font-family="Montserrat-Medium" font-size="40.0" fill="#000000" transform="matrix(1.00, 0.00, 0.00, -1.00, 772.9, 420.1)">i</text><text xml:space="preserve" font-family="Montserrat-Medium" font-size="40.0" fill="#000000" transform="matrix(1.00, 0.00, 0.00, -1.00, 784.5, 420.1)">t</text><text xml:space="preserve" font-family="Montserrat-Medium" font-size="40.0" fill="#000000" transform="matrix(1.00, 0.00, 0.00, -1.00, 800.9, 420.2)">e</text><text xml:space="preserve" font-family="Montserrat-Medium" font-size="40.0" fill="#000000" transform="matrix(1.00, 0.00, 0.00, -1.00, 824.6, 420.3)">s</text><text xml:space="preserve" font-family="Montserrat-Medium" font-size="40.0" fill="#000000" transform="matrix(1.00, 0.00, 0.00, -1.00, 843.9, 420.4)"> </text><text xml:space="preserve" font-family="Montserrat-Medium" font-size="40.0" fill="#000000" transform="matrix(1.00, 0.00, 0.00, -1.00, 853.9, 420.4)">a</text><text xml:space="preserve" font-family="Montserrat-Medium" font-size="40.0" fill="#000000" transform="matrix(1.00, 0.00, 0.00, -1.00, 877.5, 420.5)">r</text><text xml:space="preserve" font-family="Montserrat-Medium" font-size="40.0" fill="#000000" transform="matrix(1.00, 0.00, 0.00, -1.00, 893.6, 420.6)">e</text><text xml:space="preserve" font-family="Montserrat-Medium" font-size="40.0" fill="#000000" transform="matrix(1.00, 0.00, 0.00, -1.00, 917.3, 420.7)"> </text><text xml:space="preserve" font-family="Montserrat-Medium" font-size="40.0" fill="#000000" transform="matrix(1.00, 0.00, 0.00, -1.00, 110.2, 364.2)">c</text><text xml:space="preserve" font-family="Montserrat-Medium" font-size="40.0" fill="#000000" transform="matrix(1.00, 0.00, 0.00, -1.00, 132.0, 364.3)">o</text><text xml:space="preserve" font-family="Montserrat-Medium" font-size="40.0" fill="#000000" transform="matrix(1.00, 0.00, 0.00, -1.00, 157.2, 364.4)">r</text><text xml:space="preserve" font-family="Montserrat-Medium" font-size="40.0" fill="#000000" transform="matrix(1.00, 0.00, 0.00, -1.00, 173.3, 364.5)">r</text><text xml:space="preserve" font-family="Montserrat-Medium" font-size="40.0" fill="#000000" transform="matrix(1.00, 0.00, 0.00, -1.00, 189.4, 364.6)">e</text><text xml:space="preserve" font-family="Montserrat-Medium" font-size="40.0" fill="#000000" transform="matrix(1.00, 0.00, 0.00, -1.00, 213.1, 364.7)">c</text><text xml:space="preserve" font-family="Montserrat-Medium" font-size="40.0" fill="#000000" transform="matrix(1.00, 0.00, 0.00, -1.00, 235.6, 364.8)">t</text><text xml:space="preserve" font-family="Montserrat-Medium" font-size="40.0" fill="#000000" transform="matrix(1.00, 0.00, 0.00, -1.00, 252.2, 364.8)">l</text><text xml:space="preserve" font-family="Montserrat-Medium" font-size="40.0" fill="#000000" transform="matrix(1.00, 0.00, 0.00, -1.00, 264.3, 364.9)">y</text><text xml:space="preserve" font-family="Montserrat-Medium" font-size="40.0" fill="#000000" transform="matrix(1.00, 0.00, 0.00, -1.00, 286.1, 365.0)"> </text><text xml:space="preserve" font-family="Montserrat-Medium" font-size="40.0" fill="#000000" transform="matrix(1.00, 0.00, 0.00, -1.00, 296.1, 365.0)">d</text><text xml:space="preserve" font-family="Montserrat-Medium" font-size="40.0" fill="#000000" transform="matrix(1.00, 0.00, 0.00, -1.00, 323.4, 365.1)">e</text><text xml:space="preserve" font-family="Montserrat-Medium" font-size="40.0" fill="#000000" transform="matrix(1.00, 0.00, 0.00, -1.00, 347.1, 365.2)">s</text><text xml:space="preserve" font-family="Montserrat-Medium" font-size="40.0" fill="#000000" transform="matrix(1.00, 0.00, 0.00, -1.00, 366.4, 365.3)">i</text><text xml:space="preserve" font-family="Montserrat-Medium" font-size="40.0" fill="#000000" transform="matrix(1.00, 0.00, 0.00, -1.00, 378.0, 365.4)">g</text><text xml:space="preserve" font-family="Montserrat-Medium" font-size="40.0" fill="#000000" transform="matrix(1.00, 0.00, 0.00, -1.00, 403.7, 365.5)">n</text><text xml:space="preserve" font-family="Montserrat-Medium" font-size="40.0" fill="#000000" transform="matrix(1.00, 0.00, 0.00, -1.00, 430.4, 365.6)">e</text><text xml:space="preserve" font-family="Montserrat-Medium" font-size="40.0" fill="#000000" transform="matrix(1.00, 0.00, 0.00, -1.00, 454.0, 365.7)">d</text><text xml:space="preserve" font-family="Montserrat-Medium" font-size="40.0" fill="#000000" transform="matrix(1.00, 0.00, 0.00, -1.00, 481.4, 365.8)">,</text><text xml:space="preserve" font-family="Montserrat-Medium" font-size="40.0" fill="#000000" transform="matrix(1.00, 0.00, 0.00, -1.00, 490.2, 365.9)"> </text><text xml:space="preserve" font-family="Montserrat-Medium" font-size="40.0" fill="#000000" transform="matrix(1.00, 0.00, 0.00, -1.00, 500.2, 365.9)">d</text><text xml:space="preserve" font-family="Montserrat-Medium" font-size="40.0" fill="#000000" transform="matrix(1.00, 0.00, 0.00, -1.00, 527.6, 366.0)">e</text><text xml:space="preserve" font-family="Montserrat-Medium" font-size="40.0" fill="#000000" transform="matrix(1.00, 0.00, 0.00, -1.00, 550.5, 366.1)">v</text><text xml:space="preserve" font-family="Montserrat-Medium" font-size="40.0" fill="#000000" transform="matrix(1.00, 0.00, 0.00, -1.00, 571.2, 366.2)">e</text><text xml:space="preserve" font-family="Montserrat-Medium" font-size="40.0" fill="#000000" transform="matrix(1.00, 0.00, 0.00, -1.00, 594.9, 366.3)">l</text><text xml:space="preserve" font-family="Montserrat-Medium" font-size="40.0" fill="#000000" transform="matrix(1.00, 0.00, 0.00, -1.00, 607.0, 366.4)">o</text><text xml:space="preserve" font-family="Montserrat-Medium" font-size="40.0" fill="#000000" transform="matrix(1.00, 0.00, 0.00, -1.00, 632.1, 366.5)">p</text><text xml:space="preserve" font-family="Montserrat-Medium" font-size="40.0" fill="#000000" transform="matrix(1.00, 0.00, 0.00, -1.00, 659.4, 366.6)">e</text><text xml:space="preserve" font-family="Montserrat-Medium" font-size="40.0" fill="#000000" transform="matrix(1.00, 0.00, 0.00, -1.00, 683.0, 366.7)">d</text><text xml:space="preserve" font-family="Montserrat-Medium" font-size="40.0" fill="#000000" transform="matrix(1.00, 0.00, 0.00, -1.00, 710.4, 366.8)"> </text><text xml:space="preserve" font-family="Montserrat-Medium" font-size="40.0" fill="#000000" transform="matrix(1.00, 0.00, 0.00, -1.00, 720.4, 366.8)">a</text><text xml:space="preserve" font-family="Montserrat-Medium" font-size="40.0" fill="#000000" transform="matrix(1.00, 0.00, 0.00, -1.00, 744.0, 366.9)">n</text><text xml:space="preserve" font-family="Montserrat-Medium" font-size="40.0" fill="#000000" transform="matrix(1.00, 0.00, 0.00, -1.00, 770.6, 367.1)">d</text><text xml:space="preserve" font-family="Montserrat-Medium" font-size="40.0" fill="#000000" transform="matrix(1.00, 0.00, 0.00, -1.00, 797.9, 367.2)"> </text><text xml:space="preserve" font-family="Montserrat-Medium" font-size="40.0" fill="#000000" transform="matrix(1.00, 0.00, 0.00, -1.00, 808.0, 367.2)">e</text><text xml:space="preserve" font-family="Montserrat-Medium" font-size="40.0" fill="#000000" transform="matrix(1.00, 0.00, 0.00, -1.00, 831.7, 367.3)">d</text><text xml:space="preserve" font-family="Montserrat-Medium" font-size="40.0" fill="#000000" transform="matrix(1.00, 0.00, 0.00, -1.00, 859.0, 367.4)">i</text><text xml:space="preserve" font-family="Montserrat-Medium" font-size="40.0" fill="#000000" transform="matrix(1.00, 0.00, 0.00, -1.00, 870.6, 367.5)">t</text><text xml:space="preserve" font-family="Montserrat-Medium" font-size="40.0" fill="#000000" transform="matrix(1.00, 0.00, 0.00, -1.00, 887.0, 367.6)">e</text><text xml:space="preserve" font-family="Montserrat-Medium" font-size="40.0" fill="#000000" transform="matrix(1.00, 0.00, 0.00, -1.00, 910.7, 367.7)">d</text><text xml:space="preserve" font-family="Montserrat-Medium" font-size="40.0" fill="#000000" transform="matrix(1.00, 0.00, 0.00, -1.00, 938.0, 367.8)">,</text><text xml:space="preserve" font-family="Montserrat-Medium" font-size="40.0" fill="#000000" transform="matrix(1.00, 0.00, 0.00, -1.00, 946.9, 367.8)"> </text><text xml:space="preserve" font-family="Montserrat-SemiBold" font-weight="bold" font-size="40.0" fill="#000000" transform="matrix(1.00, 0.00, 0.00, -1.00, 109.3, 311.2)">a</text><text xml:space="preserve" font-family="Montserrat-SemiBold" font-weight="bold" font-size="40.0" fill="#000000" transform="matrix(1.00, 0.00, 0.00, -1.00, 133.2, 311.3)">l</text><text xml:space="preserve" font-family="Montserrat-SemiBold" font-weight="bold" font-size="40.0" fill="#000000" transform="matrix(1.00, 0.00, 0.00, -1.00, 145.7, 311.4)">l</text><text xml:space="preserve" font-family="Montserrat-SemiBold" font-weight="bold" font-size="40.0" fill="#000000" transform="matrix(1.00, 0.00, 0.00, -1.00, 158.2, 311.4)"> </text><text xml:space="preserve" font-family="Montserrat-SemiBold" font-weight="bold" font-size="40.0" fill="#000000" transform="matrix(1.00, 0.00, 0.00, -1.00, 167.9, 311.5)">u</text><text xml:space="preserve" font-family="Montserrat-SemiBold" font-weight="bold" font-size="40.0" fill="#000000" transform="matrix(1.00, 0.00, 0.00, -1.00, 194.3, 311.6)">s</text><text xml:space="preserve" font-family="Montserrat-SemiBold" font-weight="bold" font-size="40.0" fill="#000000" transform="matrix(1.00, 0.00, 0.00, -1.00, 214.2, 311.7)">e</text><text xml:space="preserve" font-family="Montserrat-SemiBold" font-weight="bold" font-size="40.0" fill="#000000" transform="matrix(1.00, 0.00, 0.00, -1.00, 238.1, 311.8)">r</text><text xml:space="preserve" font-family="Montserrat-SemiBold" font-weight="bold" font-size="40.0" fill="#000000" transform="matrix(1.00, 0.00, 0.00, -1.00, 254.7, 311.8)">s</text><text xml:space="preserve" font-family="Montserrat-SemiBold" font-weight="bold" font-size="40.0" fill="#000000" transform="matrix(1.00, 0.00, 0.00, -1.00, 274.7, 311.9)"> </text><text xml:space="preserve" font-family="Montserrat-SemiBold" font-weight="bold" font-size="40.0" fill="#000000" transform="matrix(1.00, 0.00, 0.00, -1.00, 284.3, 312.0)">h</text><text xml:space="preserve" font-family="Montserrat-SemiBold" font-weight="bold" font-size="40.0" fill="#000000" transform="matrix(1.00, 0.00, 0.00, -1.00, 311.3, 312.1)">a</text><text xml:space="preserve" font-family="Montserrat-SemiBold" font-weight="bold" font-size="40.0" fill="#000000" transform="matrix(1.00, 0.00, 0.00, -1.00, 334.8, 312.2)">v</text><text xml:space="preserve" font-family="Montserrat-SemiBold" font-weight="bold" font-size="40.0" fill="#000000" transform="matrix(1.00, 0.00, 0.00, -1.00, 356.3, 312.3)">e</text><text xml:space="preserve" font-family="Montserrat-SemiBold" font-weight="bold" font-size="40.0" fill="#000000" transform="matrix(1.00, 0.00, 0.00, -1.00, 380.2, 312.4)"> </text><text xml:space="preserve" font-family="Montserrat-SemiBold" font-weight="bold" font-size="40.0" fill="#000000" transform="matrix(1.00, 0.00, 0.00, -1.00, 389.8, 312.4)">e</text><text xml:space="preserve" font-family="Montserrat-SemiBold" font-weight="bold" font-size="40.0" fill="#000000" transform="matrix(1.00, 0.00, 0.00, -1.00, 413.7, 312.5)">q</text><text xml:space="preserve" font-family="Montserrat-SemiBold" font-weight="bold" font-size="40.0" fill="#000000" transform="matrix(1.00, 0.00, 0.00, -1.00, 441.1, 312.6)">u</text><text xml:space="preserve" font-family="Montserrat-SemiBold" font-weight="bold" font-size="40.0" fill="#000000" transform="matrix(1.00, 0.00, 0.00, -1.00, 467.5, 312.8)">a</text><text xml:space="preserve" font-family="Montserrat-SemiBold" font-weight="bold" font-size="40.0" fill="#000000" transform="matrix(1.00, 0.00, 0.00, -1.00, 491.3, 312.9)">l</text><text xml:space="preserve" font-family="Montserrat-SemiBold" font-weight="bold" font-size="40.0" fill="#000000" transform="matrix(1.00, 0.00, 0.00, -1.00, 503.9, 312.9)"> </text><text xml:space="preserve" font-family="Montserrat-SemiBold" font-weight="bold" font-size="40.0" fill="#000000" transform="matrix(1.00, 0.00, 0.00, -1.00, 513.5, 313.0)">a</text><text xml:space="preserve" font-family="Montserrat-SemiBold" font-weight="bold" font-size="40.0" fill="#000000" transform="matrix(1.00, 0.00, 0.00, -1.00, 537.3, 313.1)">c</text><text xml:space="preserve" font-family="Montserrat-SemiBold" font-weight="bold" font-size="40.0" fill="#000000" transform="matrix(1.00, 0.00, 0.00, -1.00, 559.1, 313.2)">c</text><text xml:space="preserve" font-family="Montserrat-SemiBold" font-weight="bold" font-size="40.0" fill="#000000" transform="matrix(1.00, 0.00, 0.00, -1.00, 580.9, 313.2)">e</text><text xml:space="preserve" font-family="Montserrat-SemiBold" font-weight="bold" font-size="40.0" fill="#000000" transform="matrix(1.00, 0.00, 0.00, -1.00, 604.8, 313.3)">s</text><text xml:space="preserve" font-family="Montserrat-SemiBold" font-weight="bold" font-size="40.0" fill="#000000" transform="matrix(1.00, 0.00, 0.00, -1.00, 624.8, 313.4)">s</text><text xml:space="preserve" font-family="Montserrat-SemiBold" font-weight="bold" font-size="40.0" fill="#000000" transform="matrix(1.00, 0.00, 0.00, -1.00, 644.7, 313.5)"> </text><text xml:space="preserve" font-family="Montserrat-SemiBold" font-weight="bold" font-size="40.0" fill="#000000" transform="matrix(1.00, 0.00, 0.00, -1.00, 654.4, 313.6)">t</text><text xml:space="preserve" font-family="Montserrat-SemiBold" font-weight="bold" font-size="40.0" fill="#000000" transform="matrix(1.00, 0.00, 0.00, -1.00, 671.3, 313.6)">o</text><text xml:space="preserve" font-family="Montserrat-SemiBold" font-weight="bold" font-size="40.0" fill="#000000" transform="matrix(1.00, 0.00, 0.00, -1.00, 696.6, 313.7)"> </text><text xml:space="preserve" font-family="Montserrat-SemiBold" font-weight="bold" font-size="40.0" fill="#000000" transform="matrix(1.00, 0.00, 0.00, -1.00, 706.2, 313.8)">i</text><text xml:space="preserve" font-family="Montserrat-SemiBold" font-weight="bold" font-size="40.0" fill="#000000" transform="matrix(1.00, 0.00, 0.00, -1.00, 718.3, 313.8)">n</text><text xml:space="preserve" font-family="Montserrat-SemiBold" font-weight="bold" font-size="40.0" fill="#000000" transform="matrix(1.00, 0.00, 0.00, -1.00, 745.1, 313.9)">f</text><text xml:space="preserve" font-family="Montserrat-SemiBold" font-weight="bold" font-size="40.0" fill="#000000" transform="matrix(1.00, 0.00, 0.00, -1.00, 759.6, 314.0)">o</text><text xml:space="preserve" font-family="Montserrat-SemiBold" font-weight="bold" font-size="40.0" fill="#000000" transform="matrix(1.00, 0.00, 0.00, -1.00, 784.9, 314.1)">r</text><text xml:space="preserve" font-family="Montserrat-SemiBold" font-weight="bold" font-size="40.0" fill="#000000" transform="matrix(1.00, 0.00, 0.00, -1.00, 801.5, 314.2)">m</text><text xml:space="preserve" font-family="Montserrat-SemiBold" font-weight="bold" font-size="40.0" fill="#000000" transform="matrix(1.00, 0.00, 0.00, -1.00, 843.1, 314.4)">a</text><text xml:space="preserve" font-family="Montserrat-SemiBold" font-weight="bold" font-size="40.0" fill="#000000" transform="matrix(1.00, 0.00, 0.00, -1.00, 866.9, 314.5)">t</text><text xml:space="preserve" font-family="Montserrat-SemiBold" font-weight="bold" font-size="40.0" fill="#000000" transform="matrix(1.00, 0.00, 0.00, -1.00, 884.0, 314.5)">i</text><text xml:space="preserve" font-family="Montserrat-SemiBold" font-weight="bold" font-size="40.0" fill="#000000" transform="matrix(1.00, 0.00, 0.00, -1.00, 896.1, 314.6)">o</text><text xml:space="preserve" font-family="Montserrat-SemiBold" font-weight="bold" font-size="40.0" fill="#000000" transform="matrix(1.00, 0.00, 0.00, -1.00, 921.4, 314.7)">n</text><text xml:space="preserve" font-family="Montserrat-SemiBold" font-weight="bold" font-size="40.0" fill="#000000" transform="matrix(1.00, 0.00, 0.00, -1.00, 948.2, 314.8)"> </text><text xml:space="preserve" font-family="Montserrat-SemiBold" font-weight="bold" font-size="40.0" fill="#000000" transform="matrix(1.00, 0.00, 0.00, -1.00, 342.5, 259.2)">a</text><text xml:space="preserve" font-family="Montserrat-SemiBold" font-weight="bold" font-size="40.0" fill="#000000" transform="matrix(1.00, 0.00, 0.00, -1.00, 366.4, 259.3)">n</text><text xml:space="preserve" font-family="Montserrat-SemiBold" font-weight="bold" font-size="40.0" fill="#000000" transform="matrix(1.00, 0.00, 0.00, -1.00, 393.2, 259.4)">d</text><text xml:space="preserve" font-family="Montserrat-SemiBold" font-weight="bold" font-size="40.0" fill="#000000" transform="matrix(1.00, 0.00, 0.00, -1.00, 420.6, 259.6)"> </text><text xml:space="preserve" font-family="Montserrat-SemiBold" font-weight="bold" font-size="40.0" fill="#000000" transform="matrix(1.00, 0.00, 0.00, -1.00, 430.2, 259.6)">f</text><text xml:space="preserve" font-family="Montserrat-SemiBold" font-weight="bold" font-size="40.0" fill="#000000" transform="matrix(1.00, 0.00, 0.00, -1.00, 445.6, 259.7)">u</text><text xml:space="preserve" font-family="Montserrat-SemiBold" font-weight="bold" font-size="40.0" fill="#000000" transform="matrix(1.00, 0.00, 0.00, -1.00, 472.0, 259.8)">n</text><text xml:space="preserve" font-family="Montserrat-SemiBold" font-weight="bold" font-size="40.0" fill="#000000" transform="matrix(1.00, 0.00, 0.00, -1.00, 498.8, 259.9)">c</text><text xml:space="preserve" font-family="Montserrat-SemiBold" font-weight="bold" font-size="40.0" fill="#000000" transform="matrix(1.00, 0.00, 0.00, -1.00, 521.3, 260.0)">t</text><text xml:space="preserve" font-family="Montserrat-SemiBold" font-weight="bold" font-size="40.0" fill="#000000" transform="matrix(1.00, 0.00, 0.00, -1.00, 538.4, 260.1)">i</text><text xml:space="preserve" font-family="Montserrat-SemiBold" font-weight="bold" font-size="40.0" fill="#000000" transform="matrix(1.00, 0.00, 0.00, -1.00, 550.5, 260.1)">o</text><text xml:space="preserve" font-family="Montserrat-SemiBold" font-weight="bold" font-size="40.0" fill="#000000" transform="matrix(1.00, 0.00, 0.00, -1.00, 575.8, 260.2)">n</text><text xml:space="preserve" font-family="Montserrat-SemiBold" font-weight="bold" font-size="40.0" fill="#000000" transform="matrix(1.00, 0.00, 0.00, -1.00, 602.6, 260.3)">a</text><text xml:space="preserve" font-family="Montserrat-SemiBold" font-weight="bold" font-size="40.0" fill="#000000" transform="matrix(1.00, 0.00, 0.00, -1.00, 626.4, 260.4)">l</text><text xml:space="preserve" font-family="Montserrat-SemiBold" font-weight="bold" font-size="40.0" fill="#000000" transform="matrix(1.00, 0.00, 0.00, -1.00, 638.9, 260.5)">i</text><text xml:space="preserve" font-family="Montserrat-SemiBold" font-weight="bold" font-size="40.0" fill="#000000" transform="matrix(1.00, 0.00, 0.00, -1.00, 651.0, 260.5)">t</text><text xml:space="preserve" font-family="Montserrat-SemiBold" font-weight="bold" font-size="40.0" fill="#000000" transform="matrix(1.00, 0.00, 0.00, -1.00, 668.1, 260.6)">y</text><text xml:space="preserve" font-family="Montserrat-SemiBold" font-weight="bold" font-size="40.0" fill="#000000" transform="matrix(1.00, 0.00, 0.00, -1.00, 689.8, 260.7)">.</text><text xml:space="preserve" font-family="Montserrat-SemiBold" font-weight="bold" font-size="40.0" fill="#000000" transform="matrix(1.00, 0.00, 0.00, -1.00, 699.2, 260.8)">”</text><text xml:space="preserve" font-family="Montserrat-SemiBold" font-weight="bold" font-size="40.0" fill="#000000" transform="matrix(1.00, 0.00, 0.00, -1.00, 715.4, 260.8)"> </text><text xml:space="preserve" font-family="Montserrat-SemiBold" font-weight="bold" font-size="40.0" fill="#000000" transform="matrix(1.00, 0.00, 0.00, -1.00, 725.1, 260.9)"> </text><text xml:space="preserve" font-family="Montserrat-Regular" font-size="40.0" fill="#000000" transform="matrix(1.00, 0.00, 0.00, -1.00, 416.5, 153.5)">-</text><text xml:space="preserve" font-family="Montserrat-Regular" font-size="40.0" fill="#000000" transform="matrix(1.00, 0.00, 0.00, -1.00, 431.3, 153.6)"> </text><text xml:space="preserve" font-family="Montserrat-Regular" font-size="40.0" fill="#000000" transform="matrix(1.00, 0.00, 0.00, -1.00, 441.6, 153.6)">W</text><text xml:space="preserve" font-family="Montserrat-Regular" font-size="40.0" fill="#000000" transform="matrix(1.00, 0.00, 0.00, -1.00, 483.0, 153.8)">i</text><text xml:space="preserve" font-family="Montserrat-Regular" font-size="40.0" fill="#000000" transform="matrix(1.00, 0.00, 0.00, -1.00, 494.4, 153.9)">k</text><text xml:space="preserve" font-family="Montserrat-Regular" font-size="40.0" fill="#000000" transform="matrix(1.00, 0.00, 0.00, -1.00, 518.2, 154.0)">i</text><text xml:space="preserve" font-family="Montserrat-Regular" font-size="40.0" fill="#000000" transform="matrix(1.00, 0.00, 0.00, -1.00, 529.5, 154.0)">p</text><text xml:space="preserve" font-family="Montserrat-Regular" font-size="40.0" fill="#000000" transform="matrix(1.00, 0.00, 0.00, -1.00, 556.7, 154.1)">e</text><text xml:space="preserve" font-family="Montserrat-Regular" font-size="40.0" fill="#000000" transform="matrix(1.00, 0.00, 0.00, -1.00, 580.3, 154.2)">d</text><text xml:space="preserve" font-family="Montserrat-Regular" font-size="40.0" fill="#000000" transform="matrix(1.00, 0.00, 0.00, -1.00, 607.5, 154.4)">i</text><text xml:space="preserve" font-family="Montserrat-Regular" font-size="40.0" fill="#000000" transform="matrix(1.00, 0.00, 0.00, -1.00, 618.9, 154.4)">a</text></g></svg>