<?xml version="1.0" encoding="UTF-8" standalone="no"?><svg xmlns="http://www.w3.org/2000/svg" xmlns:xlink="http://www.w3.org/1999/xlink" clip-rule="evenodd" stroke-miterlimit="4.00" viewBox="0 0 1024 768"><desc>SVG generated by Keynote</desc><defs></defs><g transform="matrix(1.00, 0.00, -0.00, -1.00, 0.0, 768.0)"><path d="M 0.0 768.0 L 1024.0 768.0 L 1024.0 0.0 L 0.0 0.0 Z M 0.0 768.0 " fill="#FFFFFF"></path><text xml:space="preserve" font-family="Montserrat-SemiBold" font-weight="bold" font-size="70.0" fill="#000000" transform="matrix(1.00, 0.00, -0.00, -1.00, 28.0, 581.0)">M</text><text xml:space="preserve" font-family="Montserrat-SemiBold" font-weight="bold" font-size="70.0" fill="#000000" transform="matrix(1.00, 0.00, -0.00, -1.00, 92.1, 581.0)">A</text><text xml:space="preserve" font-family="Montserrat-SemiBold" font-weight="bold" font-size="70.0" fill="#000000" transform="matrix(1.00, 0.00, -0.00, -1.00, 145.2, 581.0)">I</text><text xml:space="preserve" font-family="Montserrat-SemiBold" font-weight="bold" font-size="70.0" fill="#000000" transform="matrix(1.00, 0.00, -0.00, -1.00, 167.1, 581.0)">N</text><text xml:space="preserve" font-family="Montserrat-SemiBold" font-weight="bold" font-size="70.0" fill="#000000" transform="matrix(1.00, 0.00, -0.00, -1.00, 222.2, 581.0)"> </text><text xml:space="preserve" font-family="Montserrat-SemiBold" font-weight="bold" font-size="70.0" fill="#000000" transform="matrix(1.00, 0.00, -0.00, -1.00, 239.1, 581.0)">C</text><text xml:space="preserve" font-family="Montserrat-SemiBold" font-weight="bold" font-size="70.0" fill="#000000" transform="matrix(1.00, 0.00, -0.00, -1.00, 286.7, 581.0)">O</text><text xml:space="preserve" font-family="Montserrat-SemiBold" font-weight="bold" font-size="70.0" fill="#000000" transform="matrix(1.00, 0.00, -0.00, -1.00, 343.1, 581.0)">N</text><text xml:space="preserve" font-family="Montserrat-SemiBold" font-weight="bold" font-size="70.0" fill="#000000" transform="matrix(1.00, 0.00, -0.00, -1.00, 398.3, 581.0)">S</text><text xml:space="preserve" font-family="Montserrat-SemiBold" font-weight="bold" font-size="70.0" fill="#000000" transform="matrix(1.00, 0.00, -0.00, -1.00, 442.9, 581.0)">I</text><text xml:space="preserve" font-family="Montserrat-SemiBold" font-weight="bold" font-size="70.0" fill="#000000" transform="matrix(1.00, 0.00, -0.00, -1.00, 464.8, 581.0)">D</text><text xml:space="preserve" font-family="Montserrat-SemiBold" font-weight="bold" font-size="70.0" fill="#000000" transform="matrix(1.00, 0.00, -0.00, -1.00, 518.6, 581.0)">E</text><text xml:space="preserve" font-family="Montserrat-SemiBold" font-weight="bold" font-size="70.0" fill="#000000" transform="matrix(1.00, 0.00, -0.00, -1.00, 565.4, 581.0)">R</text><text xml:space="preserve" font-family="Montserrat-SemiBold" font-weight="bold" font-size="70.0" fill="#000000" transform="matrix(1.00, 0.00, -0.00, -1.00, 616.1, 581.0)">A</text><text xml:space="preserve" font-family="Montserrat-SemiBold" font-weight="bold" font-size="70.0" fill="#000000" transform="matrix(1.00, 0.00, -0.00, -1.00, 664.1, 581.0)">T</text><text xml:space="preserve" font-family="Montserrat-SemiBold" font-weight="bold" font-size="70.0" fill="#000000" transform="matrix(1.00, 0.00, -0.00, -1.00, 706.2, 581.0)">I</text><text xml:space="preserve" font-family="Montserrat-SemiBold" font-weight="bold" font-size="70.0" fill="#000000" transform="matrix(1.00, 0.00, -0.00, -1.00, 728.1, 581.0)">O</text><text xml:space="preserve" font-family="Montserrat-SemiBold" font-weight="bold" font-size="70.0" fill="#000000" transform="matrix(1.00, 0.00, -0.00, -1.00, 784.5, 581.0)">N</text><text xml:space="preserve" font-family="Montserrat-SemiBold" font-weight="bold" font-size="70.0" fill="#000000" transform="matrix(1.00, 0.00, -0.00, -1.00, 839.6, 581.0)">S</text><text xml:space="preserve" font-family="Montserrat-SemiBold" font-weight="bold" font-size="56.0" fill="#000000" transform="matrix(1.00, 0.00, -0.00, -1.00, 214.0, 297.0)">K</text><text xml:space="preserve" font-family="Montserrat-SemiBold" font-weight="bold" font-size="56.0" fill="#000000" transform="matrix(1.00, 0.00, -0.00, -1.00, 255.3, 297.0)">e</text><text xml:space="preserve" font-family="Montserrat-SemiBold" font-weight="bold" font-size="56.0" fill="#000000" transform="matrix(1.00, 0.00, -0.00, -1.00, 287.7, 297.0)">y</text><text xml:space="preserve" font-family="Montserrat-SemiBold" font-weight="bold" font-size="56.0" fill="#000000" transform="matrix(1.00, 0.00, -0.00, -1.00, 319.3, 297.0)">b</text><text xml:space="preserve" font-family="Montserrat-SemiBold" font-weight="bold" font-size="56.0" fill="#000000" transform="matrix(1.00, 0.00, -0.00, -1.00, 357.5, 297.0)">o</text><text xml:space="preserve" font-family="Montserrat-SemiBold" font-weight="bold" font-size="56.0" fill="#000000" transform="matrix(1.00, 0.00, -0.00, -1.00, 393.0, 297.0)">a</text><text xml:space="preserve" font-family="Montserrat-SemiBold" font-weight="bold" font-size="56.0" fill="#000000" transform="matrix(1.00, 0.00, -0.00, -1.00, 426.4, 297.0)">r</text><text xml:space="preserve" font-family="Montserrat-SemiBold" font-weight="bold" font-size="56.0" fill="#000000" transform="matrix(1.00, 0.00, -0.00, -1.00, 449.6, 297.0)">d</text><text xml:space="preserve" font-family="Montserrat-SemiBold" font-weight="bold" font-size="56.0" fill="#000000" transform="matrix(1.00, 0.00, -0.00, -1.00, 488.0, 297.0)"> </text><text xml:space="preserve" font-family="Montserrat-SemiBold" font-weight="bold" font-size="56.0" fill="#000000" transform="matrix(1.00, 0.00, -0.00, -1.00, 501.5, 297.0)">N</text><text xml:space="preserve" font-family="Montserrat-SemiBold" font-weight="bold" font-size="56.0" fill="#000000" transform="matrix(1.00, 0.00, -0.00, -1.00, 545.6, 297.0)">a</text><text xml:space="preserve" font-family="Montserrat-SemiBold" font-weight="bold" font-size="56.0" fill="#000000" transform="matrix(1.00, 0.00, -0.00, -1.00, 578.4, 297.0)">v</text><text xml:space="preserve" font-family="Montserrat-SemiBold" font-weight="bold" font-size="56.0" fill="#000000" transform="matrix(1.00, 0.00, -0.00, -1.00, 609.6, 297.0)">i</text><text xml:space="preserve" font-family="Montserrat-SemiBold" font-weight="bold" font-size="56.0" fill="#000000" transform="matrix(1.00, 0.00, -0.00, -1.00, 626.5, 297.0)">g</text><text xml:space="preserve" font-family="Montserrat-SemiBold" font-weight="bold" font-size="56.0" fill="#000000" transform="matrix(1.00, 0.00, -0.00, -1.00, 662.6, 297.0)">a</text><text xml:space="preserve" font-family="Montserrat-SemiBold" font-weight="bold" font-size="56.0" fill="#000000" transform="matrix(1.00, 0.00, -0.00, -1.00, 696.0, 297.0)">t</text><text xml:space="preserve" font-family="Montserrat-SemiBold" font-weight="bold" font-size="56.0" fill="#000000" transform="matrix(1.00, 0.00, -0.00, -1.00, 719.8, 297.0)">i</text><text xml:space="preserve" font-family="Montserrat-SemiBold" font-weight="bold" font-size="56.0" fill="#000000" transform="matrix(1.00, 0.00, -0.00, -1.00, 736.8, 297.0)">o</text><text xml:space="preserve" font-family="Montserrat-SemiBold" font-weight="bold" font-size="56.0" fill="#000000" transform="matrix(1.00, 0.00, -0.00, -1.00, 772.2, 297.0)">n</text><path d="M 0.0 696.0 L 564.4 696.0 L 564.4 672.2 L 0.0 672.2 Z M 0.0 696.0 " fill="#E963EC"></path></g></svg>